<svg height="400" viewBox="0 0 400 400" width="400" xmlns="http://www.w3.org/2000/svg"><g fill="none" fill-rule="evenodd" transform="translate(48 31)"><path d="m203.995834 113.47023c4.243654-12.46888-.196572-23.4305402-.196572-23.4305402 3.179849-26.3459677-6.937854-34.7419354-6.937854-34.7419354-10.984934-4.0532259-17.27005-1.2883468-43.939736 2.8951612-23.993409 3.7637097-34.111111-11.0016129-34.111111-11.0016129-25.7278719 10.7120968-16.766478 45.1645162-16.766478 45.1645162-2.312618 9.8435481-1.154575 21.1873691-1.154575 21.1873691l-5.4791692.815857s-3.1948814-8.685484-2.6167269-23.7403229c0 0-9.2504708-30.6887097 15.0320151-49.2177419 0 0 2.312618-8.1064517 11.563088-11.0016129 0 0-1.734463-9.2645162 6.359699-14.4758065 0 0 1.734463 5.2112903 5.20339 6.3693548 0 0 0-9.8435483 6.359699-13.89677415 0 0 1.156308 5.21129035 4.625235 6.94838705 0 0 .578154-8.68548382 5.781544-12.15967737 0 0 .578155 4.63225806 3.468927 6.36935484 0 0 1.734463-8.68548387 8.672316-9.26451613 0 0-.578154 10.42258066 8.094162 19.10806456 8.672317 8.6854838 29.196799 10.7120967 33.24388 26.925 19.65725 10.4225806 12.145868 44.2959677 12.145868 44.2959677.578154 15.0548389-2.615571 23.7403229-2.615571 23.7403229z" fill="#000"/><path d="m146.417493 159.812903s-8.672317 1.158065-15.032015 6.369355c-3.712908 3.042815-4.27314 7.26975-4.095646 10.261031.090192 1.523434 2.2178 1.760258 2.646791.295306.113896-.389689.213917-.81933.292546-1.291821 0 0 3.468926-1.737097 4.625235-5.790322 0 0 2.890772 1.737096 5.20339-2.316129 0 0 2.312618 2.316129 5.20339-.579033 0 0 2.890772 2.895162 5.20339-.579032 2.312617-3.474193 1.734463-6.369355.578154-8.106452-1.156309-1.737096-4.047081-.579032-4.625235 1.737097" fill="#000"/><path d="m160.004122 159.491135s8.672316 1.158065 15.032015 6.369355c3.713486 3.042814 4.273139 7.26975 4.095646 10.26103-.090192 1.524013-2.217223 1.760259-2.646791.295307-.113897-.389689-.213917-.819331-.292546-1.291821 0 0-3.468927-1.737097-4.625236-5.790323 0 0-2.890772 1.737097-5.20339-2.316129 0 0-2.312617 2.316129-5.203389-.579032 0 0-2.890773 2.895161-5.20339-.579032-2.312618-3.474194-1.734464-6.369355-.578155-8.106452s4.047081-.579032 4.625236 1.737097" fill="#000"/><path d="m209.228825 133.503415s-8.532981 16.176424-8.532981 42.811908c0 0-5.266987 13.081496-15.156318 23.531292-1.517655 1.60334-4.211855.541395-4.211855-1.668192 0-1.963499-1.32513-3.759078-3.250962-4.126763-2.146688-.409376-4.067895.880708-4.657612 2.762563-.420319-.148233-.870701-.232771-1.341897-.232771-1.812514 0-3.345779 1.193385-3.861493 2.838416-.674706-.237403-1.426307-.312099-2.216644-.134915-1.885362.422115-3.172334 2.18411-3.172334 4.119236v7.074037c0 2.078726-1.682429 3.763709-3.758003 3.763709v-2.605645c0-3.098401-2.558912-5.591135-5.675164-5.490963-3.115674-.100172-5.675164 2.392562-5.675164 5.490963v2.605645c-2.075574 0-3.758004-1.684983-3.758004-3.763709v-7.074037c0-1.935126-1.286393-3.697121-3.171755-4.119236-.790915-.177184-1.541938-.102488-2.216644.134915-.515714-1.645031-2.049558-2.838416-3.862072-2.838416-.471196 0-.921.084538-1.341318.232771-.589717-1.881855-2.510925-3.171939-4.65819-2.762563-1.925254.367685-3.250962 2.163264-3.250962 4.126763 0 2.209587-2.6942 3.271532-4.211855 1.668192-9.889332-10.449796-15.156319-23.531292-15.156319-23.531292 0-26.635484-8.5329809-42.811908-8.5329809-42.811908s-2.7410301 36.153037 4.7749779 51.786908c7.516007 15.633871 26.016949 45.164516 49.72128 44.585483h2.678011c23.704332.579033 42.205273-28.951612 49.721281-44.585483s4.774977-51.786908 4.774977-51.786908" fill="#000"/><path d="m146.272954 182.395161v11.001613s2.511503 1.003463 4.257529-.73595c.648111 1.13085 1.862814 1.894015 3.258479 1.894015 1.395664 0 2.610945-.763165 3.259056-1.894015 1.745448 1.739413 4.256951.73595 4.256951.73595v-11.001613c-8.672316 3.474194-15.032015 0-15.032015 0" fill="#000"/><g stroke="#000" stroke-linecap="round" stroke-linejoin="round"><path d="m98.2861367 114.09987s20.6528323-5.111697 45.1706273-1.821636c1.928723.258828 3.254431 2.059618 2.948587 3.983742-.600702 3.777607-1.899815 10.1597-4.506713 16.740981-.434772 1.097845-1.394509 1.900963-2.551396 2.128523-5.060586.995935-19.810461 3.364756-34.279354.576716-1.269049-.244931-2.303945-1.168487-2.676855-2.408196-.990957-3.295272-2.9306646-10.423159-4.1048963-19.20013z" stroke-width="2.890772"/><path d="m206.979169 114.09987s-20.652833-5.111697-45.170049-1.821636c-1.928723.258828-3.25501 2.059618-2.949166 3.983742.600702 3.777607 1.899815 10.1597 4.506714 16.740981.434772 1.097845 1.395086 1.900963 2.551395 2.128523 5.060586.995935 19.810462 3.364756 34.279354.576716 1.269049-.244931 2.303946-1.168487 2.676855-2.408196.991535-3.295272 2.931243-10.423159 4.104897-19.20013z" stroke-width="2.890772"/><path d="m146.562031 116.095968s6.359699-2.316129 12.141243 0" stroke-width="2.890772"/><path d="m148.874649 118.991129s-6.359699 10.422581-6.937853 25.477419" stroke-width="2.890772"/><path d="m141.585336 152.575c.990956 1.323089 2.810408 1.700618 4.244231.880129l1.537313-.880129s5.781544 6.369355 10.984934 0l1.456371.911397c1.952428 1.222337 4.550075.242035 5.172748-1.979132.789759-2.815255.646376-6.7492-3.738347-10.51291" stroke-width="2.890772"/><path d="m145.405722 182.105645s8.672317 4.632258 16.766479-.579032" stroke-width="2.890772"/><path d="m136.155252 174.578226h30.642184c4.63333 0 6.410576-3.080452 7.09222-5.443482" stroke-width="2.890772"/><path d="m98.1910303 114.069355-4.047081.579032.5781545 5.21129h4.1424764" stroke-width="2.890772"/><path d="m207.652776 114.358871 4.047081.579032-.578154 5.211291h-4.142476" stroke-width="2.890772"/><path d="m207.13926 121.307258s1.734463 5.790323 1.734463 17.95 1.734463 34.741936-7.516008 51.533871c-9.25047 16.791936-25.020789 39.374194-48.146966 39.374194s-39.025423-22.582258-48.275894-39.374194c-9.250471-16.791935-7.5160077-39.374194-7.5160077-51.533871s1.7344632-17.95 1.7344632-17.95" stroke-width="2.890772"/><path d="m210.727575 114.358871s3.194303-8.685484 2.616149-23.7403226c0 0 7.511382-33.8733871-12.145868-44.2959678-4.047081-16.2129032-24.571563-18.2395161-33.24388-26.925-8.672316-8.6854838-8.094162-19.10806447-8.094162-19.10806447-6.937853.57903226-8.672316 9.26451613-8.672316 9.26451613-2.890772-1.73709678-3.468927-6.36935484-3.468927-6.36935484-5.203389 3.47419355-5.781544 12.15967738-5.781544 12.15967738-3.468926-1.7370967-4.625235-6.94838706-4.625235-6.94838706-6.359699 4.05322576-6.359699 13.89677416-6.359699 13.89677416-3.468927-1.1580645-5.20339-6.3693548-5.20339-6.3693548-8.094162 5.2112903-6.359698 14.4758064-6.359698 14.4758064-9.250471 2.8951613-11.563089 11.001613-11.563089 11.001613-24.2824859 18.5290322-15.0320151 49.2177419-15.0320151 49.2177419-.5781544 15.0548386 2.6161488 23.7403226 2.6161488 23.7403226" stroke-width="2.890772"/><path d="m98.2861367 123.912903s-1.445386-3.763709-7.2269303-2.605645c-5.7815443 1.158065-8.6723164 8.106452-7.5160075 16.791936 0 0 2.8907721 6.948387 4.6252354 12.159677s3.7892241 10.503066 9.1215423 9.304469" stroke-width="2.890772"/><path d="m84.2297573 128.107239s10.2980866-8.537251 13.1888587 11.149845" stroke-width="2.890772"/><path d="m92.2155153 138.099194s-4.6252355 5.21129.5781544 8.685483" stroke-width="2.890772"/><path d="m208.173289 123.912903s1.445386-3.763709 7.22693-2.605645c5.781544 1.158065 8.672317 8.106452 7.516008 16.791936 0 0-2.890772 6.948387-4.625236 12.159677-1.734463 5.21129-3.789224 10.503066-9.121542 9.304469" stroke-width="2.890772"/><path d="m222.229957 128.107239s-10.625322-8.247735-13.516094 11.439361" stroke-width="2.890772"/><path d="m214.24391 138.099194s4.625236 5.21129-.578154 8.685483" stroke-width="2.890772"/><path d="m213.04979 154.601613c2.235145 0 4.047081 1.814687 4.047081 4.053226 0 2.238538-1.811936 4.053226-4.047081 4.053226s-4.047081-1.814688-4.047081-4.053226" stroke-width="1.734463"/><path d="m112.837705 124.044401 2.508034-3.887622c.541153-.838439 1.426885-1.387361 2.41842-1.497378 2.264053-.250141 6.662074-.640988 11.168788-.511285 2.057651.05964 3.974811 1.06484 5.233453 2.696553l.794963 1.030678" stroke-width="2.890772"/></g><path d="m127.550984 122.429423c.154945 2.21364-1.511874 4.133711-3.722158 4.288892-2.210863.154601-4.128023-1.51417-4.28239-3.728389-.154367-2.213641 1.511874-4.133711 3.722158-4.288313 2.210863-.155181 4.128023 1.514169 4.28239 3.72781" fill="#000"/><path d="m119.339688 128.033992s5.627755.844808 9.236017-.646779" stroke="#000" stroke-linecap="round" stroke-linejoin="round" stroke-width="1.734463"/><path d="m191.620554 124.044401-2.508034-3.887622c-.541152-.838439-1.426885-1.387361-2.41842-1.497378-2.263474-.250141-6.661495-.640988-11.168787-.511285-2.057651.05964-3.974811 1.06484-5.233454 2.696553l-.794962 1.030678" stroke="#000" stroke-linecap="round" stroke-linejoin="round" stroke-width="2.890772"/><path d="m176.907218 122.429423c-.154367 2.21364 1.511874 4.133711 3.722736 4.288892 2.210285.154601 4.127445-1.51417 4.281812-3.728389.154945-2.213641-1.511874-4.133711-3.722158-4.288313-2.210863-.155181-4.127445 1.514169-4.28239 3.72781" fill="#000"/><path d="m185.118861 128.033992s-5.627755.844808-9.236595-.646779" stroke="#000" stroke-linecap="round" stroke-linejoin="round" stroke-width="1.734463"/><path d="m111.872766 100.462097s13.875706-4.6322583 26.016949 4.053226c-17.922787-5.2112907-30.06403.579032-30.06403.579032" stroke="#000" stroke-linecap="round" stroke-linejoin="round" stroke-width="4.047081"/><path d="m192.814385 100.462097s-13.875706-4.6322583-26.016949 4.053226c17.922787-5.2112907 30.06403.579032 30.06403.579032" stroke="#000" stroke-linecap="round" stroke-linejoin="round" stroke-width="4.047081"/><path d="m100.889277 113.543478s-1.1574651-11.3444 1.155153-21.1879486c0 0-8.0941624-33.0048388 16.766478-45.1645162 0 0 8.672316 13.8967742 34.111111 11.0016129 26.82174-3.052658 32.954802-6.9483871 43.939736-2.8951613 0 0 9.250471 8.1064517 6.937853 34.7419355 0 0 4.439648 10.9616597.195995 23.4311197" stroke="#000" stroke-linecap="round" stroke-linejoin="round" stroke-width="2.890772"/><path d="m113.318152 203.337021-3.85629 45.357334" stroke="#000" stroke-linecap="round" stroke-linejoin="round" stroke-width="2.890772"/><path d="m193.294022 203.337021 3.85629 45.357334" stroke="#000" stroke-linecap="round" stroke-linejoin="round" stroke-width="2.890772"/><path d="m195.994235 230.165323s12.141243 4.632258 6.359698 25.477419c-5.781544 20.845161-29.485875 34.741935-49.143126 34.741935-19.65725 0-43.361582-13.896774-49.143126-34.741935-5.7815443-20.845161 6.359699-25.477419 6.359699-25.477419" stroke="#000" stroke-linecap="round" stroke-linejoin="round" stroke-width="2.890772"/><path d="m111.005534 224.259657s-15.8992466 3.589421-18.2118643 23.276518c-2.3126177 19.687096 17.9227873 44.295967 49.1431263 51.823387" stroke="#000" stroke-linecap="round" stroke-linejoin="round" stroke-width="2.890772"/><path d="m195.471699 224.259657s16.820825 3.589421 19.133442 23.276518c1.291597 10.99698-5.608676 24.039103-16.372755 33.873387" stroke="#000" stroke-linecap="round" stroke-linejoin="round" stroke-width="2.890772"/><path d="m111.583689 217.716129s-17.6337105 4.921774-32.6657255 25.766936l-78.62900192 39.374193" stroke="#000" stroke-linecap="round" stroke-linejoin="round" stroke-width="2.890772"/><path d="m194.837926 217.716129s18.128032 4.921774 33.160047 25.766936l78.629002 39.374193" stroke="#000" stroke-linecap="round" stroke-linejoin="round" stroke-width="2.890772"/><path d="m78.9179635 243.483065-11.5630885 16.212903 25.2595668-7.34155-6.5753503 8.706908c-3.6972975 4.895718-4.5396685 11.383195-2.2160659 17.063501l31.1769744 74.875173" stroke="#000" stroke-linecap="round" stroke-linejoin="round" stroke-width="2.890772"/><path d="m95.5472458 263.691522 38.4527542 85.308478" stroke="#000" stroke-linecap="round" stroke-linejoin="round" stroke-width="2.890772"/><path d="m228.081805 243.483065 11.563089 16.212903-24.10268-7.34155 6.081028 8.871353c3.308778 4.826813 3.967296 10.998718 1.750652 16.416723l-32.876313 77.357506" stroke="#000" stroke-linecap="round" stroke-linejoin="round" stroke-width="2.890772"/><path d="m211.452523 263.691522-38.452523 84.308478" stroke="#000" stroke-linecap="round" stroke-linejoin="round" stroke-width="2.890772"/><path d="m162.172201 289.483877 5.781544-25.73451" stroke="#000" stroke-linecap="round" stroke-linejoin="round" stroke-width="2.890772"/><path d="m145.405722 289.483877-3.902542-17.370968" stroke="#000" stroke-linecap="round" stroke-linejoin="round" stroke-width="2.890772"/><path d="m160.482891 148.81129s1.850094 1.389678 0 4.632258" stroke="#000" stroke-linecap="round" stroke-linejoin="round" stroke-width="1.734463"/><path d="m149.741881 173.51657s3.758003 1.737097 6.937853 0" stroke="#000" stroke-linecap="round" stroke-linejoin="round" stroke-width="2.890772"/></g></svg>