<svg height="400" viewBox="0 0 400 400" width="400" xmlns="http://www.w3.org/2000/svg" xmlns:xlink="http://www.w3.org/1999/xlink"><mask id="a" fill="#fff"><path d="m.95807154.32605415h121.53721046v114.09271885h-121.53721046z" fill="#fff" fill-rule="evenodd"/></mask><g fill="#000" fill-rule="evenodd" transform="translate(41 59)"><path d="m102.463911 98.8273798s1.240612-22.8351805 6.199809-33.3271661c4.961365-10.4919855 7.441506-12.3431949 1.860918-17.8979025l12.400703-4.937278 10.540868-3.0849892 5.579503-1.2348592s-.619222 4.3198484 3.100447 3.0860686c3.720753-1.2337798 8.681034-3.0860686 8.681034-3.0860686s-1.860919 4.3198484 3.100446 3.0860686c4.960282-1.2337798 17.98129-3.7034982 29.14138-1.2337798 11.161175 2.4675596 26.042018 6.7884874 30.381993 10.4909062 0 0-6.820116 4.3198484-3.719669 12.9606245 3.099362 8.6407762 9.300256 33.9435163 9.300256 33.9435163l1.859834-1.8512094 1.859834-4.937278s8.060728-17.2804729 1.860919-42.5842924c-6.200893-25.3038195-26.042017-34.5609459-37.823498-40.73308304-11.780396-6.17105776-31.001214-8.02226715-42.781611-3.70241877-11.78148 4.31984837-27.282629 11.10833571-37.203192 24.68638991-9.9205615 13.5769747-11.1600895 26.5375993-11.7803958 35.1783754-.6203062 8.6407762 4.3399748 30.8585271 4.3399748 30.8585271z"/><path d="m139.046146 155.760542-.310153 2.314281 3.875829 4.475286 2.325064.154357 1.239528-1.852289-.465229-2.314281-.464146-1.388138-1.860918-1.234859z"/><path d="m182.449147 155.915007-2.014911 1.234859-1.550766 2.314282.620307 1.851209 1.085536 1.542495 2.01491.463072 5.735664-5.709065-1.240612-1.542494z"/><path d="m113.33391 48.191352.087841.0993068c2.522434 2.823769 2.801138 6.9849423.681035 10.1195849-3.625321 5.3593321-9.705841 17.8504079-9.705841 41.3084151 0 4.4569352-.054222 8.6612852-.105191 12.7274692-.351363 27.655881-.58452 45.926184 16.967327 67.340845 20.501555 25.014534 30.542491 26.94778 42.487724 26.94778 12.127421 0 23.235457-1.863083 36.3866-24.76195 17.241694-30.019816 18.993083-38.643321 18.993083-62.487761 0-22.2015601-6.865662-43.361477-11.409514-57.3637442-1.248203-3.8449025.045547-8.1248122 3.217568-10.6506606l.407754-.3249062c-24.897922-14.2785992-50.87921-9.7504223-58.394458-7.9780108-1.116985.2633791-2.28494-.0442563-3.122136-.8235993-.476074-.4425631-.806832-1.0017039-.968415-1.6083393l-6.736613 2.6078845c-1.143012.4425631-2.397722.2525848-3.356377-.5051697-.776467-.6131119-1.230853-1.4971589-1.285075-2.4513682-11.450723 2.489148-20.434319 6.1581047-24.145312 7.8042238zm50.412895 161.629469c-12.393111 0-23.568383-2.068173-44.889784-28.083332-18.263247-22.283595-18.012739-42.017595-17.66463-69.331299.05097-4.05539.104108-8.250026.104108-12.6875312 0-24.2772888 6.412361-37.3814765 10.233968-43.0311732 1.330622-1.9667076 1.156025-4.5767509-.425105-6.3470037l-1.473769-1.6493574c-.320998-.3594476-.45547-.8462671-.363292-1.3179747.091094-.4706281.397994-.8732527.828521-1.0869783.49451-.2461083 12.292258-6.0609567 28.854001-9.3575127.493425-.0982274 1.003117.0474946 1.369662.3918304.36546.3443357.540057.8430289.468483 1.3384837l-.211468 1.4766498c-.017351.1165777.021689.2126463.113867.2849676.092179.0744801.195201.089592.305815.0464151l8.948894-3.4638664c.519452-.2007726 1.108309-.1090217 1.539921.2407112.432696.3497328.64308.9045559.550901 1.4507437l-.18761 1.1215198c-.018435.1079423.013014.1996932.093263.2741733.056392.0518123.151823.1068628.290633.0755596 7.999999-1.8868304 36.161034-6.779852 62.637917 9.4816462.428358.2622996.70164.7178159.733089 1.2186678.030365.500852-.185441.9855127-.579097 1.2985452l-2.153721 1.7152021c-2.172156 1.7303141-3.058153 4.6609459-2.20469 7.2936571 4.603497 14.1857689 11.560253 35.6241769 11.560253 58.311477 0 24.509364-1.789345 33.353072-19.401921 64.019462-13.957975 24.303195-26.449771 26.316317-39.078209 26.316317z"/><path d="m221.008554 129.923488c-.55307 0-1.088789-.295762-1.368578-.814964-.403416-.752358-.118205-1.687137.636573-2.088682 3.63725-1.936484 5.904838-4.52278 6.737697-7.687647 1.57137-5.964888-2.310966-12.134866-2.350006-12.196393-.234242-.367004-.302562-.814964-.18761-1.234859 1.563779-5.709065.485834-7.3702964-.052054-7.8204156-1.204826-1.0092599-3.894265-.1079422-4.742306.2882058-.773214.3605271-1.696082.0313033-2.061543-.7383249-.364375-.7696282-.035786-1.6860578.736343-2.0509025.515114-.2450289 5.121864-2.3110433 8.054221.1327689 2.143961 1.7853647 2.546292 5.1801483 1.223261 10.3678523 1.061678 1.893307 3.994035 7.90353 2.379287 14.035729-1.061678 4.028404-3.845465 7.266671-8.275449 9.625209-.233157.123054-.482581.182423-.729836.182423"/><path d="m100.236773 127.158008c-2.0311778 0-3.5710989-.608795-4.5991589-1.822065-1.8479053-2.182592-1.263386-5.525564-.7439337-7.340073-2.771858-1.893306-4.1881516-4.05431-4.2109251-6.434436-.0281957-3.021304 2.2849393-5.452163 3.8508872-6.749629-1.0248066-1.43779-2.313135-3.786613-1.787176-5.9789202.2559305-1.0653899 1.0421578-2.5118158 3.3401105-3.358083 4.478785-1.6493574 7.292936 1.9893755 8.157244 4.1428231.317744.7912171-.070489 1.6882171-.865392 2.0044871-.792734.316271-1.691745-.068003-2.011658-.853823-.145316-.352971-1.4932895-3.3980215-4.2044182-2.3995558-1.2254301.4511986-1.3566487.9995451-1.4000268 1.1798087-.3177443 1.3244511 1.3241152 3.6452091 2.1211871 4.5001121.3155753.338938.4619763.799852.4001626 1.256447-.0618138.457676-.3275044.863538-.7211603 1.105329-1.0573401.658448-3.8053402 2.865866-3.7793133 5.128336.0173512 1.511191 1.2807372 3.016985 3.754371 4.475285.658262.388592.9337127 1.197079.6474175 1.903022-.4988477 1.249971-1.2004878 4.225938-.1745967 5.432732.6539242.769629 2.2415611.930463 4.4668551.453358.838281-.179184 1.66138.349733 1.842484 1.183047.180018.832234-.352447 1.653675-1.189644 1.832859-1.053002.226679-2.019248.338939-2.893316.338939"/><path d="m221.337902 97.3078769c-.190864 0-.386065-.0356209-.57476-.1111805-.794902-.3151913-1.182052-1.2132708-.864307-2.0044874.129049-.3227473 12.787851-32.5920794-1.242782-57.9844115-13.901583-25.1580975-40.214713-34.12162097-60.204407-34.12162097-19.540731 0-46.824446 14.25485197-56.830679 37.28540797-10.2426445 23.5767437-.813339 53.8556209-.716823 54.1589386.259184.8117256-.193032 1.6785018-1.0096241 1.9364838-.8155075.2569025-1.6874065-.1932166-1.945506-1.0049423-.4077537-1.2823538-9.8706772-31.6907617.8274365-56.3156245 10.5039966-24.1790614 39.1541206-39.14633216 59.6751956-39.14633216 20.87569 0 48.36762 9.38341877 62.920958 35.72024546 14.746371 26.6887184 1.956351 59.2451769 1.405449 60.6171228-.242917.6033971-.825267.9704007-1.440151.9704007"/><path d="m212.830163 239.232383c-.83069 0-1.518232-.65521-1.548597-1.488524l-2.48014-69.739321c-.030365-.851664.638742-1.566242 1.494374-1.596466.848041-.0367 1.573539.63578 1.603904 1.487444l2.48014 69.739322c.030365.851664-.638742 1.566241-1.494374 1.596465-.018436.00108-.036871.00108-.055307.00108"/><path d="m118.124203 66.991385-46.1600037-32.1400745c-2.0691334-1.6158953-4.3432281-2.9608556-6.7604705-3.99926l-63.69525681-27.34932487c-.78514286-.33677978-1.14734965-1.24457401-.80900079-2.02715523.3394333-.78258123 1.25145699-1.14310831 2.03659985-.8052491l63.69525685 27.3482455c2.6612439 1.1431083 5.1674112 2.6251552 7.4469282 4.4051227l46.1589189 32.1400746c.673444.5256787.79165 1.4960794.262437 2.1664007-.304731.3875126-.7602.590444-1.220008.590444-.335095 0-.67236-.1079422-.955401-.3292238z" transform="translate(209.286067 178.357733)"/><path d="m114.866348 210.225605c-.06832 0-.137725-.004318-.20713-.014033-.849125-.113339-1.444489-.889444-1.330622-1.733552l3.978853-29.568617c.113867-.844109.891419-1.437791 1.742713-1.324452.848041.11334 1.443405.889444 1.330622 1.734632l-3.978852 29.567538c-.105192.776105-.769961 1.338484-1.535584 1.338484"/><path d="m.30765888 238.46726c-.51186109-.682194-.36979795-1.649357.31665983-2.158844l31.09117129-25.137862c2.7946314-2.072491 5.8939937-3.667877 9.2102463-4.740823l76.6674657-24.817c.813338-.263379 1.688491.180264 1.952012.98983.265691.810647-.180019 1.68174-.994442 1.94512l-76.6663806 24.81592c-2.995255.969321-5.7931398 2.41035-8.3177428 4.280989l-31.09008679 25.138941c-.27870402.20617-.60403946.305477-.9250371.305477-.47390529 0-.94021942-.214805-1.24386583-.621748z"/><path d="m162.178688 182.502152c-5.944962 0-10.697029-2.176116-11.006097-2.320758-.775383-.362686-1.107225-1.282354-.74285-2.053062.364376-.770707 1.28616-1.10209 2.060458-.739404.132303.061527 10.622202 4.816383 19.024532-.56022.720076-.460913 1.679815-.253664 2.141792.463072.463061.716737.254846 1.672025-.46523 2.132939-3.645926 2.332632-7.533684 3.077433-11.012605 3.077433"/><path d="m126.677218 154.323291c-.16809 0-.339434-.034542-.503186-.106863-.625728-.276332-.907686-1.006022-.628982-1.628848.114952-.259062 2.87705-6.359957 7.197505-8.510166.61163-.304397 1.357733-.05721 1.663548.552664.305816.609874.058561 1.350357-.554154 1.655834-3.533143 1.758379-6.016537 7.249401-6.041479 7.304451-.204962.459834-.658263.732928-1.133252.732928"/><path d="m224.648949 117.424748c-.401247 0-.793819-.193217-1.032398-.549426-.986851-1.472332-2.775111-1.767014-2.792462-1.770253-.673445-.105783-1.139759-.732927-1.038905-1.403249.100854-.671401.722245-1.134473 1.397858-1.039484.117121.017271 2.883557.435008 4.49722 2.843199.379558.567776.225566 1.334166-.344855 1.711964-.211468.140325-.450048.207249-.686458.207249"/><path d="m98.4099058 113.98301c-.2624372 0-.5270434-.083116-.7515249-.253665-.5443946-.413418-.6495864-1.188444-.233157-1.730314 2.3359084-3.043971 5.0752331-3.596635 5.1912691-3.618223.671276-.129531 1.323031.309794 1.450996.980115.127965.664924-.3069 1.309339-.973837 1.442108-.103023.022668-1.97804.454437-3.6979798 2.694239-.2429171.318429-.6127151.48574-.9857664.48574"/><path d="m63.8376453 114.418988c-10.110341 0-19.0407988-5.206054-24.0119243-14.047602-13.6001059-24.1887766-30.86565765-55.4931051-35.88124568-67.2609679-3.54181849-8.3115524-3.93547437-14.888473-1.16903868-19.5461806 3.14274035-5.29024905 9.13650356-5.95625266 9.39026526-5.9821588.8523788-.08527437 1.6114949.53107581 1.6993354 1.37842238.0867561.84518773-.5302967 1.60186282-1.3794222 1.69145492-.0466314.0053971-4.73363069.5612996-7.05869463 4.5130649-2.21770325 3.7682636-1.75572692 9.4006896 1.37183111 16.7407618 3.92679872 9.2117906 16.28303872 32.3664801 35.73267582 66.9598086 4.5340916 8.0643647 12.7943584 12.7296277 22.0609962 12.4565347 9.2774822-.264459 17.2427783-5.382 21.304049-13.689235 11.5190435-23.5551553 26.0637064-53.3990253 29.9384514-61.8142022 3.818354-8.2932022 4.583977-15.8308087 2.211197-21.7967762-1.912973-4.81422379-5.758438-8.42165339-11.42795-10.72406134-.791649-.32166787-1.172292-1.22190613-.849125-2.0109639.323166-.78905776 1.228683-1.16793501 2.020333-.84626714 6.390672 2.5949314 10.934524 6.89858844 13.140298 12.44574008 2.68944 6.7679783 1.903213 15.1410578-2.276263 24.2179206-3.887759 8.4421624-18.442182 38.3097797-29.9688167 61.8789675-4.5774696 9.3596716-13.550221 15.1248666-24.0032487 15.4238666-.2819574.007556-.5639148.011873-.8437033.011873" mask="url(#a)" transform="translate(104.094275 183.834267)"/><path d="m148.520781 128.934737c-.261352 0-.524874-.065845-.767791-.202932-.74285-.423133-1.000949-1.365469-.576928-2.105953.108445-.187819 2.50942-4.317689 6.287649-6.653559-.274366-2.903646-.18761-10.789906 7.161718-18.66861.583435-.623906 1.563779-.659527 2.190592-.080957.627897.57965.663684 1.556527.081333 2.181513-7.904566 8.472386-6.310423 16.734285-6.238849 17.081859.140979.684354-.195201 1.383819-.823098 1.696852-3.512539 1.747585-5.942795 5.932505-5.967737 5.974603-.285211.497613-.809001.777184-1.346889.777184"/><path d="m161.778851 143.673494c-2.284939 0-4.787853-.681116-7.496813-2.479433-4.324792-2.870184-10.263248-4.689011-12.615424-5.338823-1.602819-.440405-2.634132-2.013123-2.397722-3.657083l.437034-3.048289c.121459-.843029.903348-1.429156 1.753558-1.30934.848041.120896 1.436898.902397 1.31544 1.745426l-.437034 3.048289c-.016267.11226.050969.219123.156161.247188 3.101531.855982 8.979258 2.740653 13.507927 5.745765 4.917988 3.263094 8.691879 2.096238 12.843159-.659527 3.006099-1.993693 7.002303-3.478978 11.879081-4.413758.274367-.051812.510777-.208328.668022-.441484.162668-.239631.220144-.528917.162668-.813884l-.792734-3.945289c-.167005-.835473.377389-1.648278 1.21567-1.815588.841535-.165152 1.657042.374559 1.825132 1.210032l.792734 3.946368c.220144 1.096693-.003253 2.211737-.630066 3.138961-.621391.920747-1.563779 1.542494-2.655822 1.751902-4.469024.855982-8.084586 2.18583-10.744745 3.950686-2.413989 1.601863-5.356106 3.137881-8.786226 3.137881"/><path d="m173.677127 128.275857c-.856716 0-1.550765-.69083-1.550765-1.542494 0-3.865412-3.482174-7.440459-3.516876-7.475-.605124-.603397-.605124-1.579195 0-2.181513.605124-.603397 1.586552-.603397 2.191676 0 .181103.179184 4.425647 4.464491 4.425647 9.656513 0 .851664-.692965 1.542494-1.549682 1.542494"/><path d="m158.453489 150.678621c-.072658 0-.146401-.005397-.221228-.016191-.846956-.119816-1.435814-.902397-1.315439-1.745426l.993357-6.919098c.120374-.843028.902264-1.430234 1.753558-1.308259.846957.119815 1.435814.902397 1.31544 1.745426l-.992273 6.918018c-.110614.769628-.774299 1.32553-1.533415 1.32553"/><path d="m140.447799 157.266984c2.816321 3.633335 10.643891 11.898473 23.239795 11.411653 12.011385-.459834 19.700146-7.425346 22.889517-11.023061-2.531109-.179184-6.907955-.388592-13.56215-.388592zm22.143415 14.518231c-16.56825.001079-25.07794-13.123618-25.934657-14.518231h-2.035515c-.856717 0-1.550766-.690831-1.550766-1.542495 0-.852744.694049-1.543574 1.550766-1.543574h38.393919c11.888842 0 16.574757.647654 16.768873.674639.52379.07448.972753.410181 1.191812.889444.21906.480343.175682 1.037325-.111698 1.478809-.369798.565617-9.248202 13.855466-27.057064 14.537661-.408838.015111-.815508.023747-1.21567.023747z"/><path d="m122.704764 104.555443c-.324251 0-.650671-.100387-.929375-.308715-.684289-.511646-.823099-1.478809-.310153-2.159924l2.97465-3.9463686c.923953-1.2273033 2.336993-1.9667076 3.875829-2.0282347 2.961637-.1187364 8.755862-.2061697 14.288733.5364729 1.378338.1845813 2.608106.9477329 3.374813 2.0919206l1.846821 2.7568448c.47499.70918.281957 1.667708-.429443 2.139415-.712485.473867-1.674393.281729-2.149383-.427451l-1.847905-2.756845c-.272197-.408022-.713569-.680036-1.209163-.7458807-5.299715-.7124188-10.890062-.626065-13.749761-.5105668-.604039.0237473-1.158194.3141119-1.520401.7955343l-2.973566 3.9463682c-.30473.404783-.76996.61743-1.241696.61743"/><path d="m176.986114 105.214322c-.350278 0-.70164-.116578-.992273-.357289-.657178-.545108-.746103-1.518747-.19737-2.172877l2.592923-3.0979423c.718992-.8581408 1.658127-1.4831263 2.715467-1.8058736 2.327233-.71026 7.578147-1.7886029 16.583432-1.0340867 1.27423.1068628 2.418326.6940686 3.221905 1.6547545.738511.8808087 1.791514 2.2775811 2.617866 3.9215411.382811.762073.072658 1.689296-.694049 2.070333-.765623.381036-1.696082.072321-2.078894-.689751-.692964-1.379502-1.593059-2.571184-2.226378-3.32678-.268944-.321668-.659347-.5181228-1.100719-.5559026-8.486917-.71026-13.300797.2655376-15.414393.9099526-.480412.146802-.910939.435008-1.242781.831156l-2.592924 3.097942c-.306899.365924-.748271.554823-1.191812.554823"/><path d="m138.592954 102.024521c0 2.365014-1.925986 4.282069-4.303104 4.282069-2.376033 0-4.303103-1.917055-4.303103-4.282069 0-2.3650145 1.92707-4.2831481 4.303103-4.2831481 2.377118 0 4.303104 1.9181336 4.303104 4.2831481"/><path d="m193.866577 102.353961c0 2.365014-1.925986 4.282068-4.302019 4.282068-2.377117 0-4.303103-1.917054-4.303103-4.282068 0-2.3650148 1.925986-4.2831484 4.303103-4.2831484 2.376033 0 4.302019 1.9181336 4.302019 4.2831484"/><path d="m206.444154 131.344979c0 .909953-.740681 1.647199-1.654873 1.647199-.914193 0-1.654873-.737246-1.654873-1.647199s.74068-1.647198 1.654873-1.647198c.914192 0 1.654873.737245 1.654873 1.647198"/><path d="m112.444334 95.3108375c-.252677 0-.508607-.0518122-.754778-.1608339-.939135-.4144982-1.362071-1.5090325-.943473-2.4438123.120375-.270935 3.032127-6.6643538 8.990103-8.8879639.149654-.0561299.3069-.0928303.467399-.1090216.544394-.0539711 13.400566-1.3266101 19.382401-1.3266101 6.323436 0 11.853054 2.7158267 12.085127 2.8313249.919615.4565956 1.291582 1.5694801.831774 2.4837509-.458723.9142707-1.576792 1.285592-2.495323.8279169-.047716-.0226678-4.999321-2.4394945-10.421578-2.4394945-5.350684 0-16.906599 1.1031696-18.759926 1.2834332-4.372508 1.765935-6.658532 6.7895668-6.681306 6.8402996-.307984.6908303-.987935 1.1010108-1.70042 1.1010108"/><path d="m209.420648 94.3220866c-.944558 0-1.752474-.7124187-1.84899-1.6677075-.022774-.2029314-.648502-5.2503105-5.795309-6.2746823-5.191269-1.0330073-21.882061.6163501-27.875825 1.3395631-1.021553.1230542-1.945506-.5990794-2.070217-1.6148159-.123628-1.0157364.602955-1.9375631 1.622339-2.0606173.904432-.1101011 22.22041-2.6542996 29.053539-1.2963863 6.303917 1.2553683 8.491255 6.7884874 8.76779 9.5388556.101939 1.0178953-.644164 1.9246101-1.665717 2.0271553-.062898.0053971-.125797.0086353-.18761.0086353"/><path d="m163.544772 162.750989c-9.236273 0-16.727664-1.122599-17.197231-1.19492-.452217-.069083-.829606-.379957-.981429-.810647l-1.433645-4.062945c-.22665-.643336.112783-1.348199.759116-1.573798.644164-.226679 1.353396.11226 1.580046.755595l1.184221 3.354845c3.370475.446881 17.755724 2.124303 30.15968-.014032l2.464958-3.238268c.413176-.544028 1.190728-.648732 1.737291-.238552.545479.41126.65284 1.186285.239664 1.729235l-2.758845 3.6247c-.18761.246108-.459807.413419-.765622.468469-4.974379.900239-10.215533 1.200318-14.988204 1.200318"/><path d="m134.898987 109.796038c-2.971398 0-5.608783-.572094-5.775789-.608794-.501017-.11118-.816592-.605556-.705978-1.104249.111699-.498693.610546-.813885 1.109394-.702704.05856.012953 5.757353 1.244574 9.434728.025906.486918-.161913 1.013962.099307 1.175545.585047.162668.484661-.100854 1.00926-.587773 1.171173-1.435813.476026-3.089602.633621-4.650127.633621"/><path d="m189.883495 109.788158c-2.695946 0-4.98197-.431768-5.137046-.461992-.50427-.097148-.832859-.581809-.735258-1.08482.0976-.500852.585604-.827917 1.089873-.731848.056392.010794 5.788802 1.088058 9.431475-.229917.480412-.173787 1.015046.073401 1.191812.553744.174597.480343-.073743 1.011418-.556324 1.186285-1.622339.588285-3.539649.768548-5.284532.768548"/><path d="m182.138343 165.172889c-.551986 0-1.054087-.369162-1.199403-.922906-.02928-.104704-.573675-1.910578-2.980073-2.869105-.636573-.252584-.945642-.97148-.69188-1.604021.254846-.633621.977091-.941257 1.612579-.687592 3.647011 1.451823 4.431069 4.423473 4.462518 4.549765.165921.660606-.237495 1.332007-.902263 1.497159-.100854.024827-.201708.0367-.301478.0367"/><path d="m143.69584 164.555675c-.186526 0-.376305-.042097-.554155-.13061-.612715-.304397-.861054-1.04596-.554154-1.655834.150738-.300079 1.535583-2.947902 3.817269-3.704577.648502-.214805 1.352311.132769 1.568116.780422.216891.646574-.134471 1.34496-.784058 1.561924-1.120238.371322-2.121187 1.94404-2.383624 2.466481-.216891.431768-.655009.682194-1.109394.682194"/><path d="m129.7473 272.559549c-.54331 0-1.071438-.284968-1.355565-.791217-1.093127-1.950516-26.8174-47.898289-28.6989231-59.758982-.8393654-5.294567.8328591-10.257751 4.8377381-14.354159 2.957299-3.024541 6.140164-4.506588 6.274636-4.568115.777552-.35621 1.698251-.01943 2.057204.754516.357869.772866.019521 1.688217-.755862 2.045505-.450048.209408-11.002845 5.23304-9.35231 15.639751 1.796936 11.323141 28.079702 58.263982 28.345393 58.737849.416429.743722.149654 1.683899-.598617 2.098397-.23858.132769-.497764.196455-.753694.196455"/><path d="m212.829621 257.747607c-.239664 0-.482581-.055051-.710316-.172708-.7602-.390751-1.058424-1.322292-.665853-2.078967.047716-.091751 4.838822-9.345639 9.414123-20.048112 5.978581-13.987155 8.883827-24.045213 8.401246-29.087195-1.132168-11.839105-13.413581-16.235592-13.538292-16.279848-.807917-.279571-1.235191-1.1593-.953233-1.96347.281957-.805249 1.166869-1.230541 1.974786-.948812.58235.201852 14.284395 5.113224 15.603088 18.899606 1.268808 13.259625-17.354477 49.315571-18.147211 50.844033-.275451.531076-.816592.835473-1.378338.835473"/><path d="m168.187092 274.719473c-.555239 0-1.061678-.37456-1.201572-.935859-2.237224-8.903076-11.568929-10.133618-11.965838-10.182192-.678866-.082036-1.163616-.696227-1.082282-1.371945.081333-.675719.695133-1.154982 1.375084-1.079423.113867.012953 11.421443 1.456141 14.078349 12.03556.165921.660606-.237495 1.332007-.902264 1.497159-.100854.024826-.201708.0367-.301477.0367"/></g></svg>