<svg height="400" viewBox="0 0 400 400" width="400" xmlns="http://www.w3.org/2000/svg"><g fill="#000" fill-rule="evenodd"><path d="m201.61861 186.437079c-3.14391 2.832644-6.892107 4.90793-10.958429 6.067415-5.045317 1.486517-13.04719 3.98427-17.709063 5.44045-2.202094.690488-3.693795 2.743938-3.672991 5.05618v4.28764c.005856.646401.319686 1.251053.844441 1.62697.524755.375918 1.197204.477805 1.809396.274154 1.618318-.631841 2.925743-1.873121 3.642719-3.458427 0 0 20.292266 5.501123 27.971238-9.333708 0 0 9.081571 12.903371 27.678611 8.514607.377953 1.251943 1.153996 2.345713 2.209849 3.114606.92891.592113 2.105354.63217 3.072224.104606.966871-.527564 1.571729-1.539572 1.579558-2.642808v-2.517977c-.002716-2.925729-1.943335-5.494018-4.752689-6.289888-4.480241-1.274157-11.099698-3.114607-15.539577-4.135955-4.160886-.919363-7.967026-3.02673-10.958429-6.067416"/><path d="m212.042236 215.277528v3.610112c0 1.865358-1.508922 3.377529-3.370272 3.377529-.707861-.000656-1.397096-.227354-1.967674-.647191-.67397 1.260504-1.961998 2.070689-3.387718 2.130915-1.42572.060225-2.777212-.638462-3.554638-1.837657-.559499.390406-1.22537.598718-1.90713.596629-1.857408-.005573-3.36019-1.516113-3.360182-3.377528v-3.852809c5.796003 1.118085 11.751611 1.118085 17.547614 0z"/><path d="m156.251118 152.914607 2.371299-3.559551c.577495-.875638 1.528384-1.432452 2.573112-1.506741l27.012628-2.022472c.97495-.071061 1.949504.14324 2.805196.616854l4.712327 2.669663c-.441789-3.098101-2.116183-5.885039-4.641692-7.725843-.505934-.341769-1.095844-.537663-1.705317-.566292-9.896287-.50367-19.814209-.392221-29.696737.333708-2.058687.169441-3.794181 1.606022-4.349064 3.6-.77482 2.735548-.444999 5.66674.918248 8.160674z"/><path d="m248.126344 152.914607-2.371299-3.559551c-.577494-.875638-1.528384-1.432452-2.573111-1.506741l-27.073173-2.022472c-.925005-.068672-1.846877.169399-2.623565.677528l-5.953474 3.94382c.490423-2.863959 1.517582-5.608946 3.02719-8.089888.619311-.938204 1.653103-1.518374 2.774925-1.557303 10.459122-.470786 20.936428-.349245 31.381873.364045 2.066436.163932 3.809164 1.607203 4.359154 3.610112.763388 2.732979.422653 5.657261-.94852 8.14045z"/><path d="m263.272387 163.633708c-1.618857 6.675954-4.347842 13.031085-8.072508 18.798876-.781433 1.174985-1.205595 2.552089-1.220967 3.964045-.125235 8.564708-1.425665 17.07143-3.864713 25.280899-1.761841-.882819-3.90447-.179101-4.803142 1.577528-3.319818 6.522472-12.169305 21.235955-26.972265 27.546068-10.046618-3.121686-20.7748-3.297132-30.917704-.505618-7.759698-5.986517-13.18846-17.079776-13.18846-17.079776v12.64045c-6.326723-6.664959-11.579564-14.276313-15.569849-22.560674-.4023-.848715-1.129199-1.498927-2.016173-1.80347-.886974-.304542-1.859029-.237666-2.696153.185492-2.442935-8.208307-3.740124-16.716041-3.854622-25.280899-.023839-1.415254-.45098-2.79417-1.231058-3.974157-3.723632-5.764694-6.452582-12.116325-8.072507-18.788764-.136897 6.794324.824039 13.566091 2.845559 20.052809 0 0-4.379336 29.133708 9.86864 48.347191s29.616012 31.874157 48.798308 31.348314c19.182296-.525842 34.540242-13.146067 45.508762-28.03146 10.968519-14.885393 14.80296-31.348315 12.613293-52.2 0-.020225 4.056435-15.401124 2.845559-19.516854z"/><path d="m262.344048 157.040449c-8.768761-8.241573-6.85154-28.314606-6.85154-28.314606-7.8452-10.499231-11.730641-23.441568-10.96852-36.5359554-23.571722-7.4224719-40.574441-3.0337078-40.574441-3.0337078-.872118 2.0358685-3.193014 3.0180115-5.257221 2.2247191-10.463988-3.9438202-21.31142-1.8202247-28.183142 1.6179775-5.325224 2.5866686-10.824608 4.7965649-16.457824 6.6134832-1.322791 10.5862064-4.089929 20.9402284-8.223868 30.7719104 1.644774 15.937078-3.844531 25.826966-3.844531 25.826966s-4.379336-25.280899-1.644774-41.753933c2.734562-16.4730333 8.223867-24.1786513 8.223867-24.1786513-1.500681-.0030794-2.900162-.7589089-3.727904-2.0133616-.827743-1.2544528-.973804-2.8409081-.389074-4.2259643 3.173261-7.5200184 8.889826-13.6785565 16.145015-17.3932584 0 0 9.919093-13.7325843 30.796616-15.3808989 0 0 16.447734-1.1022472 29.605921 9.3438203 0 0 26.861269 0 27.406164 26.3730337 0 0 11.523504 8.241573 14.813051 28.5674155 3.289547 20.325843-.867795 41.491011-.867795 41.491011z"/><path d="m202.032326 264.726966c-18.879577 0-35.216314-10.617977-49.928459-32.470786-14.126888-20.962922-10.282356-45.38427-9.606284-48.98427-5.459033-13.752809-2.774924-25.02809-2.179577-27.141573-.48435-2.801124-3.733535-22.823595-1.009063-42.411236.931347-7.888643 3.290812-15.5408594 6.962537-22.5808988-1.100835-.4336025-2.03917-1.2007346-2.684108-2.194382-1.077886-1.6391254-1.252657-3.7142426-.46417-5.5112359 2.129124-4.9247191 6.740544-11.9932585 16.589003-17.8078652 1.321874-1.9516854 9.475106-12.5797753 28.152871-15.1685393 11.932301-1.6983924 24.045468 1.474862 33.621993 8.8078651 4.789903.4147664 9.46253 1.7105612 13.783807 3.822472 6.478187 3.2460674 14.187432 9.9 14.459879 23.177528 2.411662 1.8303371 10.928157 9.4044944 14.237885 27.3943821 3.582176 19.466292.282538 39.650562-.221993 42.47191.595347 2.113483 3.279456 13.388764-2.169487 27.131461.665982 3.6 4.510514 28.021348-9.606284 48.984269-14.722236 21.862922-31.058973 32.480899-49.93855 32.480899zm-7.971601-211.9550559c-1.947792-.0010637-3.893283.1340961-5.822296.4044944-7.365397.8984773-14.375257 3.6847746-20.35281 8.0898876-2.3192 1.6963903-4.361635 3.7432221-6.05438 6.0674158-.112069.1899771-.272184.3469484-.46417.4550561-9.404471 5.4707866-13.743444 12.1348315-15.731299 16.6853933-.421928.9483496-.330564 2.0470775.242176 2.9123596.560896.8535462 1.512937 1.3667028 2.532749 1.3651685.493749-.0008546.949307.2661046 1.190695.6977528.246945.4286422.246945.9567511 0 1.3853933-2.613475 4.3179775-6.04429 11.7606745-7.658792 23.2584265-2.825377 20.56854 1.009064 41.652809 1.089789 41.865169.050479.219596.050479.44782 0 .667416 0 .121348-3.602357 11.83146 2.149305 25.988764.101621.253315.129609.530286.080725.798876-.060544.262921-5.186586 26.089888 9.081571 47.305618 14.126888 21.033708 29.757281 31.267416 47.658066 31.267416 17.900786 0 33.490816-10.233708 47.658067-31.267416 14.298429-21.235955 9.172387-47.042697 9.081571-47.305618-.057431-.267334-.032807-.545827.070634-.798876 5.771843-14.157304 2.189668-25.867416 2.159396-25.988764-.061014-.221704-.061014-.455824 0-.677528 0-.21236 4.036254-21.42809.272447-41.794382-1.866767-10.11236-5.479214-16.6550566-8.183504-20.3561802-1.495988-2.1761065-3.340512-4.0895211-5.459034-5.6629213-.393679-.2509802-.63314-.6852235-.63571-1.152809 0-9.9202247-4.359154-17.1303371-12.956374-21.4382023-4.111066-2.0023585-8.560787-3.2132301-13.117825-3.5696629-.311873-.0128889-.610382-.1304126-.847613-.3337079-7.451237-5.7412375-16.584386-8.8585258-25.983384-8.8685393z" fill-rule="nonzero"/><path d="m208.61142 176.820225c-.719931-.003724-1.314602-.56436-1.362236-1.28427 0-.161798-1.099879-16.179775-1.099879-31.408989-.044414-.517637.206042-1.016173.647422-1.288704.441381-.27253.998337-.27253 1.439718 0 .44138.272531.691836.771067.647422 1.288704 0 15.16854 1.089789 31.065169 1.099879 31.216854.0249.364939-.096298.724783-.33679.999951-.240491.275168-.58046.442987-.94472.466341z"/><path d="m218.338792 242.196629c-.136831.000358-.272922-.020099-.403626-.060674-9.799267-3.034729-20.259338-3.203124-30.150816-.485393-.414375.118675-.860381.032287-1.200785-.232584-4.752689-3.670787-8.607311-9.101124-10.97861-12.933708v7.402247c-.00305.559286-.341372 1.061879-.857704 1.274157-.519815.213036-1.11681.084546-1.503505-.323595-6.430011-6.769556-11.765033-14.504422-15.812024-22.924719-.243037-.512206-.683967-.902958-1.220967-1.082023-.539417-.190057-1.132583-.153588-1.644773.101124-.367779.171954-.792644.171954-1.160423 0-.366525-.163426-.64568-.476311-.766888-.859551-2.472979-8.345097-3.790348-16.991082-3.915166-25.695506-.022702-1.152826-.372723-2.275303-1.009064-3.235955-3.834795-5.904787-6.633271-12.423543-8.27432-19.274157-.110161-.723173.363878-1.406208 1.078736-1.554335.714858-.148128 1.420321.290501 1.605373.998155 1.594022 6.518155 4.260844 12.724518 7.890876 18.364045.923307 1.399568 1.42752 3.034771 1.453051 4.71236.109298 7.985082 1.252361 15.922174 3.400544 23.612359 2.095827-.274193 4.130497.830972 5.045317 2.74045 3.424631 7.090156 7.782229 13.688241 12.956375 19.617977v-9.101123c.000468-.639157.440268-1.193747 1.061475-1.338525s1.260065.158421 1.541908.731783c.050454.111236 5.136133 10.375281 12.260121 16.179775 10.035188-2.629928 20.599095-2.441006 30.53426.546068 14.237885-6.3 22.794743-20.74045 25.832024-26.706742.963477-1.885386 3.012502-2.952686 5.105861-2.65955 2.144832-7.691168 3.291161-15.627383 3.410635-23.61236.018566-1.677198.519588-3.313414 1.44296-4.712359 3.633818-5.621687 6.297931-11.81601 7.880786-18.323596.179417-.721989.899262-1.17006 1.624592-1.011236.722447.170394 1.172808.892522 1.009064 1.617978-1.64105 6.850614-4.439526 13.369369-8.274321 19.274157-.634516.957763-.984455 2.076474-1.009063 3.225843-.120187 8.708125-1.437642 17.358081-3.915166 25.705618-.117654.385259-.397965.69944-.766889.85955-.364326.171608-.786006.171608-1.150332 0-1.101311-.534152-2.426557-.083949-2.976737 1.011236-3.208822 6.3-12.320665 21.64045-27.658429 28.193259-.162569.014866-.326479.001177-.48435-.04045z"/><path d="m262.344048 158.405618c-.347155.000122-.681836-.129711-.938429-.364045-8.466042-7.917977-7.578066-25.533708-7.3258-28.901124-7.621586-10.390256-11.502492-23.063333-11.008882-35.9494378-20.019819-6.0674157-35.095227-3.4584269-38.193052-2.8112359-1.373556 2.2848923-4.182808 3.2559793-6.669909 2.305618-10.090635-3.8022472-20.605076-1.6786517-27.083263 1.5674157-5.123441 2.4900164-10.409629 4.6286398-15.822115 6.401124-1.354726 10.301865-4.069315 20.377672-8.072507 29.962921 1.553957 15.957303-3.80417 25.847191-4.036254 26.292135-.367812.664603-1.203592.904558-1.866767.535955-.663176-.368604-.902616-1.206183-.534804-1.870787.060544-.091011 5.25722-9.748314 3.683081-25.017977-.02912-.241703.009306-.486763.110997-.707865 4.049964-9.699117 6.765656-19.904891 8.072508-30.337079.065863-.5340665.436495-.9805728.94852-1.1426967 5.557623-1.7956878 10.98569-3.971589 16.245921-6.5123595 7.0029-3.5089888 18.375045-5.794382 29.26284-1.6786517 1.376148.5283912 2.923524-.122193 3.511541-1.4764045.167742-.3911957.50683-.6824685.918247-.788764.716435-.1921349 17.64852-4.4089888 41.371602 3.0337078.629326.1994937 1.027786.8197107.948519 1.4764045-.647798 12.7084831 3.145272 25.2457691 10.726345 35.4539321.199986.274291.293269.612268.262356.950562 0 .192135-1.74568 19.486517 6.427734 27.161798.550789.519815.577871 1.388307.060544 1.941573-.250169.293882-.613604.466793-.998973.475281z"/><path d="m204.504532 187.792135c-1.244464.002765-2.481256-.195275-3.662901-.586517l-4.994864-1.688764c-1.982725-.646022-4.005074-1.162832-6.05438-1.547191-1.354051-.255879-2.52743-1.095283-3.208822-2.295506-.675699-1.207898-.797118-2.649626-.332991-3.953932l.807251-2.214607c.143787-.491952.548663-.862931 1.050441-.962499s1.017169.088803 1.337172.488724c.320003.399922.3915.945011.185499 1.414224l-.797161 2.204495c-.195666.550513-.144153 1.158934.141269 1.668539.279047.501206.768078.850205 1.331964.950562 2.175312.407838 4.322294.955028 6.427734 1.638202l4.984774 1.668539c1.802092.596375 3.747756.596375 5.549849 0 2.381389-.788764 5.872749-1.911235 8.940302-2.791011 1.130151-.323595 2.532749-.930337 2.805196-1.951685.363263-1.435955-1.291601-3.508989-1.897039-4.11573-.537785-.536151-.540044-1.407687-.005045-1.94663.534998-.538943 1.404661-.541206 1.942447-.005056.353172.353933 3.430815 3.549438 2.613474 6.755056-.47426 1.830337-2.018127 3.144944-4.712326 3.903371-3.027191.869663-6.468097 2.022472-8.829306 2.760674-1.167716.393682-2.390541.598494-3.622537.606742z"/><path d="m240.134562 193.849438c-.351337.001982-.689008-.136288-.938429-.384269-7.736908-7.267584-16.10489-13.829509-25.004592-19.607866-.583741-.424757-.739674-1.229925-.356862-1.842676.382811-.612752 1.173663-.823874 1.809913-.483166 9.058005 5.874526 17.57165 12.551871 25.43849 19.951685.2656.249631.420417.595434.429897.960226.009479.364791-.127169.718201-.379444.981347-.26131.272105-.622137.425513-.998973.424719z"/><path d="m162.557764 200.169663c-.502828-.002868-.939689-.34711-1.061085-.836123-.121396-.489014.103589-.998264.546463-1.236911 6.146844-3.654117 11.276007-8.801279 14.913958-14.966292.306843-.524539.979576-.701003 1.503504-.394382.250688.145738.433124.385544.506974.666395.073849.280852.033027.579615-.113439.830234-3.812513 6.544241-9.249134 11.989083-15.781752 15.805618-.156751.089085-.334446.134477-.514623.131461z"/><path d="m194.080906 231.608989c-.667305-.014619-1.227341-.508278-1.326962-1.169688s.290067-1.298733.923337-1.510088c6.181676-1.704655 12.707991-1.704655 18.889668 0 .470457.139093.831132.519146.946161.996998.11503.477852-.033061.980904-.388489 1.319663s-.864194.461758-1.334651.322665c-5.663471-1.534299-11.631876-1.534299-17.295348 0-.135281.033147-.274592.046767-.413716.04045z"/><path d="m247.056737 203.466292h-.201813c-.595817-.11244-.988478-.686868-.877885-1.28427 2.623565-14.157303-3.551903-22.105618-3.612447-22.186516-.245142-.305282-.309148-.718437-.167905-1.083834.141242-.365398.466274-.627525.852658-.687641.386385-.060116.775422.090912 1.020564.396194.282538.353932 6.861632 8.807865 4.036254 23.966292-.106426.50014-.539409.863127-1.049426.879775z"/><path d="m171.265982 210.61573c-.678319.000017-1.340365-.2082-1.897039-.596629-.917897-.63558-1.465025-1.683034-1.463142-2.801123v-4.287641c-.015092-2.902768 1.871618-5.471751 4.641691-6.320225 4.44997-1.395505 12.673837-3.953932 17.719155-5.450561 3.845291-1.101128 7.39633-3.049767 10.393353-5.703371.34052-.379808.862979-.539294 1.356956-.414225.493978.125069.878154.514104.997802 1.010421.119648.496316-.044929 1.018211-.427447 1.355489-3.307009 2.988357-7.257319 5.171935-11.543686 6.380899-5.045317 1.496629-13.238912 4.044944-17.688882 5.440449-1.619926.499263-2.722532 2.002693-2.71438 3.701124v4.287641c-.001432.22004.108796.425734.292628.546067.148559.10929.342174.135922.514622.070786 1.291985-.514083 2.334037-1.51124 2.906103-2.780898.29014-.58681.95293-.887189 1.58423-.717978.191722 0 19.313474 5.05618 26.387009-8.646067.219865-.42451.644019-.704059 1.12006-.738203.480439-.027338.941322.194057 1.220967.586517.343081.485394 8.788942 12.134832 26.235649 7.96854.7321-.171318 1.465464.279567 1.644774 1.011236.286827.931174.863122 1.746103 1.644773 2.325842.483847.329241 1.110561.360449 1.624592.080899.548015-.287199.89051-.856653.887976-1.476404v-2.517978c-.006696-2.308647-1.537811-4.333905-3.753716-4.965168-4.692145-1.334832-11.180423-3.12472-15.468942-4.115731-4.44507-.973164-8.509798-3.226054-11.695046-6.482022-.322651-.370312-.423658-.884997-.264973-1.350178.158686-.465182.552955-.810187 1.034291-.905057.481335-.094869.976612.074811 1.299262.445122 2.812396 2.808215 6.365148 4.755034 10.241994 5.61236 4.338973 1.011236 10.877704 2.811236 15.600121 4.146067 3.392711.975258 5.735991 4.07752 5.751662 7.614607v2.517978c-.001728 1.637117-.906438 3.139133-2.351118 3.90337-1.404208.767332-3.119052.681405-4.439879-.222472-.975295-.679992-1.76043-1.599117-2.280484-2.669662-14.560785 2.952809-23.440543-4.388764-26.629184-7.746068-7.547794 11.689888-23.299275 9.394382-27.496979 8.544944-.904074 1.44817-2.253379 2.56259-3.844531 3.175281-.366296.127986-.752396.189621-1.140242.182022z"/><path d="m214.918066 206.934831h-21.805861c-.516525.04451-1.01399-.206485-1.285935-.648816s-.271945-1.000486 0-1.442817c.271945-.44233.76941-.693326 1.285935-.648816h21.805861c.516525-.04451 1.013991.206486 1.285936.648816.271945.442331.271945 1.000486 0 1.442817s-.769411.693326-1.285936.648816z"/><path d="m203.142296 225.086517c-1.380241-.000224-2.708374-.528281-3.713353-1.476405-.504867.182096-1.037572.274494-1.574139.273034-2.613021-.011114-4.726984-2.134145-4.732508-4.752809v-3.852809c.001959-.41668.190958-.810346.514622-1.07191.325783-.2539.745522-.353526 1.150333-.273034 5.600654 1.066451 11.351611 1.066451 16.952266 0 .406229-.096054.833979-.000175 1.160668.260161s.516256.656392.514377 1.074671v3.620224c-.00555 2.622597-2.125636 4.747247-4.742598 4.752809-.533197.000492-1.062422-.091894-1.564049-.273033-1.029 1.096208-2.463835 1.718211-3.965619 1.719101zm-3.380362-4.550562h.252265c.360928.072125.67952.282559.887976.586517.502667.745851 1.342023 1.192956 2.240121 1.193258.984832-.00824 1.889763-.54465 2.371299-1.405618.188231-.342794.516089-.586448.898067-.667415.381509-.086299.781636-.005366 1.099879.222472.335644.249552.742492.384279 1.160423.384269 1.11458 0 2.018127-.905491 2.018127-2.022472v-1.941573c-4.904523.768539-9.898438.768539-14.802961 0v2.214607c0 1.11698.903546 2.022472 2.018127 2.022472.404241.002429.799219-.121267 1.130151-.353933.215136-.145273.467192-.225964.726526-.232584z" fill-rule="nonzero"/><path d="m237.924713 226.289888c-.252489-.002512-.499762-.072316-.716435-.202248-.310887-.190188-.532824-.497224-.616248-.85254-.083424-.355315-.021386-.729313.17226-1.038471 4.147251-6.775281 5.287492-17.464045 5.297583-17.575281.078021-.756754.753422-1.30684 1.50855-1.228651.755128.078188 1.304033.755043 1.226012 1.511797-.050453.465169-1.220967 11.416854-5.701208 18.72809-.249408.408346-.692775.657319-1.170514.657304z"/><path d="m162.285317 159.780899c-.573905.000809-1.087704-.356358-1.287982-.895342-.200279-.538984-.044734-1.145942.389916-1.521512l2.563021-2.194382c1.04465-.892459 2.309977-1.486312 3.6629-1.719101 6.548822-1.102247 13.581994-1.648315 16.296375-1.830337 1.105117-.073868 2.211916.116772 3.229003.556179 2.401459 1.064791 4.662138 2.42344 6.730453 4.044944.565378.490337.635024 1.344009.156631 1.919868s-1.328746.66195-1.912401.193615c-1.860114-1.468022-3.893545-2.700896-6.054381-3.670786-.609361-.26609-1.274865-.377246-1.937402-.323596-2.674018.171911-9.596193.707866-16.023927 1.789888-.861786.144327-1.667811.521981-2.330937 1.092135l-2.633655 2.234831c-.238583.199643-.536957.313554-.847614.323596z"/><path d="m176.674562 162.723596c-3.043002.001528-6.080794-.252167-9.081571-.758427-.402999-.053977-.743413-.326351-.885165-.708243s-.061717-.811002.208112-1.115798.685433-.435553 1.080678-.340004c5.488328.918199 11.090585.918199 16.578913 0 .286365-.056437.583372.0035.825623.166612.24225.163113.40988.416026.465978.703051.059204.284586.001649.581077-.159697.822665-.161346.241589-.412909.407952-.698007.461604-2.746177.531169-5.538077.788604-8.334864.76854z"/><ellipse cx="176.260846" cy="157.586517" rx="4.93432" ry="4.944944"/><path d="m242.606767 159.780899c-.324578-.000857-.638662-.115315-.887975-.323596l-2.563022-2.204494c-.675854-.562887-1.492316-.930037-2.361208-1.061798-6.417644-1.082022-13.339819-1.617977-16.013837-1.789887-.662537-.053651-1.328041.057505-1.937402.323595-2.161602.968425-4.195206 2.201404-6.05438 3.670787-.583656.468334-1.434009.382243-1.912402-.193616s-.408746-1.429531.156631-1.919868c2.068315-1.621504 4.328994-2.980152 6.730453-4.044943 1.017088-.439407 2.123887-.630048 3.229003-.55618 2.714381.182022 9.747553.72809 16.286284 1.830337 1.356633.230573 2.625777.824581 3.672991 1.719101l2.552931 2.194382c.433269.374358.58936.978796.391696 1.516789s-.707611.896667-1.279672.900065z"/><path d="m228.217523 162.723596c-2.786712.018856-5.568452-.238577-8.304592-.76854-.285098-.053652-.536662-.220015-.698007-.461604-.161346-.241588-.218901-.538079-.159697-.822665.056098-.287025.223727-.539938.465978-.703051.24225-.163112.539257-.223049.825623-.166612 5.488359.917826 11.090553.917826 16.578912 0 .580105-.077698 1.119326.313474 1.226858.890012.107533.576538-.254289 1.136493-.823232 1.274033-3.010834.507243-6.058763.760938-9.111843.758427z"/><ellipse cx="227.803807" cy="157.586517" rx="4.93432" ry="4.944944"/><path d="m156.251118 154.289888h-.060544c-.479179-.023144-.911513-.295373-1.140242-.717978-1.533485-2.82155-1.896016-6.134951-1.009063-9.222472.706817-2.550613 2.92706-4.387972 5.559939-4.601123 9.942837-.732318 19.921374-.847144 29.878369-.343821.862678.043068 1.696949.322923 2.411662.808989 2.861368 2.064369 4.751119 5.215861 5.226948 8.716854.049831.506166-.183169.998566-.605785 1.280211s-.965837.306543-1.412342.064733l-4.722416-2.578652c-.617733-.335121-1.317087-.48931-2.018127-.444944l-27.012629 2.022472c-.620829.043755-1.186787.37212-1.533776.889888l-2.371299 3.559551c-.274557.37991-.723401.593379-1.190695.566292zm20.615166-12.448315c-5.045317 0-11.018973.151685-17.073353.647191-1.481305.117105-2.733321 1.145888-3.138188 2.578652-.450698 1.599418-.485435 3.287818-.100906 4.904494l.928338-1.395506c.816575-1.229761 2.161303-2.004645 3.632629-2.093258l27.012628-2.022472c1.236367-.092332 2.473083.174503 3.561994.768539l1.786042 1.011236c-.695951-1.518307-1.782562-2.823651-3.148278-3.782022-.300569-.199572-.649002-.314802-1.009063-.333708-1.967674-.091011-6.558912-.283146-12.451843-.283146z" fill-rule="nonzero"/><path d="m248.126344 154.289888c-.459115-.001526-.887054-.233035-1.140241-.616854l-2.371299-3.549438c-.344853-.515093-.906494-.843112-1.523686-.889888l-27.083263-2.022472c-.626585-.041299-1.249663.121901-1.775952.465168l-5.963565 3.883147c-.454979.292648-1.038435.292648-1.493414 0-.454523-.289949-.695809-.821128-.615528-1.355057.508524-3.075225 1.601259-6.024066 3.218912-8.686516.865724-1.310422 2.307765-2.123316 3.874804-2.18427 10.509614-.476978 21.037834-.352056 31.533232.374157 2.643278.206443 4.874327 2.050112 5.580121 4.611236.886391 3.084216.523828 6.394279-1.009063 9.21236-.224093.426935-.659182.700899-1.140242.717977zm-32.29003-9.798877h.393535l27.083263 2.022472c1.445877.102339 2.763854.867218 3.572084 2.073034l.928339 1.395505c.389531-1.616135.354767-3.305823-.100907-4.904494-.402597-1.440008-1.660408-2.474279-3.148278-2.588764-10.388027-.715743-20.808193-.840662-31.210332-.374157-.679772.02427-1.306597.374091-1.685136.940449-.853062 1.354723-1.531185 2.812427-2.018127 4.338202l3.027191-2.022471c.933541-.595467 2.021711-.901515 3.128096-.879776z" fill-rule="nonzero"/><path d="m202.304773 143.044944c-.324408.002629-.632475-.142438-.837522-.394382-2.966647-3.559551-3.027191-11.366292-3.027191-11.689888 0-.608754.492433-1.102247 1.09988-1.102247.598149-.01706 1.09814.452408 1.12006 1.051685 0 2.022472.454079 7.837079 2.492387 10.28427.385251.466981.322153 1.158034-.141269 1.547191-.190355.184514-.441739.292482-.706345.303371z"/><path d="m139.026405 186.52809c-1.873259-.028407-3.699926-.589511-5.267311-1.617978-5.045318-3.155056-4.500423-9.556179-4.177523-11.578651-4.520604-6.85618-2.875831-15.906742 1.74568-19.607865 4.62151-3.701124 10.363081-.495506 10.605257-.353933.654816.382566.876184 1.224673.49444 1.880899-.381743.656226-1.222041.878071-1.876857.495505-.181632-.111236-4.298611-2.447191-7.517523.121349-3.218912 2.568539-5.226949 10.274157-.887976 16.351685.231494.320966.312498.726856.221994 1.11236 0 .060674-1.422779 6.593258 2.835468 9.242696 4.258248 2.649439 6.851541.252809 6.962538.151686.557291-.516604 1.426954-.482648 1.942447.075842.515494.558491.481611 1.430026-.075679 1.94663-1.400853 1.176447-3.177479 1.80822-5.004955 1.779775z"/><path d="m132.679396 163.633708c-.249268-.00284-.493205-.072687-.706345-.202247-.313148-.18515-.539445-.488072-.628519-.841337-.089075-.353266-.033534-.727558.15426-1.039562.964103-1.841032 2.661941-3.186057 4.671963-3.701124 1.866743-.335712 3.791141.047107 5.388399 1.07191.640884.424453.817075 1.289197.393535 1.931461-.423541.642264-1.286427.818835-1.927311.394382-1.011322-.718302-2.291761-.941725-3.485821-.608238-1.194059.333487-2.174629 1.188384-2.669466 2.327339-.24913.41997-.703219.674499-1.190695.667416z"/><path d="m137.613716 174.888764h-2.734562c-.416242.040093-.819166-.159824-1.039704-.515865s-.220538-.806611 0-1.162652.623462-.555958 1.039704-.515865h1.10997c-.877885-2.477528-.857704-4.550562 0-6.178652.967952-1.561877 2.574028-2.616399 4.389426-2.882022.296284-.030947.592545.058754.822165.248931.229621.190177.373326.464869.398802.762305.036736.298058-.050624.598124-.241533.829621-.190908.231496-.468517.373993-.767531.393974-1.124405.178796-2.121175.825153-2.744652 1.779776-.696254 1.284269-.46417 3.276404.676072 5.733707.16078.342044.133589.743094-.071881 1.060199s-.559986.505149-.937182.497105z"/><path d="m265.169426 186.52809c-1.842474.045716-3.637662-.587551-5.045317-1.779775-.360504-.334184-.515721-.835723-.407183-1.315693.108538-.479969.464342-.86545.933384-1.011236.469041-.145785.980062-.029727 1.340566.304457.100906.091011 2.795106 2.426966 6.952447-.161798 4.157342-2.588764 2.85565-9.182023 2.835469-9.242697-.090504-.385503-.0095-.791394.221993-1.112359 4.338973-6.067416 2.3713-13.742697-.887975-16.351686-3.259275-2.608988-7.335892-.222472-7.507432-.121348-.654817.385358-1.497373.165776-1.881904-.490449-.38453-.656226-.16542-1.500597.489396-1.885955.242175-.141573 5.903021-3.407866 10.605257.353932s6.266284 12.751686 1.74568 19.607865c.3229 2.022472.887975 8.423596-4.167432 11.578652-1.555225 1.02375-3.366657 1.587975-5.226949 1.62809z"/><path d="m271.516435 163.633708c-.482315-.002556-.928965-.255054-1.180604-.667416-.583742-1.185669-1.638598-2.070279-2.906103-2.437079-1.131093-.174607-2.287198.062134-3.259275.667416-.626951.427245-1.480803.264257-1.90713-.364045-.426327-.628301-.263689-1.483991.363263-1.911236 1.600749-1.025459 3.52851-1.40823 5.39849-1.07191 2.006254.517623 3.700017 1.862324 4.661873 3.701124.188657.310774.245747.684152.158602 1.037279s-.311317.656795-.622772.84362c-.213139.12956-.457076.199407-.706344.202247z"/><path d="m269.316677 174.888764h-2.734562c-.374779-.000668-.723914-.190823-.928339-.505618-.189393-.304492-.215851-.68327-.070634-1.011236 1.150332-2.457303 1.382417-4.449438.676073-5.733708-.623478-.954623-1.620248-1.60098-2.744653-1.779775-.575053-.103953-.968616-.640388-.896138-1.221458.072477-.581069.585693-1.003914 1.168585-.962812 1.812706.265775 3.415606 1.320636 4.379335 2.882023.898067 1.62809.918248 3.701123 0 6.178651h1.09988c.416242-.040092.819165.159824 1.039704.515865.220538.356041.220538.806612 0 1.162653-.220539.356041-.623462.555957-1.039704.515864z"/><path d="m206.149305 307.593258c-27.809788 0-44.509788-15.107865-50.402719-21.6-1.697359-1.870094-2.398841-4.441467-1.886949-6.916854 2.415867-12.554354 3.950045-25.26307 4.591239-38.032584-.018039-.515871.253691-.998426.703668-1.249619.449977-.251194 1.00242-.228721 1.430602.058193.428182.286915.659992.789953.600292 1.302662-.643854 12.922496-2.194921 25.783517-4.641692 38.487641-.334018 1.61419.123689 3.291051 1.231058 4.510112 5.640664 6.219101 21.664592 20.689888 48.374501 20.689888 26.70991 0 39.202115-16.422472 43.389728-23.491012.667375-1.121529.887233-2.454356.615529-3.73146-2.538549-12.93568-4.14041-26.038385-4.793051-39.205618-.0597-.51271.17211-1.015747.600292-1.302662s.980625-.309387 1.430602-.058194c.449977.251194.721706.733748.703668 1.24962.649956 13.014254 2.234927 25.964649 4.742598 38.750562.414548 1.951731.079445 3.988345-.938429 5.70337-4.429789 7.462922-17.739336 24.835955-45.750937 24.835955z"/><path d="m38.3723263 318.575281c-.6168458-.050897-1.1233581-.509292-1.2365659-1.119093-.1132077-.609802.1949088-1.220081.7522154-1.489896l73.3488222-27.424719 46.184833-28.840449c.41458-.258315.93518-.275357 1.365696-.044705.430517.230651.705544.673954.721481 1.162921s-.229637.949311-.644216 1.207626l-46.295831 28.921349c-.078896.050498-.1636.091244-.252266.121348l-73.4699089 27.424719c-.1515089.056967-.3124765.084424-.4742598.080899z"/><path d="m369.234139 318.575281c-.165024.002884-.32918-.024534-.48435-.080899l-73.429547-27.475281-.242176-.121348-46.305921-28.921349c-.452272-.242188-.732076-.716867-.72546-1.230718s.298549-.981137.756906-1.21155c.458356-.230413 1.006659-.185508 1.421605.116426l46.104109 28.840449 73.379094 27.475281c.341319.127258.618168.385257.769578.717179.151409.331921.164962.710544.037673 1.052484-.212777.518516-.722213.852172-1.281511.839326z"/><path d="m177.633172 315.834831c-.169985.00058-.338276-.033839-.494441-.101123-13.327413-5.392377-25.01078-14.192945-33.88435-25.523596-1.342986-1.723939-1.919891-3.92528-1.595501-6.088073.324389-2.162792 1.521556-4.096899 3.310909-5.349005l10.796978-7.614607c.621379-.435622 1.477489-.283953 1.912176.338764.434686.622717.283342 1.48067-.338037 1.916292l-10.786888 7.614607c-1.168688.821674-1.948604 2.088985-2.156643 3.5044-.208039 1.415416.174123 2.854266 1.056764 3.978746 8.567834 10.947971 19.851257 19.452294 32.723927 24.664045.62035.238058.981498.887207.857432 1.541199-.124066.653991-.697722 1.125038-1.361963 1.118351z"/><path d="m229.731118 315.834831c-.662304.001705-1.231328-.470875-1.352636-1.123379-.121308-.652505.239715-1.298737.858195-1.536171 12.869402-5.217544 24.151446-13.720828 32.723927-24.664045.876923-1.126618 1.25552-2.56383 1.047751-3.977415-.20777-1.413585-.983802-2.680357-2.14763-3.505731l-10.796979-7.614607c-.621379-.435622-.772723-1.293575-.338036-1.916292.434686-.622717 1.290796-.774386 1.912175-.338764l10.796979 7.614607c1.783114 1.258409 2.972194 3.19555 3.288896 5.35797.316703 2.16242-.266775 4.360284-1.613851 6.079108-8.871444 11.32856-20.550981 20.128865-33.874259 25.523596-.159627.067543-.331263.101944-.504532.101123z"/><path d="m210.720363 307.421348c-.129289-.002569-.257893-.019527-.383445-.050561-.349338-.103114-.643453-.341153-.817574-.661694-.174121-.320542-.213968-.697297-.110764-1.047295l3.642719-12.46854c.231003-.704109.977236-1.098108 1.687341-.890889s1.128616.941107.946315 1.659429l-3.642719 12.478651c-.177491.582668-.71397.980764-1.321873.980899z"/><path d="m200.306828 307.360674c-.616292-.004102-1.155439-.416551-1.321873-1.011236l-2.38139-8.585393c-.200486-.728474.223077-1.482594.94852-1.688764.349336-.102204.725033-.058976 1.042165.119914.317131.178889.548921.478336.642971.830648l2.39148 8.555056c.200486.728474-.223077 1.482594-.94852 1.688764-.118769.050224-.244834.080955-.373353.091011z"/></g></svg>