<svg height="400" viewBox="0 0 400 400" width="400" xmlns="http://www.w3.org/2000/svg"><title>landon</title><g id="Layer_2" data-name="Layer 2"><g id="Team"><path d="M163.14,134.91a27.5,27.5,0,0,1-10.86,6c-5,1.47-12.93,3.94-17.55,5.38a5.19,5.19,0,0,0-3.64,5v4.24a2,2,0,0,0,2.63,1.88,6.59,6.59,0,0,0,3.61-3.42s20.11,5.44,27.72-9.23c0,0,9,12.76,27.43,8.42a5.93,5.93,0,0,0,2.19,3.08,3,3,0,0,0,4.61-2.51v-2.49a6.47,6.47,0,0,0-4.71-6.22c-4.44-1.26-11-3.08-15.4-4.09a21.86,21.86,0,0,1-10.86-6"/><path d="M173.47,163.43V167a3.34,3.34,0,0,1-3.34,3.34,3.3,3.3,0,0,1-1.95-.64,4,4,0,0,1-6.88.29,3.29,3.29,0,0,1-1.89.59,3.34,3.34,0,0,1-3.33-3.34v-3.81A46,46,0,0,0,173.47,163.43Z"/><path d="M118.18,101.76l2.35-3.52a3.34,3.34,0,0,1,2.55-1.49l26.77-2a5,5,0,0,1,2.78.61L157.3,98a11.45,11.45,0,0,0-4.6-7.64,3.3,3.3,0,0,0-1.69-.56,237.68,237.68,0,0,0-29.43.33,4.89,4.89,0,0,0-4.31,3.56A10.71,10.71,0,0,0,118.18,101.76Z"/><path d="M209.23,101.76l-2.35-3.52a3.34,3.34,0,0,0-2.55-1.49l-26.83-2a4.19,4.19,0,0,0-2.6.67L169,99.32a22.76,22.76,0,0,1,3-8,3.44,3.44,0,0,1,2.75-1.54,275.58,275.58,0,0,1,31.1.36,4.88,4.88,0,0,1,4.32,3.57A10.68,10.68,0,0,1,209.23,101.76Z"/><path d="M224.24,112.36a60.52,60.52,0,0,1-8,18.59,7.21,7.21,0,0,0-1.21,3.92,92.35,92.35,0,0,1-3.83,25h0a3.56,3.56,0,0,0-4.76,1.56c-3.29,6.45-12.06,21-26.73,27.24a54.62,54.62,0,0,0-30.64-.5c-7.69-5.92-13.07-16.89-13.07-16.89v12.5a87.65,87.65,0,0,1-15.43-22.31,3.45,3.45,0,0,0-4.67-1.6h0a91.77,91.77,0,0,1-3.82-25,7.34,7.34,0,0,0-1.22-3.93,60.52,60.52,0,0,1-8-18.58,62.3,62.3,0,0,0,2.82,19.83S101.34,161,115.46,180s29.35,31.52,48.36,31,34.23-13,45.1-27.72,14.67-31,12.5-51.62C221.42,131.64,225.44,116.43,224.24,112.36Z"/><path d="M223.32,105.84c-8.69-8.15-6.79-28-6.79-28a54.94,54.94,0,0,1-10.87-36.13c-23.36-7.34-40.21-3-40.21-3h0a4.08,4.08,0,0,1-5.21,2.2c-10.37-3.9-21.12-1.8-27.93,1.6A125.66,125.66,0,0,1,116,49.05a115.24,115.24,0,0,1-8.15,30.43c1.63,15.76-3.81,25.54-3.81,25.54s-4.34-25-1.63-41.29,8.15-23.91,8.15-23.91h0a4.44,4.44,0,0,1-4.08-6.17,34.33,34.33,0,0,1,16-17.2S132.31,2.87,153,1.24c0,0,16.3-1.09,29.34,9.24,0,0,26.62,0,27.16,26.08,0,0,11.42,8.15,14.68,28.25S223.32,105.84,223.32,105.84Z"/><path d="M163.55,212.33c-18.71,0-34.9-10.5-49.48-32.11-14-20.73-10.19-44.88-9.52-48.44-5.41-13.6-2.75-24.75-2.16-26.84-.48-2.77-3.7-22.57-1-41.94a64.59,64.59,0,0,1,6.9-22.33,5.63,5.63,0,0,1-2.66-2.17,5.72,5.72,0,0,1-.46-5.45c2.11-4.87,6.68-11.86,16.44-17.61C122.92,13.51,131,3,149.51.44a44.56,44.56,0,0,1,33.32,8.71,38.78,38.78,0,0,1,13.66,3.78c6.42,3.21,14.06,9.79,14.33,22.92,2.39,1.81,10.83,9.3,14.11,27.09,3.55,19.25.28,39.21-.22,42,.59,2.09,3.25,13.24-2.15,26.83.66,3.56,4.47,27.71-9.52,48.44C198.45,201.83,182.26,212.33,163.55,212.33Zm-7.9-209.6a41.49,41.49,0,0,0-5.77.4,42.77,42.77,0,0,0-20.17,8,27.5,27.5,0,0,0-6,6,1.24,1.24,0,0,1-.46.45c-9.32,5.41-13.62,12-15.59,16.5a3,3,0,0,0,.24,2.88,3,3,0,0,0,2.51,1.35,1.35,1.35,0,0,1,1.18.69,1.37,1.37,0,0,1,0,1.37C109,44.64,105.6,52,104,63.37c-2.8,20.34,1,41.19,1.08,41.4a1.47,1.47,0,0,1,0,.66c0,.12-3.57,11.7,2.13,25.7a1.43,1.43,0,0,1,.08.79c-.06.26-5.14,25.8,9,46.78,14,20.8,29.49,30.92,47.23,30.92s33.19-10.12,47.23-30.92c14.17-21,9.09-46.52,9-46.78a1.34,1.34,0,0,1,.07-.79c5.72-14,2.17-25.58,2.14-25.7a1.26,1.26,0,0,1,0-.67c0-.21,4-21.19.27-41.33-1.85-10-5.43-16.47-8.11-20.13a23.72,23.72,0,0,0-5.41-5.6,1.36,1.36,0,0,1-.63-1.14c0-9.81-4.32-16.94-12.84-21.2a36.18,36.18,0,0,0-13-3.53,1.38,1.38,0,0,1-.84-.33A42.32,42.32,0,0,0,155.65,2.73Zm55.17,33.83h0Z"/><path d="M170.07,125.4a1.36,1.36,0,0,1-1.35-1.27c0-.16-1.09-16-1.09-31.06a1.36,1.36,0,1,1,2.71,0c0,15,1.08,30.72,1.09,30.87a1.36,1.36,0,0,1-1.27,1.45Z"/><path d="M179.71,190.05a1.34,1.34,0,0,1-.4-.06,53.39,53.39,0,0,0-29.88-.48,1.34,1.34,0,0,1-1.19-.23c-4.71-3.63-8.53-9-10.88-12.79v7.32a1.37,1.37,0,0,1-.85,1.26,1.35,1.35,0,0,1-1.49-.32,88.72,88.72,0,0,1-15.67-22.67,2.06,2.06,0,0,0-1.21-1.07,2.1,2.1,0,0,0-1.63.1,1.36,1.36,0,0,1-1.15,0,1.39,1.39,0,0,1-.76-.85,94,94,0,0,1-3.88-25.41,6,6,0,0,0-1-3.2,61.08,61.08,0,0,1-8.2-19.06,1.36,1.36,0,0,1,2.66-.55A59.73,59.73,0,0,0,112,130.2a8.69,8.69,0,0,1,1.44,4.66,91.26,91.26,0,0,0,3.37,23.35,4.85,4.85,0,0,1,5,2.71,87.16,87.16,0,0,0,12.84,19.4v-9a1.36,1.36,0,0,1,2.58-.6c.05.11,5.09,10.26,12.15,16a56,56,0,0,1,30.26.54c14.11-6.23,22.59-20.51,25.6-26.41a4.92,4.92,0,0,1,5.06-2.63,91.87,91.87,0,0,0,3.38-23.35,8.62,8.62,0,0,1,1.43-4.66,59.05,59.05,0,0,0,7.81-18.12,1.36,1.36,0,0,1,1.61-1,1.34,1.34,0,0,1,1,1.6,61.08,61.08,0,0,1-8.2,19.06,6,6,0,0,0-1,3.19,93.71,93.71,0,0,1-3.88,25.42,1.36,1.36,0,0,1-.76.85,1.34,1.34,0,0,1-1.14,0,2.22,2.22,0,0,0-2.95,1c-3.18,6.23-12.21,21.4-27.41,27.88A1.39,1.39,0,0,1,179.71,190.05Z"/><path d="M223.32,107.19a1.38,1.38,0,0,1-.93-.36C214,99,214.88,81.58,215.13,78.25A56.37,56.37,0,0,1,204.22,42.7c-19.84-6-34.78-3.42-37.85-2.78a5.45,5.45,0,0,1-6.61,2.28c-10-3.76-20.42-1.66-26.84,1.55a124.7,124.7,0,0,1-15.68,6.33,116,116,0,0,1-8,29.63c1.54,15.78-3.77,25.56-4,26a1.36,1.36,0,0,1-2.38-1.32h0c.06-.09,5.21-9.64,3.65-24.74a1.3,1.3,0,0,1,.11-.7,114.74,114.74,0,0,0,8-30,1.36,1.36,0,0,1,.94-1.13,126.45,126.45,0,0,0,16.1-6.44c6.94-3.47,18.21-5.73,29-1.66a2.73,2.73,0,0,0,3.48-1.46,1.36,1.36,0,0,1,.91-.78c.71-.19,17.49-4.36,41,3a1.36,1.36,0,0,1,.94,1.46A54.1,54.1,0,0,0,217.62,77a1.38,1.38,0,0,1,.26.94c0,.19-1.73,19.27,6.37,26.86a1.36,1.36,0,0,1,.06,1.92A1.34,1.34,0,0,1,223.32,107.19Z"/><path d="M166,136.25a11.49,11.49,0,0,1-3.63-.58L157.42,134a47.91,47.91,0,0,0-6-1.53,4.65,4.65,0,0,1-3.18-2.27,4.74,4.74,0,0,1-.33-3.91l.8-2.19a1.36,1.36,0,1,1,2.55.93l-.79,2.18a2,2,0,0,0,.14,1.65,1.89,1.89,0,0,0,1.32.94,51.31,51.31,0,0,1,6.37,1.62l4.94,1.65a8.77,8.77,0,0,0,5.5,0c2.36-.78,5.82-1.89,8.86-2.76,1.12-.32,2.51-.92,2.78-1.93.36-1.42-1.28-3.47-1.88-4.07a1.36,1.36,0,0,1,1.92-1.93c.35.35,3.4,3.51,2.59,6.68-.47,1.81-2,3.11-4.67,3.86-3,.86-6.41,2-8.75,2.73A11.5,11.5,0,0,1,166,136.25Z"/><path d="M201.31,142.24a1.31,1.31,0,0,1-.93-.38,176.83,176.83,0,0,0-24.78-19.39,1.36,1.36,0,0,1,1.44-2.3,178.71,178.71,0,0,1,25.21,19.73,1.35,1.35,0,0,1,.05,1.92A1.37,1.37,0,0,1,201.31,142.24Z"/><path d="M124.43,148.49a1.09,1.09,0,0,1-.51-2.05,42.16,42.16,0,0,0,14.78-14.8,1.09,1.09,0,0,1,1.49-.39,1.08,1.08,0,0,1,.39,1.48,43.45,43.45,0,0,1-15.64,15.63A1,1,0,0,1,124.43,148.49Z"/><path d="M155.67,179.58a1.36,1.36,0,0,1-.4-2.65,35.28,35.28,0,0,1,18.72,0,1.36,1.36,0,1,1-.77,2.61,32.84,32.84,0,0,0-17.14,0A1.45,1.45,0,0,1,155.67,179.58Z"/><path d="M208.17,151.75l-.2,0a1.09,1.09,0,0,1-.87-1.27c2.6-14-3.52-21.86-3.58-21.94a1.08,1.08,0,1,1,1.69-1.36c.28.35,6.8,8.71,4,23.7A1.1,1.1,0,0,1,208.17,151.75Z"/><path d="M133.06,158.82a3.29,3.29,0,0,1-1.88-.59,3.36,3.36,0,0,1-1.45-2.77v-4.24a6.5,6.5,0,0,1,4.6-6.25c4.41-1.38,12.56-3.91,17.56-5.39a26.59,26.59,0,0,0,10.3-5.64,1.36,1.36,0,1,1,1.91,1.93,28.69,28.69,0,0,1-11.44,6.31c-5,1.48-13.12,4-17.53,5.38a3.81,3.81,0,0,0-2.69,3.66v4.24a.64.64,0,0,0,.29.54.54.54,0,0,0,.51.07,5.31,5.31,0,0,0,2.88-2.75,1.36,1.36,0,0,1,1.57-.71c.19,0,19.14,5,26.15-8.55a1.36,1.36,0,0,1,1.11-.73,1.39,1.39,0,0,1,1.21.58c.34.48,8.71,12,26,7.88a1.36,1.36,0,0,1,1.63,1,4.52,4.52,0,0,0,1.63,2.3,1.55,1.55,0,0,0,1.61.08,1.64,1.64,0,0,0,.88-1.46v-2.49a5.12,5.12,0,0,0-3.72-4.91c-4.65-1.32-11.08-3.09-15.33-4.07a23.15,23.15,0,0,1-11.59-6.41,1.36,1.36,0,1,1,2.05-1.79,20.7,20.7,0,0,0,10.15,5.55c4.3,1,10.78,2.78,15.46,4.1a7.87,7.87,0,0,1,5.7,7.53v2.49a4.37,4.37,0,0,1-2.33,3.86,4.22,4.22,0,0,1-4.4-.22,6.89,6.89,0,0,1-2.26-2.64c-14.43,2.92-23.23-4.34-26.39-7.66-7.48,11.56-23.09,9.29-27.25,8.45a7.79,7.79,0,0,1-3.81,3.14A3.24,3.24,0,0,1,133.06,158.82Z"/><path d="M176.32,155.18H154.71a1.36,1.36,0,1,1,0-2.71h21.61a1.36,1.36,0,1,1,0,2.71Z"/><path d="M164.65,173.13a5.37,5.37,0,0,1-3.68-1.46,4.57,4.57,0,0,1-1.56.27,4.71,4.71,0,0,1-4.69-4.7v-3.81a1.37,1.37,0,0,1,.51-1.06,1.41,1.41,0,0,1,1.14-.27,45,45,0,0,0,16.8,0,1.35,1.35,0,0,1,1.66,1.32V167a4.71,4.71,0,0,1-4.7,4.7,4.56,4.56,0,0,1-1.55-.27A5.4,5.4,0,0,1,164.65,173.13Zm-3.35-4.5.25,0a1.4,1.4,0,0,1,.88.58,2.68,2.68,0,0,0,2.22,1.18A2.72,2.72,0,0,0,167,169a1.33,1.33,0,0,1,.89-.66,1.36,1.36,0,0,1,1.09.22,1.93,1.93,0,0,0,1.15.38,2,2,0,0,0,2-2v-1.92a47.48,47.48,0,0,1-14.67,0v2.19a2,2,0,0,0,2,2,1.93,1.93,0,0,0,1.12-.35A1.35,1.35,0,0,1,161.3,168.63Z"/><path d="M199.12,174.32a1.41,1.41,0,0,1-.71-.2,1.35,1.35,0,0,1-.44-1.87c4.11-6.7,5.24-17.27,5.25-17.38a1.36,1.36,0,0,1,2.71.28c-.05.46-1.21,11.29-5.65,18.52A1.36,1.36,0,0,1,199.12,174.32Z"/><path d="M124.16,108.55a1.36,1.36,0,0,1-.89-2.39l2.54-2.17a7.57,7.57,0,0,1,3.63-1.7c6.49-1.09,13.46-1.63,16.15-1.81a6.92,6.92,0,0,1,3.2.55,31.53,31.53,0,0,1,6.67,4,1.36,1.36,0,0,1-1.74,2.09h0a28.58,28.58,0,0,0-6-3.63,4,4,0,0,0-1.92-.32c-2.65.17-9.51.7-15.88,1.77a4.75,4.75,0,0,0-2.31,1.08L125,108.23A1.38,1.38,0,0,1,124.16,108.55Z"/><path d="M138.42,111.46a54.05,54.05,0,0,1-9-.75,1.09,1.09,0,1,1,.4-2.14,49.89,49.89,0,0,0,16.43,0,1.09,1.09,0,0,1,1.28.86,1.07,1.07,0,0,1-.85,1.27A42,42,0,0,1,138.42,111.46Z"/><circle cx="138.01" cy="106.38" r="4.89"/><path d="M203.76,108.55a1.38,1.38,0,0,1-.88-.32l-2.54-2.18A4.78,4.78,0,0,0,198,105c-6.36-1.07-13.22-1.6-15.87-1.77a4,4,0,0,0-1.92.32,28.42,28.42,0,0,0-6,3.63,1.36,1.36,0,0,1-1.74-2.09,31.53,31.53,0,0,1,6.67-4,6.92,6.92,0,0,1,3.2-.55c2.69.18,9.66.72,16.14,1.81a7.56,7.56,0,0,1,3.64,1.7l2.53,2.17a1.36,1.36,0,0,1-.88,2.39Z"/><path d="M189.5,111.46a41.88,41.88,0,0,1-8.23-.76,1.07,1.07,0,0,1-.85-1.27,1.09,1.09,0,0,1,1.28-.86,49.91,49.91,0,0,0,16.43,0,1.09,1.09,0,0,1,.4,2.14A54.2,54.2,0,0,1,189.5,111.46Z"/><circle cx="189.09" cy="106.38" r="4.89"/><path d="M118.18,103.12h-.06a1.36,1.36,0,0,1-1.13-.71,12.08,12.08,0,0,1-1-9.12,6.24,6.24,0,0,1,5.51-4.55,239.42,239.42,0,0,1,29.61-.34,4.67,4.67,0,0,1,2.39.8,12.74,12.74,0,0,1,5.18,8.62,1.36,1.36,0,0,1-2,1.33L152,96.6a3.71,3.71,0,0,0-2-.44l-26.77,2a2,2,0,0,0-1.52.88l-2.35,3.52A1.36,1.36,0,0,1,118.18,103.12Zm20.43-12.31c-5,0-10.92.15-16.92.64A3.52,3.52,0,0,0,118.58,94a9.63,9.63,0,0,0-.1,4.85l.92-1.38A4.66,4.66,0,0,1,123,95.4l26.77-2a6.39,6.39,0,0,1,3.53.76l1.77,1a9.31,9.31,0,0,0-3.12-3.74,2,2,0,0,0-1-.33C149,91,144.45,90.81,138.61,90.81Z"/><path d="M209.23,103.12a1.36,1.36,0,0,1-1.13-.61L205.75,99a2,2,0,0,0-1.51-.88l-26.84-2a2.88,2.88,0,0,0-1.76.46l-5.91,3.84a1.37,1.37,0,0,1-1.48,0,1.35,1.35,0,0,1-.61-1.34,24.09,24.09,0,0,1,3.19-8.59,4.83,4.83,0,0,1,3.84-2.16,273.83,273.83,0,0,1,31.25.37,6.24,6.24,0,0,1,5.53,4.56,12.06,12.06,0,0,1-1,9.11,1.33,1.33,0,0,1-1.13.71Zm-32-9.69h.39l26.84,2A4.66,4.66,0,0,1,208,97.48l.92,1.38a9.52,9.52,0,0,0-.1-4.85,3.52,3.52,0,0,0-3.12-2.56,273,273,0,0,0-30.93-.37,2.1,2.1,0,0,0-1.67.93,18.73,18.73,0,0,0-2,4.29l3-2A5.57,5.57,0,0,1,177.2,93.43Z"/><path d="M163.82,92a1.06,1.06,0,0,1-.83-.39c-2.94-3.52-3-11.24-3-11.56a1.09,1.09,0,0,1,1.09-1.09h0A1.08,1.08,0,0,1,162.19,80c0,2,.45,7.75,2.47,10.17a1.09,1.09,0,0,1-.14,1.53A1.07,1.07,0,0,1,163.82,92Z"/><path d="M101.11,135a9.8,9.8,0,0,1-5.22-1.6c-5-3.12-4.46-9.45-4.14-11.45-4.48-6.78-2.85-15.73,1.73-19.39s10.27-.49,10.51-.35a1.36,1.36,0,0,1-1.37,2.35c-.18-.11-4.26-2.42-7.45.12s-5.18,10.16-.88,16.17a1.35,1.35,0,0,1,.22,1.1c0,.06-1.41,6.52,2.81,9.14s6.79.25,6.9.15a1.36,1.36,0,0,1,1.85,2A7.54,7.54,0,0,1,101.11,135Z"/><path d="M94.82,112.36a1.38,1.38,0,0,1-.7-.2,1.35,1.35,0,0,1-.47-1.86,7.26,7.26,0,0,1,4.63-3.66,7.46,7.46,0,0,1,5.34,1.06A1.36,1.36,0,0,1,102.1,110,4.08,4.08,0,0,0,96,111.7,1.35,1.35,0,0,1,94.82,112.36Z"/><path d="M99.71,123.49H97a1.09,1.09,0,1,1,0-2.17h1.1c-.87-2.45-.85-4.5,0-6.11a6.17,6.17,0,0,1,4.35-2.85,1.1,1.1,0,0,1,1.21,1,1.08,1.08,0,0,1-1,1.21,4,4,0,0,0-2.72,1.76c-.69,1.27-.46,3.24.67,5.67a1.08,1.08,0,0,1-1,1.54Z"/><path d="M226.12,135a7.46,7.46,0,0,1-5-1.76,1.36,1.36,0,1,1,1.85-2c.1.09,2.77,2.4,6.89-.16s2.83-9.08,2.81-9.14a1.35,1.35,0,0,1,.22-1.1c4.3-6,2.35-13.59-.88-16.17s-7.27-.22-7.44-.12a1.36,1.36,0,0,1-1.38-2.35c.24-.14,5.85-3.37,10.51.35s6.21,12.61,1.73,19.39c.32,2,.88,8.33-4.13,11.45A9.82,9.82,0,0,1,226.12,135Z"/><path d="M232.41,112.36a1.38,1.38,0,0,1-1.17-.66,4.65,4.65,0,0,0-2.88-2.41,4.75,4.75,0,0,0-3.23.66,1.36,1.36,0,0,1-1.53-2.25,7.48,7.48,0,0,1,5.35-1.06,7.26,7.26,0,0,1,4.62,3.66,1.35,1.35,0,0,1-.46,1.86A1.38,1.38,0,0,1,232.41,112.36Z"/><path d="M230.23,123.49h-2.71a1.1,1.1,0,0,1-.92-.5,1.07,1.07,0,0,1-.07-1c1.14-2.43,1.37-4.4.67-5.67a4,4,0,0,0-2.72-1.76,1.09,1.09,0,0,1,.27-2.16,6.15,6.15,0,0,1,4.34,2.85c.89,1.61.91,3.66,0,6.11h1.09a1.09,1.09,0,1,1,0,2.17Z"/><path d="M167.63,254.72c-27.56,0-44.11-14.94-49.95-21.36a7.81,7.81,0,0,1-1.87-6.84,270.38,270.38,0,0,0,4.55-37.61,1.36,1.36,0,1,1,2.71.11,272.55,272.55,0,0,1-4.6,38.06,5.09,5.09,0,0,0,1.22,4.46c5.59,6.15,21.47,20.46,47.94,20.46s38.85-16.24,43-23.23a5.12,5.12,0,0,0,.61-3.69,270.44,270.44,0,0,1-4.75-38.77,1.36,1.36,0,1,1,2.71-.11,268.21,268.21,0,0,0,4.7,38.32,7.84,7.84,0,0,1-.93,5.64C208.58,237.54,195.39,254.72,167.63,254.72Z"/><path d="M1.36,265.58A1.36,1.36,0,0,1,.88,263l72.69-27.12,45.77-28.52a1.35,1.35,0,1,1,1.43,2.3l-45.88,28.6a1.15,1.15,0,0,1-.25.12L1.83,265.5A1.26,1.26,0,0,1,1.36,265.58Z"/><path d="M329.25,265.58a1.34,1.34,0,0,1-.48-.08L256,238.33l-.24-.12-45.89-28.6a1.36,1.36,0,1,1,1.44-2.3L257,235.83,329.72,263a1.36,1.36,0,0,1,.8,1.75A1.34,1.34,0,0,1,329.25,265.58Z"/><path d="M139.37,262.87a1.23,1.23,0,0,1-.49-.1,81.45,81.45,0,0,1-33.58-25.24A7.88,7.88,0,0,1,107,226.22l10.7-7.53a1.36,1.36,0,0,1,1.56,2.23l-10.69,7.53a5.15,5.15,0,0,0-1.09,7.4,78.66,78.66,0,0,0,32.43,24.39,1.36,1.36,0,0,1-.5,2.63Z"/><path d="M191,262.87a1.36,1.36,0,0,1-.49-2.63,78.8,78.8,0,0,0,32.43-24.39,5.17,5.17,0,0,0-1.09-7.4l-10.7-7.53a1.36,1.36,0,0,1,1.56-2.23l10.7,7.53a7.88,7.88,0,0,1,1.66,11.31,81.47,81.47,0,0,1-33.57,25.24A1.27,1.27,0,0,1,191,262.87Z"/><path d="M172.16,254.55a1.73,1.73,0,0,1-.38-.05,1.36,1.36,0,0,1-.92-1.69l3.61-12.33a1.36,1.36,0,0,1,2.61.76l-3.61,12.34A1.37,1.37,0,0,1,172.16,254.55Z"/><path d="M161.84,254.49a1.37,1.37,0,0,1-1.31-1L158.17,245a1.36,1.36,0,0,1,.94-1.67,1.34,1.34,0,0,1,1.67.94l2.37,8.46a1.36,1.36,0,0,1-.94,1.67A1.19,1.19,0,0,1,161.84,254.49Z"/></g></g></svg>
