<svg height="400" viewBox="0 0 400 400" width="400" xmlns="http://www.w3.org/2000/svg" xmlns:xlink="http://www.w3.org/1999/xlink"><mask id="a" fill="#fff"><path d="m.52259519.32355372h147.46932281v97.03926078h-147.46932281z" fill="#fff" fill-rule="evenodd"/></mask><mask id="b" fill="#fff"><path d="m.44959934.8065365h100.35402666v62.8256949h-100.35402666z" fill="#fff" fill-rule="evenodd"/></mask><g fill="none" fill-rule="evenodd" transform="translate(40 57)"><g fill="#000"><path d="m96.1658536 101.677727 4.7507484 2.372727.593709-7.1192602 1.187417-7.1192603 2.968543-8.305624 3.563331-6.5260785s-.593709-7.7124422 1.781126-13.6453389c2.375914-5.9328966 4.15704-11.2726115 8.314079-14.2385206 4.155961-2.9669876 13.063749-5.3397149 18.407126-5.3397149 5.344457 0 13.063748.5931818 17.220788 1.7795455l12.47004 3.5601694h9.501497l10.094125-1.1863636s9.500418 0 14.251166 2.3727272c4.750748 2.3727273 8.906709 6.5260785 8.906709 6.5260785l1.782205 10.086248 1.781126 6.525 2.968543 7.7135206 1.782205 7.1192604.593709 6.5260785-1.187418 5.3386363-.594788 5.9328966 7.125583-1.186364v-5.9328962s7.125583-11.8657934 8.31408-23.7305083c1.187417-11.8657934-2.375914-30.2576653-5.938166-38.5632892l1.187417-10.086248.593709-5.3386363-1.781126-2.3738058h-2.375914l.594788-4.1533512-1.187417-1.7795455-1.782205-.5931818-1.781126-.59318183-.593709-2.96698761-2.375914-.5921033-15.438582 1.77846694s-12.47004-8.89880578-26.721206-3.55909091c0 0-19.595622-2.37272727-35.627914 2.37272727-16.03337 4.74653304-26.127496 17.79869004-29.097119 24.32476864 0 0-16.6259998 2.3738057-20.7830395 23.7315867-4.1559603 21.357781 3.5633311 37.3758471 6.5318741 41.5291984z"/><path d="m154.061942 97.2277847h11.876332v2.3738058l.593708 5.9328965-5.938165-1.780624-6.531875 1.780624.593709-5.340793z"/><path d="m152.874417 141.130789c0 1.146459-1.063278 2.076136-2.374834 2.076136-1.312636 0-2.375914-.929677-2.375914-2.076136s1.063278-2.076137 2.375914-2.076137c1.311556 0 2.374834.929678 2.374834 2.076137"/><path d="m173.657349 141.130789c0 1.146459-1.063278 2.076136-2.374834 2.076136-1.312636 0-2.374835-.929677-2.374835-2.076136s1.062199-2.076137 2.374835-2.076137c1.311556 0 2.374834.929678 2.374834 2.076137"/><path d="m139.561743 43.4401066c-9.972146 0-18.695344 2.3867479-22.268391 7.741562-6.782311 10.1649793-6.876225 23.9580744-6.876225 24.096124 0 .2922768-.087437.5791611-.249357.8218264-9.097775 13.6334752-7.495842 29.708702-7.47857 29.869401.018351.170405.006477.341888-.033464.507979-.052894.216781-5.2224764 21.835562-1.770331 38.506128 3.652927 17.639071 11.041901 30.913401 26.354186 47.345616 15.757026 16.908917 24.747934 18.214996 35.729384 18.214996 10.169689 0 19.922702-3.787736 34.461006-22.273438 13.356285-16.983335 17.626669-30.264137 20.188252-46.188372 1.889073-11.745.016192-24.978347-1.268377-31.82043-.50951-2.715694-.501954-5.436781.024827-8.088843 2.451477-12.3565163.104709-18.7369957-2.380231-25.4917188-.255835-.6934835-.51059-1.3880455-.762106-2.0923141-2.666292-7.4589917-4.358901-17.0760867-4.739954-19.358219-5.983503-5.7721983-14.458424-8.5914297-22.774662-7.5528223-9.483146 1.1842066-18.502119 1.1982273-18.591715 1.1982273-.197543 0-.392928-.0388265-.574279-.1154008-8.132728-3.4080992-18.062774-5.3203017-26.989993-5.3203017m23.407232 170.0706194c-11.358186 0-21.361636-1.410694-37.902358-19.160851-15.720324-16.869012-23.314397-30.542392-27.0882249-48.766016-3.4283974-16.553009 1.1248079-36.966013 1.7336291-39.560914-.1975431-2.263797-1.1453179-17.5829871 7.7430398-31.2013632.062609-2.5938223.711371-15.3094835 7.368464-25.2857231 7.622139-11.4225248 33.967688-11.3233017 52.595026-3.6281157 1.608411-.0140207 9.587854-.1315785 17.931079-1.1734215 9.37304-1.172343 18.937146 2.092314 25.579126 8.7284008.222371.2221736.3681.5079794.417755.8175124.017272.1121653 1.795159 11.2359422 4.681663 19.3107645.248278.6956405.500874 1.3815744.75239 2.0664297 2.517325 6.8420827 5.119927 13.917124 2.505451 27.0922311-.451219 2.278897-.457696 4.622504-.018351 6.965033 1.320192 7.031901 3.242728 20.649199 1.281331 32.837467-2.636067 16.39231-7.032749 30.063533-20.78412 47.550533-15.277741 19.427244-25.759397 23.408033-36.7959 23.408033"/><path d="m186.127605 169.311671h-49.286451c-.819318 0-1.484271-.664364-1.484271-1.482955 0-.819669.664953-1.482954 1.484271-1.482954h49.286451c.819318 0 1.484271.663285 1.484271 1.482954 0 .818591-.664953 1.482955-1.484271 1.482955"/><path d="m160 176.431039c-12.862967 0-21.538669-7.162401-21.901371-7.46762-.628252-.527393-.709212-1.462463-.181351-2.089079.527861-.627694 1.462682-.710739 2.089854-.182268.109027.089516 8.268742 6.773058 19.992868 6.773058 11.900079 0 22.775742-6.819434 22.884768-6.888459.690861-.438954 1.608411-.235116 2.048835.456211.439344.691326.235324 1.608062-.456616 2.048095-.472808.298748-11.721967 7.350062-24.476987 7.350062"/><path d="m141.592119 114.136918c-.155444 0-.314126-.024806-.46957-.076575-.778298-.258843-1.198212-1.099004-.939139-1.876611.776139-2.324194 1.010384-4.665645 1.081629-5.852008-2.244218-1.343827-6.943152-3.506244-13.183569-2.881786-5.601371.559748-10.12651 2.795505-10.170769 2.817075-.734039.366694-1.625682.070103-1.992702-.663285-.36702-.73231-.069086-1.623161.663875-1.989856.204019-.10138 5.064874-2.502148 11.2049-3.115822 5.5841-.5575909 11.351709.827219 15.816398 3.801756.413437.275021.660635.737703.660635 1.233818 0 .155306-.014033 3.843819-1.26298 7.588414-.208338.621223-.786934 1.01488-1.408708 1.01488"/><path d="m136.146299 106.23401c0 2.456852-1.993781 4.448864-4.452814 4.448864-2.460113 0-4.453894-1.992012-4.453894-4.448864 0-2.456851 1.993781-4.448863 4.453894-4.448863 2.459033 0 4.452814 1.992012 4.452814 4.448863"/><path d="m131.529513 113.416579c-3.431636 0-6.13247-1.055863-6.300867-1.12381-.456616-.182268-.677908-.698876-.496557-1.155086.182431-.456211.699497-.678385 1.157192-.497195.056133.021571 5.66614 2.199087 10.590683.012943.450139-.198447.975841.002157 1.175543.451896.199702.448661-.003239.974975-.452298 1.1745-1.919298.853104-3.894729 1.136752-5.673696 1.136752"/><path d="m178.704736 114.030037c-.621775 0-1.200371-.392578-1.407629-1.01488-1.250027-3.744595-1.26406-7.433107-1.26406-7.588413 0-.496116.248278-.958798.660636-1.233818 4.464689-2.973459 10.230139-4.3593475 15.816397-3.801757 6.140027.613674 11.000881 3.014443 11.204901 3.115823.73296.366694 1.030894 1.257545.663874 1.989855s-1.257583 1.028901-1.991623.664364c-.077721-.039905-4.617973-2.263798-10.171847-2.818153-6.243656-.62338-10.938272 1.537959-13.181411 2.881785.071245 1.189599.307649 3.538599 1.07947 5.852008.259073.777608-.160841 1.617769-.939139 1.876612-.155443.051768-.314126.076574-.469569.076574"/><path d="m184.150555 106.12713c0 2.45793 1.993781 4.449942 4.452815 4.449942 2.460112 0 4.453894-1.992012 4.453894-4.449942 0-2.456851-1.993782-4.448864-4.453894-4.448864-2.459034 0-4.452815 1.992013-4.452815 4.448864"/><path d="m188.767233 113.309591c-1.778967 0-3.753318-.283649-5.673695-1.136752-.44906-.199525-.652-.725839-.452298-1.1745.200781-.448661.727563-.651422 1.176622-.451897 4.942894 2.194773 10.53347.009707 10.589603-.012942.455536-.182269.973682.039905 1.157192.496116.18243.45621-.03994.973896-.496556 1.156165-.168398.067946-2.870312 1.12381-6.300868 1.12381"/><path d="m106.020769 97.0266421c-.89704.1423637-1.56955.8930083-1.597616 1.7849381-.369179 11.3880128 1.981907 19.3841028 3.416523 23.1362478.315205.822905 1.028735 1.434422 1.910662 1.635025 15.002477 3.413492 29.13706 1.585413 34.517139.639558 1.357974-.238351 2.524881-1.118418 3.11859-2.353314 4.213172-8.763992 5.371444-17.778199 5.687728-22.371583.044259-.6481859-.412357-1.2273471-1.085947-1.3772603-19.797483-4.4337644-38.741106-2.2411487-45.967079-1.0936116m22.255437 31.5033469c-5.763291 0-12.384762-.507979-19.185424-2.055644-1.851291-.42062-3.356073-1.718071-4.024265-3.467418-1.514496-3.960297-3.996198-12.383479-3.610828-24.2913344.074484-2.3101736 1.798398-4.2525744 4.098749-4.6181901 7.393291-1.1745 26.783814-3.4178058 47.082172 1.1281239 2.115762.473467 3.54498 2.3554711 3.399252 4.474748-.330318 4.8058516-1.545802 14.2428346-5.973788 23.4533306-1.007146 2.094471-2.981497 3.587132-5.280769 3.990496-3.123986.548963-9.10641 1.385888-16.505099 1.385888"/><path d="m193.879496 95.4604264c-7.616742 0-16.42306.648186-25.406411 2.6596116-.673589.1499132-1.130205.7301529-1.085947 1.3772603.315206 4.5933847 1.474557 13.6075907 5.687729 22.3715827.593708 1.234897 1.759536 2.114963 3.118589 2.353314 5.38008.944777 19.513583 2.775012 34.517139-.639558.881928-.200603 1.595457-.81212 1.909583-1.633946 1.434616-3.753223 3.785702-11.750393 3.417603-23.1373265-.029146-.8919298-.701656-1.6425744-1.598696-1.7849381-3.946543-.6266157-11.38949-1.566-20.559589-1.566m-1.694768 33.0693476c-7.399768 0-13.381113-.836926-16.5051-1.385889-2.300351-.403364-4.273622-1.894946-5.280768-3.990496-4.427986-9.210496-5.64347-18.647479-5.973788-23.4522518-.145728-2.1203554 1.28349-4.0023595 3.398172-4.4758265 20.299437-4.5448512 39.688881-2.3037024 47.083252-1.1281239 2.300351.3656157 4.024265 2.306938 4.098748 4.6181901.385371 11.9056981-2.09741 20.3299591-3.610827 24.2913351-.669272 1.750425-2.174053 3.046797-4.024265 3.467417-6.799583 1.547665-13.423212 2.055645-19.185424 2.055645"/><path d="m147.720487 149.283911c-2.645782 0-6.25553-.939384-8.050689-4.523281-2.87355-5.743078 2.113603-11.851773 5.151232-14.280582.639046-.512294 1.573867-.407678 2.086616.23188.512748.639558.408039 1.572471-.232086 2.084764-2.777477 2.219579-6.227464 6.885223-4.350265 10.637368 1.829702 3.655078 6.503808 2.805211 6.700271 2.767463.799888-.156385 1.582504.368851 1.740106 1.170186.156523.802413-.361622 1.578942-1.162589 1.73964-.520305.103537-1.165828.172562-1.882596.172562"/><path d="m173.951397 149.283911c-.717848 0-1.362292-.069025-1.882596-.172562-.804206-.160698-1.32559-.94262-1.164749-1.745033.160841-.801335.939139-1.321178 1.742265-1.164793.20402.038826 4.871649.88438 6.699192-2.767463 2.014292-4.025008-2.060708-9.104802-4.350265-10.935037-.639046-.511215-.743755-1.444128-.232086-2.083686.512749-.640637 1.44649-.744174 2.086616-.23188 3.574126 2.8559 7.895245 9.095095 5.151232 14.577173-1.79408 3.583897-5.403828 4.523281-8.049609 4.523281"/><path d="m171.280679 128.078632c-.606662 0-1.124807-.462682-1.18094-1.078513-1.126967-12.383479-7.776503-17.50102-7.84343-17.550632-.524623-.392578-.630411-1.136752-.237484-1.660909.394007-.524157 1.137762-.629851 1.662384-.237273.308729.230802 7.562768 5.811025 8.783649 19.233112.059371.6525-.420993 1.229504-1.075152 1.289901-.036702.003235-.072325.004314-.109027.004314"/><path d="m166.530579 106.258277c-.229927 0-.463093-.052847-.681146-.166091-5.503139-2.847273-11.04298-.032355-11.098033-.003236-.725404.376401-1.621364.098145-2.002417-.626615-.379974-.723682-.103629-1.61669.619616-1.998484.279582-.147756 6.936675-3.5806609 13.845284-.006471.728643.37748 1.013623 1.272645.636888 1.999562-.26447.509058-.782616.801335-1.320192.801335"/><path d="m159.825558 98.4842517c-5.275371 0-8.499749-.5651405-8.699451-.6007315-.806364-.1455991-1.342861-.9167355-1.197132-1.7234628.145728-.8056487.918629-1.3427479 1.722834-1.1960702.071245.0129421 7.106153 1.2327397 17.372994-.0129422.81392-.1003016 1.553357.4799381 1.652669 1.2942149.099311.8131984-.480365 1.5519794-1.294285 1.6512025-3.633497.4400331-6.863272.5877893-9.557629.5877893"/><path d="m102.823378 106.751157c-.132775 0-.266629-.017256-.400483-.055004l-7.5476559-2.106335c-.6412053-.179033-1.0848676-.763587-1.0848676-1.429029v-5.9328964c0-.7279959.5300199-1.349219 1.2500265-1.4646199l11.510391-1.8431777c.809602-.1315785 1.570629.4206199 1.700165 1.2295042.129537.8088843-.420993 1.570314-1.230596 1.698657l-10.260364 1.6447314v3.5418344l6.461709 1.804352c.790172.220016 1.251106 1.038607 1.030894 1.828078-.18351.654657-.780457 1.083905-1.429219 1.083905"/><path d="m217.404822 106.751157c-.649841 0-1.245709-.429248-1.429219-1.083905-.220212-.789471.240722-1.608062 1.030894-1.828078l6.461709-1.804352v-3.5418344l-10.260364-1.6447314c-.809603-.128343-1.361212-.8897727-1.230596-1.698657.129536-.8088843.892722-1.3589256 1.700165-1.2295042l11.510391 1.8431777c.720007.1154009 1.250026.736624 1.250026 1.4646199v5.9328964c0 .665442-.443662 1.249996-1.084867 1.429029l-7.547656 2.106335c-.133854.037748-.267708.055004-.400483.055004"/><path d="m96.0620086 133.310064c-2.5637417 0-4.4711656-.830454-5.6877285-2.481657-3.6604834-4.965471 1.0611192-15.501459 2.2064371-17.880657-.4825232-8.919298 4.5683179-11.165839 4.7874503-11.258591.7534702-.320318 1.6256822.031277 1.9462848.786236.3162848.747409-.0259073 1.608062-.7664238 1.934851-.1845894.088438-3.4769735 1.767682-2.9804172 8.730558.0194304.265314-.0334636.530628-.1522053.768979-2.1600199 4.322678-4.7885298 12.261607-2.6500994 15.160649.8538609 1.157244 2.6036821 1.52933 5.2019669 1.104397.8074437-.133736 1.5727881.415227 1.7044835 1.224111.1327748.808884-.4155961 1.571393-1.2251987 1.702971-.8484636.139128-1.6440331.208153-2.3845497.208153"/><path d="m219.897426 135.579254c-.723245 0-1.355814-.528471-1.467-1.264016-.1209-.809963.437186-1.564922 1.248948-1.686794 4.691377-.702111 6.691635-2.52264 7.133139-6.493723.545132-4.903996-2.837928-13.438264-2.872471-13.524545-.129536-.324633-.140331-.687013-.029145-1.019195 2.027245-6.079574-.506272-8.838409-.532179-8.864293-.579676-.579161-.579676-1.518545 0-2.097707.578596-.579161 1.519894-.579161 2.09849 0 .156523.156385 3.722013 3.834112 1.414106 11.383699.764265 2.017896 3.42192 9.498458 2.87247 14.449909-.777218 6.980132-5.876636 8.535347-9.645066 9.100487-.074484.010786-.148967.016178-.221292.016178"/></g><path d="m139.861602 167.828177s6.194437-2.864529 12.078055-7.738327c1.138807-.941541 2.971473-.945855 4.138653-.029119.697728.548962 1.488316 1.155086 2.24537 1.700814 1.154283.83369 2.838634.900557 4.071588.150991.768662-.466996 1.701117-1.066648 2.700635-1.781702 1.325814-.946934 3.28745-.932913 4.556516.065789 3.050145 2.39969 8.785448 6.410678 14.405967 7.631554" stroke="#000" stroke-linecap="round" stroke-linejoin="round" stroke-width="2.7"/><path d="m150.106656 140.706933c-.146808 0-.28606.021571-.419914.066868-.423153.140207-.606663.445426-.596947.668678.009715.259921.310887.489645.806364.613673 1.162589.29012 1.868563-.246979 2.155702-.542491-.79557-.525236-1.418424-.806728-1.945205-.806728m19.366774 1.014881c1.891232.924285 2.966385.722603 3.320451.244822.221291-.299826.195384-.716132.023748-.886537-.36702-.366694-1.171225-1.171265-3.344199.641715m-8.794443 3.822248c-2.110364 0-4.134371-.553277-5.577623-1.707286l-.248278-.197367c-.310887-.249137-.605583-.484252-.884086-.704269-.735119.895165-2.356483 1.996327-4.648199 1.423636-1.858847-.464838-2.564821-1.764446-2.604761-2.824624-.051815-1.342747.840907-2.552838 2.22047-3.012285 2.34353-.780843 4.356742.828298 7.401927 3.264657l.247199.197368c2.481702 1.983384 7.773265 1.419322 10.294907-1.099004 3.760874-3.758616 6.217748-2.880707 7.616742-1.482955 1.014702 1.012724 1.105377 2.758835.207258 3.974319-.474967.641715-2.356483 2.557153-6.650616.286884-.155444-.083046-.286059-.195211-.38645-.326789-1.918219 1.446285-4.513265 2.207715-6.98849 2.207715" fill="#000"/><path d="m165.937626 184.439856c-.277424 0-.555927-.095987-.781537-.293355-4.147324-3.62488-10.572331-1.010566-10.637099-.984682-.606662.25345-1.300762-.033434-1.553358-.638479-.251516-.605046.034543-1.299608.640126-1.550901.318444-.133736 7.868259-3.198868 13.114484 1.388045.493318.432484.544053 1.180971.112265 1.67493-.235325.267471-.564563.404442-.894881.404442" fill="#000"/><path d="m188.799401 170.498681c-.146808 0-.295775-.028041-.440424-.085202-3.350675-1.338434-5.291562-5.155289-5.372523-5.317066-.292536-.586711-.055053-1.299608.5311-1.592963.586152-.291198 1.298602-.056083 1.593298.52955.015112.031276 1.626761 3.176219 4.130053 4.176.608821.244822.904596.93507.660635 1.543351-.184589.46376-.63041.74633-1.102139.74633" fill="#000"/><path d="m137.533895 97.3628145c-.315206 0-.633649-.1003017-.903517-.3073761-.649841-.4993512-.771821-1.4301074-.272026-2.0793719 5.790278-7.5215454 9.165781-20.4140826 8.600139-32.846095-.575358-12.6649711-6.375351-27.8601322-6.433643-28.0122025-.110106-.2847273-.128457-.5953388-.055053-.8919297 1.44757-5.7862191 1.778967-11.1108348 1.801636-14.5588389.003239-.3720868-.140331-.7215248-.401563-.9857603-.26447-.2642356-.616377-.4109132-.990953-.4109132h-1.343941c-.436106 0-.850622-.1919752-1.132364-.5252356-.282821-.3321818-.403722-.7711363-.331397-1.2014628l.67143-4.0250083c.044258-.2663925-.091755-.437876-.177033-.5166074-.085278-.0776529-.267709-.2006033-.52894-.134814l-1.704484.4260124c-.412358.1035371-.848463.0248057-1.199291-.214624-.349749-.2405083-.580755-.6190661-.633649-1.0407645l-.288219-2.29830989c-.031304-.25668595-.163-.48425207-.36702-.64279339-.206179-.15854132-.460933-.22756611-.716768-.19305372l-15.366258 2.04809504c-.379974.05069009-.761027-.04745454-1.069755-.27070661-12.264941-8.91174793-25.1786426-4.02177273-25.3070995-3.97108264-.2137351.08196694-.4415033.11540082-.6692715.0959876-.2698676-.02264876-27.096861-2.23683471-43.1496623 5.78190491-8.2655033 4.129624-13.2720861 9.3194257-16.0160993 12.9453843-2.9771788 3.9344133-4.0134702 6.9359133-4.0242649 6.9650331-.1867484.5511198-.6800662.9458554-1.2597417 1.004095-.6746689.0711819-16.70696031 2.0578017-20.05331793 26.0191116-3.41976158 24.4833099 6.70350993 37.2949587 6.80605963 37.4211446.5149073.6363224.4199139 1.5692356-.2148146 2.085843-.6347285.5155289-1.56739072.4238554-2.08553642-.2092314-.45229801-.5532768-11.05809271-13.8513347-7.44618543-39.7075909 1.91174172-13.6874008 7.91143709-20.7139091 12.60929135-24.1975041 3.8817749-2.8796281 7.5120332-3.8837232 9.1625431-4.2148265.5332583-1.2575454 1.7552185-3.7823429 4.0436954-6.8312975 2.9404768-3.9160785 8.3022053-9.5135578 17.1506225-13.93330165 16.0096225-7.99716942 41.0770794-6.3686157 44.4029271-6.11085124 2.2593311-.78839256 14.8891325-4.58044214 27.3084375 4.11021075l14.785503-1.97044215c1.049245-.13804959 2.085536.1391281 2.922126.78407851.837669.64495041 1.369847 1.57678513 1.500463 2.62402066l.080961.63740083.078801-.01941322c1.16151-.29011984 2.382391.02049173 3.262159.83261157.880848.81211983 1.288887 2.00279754 1.091344 3.18376864l-.385371 2.3166446c1.017941.092752 1.961398.5349421 2.69112 1.2683306.823635.8282975 1.272695 1.9273016 1.265139 3.0953305-.023749 3.5202645-.355146 8.911748-1.778967 14.8068967.992033 2.6671612 5.914417 16.436529 6.462788 28.5029257.605583 13.2905082-2.925364 26.6209214-9.213278 34.7874173-.292537.3796364-.732961.5791612-1.177702.5791612" fill="#000" mask="url(#a)" transform="translate(86.596026 .754959)"/><path d="m114.816184 91.0468302c-.958569 0-1.861007-.5834752-2.22155-1.5314876-.465251-1.2251901.151126-2.5949009 1.377404-3.0608182.517067-.1962893 12.872683-4.7562397 29.968252-.170405 1.267298.3408099 2.018609 1.6425744 1.677497 2.908748-.340033 1.265095-1.640795 2.0168181-2.910252 1.6760082-15.628569-4.1954132-26.93602-.0204917-27.048285.0226488-.278503.1056942-.563483.1553058-.843066.1553058" fill="#000"/><path d="m140.105688 88.2847599c-.20402 0-.411278-.0258843-.617457-.0819669-9.867437-2.6488265-21.970457-.3882645-22.091357-.3656157-1.287808.2480578-2.532438-.5964174-2.779636-1.8830827-.247199-1.2866653.595867-2.5301901 1.883675-2.7771694.536497-.1024587 13.278563-2.4935207 24.218994.4421901 1.267298.3397314 2.018609 1.6414959 1.678576 2.9076694-.28498 1.0590992-1.244629 1.7579752-2.292795 1.7579752" fill="#000"/><path d="m136.884765 85.6891041c-.20402 0-.411278-.0258843-.617457-.0819669-6.958265-1.866905-15.474205-.2674711-15.559483-.2512934-1.286729.2459008-2.533517-.5953388-2.780716-1.8820041-.248278-1.2866653.594788-2.5312686 1.883676-2.778248.391847-.0754958 9.686086-1.8183719 17.688198.3278678 1.267298.3397314 2.01753 1.6414959 1.678577 2.9076694-.28606 1.0601777-1.24463 1.7579752-2.292795 1.7579752" fill="#000"/><path d="m205.778388 91.0468302c-.279583 0-.562404-.0496116-.837669-.1531488-.130616-.0485331-11.534139-4.1910992-27.054761-.0248058-1.266219.3397314-2.570219-.4109132-2.910252-1.6760082-.340033-1.2661736.411278-2.5679381 1.678576-2.908748 17.09557-4.5869132 29.450106-.0258843 29.967172.170405 1.226278.4659173 1.843735 1.8356281 1.377404 3.0608182-.360543.9480124-1.26298 1.5314876-2.22047 1.5314876" fill="#000"/><path d="m180.487805 88.2847599c-1.048166 0-2.006735-.698876-2.292795-1.7579752-.338954-1.2661735.411278-2.567938 1.678576-2.9076694 10.940431-2.9367893 23.682497-.5457273 24.218993-.4421901 1.288888.2469793 2.131954 1.4915827 1.884755 2.7782479-.248278 1.2866653-1.491827 2.130062-2.779635 1.8820042-.12198-.0226488-12.223921-2.2832108-22.092437.3656157-.206179.0560826-.413437.0819669-.617457.0819669" fill="#000"/><path d="m183.709375 85.6891041c-1.048165 0-2.007814-.6977975-2.292794-1.7579752-.340033-1.2661735.411278-2.567938 1.678576-2.9076694 8.002113-2.1473182 17.29743-.4033636 17.688199-.3278678 1.287808.2469794 2.131953 1.4915827 1.883675 2.778248-.247199 1.2866653-1.495066 2.1279049-2.780715 1.8820041-.146808-.0269628-8.655192-1.6005124-15.559484.2512934-.206178.0560826-.413437.0819669-.617457.0819669" fill="#000"/><path d="m160 250.590845c-12.024219 0-22.989477-2.851586-30.877166-8.030603-8.74047-5.739843-13.361682-13.938694-13.361682-23.710016v-35.597381c0-.81859.664954-1.482954 1.485351-1.482954.819318 0 1.484272.664364 1.484272 1.482954v35.597381c0 14.322644 12.760417 28.77471 41.269225 28.77471 24.717709 0 38.894391-11.3535 38.894391-31.147438v-29.071301c0-.818591.663874-1.482955 1.484271-1.482955.820398 0 1.484272.664364 1.484272 1.482955v29.071301c0 11.269376-4.071762 20.00317-12.1041 25.959794-7.192509 5.334322-17.483099 8.153553-29.758834 8.153553" fill="#000"/><path d="m48.8454868 63.6324471c-13.5074106 0-25.8673444-3.6324297-34.8031987-10.2275331-8.76529803-6.4689173-13.59268876-15.1628057-13.59268876-24.4800743 0-18.1125372 7.15041059-27.18821904 7.45482119-27.56569838.51382781-.63847934 1.44972848-.73770248 2.08769536-.22433058.63796691.5133719.73835761 1.44628513.22560931 2.08368595-.1165828.14883471-6.79850335 8.78448351-6.79850335 25.70634301 0 8.3509215 4.39884106 16.1981777 12.38692055 22.0944049 8.4285033 6.2208595 20.1623444 9.6472934 33.0393444 9.6472934 13.8463642 0 26.2548741-2.875314 34.9370529-8.0942355 9.1927682-5.525219 14.0514636-13.4975827 14.0514636-23.0532025 0-18.2225455-6.6970331-26.18196694-6.7639603-26.26069835-.5354172-.61906611-.4674105-1.55521487.1532848-2.09123553.6196159-.53386364 1.5576755-.46699587 2.0930927.15314876.3054901.35375206 7.4872055 8.88370662 7.4872055 28.19878512 0 10.6535455-5.3563313 19.5038182-15.4903975 25.5952562-9.2704901 5.5726736-21.880861 8.5180909-36.4677417 8.5180909" fill="#000" mask="url(#b)" transform="translate(108.18543 197.044215)"/><path d="m1.48589073 245.979274c-.53649669 0-1.05464239-.292277-1.31911258-.801335-.3767351-.726917-.09283444-1.622082.63472847-1.999562 24.91201328-12.905479 45.28161588-21.276892 57.98482118-26.027739 12.4916292-4.672116 20.2476225-6.862575 21.6574106-7.249761 18.1750397-11.701859 35.3440136-20.947946 35.5156486-21.040698.722166-.387186 1.622444-.117558 2.009974.603967.388609.721525.117662 1.621004-.603424 2.009268-.172715.091674-17.363278 9.349624-35.5059337 21.045013-.1316954.084124-.2752649.147756-.4253112.187661-.0788014.020492-7.9956358 2.130062-21.6649669 7.244368-12.6146888 4.720649-32.8482782 13.038136-57.60160931 25.862727-.21805298.112165-.45229801.166091-.68222516.166091" fill="#000"/><path d="m117.255399 49.7139211c-.247198 0-.498715-.0625537-.729722-.1930537-23.1913373-13.1093182-43.956026-20.5941943-57.2918008-24.5641984-14.4163245-4.2924793-23.4320596-5.5014917-23.5216557-5.5122769-.197543-.0258842-.3875298-.0916735-.5591655-.1919752-19.8233908-11.65116938-33.37074175-16.1852355-33.50567553-16.2294545-.77829801-.25776447-1.20037086-1.09684711-.94345695-1.87445455.25799337-.77760744 1.09782119-1.2003843 1.8761192-.94261983.55916556.18442562 13.87119208 4.64191735 33.82303978 16.33946278 1.717437.2469794 10.3456423 1.5994339 23.6792582 5.5683595 13.4815033 4.0142232 34.4728808 11.5799876 57.9060203 24.8262769.713529.4033636.965046 1.3082355.560245 2.0211322-.273106.4820951-.776139.7528017-1.293206.7528017" fill="#000" transform="translate(200.258278 189.552479)"/><path d="m162.077225 155.666008c-.464173 0-.854941-.359144-.887325-.829376l-.711371-10.401173c-.033463-.490723.337874-.914579.827954-.948013.492238-.036669.915391.336496.949934.827219l.710291 10.401174c.033464.490723-.336795.914578-.827954.948012-.02051.002157-.04102.002157-.061529.002157" fill="#000"/><path d="m98.2140404 122.712386c-.1511258 0-.3044106-.02912-.452298-.089517-2.2323444-.92105-3.6745166-3.074839-3.6745166-5.486393 0-3.272206 2.6641325-5.932896 5.9381652-5.932896.656318 0 1.187418.530628 1.187418 1.186363 0 .655736-.5311 1.186364-1.187418 1.186364-1.9646354 0-3.5633307 1.597277-3.5633307 3.560169 0 1.447364.8657351 2.7405 2.2053576 3.292699.6066622.249136.8948808.943698.6455232 1.548744-.1899868.458367-.6325696.734467-1.0989007.734467" fill="#000"/><path d="m220.004402 122.712386c-.466331 0-.908914-.2761-1.097821-.734467-.250437-.605046.037781-1.299608.644444-1.548744 1.339622-.552199 2.205357-1.845335 2.205357-3.292699 0-1.962892-1.598695-3.560169-3.563331-3.560169-.656318 0-1.187417-.530628-1.187417-1.186364 0-.655735.531099-1.186363 1.187417-1.186363 3.274033 0 5.938166 2.66069 5.938166 5.932896 0 2.411554-1.442173 4.565343-3.674517 5.486393-.147887.060397-.301172.089517-.452298.089517" fill="#000"/></g></svg>