<svg height="912" viewBox="0 0 500 912" width="500" xmlns="http://www.w3.org/2000/svg"><g fill="none" fill-rule="evenodd"><path d="m504.008574 580.289182c-50.912855 86.493357-136.591444-19.122414-272.481673-7.441652-139.8820212 12.023885-303.8541442-112.889332-192.4786573-185.552843 116.2424823-75.838832 183.8128533-20.716934 258.7714373-41.358743 128.221268-35.309082 291.279495 89.796979 206.188893 234.353238z" fill="#f5f1ed" fill-rule="nonzero" transform="matrix(-.40673664 -.91354546 .91354546 -.40673664 -63.334611 913.398145)"/><g transform="translate(61 82)"><g stroke="#000"><path d="m88.14069 717.070184c.5886 11.240401-8.0442 20.831563-19.2825 21.42032s-20.8251-8.046349-21.4146-19.287651c-.5895-11.240401 8.0442-20.831562 19.2825-21.420319 11.2374-.588757 20.8251 8.046348 21.4146 19.28765z" stroke-linecap="round" stroke-linejoin="round" stroke-width="3.6"/><path d="m82.17207 717.383198c.4167 7.943721-5.6844 14.721631-13.6269 15.137542-7.9416.415911-14.7177-5.685919-15.1335-13.62964-.4158-7.944621 5.6844-14.722531 13.6269-15.138442 7.9416-.416811 14.7177 5.685918 15.1335 13.63054z" stroke-linecap="round" stroke-linejoin="round" stroke-width="3.6"/><path d="m73.18485 717.854383c.1557 2.978896-2.1321 5.520274-5.1102 5.676916-2.9781.155742-5.5197-2.132669-5.6754-5.111565-.1557-2.979795 2.1321-5.521174 5.1102-5.676915 2.9781-.156642 5.5188 2.131769 5.6754 5.111564z" stroke-linecap="round" stroke-linejoin="round" stroke-width="3.6"/><path d="m41.53581 719.513346c.0945 1.813085-1.2969 3.359698-3.1104 3.455123-1.8117.094525-3.3579-1.298147-3.4533-3.111231s1.2969-3.360597 3.1095-3.455122c1.8126-.095426 3.3597 1.297246 3.4542 3.11123z" stroke-linecap="round" stroke-linejoin="round" stroke-width="3.6"/><path d="m122.37102 742.268993-116.8398 6.125235-3.3021-63.031231 116.8398-6.125235z" stroke-linecap="round" stroke-linejoin="round" stroke-width="3.6"/><path d="m114.78078 697.897044-18.3798.963258-.6876-13.131807 18.3789-.963257z" stroke-linecap="round" stroke-linejoin="round" stroke-width="3.6"/><path d="m90.80604 692.570322-10.5021.550047-.3438-6.565453 10.5021-.550947z" stroke-linecap="round" stroke-linejoin="round" stroke-width="3.6"/><path d="m33.73641 683.711146-19.692 1.031676-.0873-1.655542c-.1035-1.98593 1.422-3.681083 3.4074-3.784611l12.5019-.656275c1.9854-.103528 3.6792 1.42148 3.7827 3.40741z" stroke-linecap="round" stroke-linejoin="round" stroke-width="3.6"/><path d="m85.08564 707.35479 35.3592-1.854495" stroke-linecap="round" stroke-linejoin="round" stroke-width="3.6"/><path d="m3.60486 711.62571 45.8613-2.404542" stroke-linecap="round" stroke-linejoin="round" stroke-width="3.6"/><path d="m96.05745 692.295119 18.3789-.963258" stroke-linecap="round" stroke-linejoin="round" stroke-width="3.6"/><path d="m377.09523 174.536895c-2.1447 24.512646-27.9666 42.277089-57.6765 39.677195-29.7108-2.599894-52.0569-24.579263-49.9131-49.091909 2.1447-24.513545 27.7542-39.845539 57.465-37.245645 29.709 2.599894 52.2684 22.147714 50.1246 46.660359z" stroke-linecap="round" stroke-linejoin="round" stroke-width="3.6"/><path d="m334.76094 157.859132c2.8008 2.427048 4.4028 5.683218 4.1022 9.117635-.5733 6.548348-7.8408 11.261107-16.2333 10.52651-8.3934-.734596-14.733-6.638372-14.1597-13.185821.2862-3.274174 2.2464-6.089225 5.184-7.994134" stroke-linecap="round" stroke-linejoin="round" stroke-width="3.6"/><path d="m273.26916 185.118681s7.8606-.703988 15.8328 8.062553c7.2639 7.987833 15.858 10.802884 24.9975 8.31372 11.9214-3.245367 18.9378-1.375568 26.8515 1.1244 10.7289 3.390305 20.1123 1.147806 27.0378-6.559151" stroke-linecap="round" stroke-linejoin="round" stroke-width="3.6"/><path d="m309.96522 168.587747s14.0553-10.735367 26.7102 2.743032" stroke-linecap="round" stroke-linejoin="round" stroke-width="3.6"/></g><path d="m290.4957 170.634353c-.1188 1.362064-1.3194 2.369433-2.6811 2.250601s-2.3688-1.319752-2.25-2.681816 1.3194-2.369433 2.6811-2.250601c1.3626.118832 2.3697 1.319753 2.25 2.681816" fill="#000"/><path d="m298.20024 145.576702c-.1197 1.362064-1.3203 2.369433-2.6811 2.250601-1.3617-.118831-2.3688-1.319752-2.25-2.681816s1.3194-2.369433 2.6811-2.250601 2.3688 1.319753 2.25 2.681816" fill="#000"/><path d="m325.58337 140.621419c-.1188 1.362064-1.3194 2.369433-2.6811 2.250601-1.3617-.119732-2.3688-1.319752-2.25-2.681816.1188-1.362964 1.3194-2.370333 2.6811-2.250601 1.3626.118832 2.3697 1.319752 2.25 2.681816" fill="#000"/><path d="m352.79964 151.580315c-.1188 1.362064-1.3194 2.369433-2.6811 2.250601-1.3617-.118831-2.3688-1.319752-2.25-2.681816.1188-1.362063 1.3194-2.369432 2.682-2.250601 1.3617.118832 2.3688 1.319753 2.2491 2.681816" fill="#000"/><path d="m309.33153 186.374066c-.1188 1.362064-1.3194 2.369433-2.6811 2.250601s-2.3688-1.319752-2.25-2.681816 1.3194-2.369433 2.6811-2.250601c1.3626.118832 2.3697 1.319752 2.25 2.681816" fill="#000"/><path d="m341.54784 189.193439c-.1197 1.362064-1.3203 2.369433-2.6811 2.250601-1.3617-.118832-2.3688-1.319753-2.25-2.681816.1188-1.362064 1.3194-2.370333 2.6811-2.250601 1.3617.118832 2.3688 1.319752 2.25 2.681816" fill="#000"/><path d="m364.20516 175.246825c-.1197 1.362064-1.3203 2.369433-2.6811 2.250601-1.3617-.118832-2.3688-1.319753-2.25-2.681816.1188-1.362064 1.3194-2.369433 2.6811-2.250601s2.3688 1.319752 2.25 2.681816" fill="#000"/><path d="m192.79998 63.0165569v648.1730771" stroke="#000" stroke-linecap="round" stroke-linejoin="round" stroke-width="3.6"/><path d="m201.79998 63.0165569c0 4.9720276-4.0302 9.0024038-9 9.0024038-4.9707 0-9-4.0303762-9-9.0024038 0-4.9720277 4.0293-9.0024039 9-9.0024039 4.9698 0 9 4.0303762 9 9.0024039" fill="#fff"/><path d="m201.79998 63.0165569c0 4.9720276-4.0302 9.0024038-9 9.0024038-4.9707 0-9-4.0303762-9-9.0024038 0-4.9720277 4.0293-9.0024039 9-9.0024039 4.9698 0 9 4.0303762 9 9.0024039z" stroke="#f07e70" stroke-linecap="round" stroke-linejoin="round" stroke-width="3.6"/><path d="m201.79998 171.045403c0 4.972028-4.0302 9.002404-9 9.002404-4.9707 0-9-4.030376-9-9.002404s4.0293-9.002404 9-9.002404c4.9698 0 9 4.030376 9 9.002404" fill="#fff"/><path d="m201.79998 171.045403c0 4.972028-4.0302 9.002404-9 9.002404-4.9707 0-9-4.030376-9-9.002404s4.0293-9.002404 9-9.002404c4.9698 0 9 4.030376 9 9.002404z" stroke="#f07e70" stroke-linecap="round" stroke-linejoin="round" stroke-width="3.6"/><path d="m201.79998 279.074249c0 4.972028-4.0302 9.002404-9 9.002404-4.9707 0-9-4.030376-9-9.002404 0-4.972027 4.0293-9.002404 9-9.002404 4.9698 0 9 4.030377 9 9.002404" fill="#fff"/><path d="m201.79998 279.074249c0 4.972028-4.0302 9.002404-9 9.002404-4.9707 0-9-4.030376-9-9.002404 0-4.972027 4.0293-9.002404 9-9.002404 4.9698 0 9 4.030377 9 9.002404z" stroke="#f07e70" stroke-linecap="round" stroke-linejoin="round" stroke-width="3.6"/><path d="m201.79998 387.103095c0 4.971128-4.0302 9.002404-9 9.002404-4.9707 0-9-4.031276-9-9.002404 0-4.972027 4.0293-9.002404 9-9.002404 4.9698 0 9 4.030377 9 9.002404" fill="#fff"/><path d="m201.79998 387.103095c0 4.971128-4.0302 9.002404-9 9.002404-4.9707 0-9-4.031276-9-9.002404 0-4.972027 4.0293-9.002404 9-9.002404 4.9698 0 9 4.030377 9 9.002404z" stroke="#f07e70" stroke-linecap="round" stroke-linejoin="round" stroke-width="3.6"/><path d="m201.79998 495.131941c0 4.971128-4.0302 9.002404-9 9.002404-4.9707 0-9-4.031276-9-9.002404 0-4.971127 4.0293-9.002403 9-9.002403 4.9698 0 9 4.031276 9 9.002403" fill="#fff"/><path d="m201.79998 495.131941c0 4.971128-4.0302 9.002404-9 9.002404-4.9707 0-9-4.031276-9-9.002404 0-4.971127 4.0293-9.002403 9-9.002403 4.9698 0 9 4.031276 9 9.002403z" stroke="#f07e70" stroke-linecap="round" stroke-linejoin="round" stroke-width="3.6"/><path d="m201.79998 603.160788c0 4.971127-4.0302 9.002403-9 9.002403-4.9707 0-9-4.031276-9-9.002403 0-4.971128 4.0293-9.002404 9-9.002404 4.9698 0 9 4.031276 9 9.002404" fill="#fff"/><path d="m201.79998 603.160788c0 4.971127-4.0302 9.002403-9 9.002403-4.9707 0-9-4.031276-9-9.002403 0-4.971128 4.0293-9.002404 9-9.002404 4.9698 0 9 4.031276 9 9.002404z" stroke="#f07e70" stroke-linecap="round" stroke-linejoin="round" stroke-width="3.6"/><path d="m201.79998 711.189634c0 4.971127-4.0302 9.002404-9 9.002404-4.9707 0-9-4.031277-9-9.002404 0-4.971128 4.0293-9.002404 9-9.002404 4.9698 0 9 4.031276 9 9.002404" fill="#fff"/><g stroke-linecap="round" stroke-linejoin="round" stroke-width="3.6"><path d="m201.79998 711.189634c0 4.971127-4.0302 9.002404-9 9.002404-4.9707 0-9-4.031277-9-9.002404 0-4.971128 4.0293-9.002404 9-9.002404 4.9698 0 9 4.031276 9 9.002404z" stroke="#f07e70"/><g stroke="#000"><path d="m95.90013 126.033384v-87.5231709l9.8001 12.6033654 18.9-18.9050481s-12.6-13.3037524-24.4998-22.40608292c-11.9007-9.10233053-28.7001-9.80271755-37.8-9.80271755-9.1008 0-25.9002.70038702-37.8 9.80271755-11.9007 9.10233052-24.5007 22.40608292-24.5007 22.40608292l18.9 18.9050481 9.8001-12.6033654v87.5231709z"/><path d="m74.89998.6999369c0 6.96065865-5.6412 12.6033654-12.6 12.6033654s-12.6-5.64270675-12.6-12.6033654"/><path d="m47.7207 308.710073c.5391 6.158544-4.0158 11.588794-10.1736 12.127138-6.1569.538344-11.5848-4.016873-12.1239-10.176317-.5382-6.158545 4.0167-11.588795 10.1736-12.127139 6.1578-.538343 11.5857 4.016873 12.1239 10.176318z"/><path d="m99.17676 304.20662c.5382 6.159445-4.0158 11.588795-10.1736 12.128039-6.1578.538343-11.5857-4.017773-12.1239-10.176318-.5391-6.159444 4.0158-11.588794 10.1736-12.128038 6.1569-.538344 11.5848 4.017773 12.1239 10.176317z"/><path d="m47.7207 308.710073-5.9274-67.768296 51.4557-4.503002 5.9274 67.768295"/><path d="m44.0442 266.676589 51.4557-4.503003"/><path d="m289.46655 350.050371-17.8389 71.37736 73.818 19.690057 29.5272-9.230164-17.8389-87.375531-6.7671 6.153143-8.6121-6.153143z"/><path d="m341.75439 344.512183 3.6918 96.605695"/><path d="m329.45148 374.662763s-6.7671-8.6144-16.6086-7.383771c-9.8433 1.230628-12.3039 10.459893-9.8433 16.613936 2.4615 6.152243 7.3827 13.536915 3.6909 17.228801-3.6909 3.691885-7.9965-4.307651-7.9965-4.307651l-6.7662 11.076558s7.9956 11.074757 20.2995 7.383772c12.303-3.692786 7.3818-23.997708 4.3056-31.38148-3.0753-7.383772 5.5368-7.383772 6.7671-.615764z"/><path d="m300.36411 348.896083s2.4048-15.229366 15.876-15.790216c13.4703-.56175 11.9277 12.84553 11.9277 12.84553"/><path d="m315.83106 346.884586s1.8585-11.770643 12.2706-12.204559c10.4112-.433916 9.2178 9.928751 9.2178 9.928751"/><path d="m52.82982 530.752113c15.6483 4.19422 26.8785-9.904445 32.1534-29.594503 5.274-19.690057 1.7262-37.748879-13.0527-41.709937-14.7789-3.960157-26.8785 9.904445-32.1525 29.594502-5.2749 19.690058-2.5965 37.515718 13.0518 41.709938z"/><path d="m67.03866 477.708239s-9.0531 6.40341-4.6584 17.391744c4.3938 10.987434-4.6593 17.391744-4.6593 17.391744"/><path d="m292.44159 651.925819c-8.6427-.756202-15.0363-8.377637-14.2794-17.022645l1.5966-18.262277c.756-8.645909 8.3754-15.040316 17.0181-14.285014 8.6436.757102 15.0363 8.378537 14.2812 17.023545l-1.5984 18.262277c-.756 8.645008-8.3745 15.040316-17.0181 14.284114z"/><path d="m289.21167 651.298171c7.209-.881335 13.0689-6.699589 13.7277-14.227399l1.5975-18.262276c.6588-7.52601-4.1031-14.274212-11.0493-16.395178"/><path d="m349.8228 656.94754c-8.6436-.756202-15.0363-8.378537-14.2803-17.022646l1.5975-18.262276c.756-8.645909 8.3754-15.040316 17.0181-14.285014 8.6427.756202 15.0363 8.378537 14.2803 17.023545l-1.5975 18.262277c-.756 8.645008-8.3745 15.040316-17.0181 14.284114z"/><path d="m347.81706 642.313322c-2.16-.18905-3.7593-2.094859-3.5703-4.256336l1.1421-13.044483c.189-2.160577 2.0934-3.760305 4.2534-3.571254 2.1618.18905 3.7593 2.09576 3.5703 4.256336l-1.1403 13.044484c-.189 2.161477-2.0943 3.760304-4.2552 3.571253z"/><path d="m346.59189 656.319802c7.2099-.881335 13.0698-6.699589 13.7286-14.227399l1.5975-18.262276c.6588-7.52601-4.1031-14.274212-11.0502-16.395178"/><path d="m360.56475 609.253254 2.5101-28.697863c1.386-15.849632-10.3347-29.822263-26.181-31.209533l-13.0401-1.140605c-15.8454-1.38727-29.8143 10.337461-31.2012 26.187093l-2.5101 28.697863"/><path d="m347.52357 608.11211 2.5101-28.698763c1.1898-13.604433-7.2819-25.818895-19.7253-29.88438-12.9609 1.843692-23.4243 12.399911-24.615 26.005244l-2.5101 28.696962"/><path d="m349.8228 656.94754s-6.5529 7.313553-1.4265 16.305154c5.1264 8.993401 1.3536 14.578493-1.6542 18.91495-3.0078 4.337359-4.23 10.802885-.8316 17.014544 3.3993 6.213459 4.671 14.211194-1.8819 21.524747"/></g></g></g></g></svg>