<svg height="700" viewBox="0 0 500 700" width="500" xmlns="http://www.w3.org/2000/svg"><g fill="none" fill-rule="evenodd"><path d="m221.064786 202.184057c-59.079922 99.986295-93.536802-14.853086-192.0033385 142.532749-50.0344399 79.973485 61.1397407 205.009191 132.3144085 104.346992 82.404034-116.543872 218.85512 111.024728 259.090073 45.672752 56.618259-91.962704-100.660931-459.6594846-199.401143-292.552493z" fill="#f5f1ed" fill-rule="nonzero" transform="matrix(.5 -.8660254 .8660254 .5 -176.134807 360.898673)"/><g stroke-linecap="round" stroke-linejoin="round" stroke-width="4"><g stroke="#000"><path d="m107 123h77"/><path d="m157 287h67.480015"/><path d="m128 613.973108h67.480015"/><path d="m86 477h67.480015"/><path d="m323 213h64"/><path d="m269 528h84"/><path d="m259 392h64"/><path d="m107 136h77"/><path d="m157 300h84"/><path d="m128 626.973108h84"/><path d="m86 490h59.5"/><path d="m343 226.5h44"/><path d="m295 541.5h58"/><path d="m267 405.5h56"/><path d="m107 149h63"/><path d="m157 313h81"/><path d="m128 639.973108h81"/><path d="m86 503h81"/></g><path d="m54 96c53.5-49.5416497 187-73.3852756 203 7.807362 14.107567 71.58941-160 88.353337-160 205.192638s180.086035 130.383336 261.086035 175.779221c81 45.395886 71.499672 167.578149-64.586035 149.060661" stroke="#ff766a"/></g></g></svg>