<svg height="604" viewBox="0 0 1551 604" width="1551" xmlns="http://www.w3.org/2000/svg"><g fill="none" fill-rule="evenodd"><path d="m113 516s5 28 30 38h-68v-38z" fill="#0a0b09"/><path d="m387 368s1 10 12 14c0 0 0 15 18 26h-32s0-30 2-40" fill="#0a0b09"/><path d="m77 552h396v-142h-320.962l-75.038 106.633zm398 4h-400c-1.104 0-2-.896-2-2v-38c0-.412.127-.815.364-1.151l76-108c.375-.533.985-.849 1.636-.849h324c1.104 0 2 .895 2 2v146c0 1.104-.896 2-2 2z" fill="#0a0b09"/><path d="m340.999999 556c-1.104 0-1.999999-.896-1.999999-1.999999v-37.999988c0-.412.127-.815.364-1.151l75.999955-107.999966c.636-.903 1.882999-1.12 2.786998-.485.903.636 1.12 1.883999.485 2.786999l-75.635955 107.481966v37.366989c0 1.103999-.896 1.999999-1.999999 1.999999" fill="#0a0b09"/><path d="m341 518h-266c-1.104 0-2-.896-2-2 0-1.105.896-2 2-2h266c1.104 0 2 .895 2 2 0 1.104-.896 2-2 2" fill="#0a0b09"/><path d="m385.000255 410c-1.104001 0-2.000002-.896-2.000002-2 0-67.53 16.421019-115.916 30.197036-144.615 11.091013-23.106 22.081026-37.316 27.289032-43.385h-208.629247c-2.844003 3.052-16.073019 18.012-29.149034 45.314-13.553016 28.297-29.708035 76.022-29.708035 142.686 0 1.104-.896001 2-2.000003 2-1.104001 0-2.000002-.896-2.000002-2 0-67.53 16.421019-115.916 30.197036-144.615 14.975017-31.2 29.766035-46.177 30.389036-46.799.375-.375.884001-.586 1.414001-.586h214.000253c.809001 0 1.537002.487 1.847003 1.234.31.747.139 1.607-.432001 2.179-.148.149-15.024018 15.244-29.707035 45.901-13.553016 28.297-29.708035 76.022-29.708035 142.686 0 1.104-.896001 2-2.000003 2" fill="#0a0b09"/><path d="m445 354c-13.234 0-24 11.663-24 26s10.766 26 24 26 24-11.663 24-26-10.766-26-24-26zm0 56c-15.439 0-28-13.458-28-30s12.561-30 28-30 28 13.458 28 30-12.561 30-28 30z" fill="#0a0b09"/><path d="m445.5 375c-2.481 0-4.5 2.243-4.5 5s2.019 5 4.5 5 4.5-2.243 4.5-5-2.019-5-4.5-5zm0 14c-4.687 0-8.5-4.037-8.5-9s3.813-9 8.5-9 8.5 4.037 8.5 9-3.813 9-8.5 9z" fill="#0a0b09"/><path d="m425 410c-15.439 0-28-13.458-28-30s12.561-30 28-30h20c1.104 0 2 .895 2 2 0 1.104-.896 2-2 2h-20c-13.234 0-24 11.663-24 26s10.766 26 24 26c1.104 0 2 .895 2 2 0 1.104-.896 2-2 2" fill="#0a0b09"/><path d="m433.772889 354c-.168999 0-.338999-.021887-.509998-.067652-1.068997-.279563-1.705995-1.367969-1.424996-2.430507 6.183981-23.36192 14.856954-37.542034 19.113941-43.522296h-50.951842c-1.103997 0-1.999994-.891418-1.999994-1.989772 0-1.09935.895997-1.989773 1.999994-1.989773h54.99983c.784997 0 1.496995.456653 1.820994 1.167996.324999.711344.200999 1.544064-.315999 2.132042-.125.143263-12.750961 14.810872-20.798936 45.216587-.235999.892413-1.045996 1.483375-1.932994 1.483375" fill="#0a0b09"/><path d="m407 362h-18c-1.104 0-2-.896-2-2 0-1.105.896-2 2-2h18c1.104 0 2 .895 2 2 0 1.104-.896 2-2 2" fill="#0a0b09"/><path d="m367 302h-146c-1.104 0-2-.896-2-2 0-1.105.896-2 2-2h146c1.104 0 2 .895 2 2 0 1.104-.896 2-2 2" fill="#ff766a"/><path d="m363 316h-146c-1.104 0-2-.896-2-2 0-1.105.896-2 2-2h146c1.104 0 2 .895 2 2 0 1.104-.896 2-2 2" fill="#ff766a"/><path d="m359 330h-145c-1.104 0-2-.896-2-2 0-1.105.896-2 2-2h145c1.104 0 2 .895 2 2 0 1.104-.896 2-2 2" fill="#ff766a"/><path d="m357 344h-146c-1.104 0-2-.896-2-2 0-1.105.896-2 2-2h146c1.104 0 2 .895 2 2 0 1.104-.896 2-2 2" fill="#ff766a"/><path d="m354 358h-145c-1.104 0-2-.896-2-2 0-1.105.896-2 2-2h145c1.104 0 2 .895 2 2 0 1.104-.896 2-2 2" fill="#ff766a"/><path d="m228 372h-21c-1.104 0-2-.896-2-2 0-1.105.896-2 2-2h21c1.104 0 2 .895 2 2 0 1.104-.896 2-2 2" fill="#ff766a"/><path d="m231.396636 277-2.396636-3.195697 20.115765-15.08297c8.506061-6.376419 13.035703-9.032012 15.774858-6.88158 2.460547 1.932792 1.04054 6.277582-.672056 10.271954-2.576384 6.010026-2.169955 9.145822-1.310161 9.709886 1.004589.6629 5.868762-.002995 16.127363-10.861975 4.990994-5.283232 17.177889-17.142552 22.501416-13.155169 1.74555 1.305833 2.94986 4.36276-1.220287 11.5099-3.436177 5.889227-2.990802 8.246315-2.766117 8.435002.315557.264561 3.456149.287523 10.813821-5.937147 12.034109-10.180107 15.154729-11.16048 17.257777-9.454311 2.177943 1.766069.864786 5.341136-2.138998 10.91888-2.477522 4.599368-2.284793 6.266601-2.20091 6.603043.970637.22263 5.384442-1.236948 12.105009-7.955798 7.833005-7.832003 14.602503-11.215388 18.110579-9.046987 1.505887.930456 2.951857 3.085879 1.289191 8.073602-1.052523 3.156762-1.077488 5.540806-.067905 6.379414 1.51088 1.251922 6.589751.666893 16.313103-4.734144.964646-.537109 2.17994-.188687 2.716187.775713.535249.964399.187737 2.179383-.776909 2.715494-10.48029 5.821339-17.285738 7.233995-20.802801 4.315838-1.69562-1.406666-3.274404-4.407686-1.171356-10.715219.782901-2.347105.514278-3.291538.39944-3.415332-.602155-.432283-5.235652.528123-13.185493 8.475934-5.890732 5.889227-13.545987 11.169465-17.359634 8.331175-2.456552-1.826968-2.082077-5.762437 1.114436-11.695592 1.36109-2.526806 2.047127-4.126152 2.392642-5.113514-1.61773.869557-4.891135 3.072901-11.413979 8.589746-7.510459 6.353456-13.029712 8.410043-15.962595 5.948129-1.836422-1.541442-2.99979-5.135478 1.884355-13.505588 2.26582-3.884554 2.390644-5.813353 2.238857-6.302541-.973633-.219636-6.388033 1.291856-17.165905 12.700923-9.685406 10.251987-17.023106 14.216408-21.222212 11.458984-3.240452-2.126471-3.300368-7.318854-.169762-14.621735 1.355098-3.161754 1.637701-4.705192 1.675648-5.382069-1.578784.340435-5.173738 2.608671-10.710966 6.760781z" fill="#ff766a"/><g fill="#0a0b09"><path d="m618.362094 102.068836c15.43499 6.950285 27.041982 19.766153 30.30398 23.615004l103.267931-34.9629792c-55.797963-6.8734481-101.592932 1.3321797-133.571911 11.3479752zm-221.531853-17.0040008c22.645985 3.4407157 98.768935 16.7265878 151.0139 46.5464558 4.596997-3.425747 23.329984-16.581894 54.577964-28.289109 30.03398-11.2521775 77.214948-22.9304533 136.619909-17.9480017-45.57997-14.1191083-90.66994-23.2407967-134.322911-27.1555088-40.091973-3.5953882-79.065947-2.8330022-115.839923 2.2662022-47.910968 6.6429362-79.636947 19.0406888-92.048939 24.5799615zm151.1699 50.9351648c-.346 0-.692-.088812-1.003999-.26943-60.92796-35.303259-156.287897-47.5253832-157.243896-47.6441318-.862999-.1077718-1.557999-.7603902-1.717999-1.6135839-.16-.8521958.251-1.7113768 1.015999-2.1235043.351-.1886007 35.798977-18.9828113 99.048935-27.7871715 37.090975-5.1620714 76.392949-5.9484066 116.813922-2.3340586 50.495966 4.5144424 102.892932 15.947238 155.733897 33.9810584.809999.2764148 1.353999 1.036805 1.352999 1.8909966s-.547 1.612586-1.356999 1.887005l-111.999926 37.9197201c-.801.271425-1.686999.009979-2.211999-.652619-.146999-.184609-14.83999-18.525779-33.985977-25.261518-3.012998 1.016847-5.886996 2.043673-8.616994 3.066508-34.925977 13.084299-54.390964 28.354969-54.582964 28.507646-.363.287391-.802999.433083-1.244999.433083z"/><path d="m767.643827 333.771102c23.300977 11.916511 56.793943 21.712863 101.351898 17.644641-20.535979-1.778972-51.527948-7.739229-72.158927-26.796642-3.475997 2.363291-13.168987 7.898316-29.192971 9.152001zm-185.259812-43.768915c5.537995 9.55322 25.840974 40.788286 65.920933 63.404644 27.944972 15.768615 59.91794 24.336297 95.030904 25.462912 38.955961 1.245681 81.888917-6.696659 127.87587-23.643919-7.792992.771422-15.265984 1.128617-22.410977 1.128617-45.737953.002001-78.30292-14.597976-98.7869-28.293459-24.134975-16.135817-36.336963-33.720425-39.12396-38.058795zm168.952829 92.997813c-2.784997 0-5.545994-.045025-8.292992-.135074-35.784963-1.172641-68.38793-9.949436-96.902901-26.085253-48.598951-27.500025-68.736931-67.491877-68.933931-67.892095-.306999-.620339-.269999-1.35474.094-1.942061.366-.588322 1.007999-.945517 1.698999-.945517h132.999865c.705999 0 1.358998.373204 1.719998.980536.119.199109 12.182988 20.198036 38.687961 37.86669 2.588997 1.726943 5.375994 3.466894 8.363991 5.189835.075-.009004.151-.013007.228-.013007 23.009977 0 34.604965-9.446161 34.719965-9.541213.783999-.655358 1.934998-.612334 2.671997.100055 16.137984 15.642547 40.09196 22.276171 57.344942 25.087708 18.835981 3.067676 34.012966 2.375297 34.164965 2.365292.973999-.023013 1.837999.613335 2.049998 1.562854.212.950519-.289999 1.916047-1.189998 2.28725-50.12095 20.661289-96.979902 31.112999-139.424859 31.114z"/><path d="m1058 198.426h.01zm-216.219 14.114c59.766 18.798 114.575 13.745 150.285 6.085 36.113-7.745 60.382-19.614 64.403-21.659l50.461-110.271c-37.863 27.722-93.463 59.813-153.735 65.721-32.784 3.216-53.438-2.57-59.27-4.531-15.485 27.569-43.753 56.385-52.144 64.655zm85.671 16.968c-27.294 0-58.013-3.673-90.075-14.181-.67-.22-1.175-.776-1.328-1.463-.154-.688.064-1.406.577-1.891.367-.348 36.98-35.168 54.618-67.504.486-.891 1.563-1.278 2.502-.898.213.085 21.947 8.56 59.366 4.834 34.583-3.443 90.012-18.309 157.678-69.573.73-.554 1.75-.539 2.46.034.72.573.95 1.559.57 2.392l-54.002 118c-.181.398-.489.726-.875.932-.255.136-25.96 13.732-65.898 22.317-17.762 3.818-40.195 7.001-65.593 7.001z"/><path d="m1200.08 149.952 95.86 20.88c7.29-6.399 66.07-59.399 95.3-127.254-12.42 1.886-55.09 6.696-106.41-6.175-1.59 4.767-6.6 18.3-17.36 36.37-11.8 19.812-32.97 48.847-67.39 76.179zm96.42 25.048c-.14 0-.28-.015-.43-.046l-101-22c-.76-.166-1.35-.756-1.52-1.515s.11-1.547.73-2.023c35.85-27.655 57.67-57.437 69.67-77.551 13-21.806 17.59-37.27 17.63-37.424.3-1.038 1.37-1.646 2.42-1.378 60.85 15.703 109.62 6.077 110.1 5.977.73-.148 1.47.116 1.94.687.47.57.59 1.354.31 2.037-30.83 74.584-97.88 132.186-98.55 132.759-.37.311-.83.477-1.3.477z"/><path d="m1133.63 395.228c25.36 3.405 41.2 14.487 50.16 23.446 7.43 7.432 11.39 14.508 13.08 18.033 28.42-18.859 62.57-23.522 75.64-24.647-21.14-15.751-42.37-27.544-63.59-35.349-.09-.003-.18-.013-.26-.028-27.41-4.794-52.59 1.44-75.03 18.545zm13.33-29.94c-8.97 0-17.93.725-26.85 2.177-46.57 7.57-83.904 33.912-107.029 54.677-18.686 16.779-31.328 32.683-36.621 39.793l113.18-19.021c2.13-4.421 11.56-22.702 28.95-39.874 15.44-15.235 39.81-31.838 72.74-31.883-14.82-3.91-29.62-5.869-44.37-5.869zm-174.96 101.425c-.672 0-1.309-.339-1.681-.916-.433-.672-.424-1.536.021-2.199.143-.213 14.614-21.576 40.068-44.432 23.524-21.123 61.538-47.924 109.052-55.649 52.99-8.616 106.75 7.739 159.76 48.612.67.517.94 1.402.68 2.208-.26.805-1.01 1.356-1.86 1.375-.45.011-45.83 1.293-80.9 25.643-.51.354-1.15.452-1.74.265-.59-.186-1.06-.635-1.28-1.216-.13-.364-14.2-36.685-64.88-41.659-2.62 2.198-5.2 4.549-7.75 7.053-19.04 18.766-28.57 39.532-28.67 39.74-.27.606-.83 1.037-1.49 1.147l-118.999 20c-.11.019-.222.028-.331.028z"/><path d="m1307.36 296.695c6.27 4.953 22.09 15.969 44.8 21.421 17.4 4.176 35.39 4.32 53.49.43 21.9-4.71 44.03-15.377 65.8-31.724l-65.22-39.7c-6.78 5.989-43.27 36.39-98.87 49.573zm72.24 28.665c-9.64 0-19.19-1.134-28.57-3.402-30.66-7.415-48.65-24.156-49.4-24.865-.54-.509-.75-1.275-.56-1.99.2-.713.78-1.26 1.5-1.418 62.67-13.709 101.67-50.131 102.05-50.498.66-.621 1.65-.727 2.42-.257l69 42c.56.343.92.941.96 1.599.03.658-.26 1.292-.78 1.694-23.05 17.747-46.55 29.274-69.86 34.262-8.96 1.917-17.9 2.875-26.76 2.875z"/><path d="m1405.15811 321c-12.80443 0-22.71688-3.920853-29.39832-7.818451-7.7385-4.512317-12.51523-9.674739-14.35013-11.868718-31.5623 7.589954-56.10412-1.993791-57.15121-2.410344-1.01717-.409475-1.52576-1.582293-1.11689-2.621653.39889-1.038349 1.55567-1.547918 2.58282-1.140465.24931.098072 25.10026 9.764723 55.95453 1.941217.78781-.197155 1.61551.102116 2.09418.761321.18948.257817 19.3662 25.779757 55.79498 17.426461 1.06704-.242652 2.14404.437784 2.38338 1.526685.23933 1.089912-.42881 2.172747-1.50582 2.419443-5.47479 1.254714-10.5806 1.783493-15.28752 1.784504"/><path d="m999.000642 203c-.227985 0-.45797-.039-.683956-.120999-1.037933-.377997-1.572899-1.524988-1.195923-2.562979l19.998717-54.99955c.37897-1.038992 1.5289-1.571987 2.56383-1.195991 1.03794.376997 1.5729 1.524988 1.19593 2.56298l-19.99872 54.99955c-.29598.811993-1.06293 1.316989-1.879878 1.316989"/><path d="m978.999605 208c-.244985 0-.493971-.045999-.734957-.140996-1.027941-.406989-1.530912-1.569956-1.122935-2.596927l20.998789-52.998506c.406976-1.025971 1.569909-1.529957 2.594848-1.121968 1.02794.406988 1.53091 1.568955 1.12294 2.595926l-20.998792 52.998507c-.310982.784977-1.062939 1.263964-1.859893 1.263964"/><path d="m958.999216 211c-.257995 0-.519989-.050998-.772984-.156993-1.018979-.42798-1.496969-1.599925-1.069978-2.617878l20.999568-49.997666c.426991-1.018953 1.597967-1.49993 2.617946-1.06995 1.018979.42798 1.496969 1.599925 1.069978 2.618877l-20.999568 49.997667c-.321993.764965-1.063978 1.225943-1.844962 1.225943"/><path d="m938.999231 213c-.267994 0-.539988-.054999-.800983-.167998-1.010978-.442995-1.472967-1.621982-1.029977-2.634971l20.999539-47.999474c.44199-1.011989 1.621964-1.470984 2.633942-1.029988 1.010978.442995 1.472967 1.621982 1.029977 2.633971l-20.999539 47.999473c-.327992.750992-1.061976 1.198987-1.832959 1.198987"/><path d="m917.998101 212c-.306998 0-.616995-.070997-.908992-.220991-.983991-.501981-1.371988-1.707935-.868992-2.690897l21.999799-42.99834c.502995-.982963 1.704984-1.373947 2.690975-.868967.983991.502981 1.371988 1.707934.868992 2.690896l-21.999799 42.998341c-.352996.691973-1.05399 1.089958-1.781983 1.089958"/><path d="m914.998285 180c-.341972 0-.687944-.087992-1.005918-.272977-.953922-.556952-1.275896-1.781847-.719941-2.735765l6.99943-11.998969c.556954-.952919 1.779855-1.276891 2.735777-.718939.953922.555953 1.275896 1.780847.719941 2.734765l-6.99943 11.99897c-.372969.636946-1.040915.992915-1.729859.992915"/><path d="m1030.99873 189c-.451 0-.905-.151999-1.279-.462998-.849-.707996-.963-1.967989-.256-2.816985 2.023-2.427988 4.991-3.90898 7.61001-5.214973 1.921-.957995 4.313-2.150989 4.459-3.053984.074-.452998-.399-1.487993-1.947-3.036985-4.32701-4.325977-6.14001-7.853959-5.70401-11.101942.511-3.815981 4.07601-6.305968 7.12601-8.047959 6.092-3.481982 6.007-4.880975 6-4.938974-.001-.011-.315-1.128995-4.582-2.408988-3.12-.935995-3.907-2.665986-4.018-3.95298-.441-5.106973 10.831-11.317941 15.69701-13.751929.991-.493997 2.191-.091999 2.684.894996s.094 2.188988-.894 2.682986c-8.11701 4.060979-13.23501 8.346957-13.49201 9.758949.11.095.42.310999 1.171.536998 2.999.898995 7.03001 2.477987 7.40801 5.78597.407 3.556982-3.81101 6.477966-7.99001 8.865954-3.297 1.88299-4.931 3.505982-5.145 5.105974-.249 1.85799 1.288 4.462977 4.567 7.74296 1.524 1.523992 3.499 3.85598 3.067 6.507966-.476 2.924985-3.46 4.413977-6.622 5.990969-2.378 1.185994-4.83701 2.411988-6.32301 4.194979-.395.474997-.964.719996-1.537.719996"/><path d="m651.99892 348c-1.064998 0-1.949996-.83896-1.996996-1.912908-.048-1.102947.807998-2.036902 1.910996-2.084899.458-.018999 46.140915-2.093899 77.544856-10.927473 1.065998-.297986 2.167996.321984 2.466996 1.384933.298999 1.062949-.32 2.166895-1.382998 2.466881-31.854941 8.958568-77.992855 11.051467-78.454854 11.071466-.03.001-.059.002-.088.002"/><path d="m671.998313 360c-1.022987 0-1.894976-.779994-1.989975-1.818986-.099998-1.099992.710991-2.071984 1.810977-2.172984.436995-.038999 44.024437-4.090968 69.462112-13.873894 1.027987-.396997 2.187972.116999 2.584967 1.148992.395995 1.029992-.117998 2.186983-1.148985 2.58298-25.960668 9.985924-68.728121 13.960893-70.536098 14.125892-.061.005-.122999.008-.182998.008"/><path d="m693.998517 369c-1.017986 0-1.887975-.771985-1.988973-1.804965-.106999-1.099978.69799-2.077959 1.796976-2.184957.405994-.039999 40.917449-4.09492 63.330148-14.813711.994987-.476991 2.190971-.054999 2.666964.940981.476994.996981.054999 2.190958-.940987 2.667948-23.05269 11.023785-62.979153 15.020707-64.668131 15.185704-.065999.006-.130998.009-.195997.009"/><path d="m714.997845 377c-1.024997 0-1.897994-.783036-1.989993-1.824083-.097-1.10005.715997-2.070095 1.815993-2.168099.336999-.030002 33.988879-3.126143 61.333781-15.822722.999996-.462022 2.190992-.030002 2.65599.972044.464999 1.001046.03 2.1911-.971996 2.657121-27.9929 12.997593-62.322777 16.147737-62.665776 16.177739-.06.005-.119.008-.177999.008"/><path d="m741.998338 382c-1.023 0-1.894999-.779962-1.989999-1.817912-.1-1.100947.710999-2.0729 1.809999-2.173895.326-.028999 32.748982-3.122849 53.07297-16.671195.919-.61497 2.159999-.363982 2.772999.554974.611999.918955.364 2.160895-.555 2.772866-21.177988 14.118317-53.55997 17.202168-54.927969 17.327162-.061.005-.123.008-.183.008"/><path d="m787.997903 380c-.92001 0-1.749019-.638009-1.952021-1.575023-.234002-1.079016.450005-2.144032 1.529016-2.379035.224003-.049001 22.520237-4.970073 30.011316-12.460183.781008-.781012 2.047022-.781012 2.82803 0 .781008.781011.781008 2.04703 0 2.828041-8.319088 8.321123-31.026327 13.331196-31.989337 13.540199-.144001.032001-.286003.046001-.427004.046001"/><path d="m651.720178 333c-.272996 0-.546993-.024016-.821989-.073049-3.320959-.591399-4.908939-4.673149-5.813928-7.693185-.978988-3.264199-2.035975-4.51204-2.699967-4.591094-.432994-.06004-2.917963.185125-8.655892 10.028759-.556993.953642-1.780978 1.27586-2.735966.720485-.953988-.557375-1.275984-1.782201-.719991-2.737845 5.152936-8.836955 8.919889-12.418368 12.583843-11.986077 3.977951.473319 5.544932 5.69884 6.059925 7.416998 1.360983 4.542061 2.550969 4.878288 2.682967 4.901303.634992.10407 2.347971-.585394 6.800915-6.528399.662992-.885597 1.301984-1.770193 1.918977-2.62577 3.375958-4.679153 6.036925-8.362635 9.492882-7.769235 2.603967.457308 4.431945 3.163131 6.110924 9.044094 1.759978 6.163154 3.520956 6.871631 4.01895 6.941678.74699.109074 2.964963-.410276 7.361908-7.451021 3.301959-5.288564 6.819916-7.892319 10.47887-7.708194 3.446957.163109 6.47692 2.811894 9.005888 7.873305.493994.988667.092999 2.190477-.893989 2.68481-.988987.494333-2.189972.094063-2.683966-.894603-1.259985-2.523701-3.25796-5.553743-5.617931-5.665818-2.067974-.106072-4.487944 1.973329-6.896914 5.830929-2.909964 4.66014-6.826915 9.931693-11.312859 9.293263-3.159961-.4453-5.549931-3.652462-7.30591-9.803607-1.660979-5.819922-2.942963-6.199177-2.955963-6.201179-.932988-.184124-3.958951 3.951663-5.558931 6.169158-.629992.874589-1.283984 1.779199-1.961975 2.683808-3.743954 4.995367-6.759916 8.140486-9.879878 8.140486"/><path d="m550.9985 98c-.300999 0-.605997-.0679996-.893996-.2119989-37.254841-18.627904-87.831624-24.7428725-88.338622-24.8018722-1.096996-.1289994-1.880992-1.1229943-1.751993-2.2209886.129-1.0969943 1.118995-1.8769903 2.219991-1.751991.512998.0609997 51.785778 6.2599678 89.660616 25.1968702.986996.4939975 1.387994 1.6959913.893996 2.6839862-.350998.7009964-1.056995 1.1059943-1.789992 1.1059943"/><path d="m575.997762 87c-.363998 0-.731996-.099996-1.061994-.3069878-34.147787-21.4641499-85.536466-24.6660231-86.050463-24.6960219-1.102993-.0639975-1.944988-1.00896-1.881988-2.1119164.063999-1.1029563 1.022993-1.9519227 2.111987-1.8809255.524996.0299988 52.91867 3.28387 87.948451 25.3019979.935994.5879767 1.216992 1.8229278.628996 2.7578908-.379998.603976-1.029993.9359629-1.694989.9359629"/><path d="m597.998726 78c-.409001 0-.820001-.1247689-1.175002-.3843688-32.001047-23.4173173-76.234113-20.4480179-76.677113-20.4158195-1.104002.0724465-2.060003-.750626-2.141003-1.8584534-.082001-1.1078273.745001-2.0727742 1.846002-2.1552826 1.867003-.139862 46.112069-3.1302915 79.324118 21.1744951.894001.6540307 1.091001 1.9127882.442 2.8113257-.392.5413362-1.001001.8281035-1.619002.8281035"/><path d="m626.986954 72c-.440571 0-.884159-.1454251-1.256331-.445428-19.32979-15.6347272-51.36874-15.4832003-51.697659-15.4862512-1.121544-.0010169-2.020792-.8898391-2.032862-2.0135787-.011065-1.1227227.880136-2.0430706 1.991621-2.0542571 1.378041-.0061018 33.811291-.1566117 54.253573 16.3781241.86706.7017017 1.007882 1.9810361.313832 2.8586717-.397319.5013607-.982735.7627192-1.572174.7627192"/><path d="m653.025082 70c-.446038 0-.893062-.1479045-1.262128-.4505248-5.479747-4.5023288-20.061813-7.6705982-20.208848-7.7027091-1.064766-.227695-1.739743-1.2639993-1.50883-2.3148995.2319-1.0499271 1.279891-1.7135511 2.347617-1.4878022.637479.1362278 15.675451 3.4027758 21.89629 8.5152106.8378.6879504.951283 1.9149736.25361 2.7410979-.390776.4612284-.95227.6996271-1.517711.6996271"/><path d="m1343.99683 96c-.11999 0-.23997-.0109995-.36996-.0339985l-63.99367-11.9994622c-1.07989-.2039908-1.79982-1.248944-1.59984-2.3348953.20998-1.0849514 1.25988-1.8009193 2.33977-1.5969285l63.99367 11.9994622c1.07989.2039909 1.79982 1.2489441 1.59984 2.3348954-.17998.9609569-1.0199 1.6309269-1.96981 1.6309269"/><path d="m1334.99604 107c-.13998 0-.27996-.014-.41995-.043999l-60.99208-12.9997964c-1.07986-.2299963-1.76977-1.2919797-1.5398-2.3729627.22997-1.0799831 1.28984-1.7689723 2.3797-1.5389759l60.99208 12.999796c1.07986.229996 1.76977 1.29198 1.5398 2.372963-.19998.938985-1.02987 1.582975-1.95975 1.582975"/><path d="m1324.99835 117c-.15 0-.28999-.016-.43998-.049999l-56.99669-12.999744c-1.07994-.245995-1.7599-1.317973-1.50991-2.394952.24998-1.076979 1.31992-1.7499657 2.38986-1.504971l56.99669 12.999744c1.07994.245995 1.7599 1.317974 1.50991 2.394953-.20999.926981-1.03994 1.554969-1.94988 1.554969"/><path d="m1315.99785 127c-.14999 0-.29998-.017001-.44997-.052002l-55.99569-13.000432c-1.07992-.250009-1.74987-1.325044-1.49989-2.40008.24999-1.077036 1.3299-1.743058 2.39982-1.49605l55.99569 13.000433c1.07992.250008 1.74987 1.324044 1.49989 2.400079-.21999.924031-1.03992 1.548052-1.94985 1.548052"/><path d="m1289.99742 133c-.14998 0-.30996-.016999-.45994-.053998l-37.99483-8.99965c-1.07986-.25499-1.73977-1.331948-1.4898-2.406906.25996-1.075959 1.33982-1.739933 2.40967-1.484943l37.99483 8.99965c1.07986.25499 1.73977 1.331949 1.4898 2.406907-.21997.919964-1.03986 1.53894-1.94973 1.53894"/><path d="m1347.38281 81c-.59001 0-1.19003-.0855751-1.79004-.290344-2.26004-.7681382-3.79008-2.9064963-4.54009-6.3580243-.62001-2.8249962-1.39003-3.4657905-1.69004-3.6104532-.86001-.4054628-2.82005.6234756-4.55009 1.5352576-.99002.5185442-2.01004 1.0544072-3.07006 1.4873763-.99002.4054629-2.06004 1.0350509-3.08007 1.6432452-2.48005 1.4629263-5.0301 2.9757714-7.43015 1.729839-2.36005-1.2286136-2.96006-4.4397164-3.22006-7.0996749-.45001-4.6027166-1.44003-5.2822234-1.63004-5.3718735-1.26002-.5715192-5.43011 2.4714897-7.22014 3.7703971-4.4601 3.2447216-7.34015 4.8034104-9.7902 3.7693783-2.22005-.9352134-2.93006-3.6135094-3.34007-6.1114866-.45001-2.7333087-.95002-2.9930902-.96002-2.9961464-.37001-.1691127-1.78004.0376938-7.01015 3.3710467-.93002.596988-2.17004.306644-2.76005-.6479256-.58001-.9545696-.30001-2.2106894.64001-2.8076774 5.19011-3.3058467 8.29017-4.7708104 10.77022-3.6298095 2.16004.9902259 2.84006 3.4882031 3.26007 6.0411928.43001 2.5825335.89002 2.9869776.95002 3.0246714.28.0702938 1.48003-.0978001 5.92012-3.3292779 4.44009-3.2355528 8.09016-5.5959986 11.19023-4.1656724 2.89006 1.3335449 3.63007 5.3382547 3.96008 8.6777201.33001 3.4056842 1.06002 3.8732909 1.06002 3.8763471.45001.2394065 2.66005-1.0686696 3.60007-1.6249076 1.15003-.6815444 2.34005-1.38652 3.61008-1.9030267.88002-.359619 1.81003-.8496382 2.71005-1.3243761 2.68006-1.4079138 5.44011-2.8647275 8.08017-1.6045327 1.91004.9066883 3.15006 2.9462276 3.90008 6.4160931.42001 1.8979329 1.09002 3.095984 1.90004 3.3751217 1.18002.4054629 3.11006-.7864757 3.85008-1.4282887.85001-.7233132 2.11004-.6214381 2.82005.2343127.71002.854732.62002 2.1342831-.22 2.8647275-.34001.2954377-2.95006 2.4867709-5.92012 2.4867709"/><path d="m1393.99834 309c-.42995 0-.8599-.137994-1.22985-.420983l-26.99667-21.00014c-.8699-.677972-1.02988-1.933921-.34996-2.805885.67991-.872964 1.93976-1.029958 2.80965-.350986l26.99667 20.998141c.8699.678972 1.02988 1.93592.34996 2.806885-.39995.506979-.98988.772968-1.5798.772968"/><path d="m1406.00187 303c-.42006 0-.84011-.130002-1.20016-.401007l-28.00374-20.999346c-.88012-.663011-1.06014-1.917032-.40005-2.801046.66008-.881015 1.91025-1.061018 2.80037-.400007l28.00374 21.001347c.88012.662011 1.06014 1.916031.40005 2.800046-.39005.523008-.99013.800013-1.60021.800013"/><path d="m1416.99962 296c-.39999 0-.80998-.121994-1.15997-.371982l-27.99924-20.000032c-.89997-.641969-1.10996-1.890909-.46998-2.789865.63998-.898957 1.88995-1.107947 2.78992-.464978l27.99924 19.999033c.89997.641968 1.10996 1.890908.46998 2.789865-.38999.546973-1.00997.837959-1.62995.837959"/><path d="m1408.19052 269.451023h.01zm23.48092 18.548977c-6.58026.000993-11.63045-1.801441-13.05051-4.810135-.75003-1.591786-.39002-3.348514.97004-4.696862.09-.09042.16-.171897.23001-.246419-.61003-.157986-1.76007-.335845-3.82015-.335845-8.64034 0-9.70039-2.544671-10.0504-3.380309-.45002-1.083051-.53002-2.825868 1.64007-4.980045.11-.119235.21-.219591.28001-.305043-.81004-.405398-3.40014-1.270845-10.87043-1.270845-1.10004 0-2.00008-.890287-2.00008-1.987249 0-1.097954.90004-1.987248 2.00008-1.987248 11.66046 0 14.03055 1.923657 14.81058 3.805581.43002 1.020452.53002 2.639066-1.40005 4.554773-.31002.309017-.49002.541525-.59003.698518.63003.333858 2.4501.87737 6.18025.87737 4.78018 0 7.16028.824708 7.96031 2.756314.60002 1.440755.08 2.991802-1.55006 4.610416-.13001.131159-.18001.221578-.18001.245425.25001.880352 4.49018 3.063344 12.5905 2.332037 1.10004-.105325 2.07008.706466 2.17008 1.798459.10001 1.093981-.71003 2.059783-1.81007 2.159146-1.21005.109299-2.38009.161961-3.51014.161961z"/><path d="m1178.99865 406c-.48005 0-.9601-.172003-1.35015-.52101-.81009-.742014-.87009-2.008038-.13001-2.825054 10.09111-11.097212 26.76294-20.964401 27.47301-21.378409.95011-.558011 2.17024-.242004 2.7303.709014.56006.952018.25003 2.178041-.71008 2.738052-.16001.099002-16.86185 9.980191-26.53291 20.623394-.40004.433009-.9401.654013-1.48016.654013"/><path d="m1167.00132 398c-.44999 0-.88997-.149-1.26996-.452-.84997-.700001-.97997-1.959002-.27999-2.815003 9.09969-11.117009 22.88921-20.041017 23.46919-20.416018.92997-.596 2.15993-.327 2.75991.601001.59998.929001.32999 2.167002-.59998 2.764002-.14.088-13.83953 8.966008-22.52923 19.584017-.39998.484001-.96996.734001-1.54994.734001"/><path d="m1155.05414 393c-.41074 0-.83174-.122069-1.19114-.375287-.92416-.648682-1.1398-1.908718-.48262-2.814653 5.23692-7.195021 14.84821-15.020564 15.25894-15.349445.87282-.708203 2.16665-.586133 2.88544.272386.72907.859529.60584 2.131671-.27724 2.840883-.09242.077681-9.61129 7.821508-14.51962 14.580711-.40047.551834-1.03711.845405-1.67376.845405"/><path d="m1193.58086 418c-1.19994 0-2.25988-.106977-3.06983-.30882-1.06994-.26946-1.71991-1.365468-1.44992-2.448356.26998-1.080869 1.35992-1.737868 2.42986-1.468408 2.30988.585345 8.01956-.203861 9.27949-1.459325-.05-.055507-.10999-.122115-.17999-.200834-2.19988-2.216236-1.8699-4.147874-1.47992-5.102592 1.71991-4.186224 10.20944-4.398159 11.88934-4.398159 2.19988 0 6.67963 0 7.68958-.750856-.05-.230102-.27999-.846732-1.22993-1.99421-1.9099-2.317158-2.39987-4.364855-1.43992-6.088595.53997-.986003 2.19988-3.988418 14.25921-2.247522 1.09994.158447 1.85989 1.179773 1.6999 2.283854s-1.16993 1.86503-2.25987 1.711629c-6.37965-.918386-9.47948-.310838-10.14944.180649.05.196797.23999.69535.96995 1.576395.74996.908293 3.02983 3.672534 1.8199 6.277318-1.42992 3.088198-6.24966 3.088198-11.35938 3.088198-4.59974 0-7.66957 1.171699-8.15954 1.850901.04999.123124.20998.387538.56996.75893 2.13989 2.155683 1.39993 4.120625.97995 4.865426-1.50992 2.701669-6.84962 3.874377-10.8094 3.874377z"/><path d="m234.010245 409c-.473634 0-.948273-.161723-1.331403-.49105-.831624-.717462-.91006-1.956358-.174973-2.767913 9.069429-10.004282 22.119994-15.741037 35.806093-15.741037 13.32107 0 26.135321 5.482899 35.158493 15.042198.752182.796853.699892 2.036729-.117654 2.769873-.817546.734125-2.089619.682177-2.841802-.114676-8.26395-8.755584-20.000207-13.776838-32.199037-13.776838-12.533691 0-24.486151 5.254527-32.792336 14.416869-.397208.438122-.951289.662574-1.507381.662574"/><path d="m257.000576 409c-.732969 0-1.438939-.403996-1.789924-1.105989l-19.999153-39.99961c-.493979-.98799-.092996-2.188979.893963-2.682974.986958-.492995 2.188907-.094999 2.683886.893992l19.999153 39.999609c.493979.988991.092996 2.189979-.893963 2.683974-.287987.143999-.592974.210998-.893962.210998"/><path d="m135.761759 503h10.935431l5.541051-8h-10.935431zm11.957213 4h-15.750013c-.735329 0-1.408642-.416-1.747267-1.078-.338626-.663-.286454-1.462.136828-2.073l8.312069-12c.369141-.533.96961-.849 1.610439-.849h15.750013c.735329 0 1.408642.416 1.747267 1.078.338626.663.286454 1.462-.136828 2.073l-8.312069 12c-.369141.533-.96961.849-1.610439.849z"/><path d="m165.831248 503h100.729625l5.607879-8h-100.729625zm101.76373 4h-105.602273c-.744197 0-1.42563-.416-1.76834-1.078-.342709-.663-.289908-1.462.138479-2.073l8.412317-12c.373593-.533.981304-.849 1.629861-.849h105.602273c.744197 0 1.42563.416 1.76834 1.078.342709.663.289908 1.462-.138479 2.073l-8.412317 12c-.373593.533-.981304.849-1.629861.849z"/><path d="m285.761759 503h10.935431l5.541051-8h-10.935431zm11.957213 4h-15.750013c-.735329 0-1.408642-.416-1.747267-1.078-.338626-.663-.286454-1.462.136828-2.073l8.312069-12c.369141-.533.96961-.849 1.610439-.849h15.750013c.735329 0 1.408642.416 1.747267 1.078.338626.663.286454 1.462-.136828 2.073l-8.312069 12c-.369141.533-.96961.849-1.610439.849z"/><path d="m222 420h-16c-1.105 0-2-.896-2-2 0-1.105.895-2 2-2h16c1.104 0 2 .895 2 2 0 1.104-.896 2-2 2"/><path d="m252 420h-16c-1.105 0-2-.896-2-2 0-1.105.895-2 2-2h16c1.104 0 2 .895 2 2 0 1.104-.896 2-2 2"/><path d="m192 420h-16c-1.105 0-2-.896-2-2 0-1.105.895-2 2-2h16c1.104 0 2 .895 2 2 0 1.104-.896 2-2 2"/><path d="m342 420h-16c-1.105 0-2-.896-2-2 0-1.105.895-2 2-2h16c1.104 0 2 .895 2 2 0 1.104-.896 2-2 2"/><path d="m372 420h-16c-1.105 0-2-.896-2-2 0-1.105.895-2 2-2h16c1.104 0 2 .895 2 2 0 1.104-.896 2-2 2"/><path d="m312 420h-16c-1.105 0-2-.896-2-2 0-1.105.895-2 2-2h16c1.104 0 2 .895 2 2 0 1.104-.896 2-2 2"/><path d="m282 420h-16c-1.105 0-2-.896-2-2 0-1.105.895-2 2-2h16c1.104 0 2 .895 2 2 0 1.104-.896 2-2 2"/><path d="m194.761759 481h10.935431l5.541051-8h-10.935431zm11.957213 4h-15.750013c-.735329 0-1.408642-.416-1.747267-1.078-.338626-.663-.286454-1.462.136828-2.073l8.312069-12c.369141-.533.96961-.849 1.610439-.849h15.750013c.735329 0 1.408642.416 1.747267 1.078.338626.663.286454 1.462-.136828 2.073l-8.312069 12c-.369141.533-.96961.849-1.610439.849z"/><path d="m164.761759 481h10.935431l5.541051-8h-10.935431zm11.957213 4h-15.750013c-.735329 0-1.408642-.416-1.747267-1.078-.338626-.663-.286454-1.462.136828-2.073l8.312069-12c.369141-.533.96961-.849 1.610439-.849h15.750013c.735329 0 1.408642.416 1.747267 1.078.338626.663.286454 1.462-.136828 2.073l-8.312069 12c-.369141.533-.96961.849-1.610439.849z"/><path d="m134.761824 481h10.935556l5.541114-8h-10.935555zm11.957349 4h-15.750192c-.735337 0-1.408658-.416-1.747287-1.078-.338629-.663-.286456-1.462.13683-2.073l8.312164-12c.369145-.533.969621-.849 1.610457-.849h15.750192c.735337 0 1.408658.416 1.747287 1.078.338629.663.285472 1.462-.13683 2.073l-8.312164 12c-.369145.533-.969621.849-1.610457.849z"/><path d="m224.761759 481h10.935431l5.541051-8h-10.935431zm11.957213 4h-15.750013c-.735329 0-1.408642-.416-1.747267-1.078-.338626-.663-.286454-1.462.136828-2.073l8.312069-12c.369141-.533.96961-.849 1.610439-.849h15.750013c.735329 0 1.408642.416 1.747267 1.078.338626.663.286454 1.462-.136828 2.073l-8.312069 12c-.369141.533-.96961.849-1.610439.849z"/><path d="m314.761759 481h10.935431l5.541051-8h-10.935431zm11.957213 4h-15.750013c-.735329 0-1.408642-.416-1.747267-1.078-.338626-.663-.286454-1.462.136828-2.073l8.312069-12c.369141-.533.96961-.849 1.610439-.849h15.750013c.735329 0 1.408642.416 1.747267 1.078.338626.663.286454 1.462-.136828 2.073l-8.312069 12c-.369141.533-.96961.849-1.610439.849z"/><path d="m254.761759 481h10.935431l5.541051-8h-10.935431zm11.957213 4h-15.750013c-.735329 0-1.408642-.416-1.747267-1.078-.338626-.663-.286454-1.462.136828-2.073l8.312069-12c.369141-.533.96961-.849 1.610439-.849h15.750013c.735329 0 1.408642.416 1.747267 1.078.338626.663.286454 1.462-.136828 2.073l-8.312069 12c-.369141.533-.96961.849-1.610439.849z"/><path d="m284.761759 481h10.935431l5.541051-8h-10.935431zm11.957213 4h-15.750013c-.735329 0-1.408642-.416-1.747267-1.078-.338626-.663-.286454-1.462.136828-2.073l8.312069-12c.369141-.533.96961-.849 1.610439-.849h15.750013c.735329 0 1.408642.416 1.747267 1.078.338626.663.286454 1.462-.136828 2.073l-8.312069 12c-.369141.533-.96961.849-1.610439.849z"/><path d="m225.761759 459h10.935431l5.541051-8h-10.935431zm11.957213 4h-15.750013c-.735329 0-1.408642-.416-1.747267-1.078-.338626-.663-.286454-1.462.136828-2.073l8.312069-12c.369141-.533.96961-.849 1.610439-.849h15.750013c.735329 0 1.408642.416 1.747267 1.078.338626.663.286454 1.462-.136828 2.073l-8.312069 12c-.369141.533-.96961.849-1.610439.849z"/><path d="m195.761759 459h10.935431l5.541051-8h-10.935431zm11.957213 4h-15.750013c-.735329 0-1.408642-.416-1.747267-1.078-.338626-.663-.286454-1.462.136828-2.073l8.312069-12c.369141-.533.96961-.849 1.610439-.849h15.750013c.735329 0 1.408642.416 1.747267 1.078.338626.663.286454 1.462-.136828 2.073l-8.312069 12c-.369141.533-.96961.849-1.610439.849z"/><path d="m255.761759 459h10.935431l5.541051-8h-10.935431zm11.957213 4h-15.750013c-.735329 0-1.408642-.416-1.747267-1.078-.338626-.663-.286454-1.462.136828-2.073l8.312069-12c.369141-.533.96961-.849 1.610439-.849h15.750013c.735329 0 1.408642.416 1.747267 1.078.338626.663.286454 1.462-.136828 2.073l-8.312069 12c-.369141.533-.96961.849-1.610439.849z"/><path d="m165.761759 459h10.935431l5.541051-8h-10.935431zm11.957213 4h-15.750013c-.735329 0-1.408642-.416-1.747267-1.078-.338626-.663-.286454-1.462.136828-2.073l8.312069-12c.369141-.533.96961-.849 1.610439-.849h15.750013c.735329 0 1.408642.416 1.747267 1.078.338626.663.286454 1.462-.136828 2.073l-8.312069 12c-.369141.533-.96961.849-1.610439.849z"/><path d="m285.761759 459h10.935431l5.541051-8h-10.935431zm11.957213 4h-15.750013c-.735329 0-1.408642-.416-1.747267-1.078-.338626-.663-.286454-1.462.136828-2.073l8.312069-12c.369141-.533.96961-.849 1.610439-.849h15.750013c.735329 0 1.408642.416 1.747267 1.078.338626.663.286454 1.462-.136828 2.073l-8.312069 12c-.369141.533-.96961.849-1.610439.849z"/><path d="m315.761759 459h10.935431l5.541051-8h-10.935431zm11.957213 4h-15.750013c-.735329 0-1.408642-.416-1.747267-1.078-.338626-.663-.286454-1.462.136828-2.073l8.312069-12c.369141-.533.96961-.849 1.610439-.849h15.750013c.735329 0 1.408642.416 1.747267 1.078.338626.663.286454 1.462-.136828 2.073l-8.312069 12c-.369141.533-.96961.849-1.610439.849z"/><path d="m195.761824 437h10.935556l5.541114-8h-10.935555zm11.957349 4h-15.750192c-.735337 0-1.408658-.416-1.747287-1.078-.338629-.663-.286456-1.462.13683-2.073l8.312164-12c.369145-.533.969621-.849 1.610457-.849h15.750192c.735337 0 1.408658.416 1.747287 1.078.338629.663.285472 1.462-.13683 2.073l-8.313148 12c-.368161.533-.968637.849-1.609473.849z"/><path d="m225.761824 437h10.935556l5.541114-8h-10.935555zm11.957349 4h-15.750192c-.735337 0-1.408658-.416-1.747287-1.078-.338629-.663-.286456-1.462.13683-2.073l8.312164-12c.369145-.533.969621-.849 1.610457-.849h15.750192c.735337 0 1.408658.416 1.747287 1.078.338629.663.285472 1.462-.13683 2.073l-8.313148 12c-.368161.533-.968637.849-1.609473.849z"/><path d="m165.761824 437h10.935556l5.541114-8h-10.935555zm11.957349 4h-15.750192c-.735337 0-1.408658-.416-1.747287-1.078-.338629-.663-.286456-1.462.13683-2.073l8.312164-12c.369145-.533.969621-.849 1.610457-.849h15.750192c.735337 0 1.408658.416 1.747287 1.078.338629.663.285472 1.462-.13683 2.073l-8.313148 12c-.368161.533-.968637.849-1.609473.849z"/><path d="m285.761824 437h10.935556l5.541114-8h-10.935555zm11.957349 4h-15.750192c-.735337 0-1.408658-.416-1.747287-1.078-.338629-.663-.286456-1.462.13683-2.073l8.312164-12c.369145-.533.969621-.849 1.610457-.849h15.750192c.735337 0 1.408658.416 1.747287 1.078.338629.663.285472 1.462-.13683 2.073l-8.313148 12c-.368161.533-.968637.849-1.609473.849z"/><path d="m345.761824 437h10.935556l5.541114-8h-10.935555zm11.957349 4h-15.750192c-.735337 0-1.408658-.416-1.747287-1.078-.338629-.663-.286456-1.462.13683-2.073l8.312164-12c.369145-.533.969621-.849 1.610457-.849h15.750192c.735337 0 1.408658.416 1.747287 1.078.338629.663.285472 1.462-.13683 2.073l-8.313148 12c-.368161.533-.968637.849-1.609473.849z"/><path d="m255.761824 437h10.935556l5.541114-8h-10.935555zm11.957349 4h-15.750192c-.735337 0-1.408658-.416-1.747287-1.078-.338629-.663-.286456-1.462.13683-2.073l8.312164-12c.369145-.533.969621-.849 1.610457-.849h15.750192c.735337 0 1.408658.416 1.747287 1.078.338629.663.285472 1.462-.13683 2.073l-8.313148 12c-.368161.533-.968637.849-1.609473.849z"/><path d="m315.761824 437h10.935556l5.541114-8h-10.935555zm11.957349 4h-15.750192c-.735337 0-1.408658-.416-1.747287-1.078-.338629-.663-.286456-1.462.13683-2.073l8.312164-12c.369145-.533.969621-.849 1.610457-.849h15.750192c.735337 0 1.408658.416 1.747287 1.078.338629.663.285472 1.462-.13683 2.073l-8.313148 12c-.368161.533-.968637.849-1.609473.849z"/><path d="m418 382h-18c-1.104 0-2-.896-2-2 0-1.105.896-2 2-2h18c1.104 0 2 .895 2 2 0 1.104-.896 2-2 2"/><path d="m420 372h-17c-1.104 0-2-.896-2-2 0-1.105.896-2 2-2h17c1.104 0 2 .895 2 2 0 1.104-.896 2-2 2"/><path d="m420 392h-17c-1.104 0-2-.896-2-2 0-1.105.896-2 2-2h17c1.104 0 2 .895 2 2 0 1.104-.896 2-2 2"/><path d="m426 362h-18c-1.104 0-2-.896-2-2 0-1.105.896-2 2-2h18c1.104 0 2 .895 2 2 0 1.104-.896 2-2 2"/><path d="m426 402h-18c-1.104 0-2-.896-2-2 0-1.105.896-2 2-2h18c1.104 0 2 .895 2 2 0 1.104-.896 2-2 2"/></g></g></svg>