<svg height="600" viewBox="0 0 1404 600" width="1404" xmlns="http://www.w3.org/2000/svg"><g fill="none" fill-rule="evenodd" transform="translate(0 39)"><g fill="#0a0b09"><path d="m40 483s5 28 30 38h-68v-38z"/><path d="m314 335s1 10 12 14c0 0 0 15 18 26h-32s0-30 2-40"/><path d="m4 519h396v-142h-320.962l-75.038 106.633zm398 4h-400c-1.104 0-2-.896-2-2v-38c0-.412.127-.815.364-1.151l76-108c.375-.533.985-.849 1.636-.849h324c1.104 0 2 .895 2 2v146c0 1.104-.896 2-2 2z"/><path d="m267.999999 523c-1.104 0-1.999999-.896-1.999999-1.999999v-37.999988c0-.412.127-.815.364-1.151l75.999955-107.999966c.636-.903 1.882999-1.12 2.786998-.485.903.636 1.12 1.883999.485 2.786999l-75.635955 107.481966v37.366989c0 1.103999-.896 1.999999-1.999999 1.999999"/><path d="m268 485h-266c-1.104 0-2-.896-2-2 0-1.105.896-2 2-2h266c1.104 0 2 .895 2 2 0 1.104-.896 2-2 2"/><path d="m312.000255 377c-1.104001 0-2.000002-.896-2.000002-2 0-67.53 16.421019-115.916 30.197036-144.615 11.091013-23.106 22.081026-37.316 27.289032-43.385h-208.629247c-2.844003 3.052-16.073019 18.012-29.149034 45.314-13.553016 28.297-29.708035 76.022-29.708035 142.686 0 1.104-.8960013 2-2.0000026 2s-2.0000024-.896-2.0000024-2c0-67.53 16.421019-115.916 30.197036-144.615 14.975017-31.2 29.766035-46.177 30.389036-46.799.375-.375.884001-.586 1.414001-.586h214.000253c.809001 0 1.537002.487 1.847003 1.234.31.747.139 1.607-.432001 2.179-.148.149-15.024018 15.244-29.707035 45.901-13.553016 28.297-29.708035 76.022-29.708035 142.686 0 1.104-.896001 2-2.000003 2"/><path d="m372 321c-13.234 0-24 11.663-24 26s10.766 26 24 26 24-11.663 24-26-10.766-26-24-26zm0 56c-15.439 0-28-13.458-28-30s12.561-30 28-30 28 13.458 28 30-12.561 30-28 30z"/><path d="m372.5 342c-2.481 0-4.5 2.243-4.5 5s2.019 5 4.5 5 4.5-2.243 4.5-5-2.019-5-4.5-5zm0 14c-4.687 0-8.5-4.037-8.5-9s3.813-9 8.5-9 8.5 4.037 8.5 9-3.813 9-8.5 9z"/><path d="m352 377c-15.439 0-28-13.458-28-30s12.561-30 28-30h20c1.104 0 2 .895 2 2 0 1.104-.896 2-2 2h-20c-13.234 0-24 11.663-24 26s10.766 26 24 26c1.104 0 2 .895 2 2 0 1.104-.896 2-2 2"/><path d="m360.772889 321c-.168999 0-.338999-.021887-.509998-.067652-1.068997-.279563-1.705995-1.367969-1.424996-2.430507 6.183981-23.36192 14.856954-37.542034 19.113941-43.522296h-50.951842c-1.103997 0-1.999994-.891418-1.999994-1.989772 0-1.09935.895997-1.989773 1.999994-1.989773h54.99983c.784997 0 1.496995.456653 1.820994 1.167996.324999.711344.200999 1.544064-.315999 2.132042-.125.143263-12.750961 14.810872-20.798936 45.216587-.235999.892413-1.045996 1.483375-1.932994 1.483375"/><path d="m334 329h-18c-1.104 0-2-.896-2-2 0-1.105.896-2 2-2h18c1.104 0 2 .895 2 2 0 1.104-.896 2-2 2"/></g><path d="m294 269h-146c-1.104 0-2-.896-2-2 0-1.105.896-2 2-2h146c1.104 0 2 .895 2 2 0 1.104-.896 2-2 2" fill="#ff766a"/><path d="m290 283h-146c-1.104 0-2-.896-2-2 0-1.105.896-2 2-2h146c1.104 0 2 .895 2 2 0 1.104-.896 2-2 2" fill="#ff766a"/><path d="m286 297h-145c-1.104 0-2-.896-2-2 0-1.105.896-2 2-2h145c1.104 0 2 .895 2 2 0 1.104-.896 2-2 2" fill="#ff766a"/><path d="m284 311h-146c-1.104 0-2-.896-2-2 0-1.105.896-2 2-2h146c1.104 0 2 .895 2 2 0 1.104-.896 2-2 2" fill="#ff766a"/><path d="m281 325h-145c-1.104 0-2-.896-2-2 0-1.105.896-2 2-2h145c1.104 0 2 .895 2 2 0 1.104-.896 2-2 2" fill="#ff766a"/><path d="m155 339h-21c-1.104 0-2-.896-2-2 0-1.105.896-2 2-2h21c1.104 0 2 .895 2 2 0 1.104-.896 2-2 2" fill="#ff766a"/><path d="m158.396636 244-2.396636-3.195697 20.115765-15.08297c8.506061-6.376419 13.035703-9.032012 15.774858-6.88158 2.460547 1.932792 1.04054 6.277582-.672056 10.271954-2.576384 6.010026-2.169955 9.145822-1.310161 9.709886 1.004589.6629 5.868762-.002995 16.127363-10.861975 4.990994-5.283232 17.177889-17.142552 22.501416-13.155169 1.74555 1.305833 2.94986 4.36276-1.220287 11.5099-3.436177 5.889227-2.990802 8.246315-2.766117 8.435002.315557.264561 3.456149.287523 10.813821-5.937147 12.034109-10.180107 15.154729-11.16048 17.257777-9.454311 2.177943 1.766069.864786 5.341136-2.138998 10.91888-2.477522 4.599368-2.284793 6.266601-2.20091 6.603043.970637.22263 5.384442-1.236948 12.105009-7.955798 7.833005-7.832003 14.602503-11.215388 18.110579-9.046987 1.505887.930456 2.951857 3.085879 1.289191 8.073602-1.052523 3.156762-1.077488 5.540806-.067905 6.379414 1.51088 1.251922 6.589751.666893 16.313103-4.734144.964646-.537109 2.17994-.188687 2.716187.775713.535249.964399.187737 2.179383-.776909 2.715494-10.48029 5.821339-17.285738 7.233995-20.802801 4.315838-1.69562-1.406666-3.274404-4.407686-1.171356-10.715219.782901-2.347105.514278-3.291538.39944-3.415332-.602155-.432283-5.235652.528123-13.185493 8.475934-5.890732 5.889227-13.545987 11.169465-17.359634 8.331175-2.456552-1.826968-2.082077-5.762437 1.114436-11.695592 1.36109-2.526806 2.047127-4.126152 2.392642-5.113514-1.61773.869557-4.891135 3.072901-11.413979 8.589746-7.510459 6.353456-13.029712 8.410043-15.962595 5.948129-1.836422-1.541442-2.99979-5.135478 1.884355-13.505588 2.26582-3.884554 2.390644-5.813353 2.238857-6.302541-.973633-.219636-6.388033 1.291856-17.165905 12.700923-9.685406 10.251987-17.023106 14.216408-21.222212 11.458984-3.240452-2.126471-3.300368-7.318854-.169762-14.621735 1.355098-3.161754 1.637701-4.705192 1.675648-5.382069-1.578784.340435-5.173738 2.608671-10.710966 6.760781z" fill="#ff766a"/><g fill="#0a0b09"><path d="m545.362094 69.0688359c15.43499 6.9502855 27.041982 19.766153 30.30398 23.6150045l103.267931-34.9629796c-55.797963-6.8734481-101.592932 1.3321797-133.571911 11.3479751zm-221.531853-17.0040007c22.645985 3.4407157 98.768935 16.7265881 151.0139 46.5464562 4.596997-3.4257474 23.329984-16.5818944 54.577964-28.2891089 30.03398-11.252178 77.214948-22.9304538 136.619909-17.9480022-45.57997-14.1191083-90.66994-23.2407967-134.322911-27.1555088-40.091973-3.5953882-79.065947-2.8330022-115.839923 2.2662022-47.910968 6.6429362-79.636947 19.0406888-92.048939 24.5799615zm151.1699 50.9351648c-.346 0-.692-.088812-1.003999-.26943-60.92796-35.3032588-156.287897-47.5253832-157.243896-47.6441318-.862999-.1077718-1.557999-.7603902-1.717999-1.6135839-.16-.8521958.251-1.7113768 1.015999-2.1235043.351-.1886007 35.798977-18.9828113 99.048935-27.7871715 37.090975-5.1620714 76.392949-5.9484066 116.813922-2.3340586 50.495966 4.5144424 102.892932 15.947238 155.733897 33.9810584.809999.2764148 1.353999 1.036805 1.352999 1.8909966s-.547 1.612586-1.356999 1.887005l-111.999926 37.9197199c-.801.2714253-1.686999.0099788-2.211999-.6526184-.146999-.1846091-14.83999-18.5257789-33.985977-25.2615186-3.012998 1.0168472-5.886996 2.0436733-8.616994 3.0665079-34.925977 13.0842991-54.390964 28.3549693-54.582964 28.5076463-.363.287391-.802999.433083-1.244999.433083z"/><path d="m694.643827 300.771102c23.300977 11.916511 56.793943 21.712863 101.351898 17.644641-20.535979-1.778972-51.527948-7.739229-72.158927-26.796642-3.475997 2.363291-13.168987 7.898316-29.192971 9.152001zm-185.259812-43.768915c5.537995 9.55322 25.840974 40.788286 65.920933 63.404644 27.944972 15.768615 59.91794 24.336297 95.030904 25.462912 38.955961 1.245681 81.888917-6.696659 127.87587-23.643919-7.792992.771422-15.265984 1.128617-22.410977 1.128617-45.737953.002001-78.30292-14.597976-98.7869-28.293459-24.134975-16.135817-36.336963-33.720425-39.12396-38.058795zm168.952829 92.997813c-2.784997 0-5.545994-.045025-8.292992-.135074-35.784963-1.172641-68.38793-9.949436-96.902901-26.085253-48.598951-27.500025-68.736931-67.491877-68.933931-67.892095-.306999-.620339-.269999-1.35474.094-1.942061.366-.588322 1.007999-.945517 1.698999-.945517h132.999865c.705999 0 1.358998.373204 1.719998.980536.119.199109 12.182988 20.198036 38.687961 37.86669 2.588997 1.726943 5.375994 3.466894 8.363991 5.189835.075-.009004.151-.013007.228-.013007 23.009977 0 34.604965-9.446161 34.719965-9.541213.783999-.655358 1.934998-.612334 2.671997.100055 16.137984 15.642547 40.09196 22.276171 57.344942 25.087708 18.835981 3.067676 34.012966 2.375297 34.164965 2.365292.973999-.023013 1.837999.613335 2.049998 1.562854.212.950519-.289999 1.916047-1.189998 2.28725-50.12095 20.661289-96.979902 31.112999-139.424859 31.114z"/><path d="m984.998829 164.934834h.01zm-216.218327 14.106356c59.765814 18.787819 114.574644 13.737556 150.284533 6.081704 36.112887-7.740805 60.381812-19.603377 64.402799-21.64727l50.460846-110.2112776c-37.862885 27.706986-93.462712 59.7806056-153.734524 65.6854056-32.783898 3.214259-53.437834-2.568608-59.269816-4.528546-15.484952 27.554069-43.752864 56.354463-52.143838 64.619984zm85.670734 16.95881c-27.293915 0-58.01282-3.671011-90.07472-14.17332-.669998-.219881-1.174996-.775579-1.327996-1.462207-.153999-.687628.064-1.405239.576998-1.889976.366999-.347812 36.979885-35.148953 54.61783-67.467441.485999-.890517 1.562996-1.277307 2.501993-.897513.212999.084954 21.946931 8.555364 59.365815 4.831382 34.582892-3.441136 90.01172-18.2990843 157.677514-69.5353201.72999-.5536999 1.74999-.5387081 2.45999.0339816.72.5726897.94999 1.5581557.57 2.3907045l-54.001836 117.936092c-.181.397785-.488999.725607-.874997.931495-.255.135927-25.95992 13.724563-65.897795 22.304914-17.761945 3.815932-40.194875 6.997208-65.592796 6.997208z"/><path d="m1127.57899 116.952034 95.86088 20.879972c7.29006-6.398992 66.0706-59.3989206 95.30086-127.2538294-12.42011 1.8859974-55.0905 6.695991-106.41096-6.17499174-1.59002 4.76699359-6.60006 18.29997544-17.36016 36.36995114-11.80011 19.8119734-32.9703 48.8469344-67.39062 76.178898zm96.42088 25.047966c-.14 0-.28-.015-.43-.046l-101.00092-21.99997c-.76001-.166-1.35001-.755999-1.52001-1.514998-.17001-.758999.11-1.546998.73-2.022998 35.85033-27.6549625 57.67053-57.4369225 69.67064-77.5508954 13.00011-21.8059707 17.59016-37.26994997 17.63016-37.42394976.3-1.03799861 1.37001-1.64599779 2.42002-1.37799815 60.85055 15.70297891 109.621 6.07699184 110.101 5.97699197.73001-.1479998 1.47001.11599984 1.94002.68699908.47.56999923.59 1.35399818.31 2.03699726-30.83028 74.5838998-97.88089 132.185822-98.5509 132.758822-.37.310999-.83.476999-1.30001.476999z"/><path d="m1060.63116 361.805191c25.3602 3.391178 41.20033 14.428191 50.1604 23.350822 7.43006 7.40183 11.39009 14.449105 13.0801 17.959795 28.42023-18.782442 62.5705-23.426513 75.64061-24.546946-21.14017-15.687059-42.37034-27.432186-63.59051-35.205502-.09-.002988-.18-.012947-.26-.027886-27.41022-4.774539-52.59042 1.434154-75.0306 18.469717zm13.3301-29.818459c-8.97007 0-17.93014.722056-26.85021 2.168162-46.57037 7.53927-83.904674 33.774335-107.029859 54.455041-18.68615 16.710886-31.328251 32.550324-36.621293 39.631461l113.180902-18.943785c2.13002-4.403053 11.5601-22.609842 28.95024-39.712132 15.44012-15.173154 39.81032-31.708755 72.74058-31.753572-14.82012-3.894128-29.62024-5.845175-44.37036-5.845175zm-174.961398 101.013268c-.672005 0-1.30901-.337624-1.681013-.912282-.433004-.669272-.424004-1.529764.021-2.190073.143001-.212135 14.614117-21.488413 40.068321-44.251629 23.524188-21.037252 61.538493-47.729454 109.05287-55.423095 52.99043-8.581024 106.75086 7.707584 159.76128 48.414661.67001.514901.94001 1.396309.68001 2.199037-.26.801732-1.01001 1.350495-1.86002 1.369418-.45.010955-45.83036 1.287751-80.90064 25.538903-.51001.352563-1.15001.450165-1.74002.263924-.59-.185245-1.06001-.632422-1.28001-1.211063-.13-.362523-14.20011-36.536079-64.88052-41.489887-2.62002 2.189077-5.20004 4.530533-7.75006 7.024369-19.04015 18.68982-28.57023 39.371521-28.67023 39.578676-.27.60354-.83001 1.032791-1.49001 1.142344l-118.999955 19.918811c-.110001.018923-.222002.027886-.331003.027886z"/><path d="m1234.35863 264.238637c6.26997 4.96965 22.0899 16.022683 44.7998 21.493011 17.39992 4.190038 35.38984 4.334522 53.48977.431445 21.8999-4.725833 44.0298-15.428693 65.79971-31.830646l-65.21972-39.83346c-6.77997 6.009133-43.26981 36.512332-98.86956 49.73965zm72.23968 28.761363c-9.63996 0-19.18992-1.137812-28.56987-3.413437-30.65987-7.439927-48.64979-24.237205-49.39979-24.948588-.53999-.510712-.74999-1.279287-.55999-1.99669.19999-.715397.77999-1.264236 1.49999-1.422767 62.66972-13.755086 101.66955-50.299526 102.04955-50.66776.66-.623087 1.64999-.729444 2.41999-.257864l68.9997 42.141192c.55999.344153.91999.944164.95999 1.604376.03.660212-.26 1.296343-.78 1.699694-23.04989 17.80666-46.54979 29.372411-69.85969 34.377179-8.95996 1.923444-17.89992 2.884665-26.75988 2.884665z"/><path d="m1332.15811 288c-12.80443 0-22.71688-3.920853-29.39832-7.818451-7.7385-4.512317-12.51523-9.674739-14.35013-11.868718-31.5623 7.589954-56.10412-1.993791-57.15121-2.410344-1.01717-.409475-1.52576-1.582293-1.11689-2.621653.39889-1.038349 1.55567-1.547918 2.58282-1.140465.24931.098072 25.10026 9.764723 55.95453 1.941217.78781-.197155 1.61551.102116 2.09418.761321.18948.257817 19.3662 25.779757 55.79498 17.426461 1.06704-.242652 2.14404.437784 2.38338 1.526685.23933 1.089912-.42881 2.172747-1.50582 2.419443-5.47479 1.254714-10.5806 1.783493-15.28752 1.784504"/><path d="m926.000642 170c-.227985 0-.45797-.039-.683956-.120999-1.037933-.377997-1.572899-1.524988-1.195923-2.562979l19.998715-54.99955c.378976-1.038992 1.528902-1.571987 2.563836-1.195991 1.037933.376997 1.572899 1.524988 1.195923 2.56298l-19.998715 54.99955c-.295981.811993-1.062932 1.316989-1.87988 1.316989"/><path d="m905.999605 175c-.244985 0-.493971-.045999-.734957-.140996-1.027941-.406989-1.530912-1.569956-1.122935-2.596927l20.998789-52.998506c.406976-1.025971 1.569909-1.529957 2.59485-1.121968 1.027941.406988 1.530912 1.568955 1.122935 2.595926l-20.998789 52.998507c-.310982.784977-1.062939 1.263964-1.859893 1.263964"/><path d="m885.999216 178c-.257995 0-.519989-.050998-.772984-.156993-1.018979-.42798-1.496969-1.599925-1.069978-2.617878l20.999568-49.997666c.426991-1.018953 1.597967-1.49993 2.617946-1.06995 1.018979.42798 1.496969 1.599925 1.069978 2.618877l-20.999568 49.997667c-.321993.764965-1.063978 1.225943-1.844962 1.225943"/><path d="m865.999231 180c-.267994 0-.539988-.054999-.800983-.167998-1.010978-.442995-1.472967-1.621982-1.029977-2.634971l20.999539-47.999474c.44199-1.011989 1.621964-1.470984 2.633942-1.029988 1.010978.442995 1.472967 1.621982 1.029977 2.633971l-20.999539 47.999473c-.327992.750992-1.061976 1.198987-1.832959 1.198987"/><path d="m844.998101 179c-.306998 0-.616995-.070997-.908992-.220991-.983991-.501981-1.371988-1.707935-.868992-2.690897l21.999799-42.99834c.502995-.982963 1.704984-1.373947 2.690975-.868967.983991.502981 1.371988 1.707934.868992 2.690896l-21.999799 42.998341c-.352996.691973-1.05399 1.089958-1.781983 1.089958"/><path d="m841.998285 147c-.341972 0-.687944-.087992-1.005918-.272977-.953922-.556952-1.275896-1.781847-.719941-2.735765l6.99943-11.998969c.556954-.952919 1.779855-1.276891 2.735777-.718939.953922.555953 1.275896 1.780847.719941 2.734765l-6.99943 11.99897c-.372969.636946-1.040915.992915-1.729859.992915"/><path d="m957.998732 156c-.451001 0-.905001-.151999-1.279001-.462998-.849001-.707996-.963001-1.967989-.256-2.816985 2.023001-2.427988 4.991003-3.90898 7.610005-5.214973 1.921002-.957995 4.313003-2.150989 4.459003-3.053984.074-.452998-.399-1.487993-1.947001-3.036985-4.327003-4.325977-6.140004-7.853959-5.704004-11.101942.511-3.815981 4.076003-6.305968 7.126005-8.047959 6.092004-3.481982 6.007004-4.880975 6.000004-4.938974-.001-.011-.315-1.128995-4.582003-2.408988-3.120002-.935995-3.907003-2.665986-4.018003-3.95298-.441-5.106973 10.831008-11.3179413 15.697011-13.7519287.991001-.4939975 2.191002-.0919995 2.684002.8949954.493001.9869949.094 2.1889883-.894 2.6829863-8.117006 4.060979-13.23501 8.346957-13.49201 9.758949.11.095.42.310999 1.171001.536998 2.999002.898995 7.030005 2.477987 7.408005 5.78597.407001 3.556982-3.811003 6.477966-7.990006 8.865954-3.297002 1.88299-4.931003 3.505982-5.145003 5.105974-.249 1.85799 1.288001 4.462977 4.567003 7.74296 1.524001 1.523992 3.499003 3.85598 3.067002 6.507966-.476 2.924985-3.460002 4.413977-6.622005 5.990969-2.378001 1.185994-4.837003 2.411988-6.323004 4.194979-.395.474997-.964001.719996-1.537001.719996"/><path d="m578.99892 315c-1.064998 0-1.949996-.83896-1.996996-1.912908-.048-1.102947.807998-2.036902 1.910996-2.084899.458-.018999 46.140915-2.093899 77.544856-10.927473 1.065998-.297986 2.167996.321984 2.466996 1.384933.298999 1.062949-.32 2.166895-1.382998 2.466881-31.854941 8.958568-77.992855 11.051467-78.454854 11.071466-.03.001-.059.002-.088.002"/><path d="m598.998313 327c-1.022987 0-1.894976-.779994-1.989975-1.818986-.099998-1.099992.710991-2.071984 1.810977-2.172984.436995-.038999 44.024437-4.090968 69.462112-13.873894 1.027987-.396997 2.187972.116999 2.584967 1.148992.395995 1.029992-.117998 2.186983-1.148985 2.58298-25.960668 9.985924-68.728121 13.960893-70.536098 14.125892-.061.005-.122999.008-.182998.008"/><path d="m620.998517 336c-1.017986 0-1.887975-.771985-1.988973-1.804965-.106999-1.099978.69799-2.077959 1.796976-2.184957.405994-.039999 40.917449-4.09492 63.330148-14.813711.994987-.476991 2.190971-.054999 2.666964.940981.476994.996981.054999 2.190958-.940987 2.667948-23.05269 11.023785-62.979153 15.020707-64.668131 15.185704-.065999.006-.130998.009-.195997.009"/><path d="m641.997845 344c-1.024997 0-1.897994-.783036-1.989993-1.824083-.097-1.10005.715997-2.070095 1.815993-2.168099.336999-.030002 33.988879-3.126143 61.333781-15.822722.999996-.462022 2.190992-.030002 2.65599.972044.464999 1.001046.03 2.1911-.971996 2.657121-27.9929 12.997593-62.322777 16.147737-62.665776 16.177739-.06.005-.119.008-.177999.008"/><path d="m668.998338 349c-1.023 0-1.894999-.779962-1.989999-1.817912-.1-1.100947.710999-2.0729 1.809999-2.173895.326-.028999 32.748982-3.122849 53.07297-16.671195.919-.61497 2.159999-.363982 2.772999.554974.611999.918955.364 2.160895-.555 2.772866-21.177988 14.118317-53.55997 17.202168-54.927969 17.327162-.061.005-.123.008-.183.008"/><path d="m714.997903 347c-.92001 0-1.749019-.638009-1.952021-1.575023-.234002-1.079016.450005-2.144032 1.529016-2.379035.224003-.049001 22.520237-4.970073 30.011316-12.460183.781008-.781012 2.047022-.781012 2.82803 0 .781008.781011.781008 2.04703 0 2.828041-8.319088 8.321123-31.026327 13.331196-31.989337 13.540199-.144001.032001-.286003.046001-.427004.046001"/><path d="m578.720178 300c-.272996 0-.546993-.024016-.821989-.073049-3.320959-.591399-4.908939-4.673149-5.813928-7.693185-.978988-3.264199-2.035975-4.51204-2.699967-4.591094-.432994-.06004-2.917963.185125-8.655892 10.028759-.556993.953642-1.780978 1.27586-2.735966.720485-.953988-.557375-1.275984-1.782201-.719991-2.737845 5.152936-8.836955 8.919889-12.418368 12.583843-11.986077 3.977951.473319 5.544932 5.69884 6.059925 7.416998 1.360983 4.542061 2.550969 4.878288 2.682967 4.901303.634992.10407 2.347971-.585394 6.800915-6.528399.662992-.885597 1.301984-1.770193 1.918977-2.62577 3.375958-4.679153 6.036925-8.362635 9.492882-7.769235 2.603967.457308 4.431945 3.163131 6.110924 9.044094 1.759978 6.163154 3.520956 6.871631 4.01895 6.941678.74699.109074 2.964963-.410276 7.361908-7.451021 3.301959-5.288564 6.819916-7.892319 10.47887-7.708194 3.446957.163109 6.47692 2.811894 9.005888 7.873305.493994.988667.092999 2.190477-.893989 2.68481-.988987.494333-2.189972.094063-2.683966-.894603-1.259985-2.523701-3.25796-5.553743-5.617931-5.665818-2.067974-.106072-4.487944 1.973329-6.896914 5.830929-2.909964 4.66014-6.826915 9.931693-11.312859 9.293263-3.159961-.4453-5.549931-3.652462-7.30591-9.803607-1.660979-5.819922-2.942963-6.199177-2.955963-6.201179-.932988-.184124-3.958951 3.951663-5.558931 6.169158-.629992.874589-1.283984 1.779199-1.961975 2.683808-3.743954 4.995367-6.759916 8.140486-9.879878 8.140486"/><path d="m477.9985 65c-.300999 0-.605997-.0679996-.893996-.2119989-37.254841-18.627904-87.831624-24.7428725-88.338622-24.8018722-1.096996-.1289994-1.880992-1.1229943-1.751993-2.2209886.129-1.0969943 1.118995-1.8769903 2.219991-1.751991.512998.0609997 51.785778 6.2599678 89.660616 25.1968702.986996.4939975 1.387994 1.6959913.893996 2.6839862-.350998.7009964-1.056995 1.1059943-1.789992 1.1059943"/><path d="m502.997762 54c-.363998 0-.731996-.099996-1.061994-.3069878-34.147787-21.4641499-85.536466-24.6660231-86.050463-24.6960219-1.102993-.0639975-1.944988-1.00896-1.881988-2.1119164.063999-1.1029563 1.022993-1.9519227 2.111987-1.8809255.524996.0299988 52.91867 3.28387 87.948451 25.3019979.935994.5879767 1.216992 1.8229278.628996 2.7578908-.379998.603976-1.029993.9359629-1.694989.9359629"/><path d="m524.998726 45c-.409001 0-.820001-.1247689-1.175002-.3843688-32.001047-23.4173173-76.234113-20.4480179-76.677113-20.4158195-1.104002.0724465-2.060003-.750626-2.141003-1.8584534-.082001-1.1078273.745001-2.0727742 1.846002-2.1552826 1.867003-.139862 46.112069-3.1302915 79.324118 21.1744951.894001.6540307 1.091001 1.9127882.442 2.8113257-.392.5413362-1.001001.8281035-1.619002.8281035"/><path d="m553.986954 39c-.440571 0-.884159-.1454251-1.256331-.445428-19.32979-15.6347272-51.36874-15.4832003-51.697659-15.4862512-1.121544-.0010169-2.020792-.8898391-2.032862-2.0135787-.011065-1.1227227.880136-2.0430706 1.991621-2.0542571 1.378041-.0061018 33.811291-.1566117 54.253573 16.3781241.86706.7017017 1.007882 1.9810361.313832 2.8586717-.397319.5013607-.982735.7627192-1.572174.7627192"/><path d="m580.025082 37c-.446038 0-.893062-.1479045-1.262128-.4505248-5.479747-4.5023288-20.061813-7.6705982-20.208848-7.7027091-1.064766-.227695-1.739743-1.2639993-1.50883-2.3148995.2319-1.0499271 1.279891-1.7135511 2.347617-1.4878022.637479.1362278 15.675451 3.4027758 21.89629 8.5152106.8378.6879504.951283 1.9149736.25361 2.7410979-.390776.4612284-.95227.6996271-1.517711.6996271"/><path d="m1270.99683 63c-.11999 0-.23997-.0109995-.36996-.0339985l-63.99367-11.9994622c-1.07989-.2039908-1.79982-1.248944-1.59984-2.3348953.20998-1.0849514 1.25988-1.8009193 2.33977-1.5969285l63.99367 11.9994622c1.07989.2039909 1.79982 1.2489441 1.59984 2.3348954-.17998.9609569-1.0199 1.6309269-1.96981 1.6309269"/><path d="m1261.99604 74c-.13998 0-.27996-.0139998-.41995-.0439993l-60.99208-12.9997961c-1.07986-.2299963-1.76977-1.2919797-1.5398-2.3729627.22997-1.0799831 1.28984-1.7689723 2.3797-1.5389759l60.99208 12.9997961c1.07986.2299964 1.76977 1.2919797 1.5398 2.3729627-.19998.9389853-1.02987 1.5829752-1.95975 1.5829752"/><path d="m1251.99835 84c-.15 0-.28999-.0159997-.43998-.049999l-56.99669-12.9997435c-1.07994-.2459952-1.7599-1.317974-1.50991-2.3949527.24998-1.0769788 1.31992-1.7499655 2.38986-1.5049704l56.99669 12.9997435c1.07994.2459952 1.7599 1.317974 1.50991 2.3949528-.20999.9269817-1.03994 1.5549693-1.94988 1.5549693"/><path d="m1242.99785 94c-.14999 0-.29998-.0170006-.44997-.0520017l-55.99569-13.0004326c-1.07992-.2500083-1.74987-1.3250441-1.49989-2.4000798.24999-1.0770359 1.3299-1.743058 2.39982-1.4960498l55.99569 13.0004325c1.07992.2500084 1.74987 1.3240441 1.49989 2.4000799-.21999.9240307-1.03992 1.5480515-1.94985 1.5480515"/><path d="m1216.99742 100c-.14998 0-.30996-.0169993-.45994-.0539979l-37.99483-8.9996501c-1.07986-.2549901-1.73977-1.3319483-1.4898-2.4069065.25996-1.0759581 1.33982-1.7399323 2.40967-1.4849422l37.99483 8.9996501c1.07986.2549901 1.73977 1.3319482 1.4898 2.4069064-.21997.9199643-1.03986 1.5389402-1.94973 1.5389402"/><path d="m1274.38281 48c-.59001 0-1.19003-.0855751-1.79004-.290344-2.26004-.7681382-3.79008-2.9064963-4.54009-6.3580243-.62001-2.8249962-1.39003-3.4657905-1.69004-3.6104532-.86001-.4054628-2.82005.6234756-4.55009 1.5352576-.99002.5185442-2.01004 1.0544072-3.07006 1.4873763-.99002.4054629-2.06004 1.0350509-3.08007 1.6432452-2.48005 1.4629263-5.0301 2.9757714-7.43015 1.729839-2.36005-1.2286136-2.96006-4.4397164-3.22006-7.0996749-.45001-4.6027166-1.44003-5.2822234-1.63004-5.3718735-1.26002-.5715192-5.43011 2.4714897-7.22014 3.7703971-4.4601 3.2447216-7.34015 4.8034104-9.7902 3.7693783-2.22005-.9352134-2.93006-3.6135094-3.34007-6.1114866-.45001-2.7333087-.95002-2.9930902-.96002-2.9961464-.37001-.1691127-1.78004.0376938-7.01015 3.3710467-.93002.596988-2.17004.306644-2.76005-.6479256-.58001-.9545696-.30001-2.2106894.64001-2.8076774 5.19011-3.3058467 8.29017-4.7708104 10.77022-3.6298095 2.16004.9902259 2.84006 3.4882031 3.26007 6.0411928.43001 2.5825335.89002 2.9869776.95002 3.0246714.28.0702938 1.48003-.0978001 5.92012-3.3292779 4.44009-3.2355528 8.09016-5.5959986 11.19023-4.1656724 2.89006 1.3335449 3.63007 5.3382547 3.96008 8.6777201.33001 3.4056842 1.06002 3.8732909 1.06002 3.8763471.45001.2394065 2.66005-1.0686696 3.60007-1.6249076 1.15003-.6815444 2.34005-1.38652 3.61008-1.9030267.88002-.359619 1.81003-.8496382 2.71005-1.3243761 2.68006-1.4079138 5.44011-2.8647275 8.08017-1.6045327 1.91004.9066883 3.15006 2.9462276 3.90008 6.4160931.42001 1.8979329 1.09002 3.095984 1.90004 3.3751217 1.18002.4054629 3.11006-.7864757 3.85008-1.4282887.85001-.7233132 2.11004-.6214381 2.82005.2343127.71002.854732.62002 2.1342831-.22 2.8647275-.34001.2954377-2.95006 2.4867709-5.92012 2.4867709"/><path d="m1320.99834 276c-.42995 0-.8599-.137994-1.22985-.420983l-26.99667-21.00014c-.8699-.677972-1.02988-1.933921-.34996-2.805885.67991-.872964 1.93976-1.029958 2.80965-.350986l26.99667 20.998141c.8699.678972 1.02988 1.93592.34996 2.806885-.39995.506979-.98988.772968-1.5798.772968"/><path d="m1333.00187 270c-.42006 0-.84011-.130002-1.20016-.401007l-28.00374-20.999346c-.88012-.663011-1.06014-1.917032-.40005-2.801046.66008-.881015 1.91025-1.061018 2.80037-.400007l28.00374 21.001347c.88012.662011 1.06014 1.916031.40005 2.800046-.39005.523008-.99013.800013-1.60021.800013"/><path d="m1343.99962 263c-.39999 0-.80998-.121994-1.15997-.371982l-27.99924-20.000032c-.89997-.641969-1.10996-1.890909-.46998-2.789865.63998-.898957 1.88995-1.107947 2.78992-.464978l27.99924 19.999033c.89997.641968 1.10996 1.890908.46998 2.789865-.38999.546973-1.00997.837959-1.62995.837959"/><path d="m1335.19052 236.451023h.01zm23.48092 18.548977c-6.58026.000993-11.63045-1.801441-13.05051-4.810135-.75003-1.591786-.39002-3.348514.97004-4.696862.09-.09042.16-.171897.23001-.246419-.61003-.157986-1.76007-.335845-3.82015-.335845-8.64034 0-9.70039-2.544671-10.0504-3.380309-.45002-1.083051-.53002-2.825868 1.64007-4.980045.11-.119235.21-.219591.28001-.305043-.81004-.405398-3.40014-1.270845-10.87043-1.270845-1.10004 0-2.00008-.890287-2.00008-1.987249 0-1.097954.90004-1.987248 2.00008-1.987248 11.66046 0 14.03055 1.923657 14.81058 3.805581.43002 1.020452.53002 2.639066-1.40005 4.554773-.31002.309017-.49002.541525-.59003.698518.63003.333858 2.4501.87737 6.18025.87737 4.78018 0 7.16028.824708 7.96031 2.756314.60002 1.440755.08 2.991802-1.55006 4.610416-.13001.131159-.18001.221578-.18001.245425.25001.880352 4.49018 3.063344 12.5905 2.332037 1.10004-.105325 2.07008.706466 2.17008 1.798459.10001 1.093981-.71003 2.059783-1.81007 2.159146-1.21005.109299-2.38009.161961-3.51014.161961z"/><path d="m1105.99865 373c-.48005 0-.9601-.172003-1.35015-.52101-.81009-.742014-.87009-2.008038-.13001-2.825054 10.09111-11.097212 26.76294-20.964401 27.47301-21.378409.95011-.558011 2.17024-.242004 2.7303.709014.56006.952018.25003 2.178041-.71008 2.738052-.16001.099002-16.86185 9.980191-26.53291 20.623394-.40004.433009-.9401.654013-1.48016.654013"/><path d="m1094.00132 365c-.44999 0-.88997-.149-1.26996-.452-.84997-.700001-.97997-1.959002-.27999-2.815003 9.09969-11.117009 22.88921-20.041017 23.46919-20.416018.92997-.596 2.15993-.327 2.75991.601001.59998.929001.32999 2.167002-.59998 2.764002-.14.088-13.83953 8.966008-22.52923 19.584017-.39998.484001-.96996.734001-1.54994.734001"/><path d="m1082.05414 360c-.41074 0-.83174-.122069-1.19114-.375287-.92416-.648682-1.1398-1.908718-.48262-2.814653 5.23692-7.195021 14.84821-15.020564 15.25894-15.349445.87282-.708203 2.16665-.586133 2.88544.272386.72907.859529.60584 2.131671-.27724 2.840883-.09242.077681-9.61129 7.821508-14.51962 14.580711-.40047.551834-1.03711.845405-1.67376.845405"/><path d="m1120.58086 385c-1.19994 0-2.25988-.106977-3.06983-.30882-1.06994-.26946-1.71991-1.365468-1.44992-2.448356.26998-1.080869 1.35992-1.737868 2.42986-1.468408 2.30988.585345 8.01956-.203861 9.27949-1.459325-.05-.055507-.10999-.122115-.17999-.200834-2.19988-2.216236-1.8699-4.147874-1.47992-5.102592 1.71991-4.186224 10.20944-4.398159 11.88934-4.398159 2.19988 0 6.67963 0 7.68958-.750856-.05-.230102-.27999-.846732-1.22993-1.99421-1.9099-2.317158-2.39987-4.364855-1.43992-6.088595.53997-.986003 2.19988-3.988418 14.25921-2.247522 1.09994.158447 1.85989 1.179773 1.6999 2.283854s-1.16993 1.86503-2.25987 1.711629c-6.37965-.918386-9.47948-.310838-10.14944.180649.05.196797.23999.69535.96995 1.576395.74996.908293 3.02983 3.672534 1.8199 6.277318-1.42992 3.088198-6.24966 3.088198-11.35938 3.088198-4.59974 0-7.66957 1.171699-8.15954 1.850901.04999.123124.20998.387538.56996.75893 2.13989 2.155683 1.39993 4.120625.97995 4.865426-1.50992 2.701669-6.84962 3.874377-10.8094 3.874377z"/><path d="m161.010245 376c-.473634 0-.948273-.161723-1.331403-.49105-.831624-.717462-.91006-1.956358-.174973-2.767913 9.069429-10.004282 22.119994-15.741037 35.806093-15.741037 13.32107 0 26.135321 5.482899 35.158493 15.042198.752182.796853.699892 2.036729-.117654 2.769873-.817546.734125-2.089619.682177-2.841802-.114676-8.26395-8.755584-20.000207-13.776838-32.199037-13.776838-12.533691 0-24.486151 5.254527-32.792336 14.416869-.397208.438122-.951289.662574-1.507381.662574"/><path d="m184.000576 376c-.732969 0-1.438939-.403996-1.789924-1.105989l-19.999153-39.99961c-.493979-.98799-.092996-2.188979.893963-2.682974.986958-.492995 2.188907-.094999 2.683886.893992l19.999153 39.999609c.493979.988991.092996 2.189979-.893963 2.683974-.287987.143999-.592974.210998-.893962.210998"/><path d="m62.7617588 470h10.935431l5.5410514-8h-10.935431zm11.9572131 4h-15.7500132c-.7353287 0-1.4086418-.416-1.7472671-1.078-.3386253-.663-.2864533-1.462.1368283-2.073l8.3120694-12c.3691409-.533.9696102-.849 1.6104388-.849h15.7500132c.7353287 0 1.4086418.416 1.7472671 1.078.3386253.663.2864533 1.462-.1368283 2.073l-8.3120694 12c-.3691409.533-.9696102.849-1.6104388.849z"/><path d="m92.8312483 470h100.7296247l5.607879-8h-100.7296246zm101.7637297 4h-105.6022727c-.7441972 0-1.4256307-.416-1.76834-1.078-.3427092-.663-.2899081-1.462.1384785-2.073l8.4123169-12c.3735929-.533.9813041-.849 1.6298615-.849h105.6022728c.744197 0 1.42563.416 1.76834 1.078.342709.663.289908 1.462-.138479 2.073l-8.412317 12c-.373593.533-.981304.849-1.629861.849z"/><path d="m212.761759 470h10.935431l5.541051-8h-10.935431zm11.957213 4h-15.750013c-.735329 0-1.408642-.416-1.747267-1.078-.338626-.663-.286454-1.462.136828-2.073l8.312069-12c.369141-.533.96961-.849 1.610439-.849h15.750013c.735329 0 1.408642.416 1.747267 1.078.338626.663.286454 1.462-.136828 2.073l-8.312069 12c-.369141.533-.96961.849-1.610439.849z"/><path d="m149 387h-16c-1.105 0-2-.896-2-2 0-1.105.895-2 2-2h16c1.104 0 2 .895 2 2 0 1.104-.896 2-2 2"/><path d="m179 387h-16c-1.105 0-2-.896-2-2 0-1.105.895-2 2-2h16c1.104 0 2 .895 2 2 0 1.104-.896 2-2 2"/><path d="m119 387h-16c-1.105 0-2-.896-2-2 0-1.105.895-2 2-2h16c1.104 0 2 .895 2 2 0 1.104-.896 2-2 2"/><path d="m269 387h-16c-1.105 0-2-.896-2-2 0-1.105.895-2 2-2h16c1.104 0 2 .895 2 2 0 1.104-.896 2-2 2"/><path d="m299 387h-16c-1.105 0-2-.896-2-2 0-1.105.895-2 2-2h16c1.104 0 2 .895 2 2 0 1.104-.896 2-2 2"/><path d="m239 387h-16c-1.105 0-2-.896-2-2 0-1.105.895-2 2-2h16c1.104 0 2 .895 2 2 0 1.104-.896 2-2 2"/><path d="m209 387h-16c-1.105 0-2-.896-2-2 0-1.105.895-2 2-2h16c1.104 0 2 .895 2 2 0 1.104-.896 2-2 2"/><path d="m121.761759 448h10.935431l5.541051-8h-10.935431zm11.957213 4h-15.750013c-.735329 0-1.408642-.416-1.747267-1.078-.338626-.663-.286454-1.462.136828-2.073l8.312069-12c.369141-.533.96961-.849 1.610439-.849h15.750013c.735329 0 1.408642.416 1.747267 1.078.338626.663.286454 1.462-.136828 2.073l-8.312069 12c-.369141.533-.96961.849-1.610439.849z"/><path d="m91.7617588 448h10.9354312l5.541051-8h-10.9354308zm11.9572132 4h-15.7500133c-.7353287 0-1.4086418-.416-1.7472671-1.078-.3386253-.663-.2864533-1.462.1368283-2.073l8.3120694-12c.3691409-.533.9696102-.849 1.6104388-.849h15.7500129c.735329 0 1.408642.416 1.747267 1.078.338626.663.286454 1.462-.136828 2.073l-8.312069 12c-.369141.533-.96961.849-1.610439.849z"/><path d="m61.7618243 448h10.9355553l5.5411144-8h-10.9355553zm11.957349 4h-15.7501922c-.7353371 0-1.4086578-.416-1.7472869-1.078-.3386292-.663-.2864567-1.462.1368297-2.073l8.312164-12c.3691451-.533.9696212-.849 1.6104571-.849h15.7501922c.7353371 0 1.4086578.416 1.747287 1.078.3386291.663.2854722 1.462-.1368298 2.073l-8.312164 12c-.3691451.533-.9696212.849-1.6104571.849z"/><path d="m151.761759 448h10.935431l5.541051-8h-10.935431zm11.957213 4h-15.750013c-.735329 0-1.408642-.416-1.747267-1.078-.338626-.663-.286454-1.462.136828-2.073l8.312069-12c.369141-.533.96961-.849 1.610439-.849h15.750013c.735329 0 1.408642.416 1.747267 1.078.338626.663.286454 1.462-.136828 2.073l-8.312069 12c-.369141.533-.96961.849-1.610439.849z"/><path d="m241.761759 448h10.935431l5.541051-8h-10.935431zm11.957213 4h-15.750013c-.735329 0-1.408642-.416-1.747267-1.078-.338626-.663-.286454-1.462.136828-2.073l8.312069-12c.369141-.533.96961-.849 1.610439-.849h15.750013c.735329 0 1.408642.416 1.747267 1.078.338626.663.286454 1.462-.136828 2.073l-8.312069 12c-.369141.533-.96961.849-1.610439.849z"/><path d="m181.761759 448h10.935431l5.541051-8h-10.935431zm11.957213 4h-15.750013c-.735329 0-1.408642-.416-1.747267-1.078-.338626-.663-.286454-1.462.136828-2.073l8.312069-12c.369141-.533.96961-.849 1.610439-.849h15.750013c.735329 0 1.408642.416 1.747267 1.078.338626.663.286454 1.462-.136828 2.073l-8.312069 12c-.369141.533-.96961.849-1.610439.849z"/><path d="m211.761759 448h10.935431l5.541051-8h-10.935431zm11.957213 4h-15.750013c-.735329 0-1.408642-.416-1.747267-1.078-.338626-.663-.286454-1.462.136828-2.073l8.312069-12c.369141-.533.96961-.849 1.610439-.849h15.750013c.735329 0 1.408642.416 1.747267 1.078.338626.663.286454 1.462-.136828 2.073l-8.312069 12c-.369141.533-.96961.849-1.610439.849z"/><path d="m152.761759 426h10.935431l5.541051-8h-10.935431zm11.957213 4h-15.750013c-.735329 0-1.408642-.416-1.747267-1.078-.338626-.663-.286454-1.462.136828-2.073l8.312069-12c.369141-.533.96961-.849 1.610439-.849h15.750013c.735329 0 1.408642.416 1.747267 1.078.338626.663.286454 1.462-.136828 2.073l-8.312069 12c-.369141.533-.96961.849-1.610439.849z"/><path d="m122.761759 426h10.935431l5.541051-8h-10.935431zm11.957213 4h-15.750013c-.735329 0-1.408642-.416-1.747267-1.078-.338626-.663-.286454-1.462.136828-2.073l8.312069-12c.369141-.533.96961-.849 1.610439-.849h15.750013c.735329 0 1.408642.416 1.747267 1.078.338626.663.286454 1.462-.136828 2.073l-8.312069 12c-.369141.533-.96961.849-1.610439.849z"/><path d="m182.761759 426h10.935431l5.541051-8h-10.935431zm11.957213 4h-15.750013c-.735329 0-1.408642-.416-1.747267-1.078-.338626-.663-.286454-1.462.136828-2.073l8.312069-12c.369141-.533.96961-.849 1.610439-.849h15.750013c.735329 0 1.408642.416 1.747267 1.078.338626.663.286454 1.462-.136828 2.073l-8.312069 12c-.369141.533-.96961.849-1.610439.849z"/><path d="m92.7617588 426h10.9354312l5.541051-8h-10.9354308zm11.9572132 4h-15.7500133c-.7353287 0-1.4086418-.416-1.7472671-1.078-.3386253-.663-.2864533-1.462.1368283-2.073l8.3120694-12c.3691409-.533.9696102-.849 1.6104388-.849h15.7500129c.735329 0 1.408642.416 1.747267 1.078.338626.663.286454 1.462-.136828 2.073l-8.312069 12c-.369141.533-.96961.849-1.610439.849z"/><path d="m212.761759 426h10.935431l5.541051-8h-10.935431zm11.957213 4h-15.750013c-.735329 0-1.408642-.416-1.747267-1.078-.338626-.663-.286454-1.462.136828-2.073l8.312069-12c.369141-.533.96961-.849 1.610439-.849h15.750013c.735329 0 1.408642.416 1.747267 1.078.338626.663.286454 1.462-.136828 2.073l-8.312069 12c-.369141.533-.96961.849-1.610439.849z"/><path d="m242.761759 426h10.935431l5.541051-8h-10.935431zm11.957213 4h-15.750013c-.735329 0-1.408642-.416-1.747267-1.078-.338626-.663-.286454-1.462.136828-2.073l8.312069-12c.369141-.533.96961-.849 1.610439-.849h15.750013c.735329 0 1.408642.416 1.747267 1.078.338626.663.286454 1.462-.136828 2.073l-8.312069 12c-.369141.533-.96961.849-1.610439.849z"/><path d="m122.761824 404h10.935556l5.541114-8h-10.935555zm11.957349 4h-15.750192c-.735337 0-1.408658-.416-1.747287-1.078-.338629-.663-.286456-1.462.13683-2.073l8.312164-12c.369145-.533.969621-.849 1.610457-.849h15.750192c.735337 0 1.408658.416 1.747287 1.078.338629.663.285472 1.462-.13683 2.073l-8.313148 12c-.368161.533-.968637.849-1.609473.849z"/><path d="m152.761824 404h10.935556l5.541114-8h-10.935555zm11.957349 4h-15.750192c-.735337 0-1.408658-.416-1.747287-1.078-.338629-.663-.286456-1.462.13683-2.073l8.312164-12c.369145-.533.969621-.849 1.610457-.849h15.750192c.735337 0 1.408658.416 1.747287 1.078.338629.663.285472 1.462-.13683 2.073l-8.313148 12c-.368161.533-.968637.849-1.609473.849z"/><path d="m92.7618243 404h10.9355557l5.541114-8h-10.9355553zm11.9573487 4h-15.7501919c-.7353371 0-1.4086578-.416-1.7472869-1.078-.3386292-.663-.2864567-1.462.1368297-2.073l8.312164-12c.3691451-.533.9696212-.849 1.6104571-.849h15.750192c.735337 0 1.408658.416 1.747287 1.078.338629.663.285472 1.462-.13683 2.073l-8.313148 12c-.368161.533-.968637.849-1.609473.849z"/><path d="m212.761824 404h10.935556l5.541114-8h-10.935555zm11.957349 4h-15.750192c-.735337 0-1.408658-.416-1.747287-1.078-.338629-.663-.286456-1.462.13683-2.073l8.312164-12c.369145-.533.969621-.849 1.610457-.849h15.750192c.735337 0 1.408658.416 1.747287 1.078.338629.663.285472 1.462-.13683 2.073l-8.313148 12c-.368161.533-.968637.849-1.609473.849z"/><path d="m272.761824 404h10.935556l5.541114-8h-10.935555zm11.957349 4h-15.750192c-.735337 0-1.408658-.416-1.747287-1.078-.338629-.663-.286456-1.462.13683-2.073l8.312164-12c.369145-.533.969621-.849 1.610457-.849h15.750192c.735337 0 1.408658.416 1.747287 1.078.338629.663.285472 1.462-.13683 2.073l-8.313148 12c-.368161.533-.968637.849-1.609473.849z"/><path d="m182.761824 404h10.935556l5.541114-8h-10.935555zm11.957349 4h-15.750192c-.735337 0-1.408658-.416-1.747287-1.078-.338629-.663-.286456-1.462.13683-2.073l8.312164-12c.369145-.533.969621-.849 1.610457-.849h15.750192c.735337 0 1.408658.416 1.747287 1.078.338629.663.285472 1.462-.13683 2.073l-8.313148 12c-.368161.533-.968637.849-1.609473.849z"/><path d="m242.761824 404h10.935556l5.541114-8h-10.935555zm11.957349 4h-15.750192c-.735337 0-1.408658-.416-1.747287-1.078-.338629-.663-.286456-1.462.13683-2.073l8.312164-12c.369145-.533.969621-.849 1.610457-.849h15.750192c.735337 0 1.408658.416 1.747287 1.078.338629.663.285472 1.462-.13683 2.073l-8.313148 12c-.368161.533-.968637.849-1.609473.849z"/><path d="m345 349h-18c-1.104 0-2-.896-2-2 0-1.105.896-2 2-2h18c1.104 0 2 .895 2 2 0 1.104-.896 2-2 2"/><path d="m347 339h-17c-1.104 0-2-.896-2-2 0-1.105.896-2 2-2h17c1.104 0 2 .895 2 2 0 1.104-.896 2-2 2"/><path d="m347 359h-17c-1.104 0-2-.896-2-2 0-1.105.896-2 2-2h17c1.104 0 2 .895 2 2 0 1.104-.896 2-2 2"/><path d="m353 329h-18c-1.104 0-2-.896-2-2 0-1.105.896-2 2-2h18c1.104 0 2 .895 2 2 0 1.104-.896 2-2 2"/><path d="m353 369h-18c-1.104 0-2-.896-2-2 0-1.105.896-2 2-2h18c1.104 0 2 .895 2 2 0 1.104-.896 2-2 2"/></g></g></svg>