<svg height="730" viewBox="0 0 940 730" width="940" xmlns="http://www.w3.org/2000/svg" xmlns:xlink="http://www.w3.org/1999/xlink"><mask id="a" fill="#fff"><path d="m.16387855.44735939h185.48212145v532.12774561h-185.48212145z" fill="#fff" fill-rule="evenodd"/></mask><mask id="b" fill="#fff"><path d="m.70579056 1.276h43.36253104v39.4753645h-43.36253104z" fill="#fff" fill-rule="evenodd"/></mask><g fill="none" fill-rule="evenodd" transform="translate(101 81)"><path d="m71.3274 44.6148c-.288 4.122-5.874 8.004-8.414 6.83-.474-.22-.822-2.004-.674-2.088 2.764-1.558 5.612-2.97 9.088-4.742" fill="#000"/><path d="m6.092 323.189v8.322c2.232-2.018 2.076-7.468 0-8.322zm131.618 1.75c.274-.026.548-.05.824-.078v-9.874c-.804.528-1.976.982-1.946 1.33.248 2.886.718 5.75 1.122 8.622zm-59.826-10.772c-2.97-.166-3.368 1.22-2.378 7.576 2.32.182 2.32.182 2.378-7.576zm18.94 7.562v-7.75c-2.546.032-3.132 1.934-2.462 7.75zm-5.994.052c.132-2.708.254-5.286.38-7.884-3.06.058-3.746 2.276-2.738 7.884zm11.992-8.372c-1.078.556-2.374.856-2.434 1.318-.262 2.014-.238 4.082-.126 6.118.02.35.998.934 1.48.884.4-.044 1.002-.836 1.03-1.328.116-2.038.05-4.088.05-6.992zm17.338.056c-.546 6.794.098 8.674 2.892 8.718.08-8.55-.058-8.986-2.892-8.718zm-7.228 8.244h4.084c-.236-2.744-.456-5.302-.722-8.378-4.286 1.808-2.028 5.51-3.362 8.378zm31.67 3.592v-9.346c-.41-.118-.764-.266-1.132-.308-.45-.052-.912-.012-1.36-.012-.26 9.584-.26 9.584 2.492 9.666zm-76.234-11.03v8.166c1.216-.066 2.222-.122 3.3-.182v-8.146c-1.204.058-2.228.11-3.3.162zm13.026-.272v8.01c1.154-.068 2.092-.126 3.152-.192.176-2.65.34-5.136.516-7.818zm-32.816 9.022v-7.504c-1.342.204-2.558.388-3.77.572v6.932zm103.032 1.858v-8.626h-3.784c.176 2.96.344 5.754.514 8.626zm-131.918 5.824v-6.95h-4.458c.112 2.402.216 4.612.326 6.95zm90.836-17.38c-1.716.546-3.934.738-4.078 1.388-.466 2.106-.32 4.406-.014 6.572.05.34 2.176.382 3.364.566.246-2.888.452-5.298.728-8.526zm-69.402 2.97h-4.214v7.532c1.626-.136 2.936-.248 4.214-.354zm15.646 6.382v-7.804c-1.442.086-2.848.17-4.526.27v7.854c1.688-.118 3.116-.22 4.526-.32zm7.838-8.178h-4.934c.174 2.748.34 5.324.506 7.916h5.086c-.222-2.686-.432-5.196-.658-7.916zm27.278 233.948c8.202-.464 16.062-.906 23.962-1.354-.7-1.836-18.2-3.994-23.962-3.042zm-27.5-6.256c-7.46 0-14.644-.05-21.826.086-.66.012-1.296 1.23-1.944 1.89.208.298.416.594.624.892 3.888 0 7.784-.16 11.662.044 3.818.2 7.618.766 11.484 1.178zm43.256-483.294c.154-4.228-1.394-4.468-6.822-5.1-4.836-.564-7.284 1.798-7.468 6.234-.162 3.894 2.532 6.52 6.844 6.674 4.556.164 7.298-2.712 7.446-7.808zm-27.658 3.354c.034-3.63-3.298-6.16-8.126-6.17-3.328-.006-5.816 3.89-5.838 9.148-.014 3.72 2.284 5.456 7.324 5.53 4.164.06 6.59-3.048 6.64-8.508zm-13.108 498.082c-1.762.614-3.368 1.172-4.972 1.732.464-1.754.928-3.508 1.406-5.314-.862.494-2.12 1.29-3.444 1.946-.708.35-1.532.458-2.304.678-.062-.998-.556-2.338-.096-2.922.856-1.08 2.188-1.894 3.474-2.486 1.19-.55 2.58-.66 3.92-.974-.086-1.402-.164-2.636-.232-3.732-8.074-.338-15.914-.666-23.702-.992-.206.708-.35.976-.35 1.246-.014 4.214-.048 8.428.008 12.642.046 3.664.264 4.106 3.836 3.598 7.67-1.092 15.214-.238 22.796.718 2.046.258 4.152.038 6.388.038-2.428-2.23-4.632-4.254-6.728-6.178zm16.02-502.76c.216-1.498.472-3.256.728-5.014 1.276 1.24 2.552 2.482 4.416 4.292 4.254.572 3.79-5.796 7.98-6.618-2.562-6.194-4.948-11.966-7.338-17.748-10.728 7.832-23.092 10.506-35.028 14.352.436 2.422 1.176 4.896 1.246 7.39.07 2.53-.52 5.08-.814 7.554h8.676c.896-4.79 3.254-8.786 8.104-8.942 4.476-.144 9.382.6 12.03 4.734zm32.678 484.464c2.328-72.196 4.65-144.164 6.98-216.382-2.802-.164-6.064-.35-9.87-.572.352 3.586.3 6.84 1.088 9.878.642 2.478 2.37 4.66 3.438 7.054.378.848.224 1.932.312 2.908-1.02-.304-2.15-.432-3.026-.97-.696-.428-1.17-1.314-1.582-2.082-2.788-5.178-4.862-10.492-2.738-16.468h-24.338c0 5.888.032 11.448-.016 17.006-.022 2.548.12 4.86 1.608 7.232 1.232 1.96 1.79 4.61 1.876 6.982.704 19.496 1.576 38.994 1.734 58.496.316 39.322.208 78.646.298 117.968.004 2.308.21 4.614.322 6.864 8.18.712 15.962 1.392 23.914 2.086zm-78.344-214.21c0 14.72-.4 29.232.1 43.712.668 19.39 2.674 38.746 2.966 58.132.528 35.298.214 70.608.254 105.912v2.95h23.894c1.1-10.586 2.588-20.774 3.12-31.01.784-15.068.738-30.18 1.318-45.262.652-16.932 1.204-33.854 3.868-50.67 2.19-13.816 3.31-27.8 5.056-41.692 1.014-8.054-.34-16.57 4.44-23.934.092-.144.04-.386.04-.582.002-6.604 0-13.21 0-19.984-10.516.364-20.272.702-29.952 1.038-.248 1.882-.298 3.362-.654 4.762-1.108 4.364-2.06 8.87-5.736 11.948-.808.674-2.226.618-3.36.9.302-1.114.262-2.56.964-3.286 3.79-3.92 4.39-8.886 5.396-14.404-4.126.518-7.772.976-11.714 1.47zm50.704-197.708c-3.074 0-6.01.332-8.848-.06-10.844-1.494-21.51.29-32.198 1.506-8.936 1.02-17.176 4.292-25.344 7.988-6.928 3.136-11.4 7.814-13.388 15.222-3.22 12.01-4.7 24.218-4.652 36.6.112 28.24.346 56.482.614 84.722.104 10.978.388 21.956.676 32.932.092 3.482.468 6.958.734 10.716h14.348c0-1.424.022-2.768-.004-4.114-.368-19.442 1.082-38.784 3.218-58.086 2.098-18.98 4.188-37.96 6.334-56.934.88-7.78 1.854-15.55 2.904-23.31.144-1.08.97-2.068 1.482-3.098.352.04.702.08 1.054.118.308 1.028.88 2.054.884 3.082.076 19.702.008 39.402.126 59.104.144 24.22.432 48.438.658 72.656.01 1.054 0 2.104 0 2.782 28.588-.744 56.824-1.478 84.426-2.198 0-6.358-.144-12.424.026-18.478.568-20.282 1.572-40.556 1.788-60.84.168-15.966-.576-31.944-.932-47.916-.04-1.75-.292-3.5-.272-5.248.014-1.156.34-2.308.526-3.462.918.83 2.424 1.526 2.648 2.514.684 3.008.806 6.14 1.27 9.206 1.42 9.38 3.204 18.718 4.274 28.138 1.368 12.052 2.512 24.152 3.146 36.262.802 15.268.942 30.572 1.478 45.858.182 5.254.7 10.498 1.074 15.88 5.386.346 10.492.672 15.772 1.01 0-1.708.034-2.878-.006-4.044-.846-24.786-1.61-49.574-2.602-74.354-.38-9.494-1.24-18.97-1.966-28.448-.8-10.45-1.588-20.904-2.584-31.338-.924-9.698.448-19.646-3.208-29.054-2.77-7.13-6.036-13.734-14.61-15.254-1.876-.334-3.774-.636-5.674-.736-7.222-.372-14.444-.734-21.672-.94-4.518-.13-7.814 1.78-10.3 5.816-2.816 4.57-6.218 8.796-9.558 13.02-2.574 3.254-4 3.276-7.004.566-5.166-4.658-10.324-9.326-15.404-14.076-.596-.558-.686-1.658-1.01-2.508.97-.084 2.2-.586 2.856-.172 1.722 1.084 3.242 2.51 4.754 3.896 4.018 3.686 7.988 7.422 12.196 11.34 4.168-5.664 8.086-10.988 11.97-16.266zm3.45 437.69c-2.486.41-3.21-.848-3.218-3.128-.1-29.712-.186-59.424-.384-89.134-.176-26.476-.404-52.952-.772-79.424-.176-12.838-.684-25.672-1.154-38.506-.078-2.128-.724-4.234-1.108-6.35-.428-.01-.856-.02-1.282-.03-.352 1.512-.876 3.004-1.026 4.534-1.04 10.528-1.838 21.08-3.036 31.588-1.264 11.086-3.046 22.112-4.296 33.2-.932 8.266-1.626 16.578-1.982 24.888-.64 14.884-.752 29.792-1.456 44.674-.578 12.22-1.792 24.41-2.538 36.622-.49 7.998-.822 16.014-.896 24.024-.048 5.086 2.052 9.246 6.62 12.032.938.572 1.278 2.104 1.926 3.178.176.292.458.524.702.774.616.626 1.236 1.246 1.856 1.868-.876.516-1.736 1.436-2.632 1.474-3.128.14-6.276.072-9.404-.112-2.632-.156-5.248-.804-7.876-.842-5.364-.078-10.732.152-16.098.166-5.012.012-5.94-.716-6.116-5.668-.23-6.466-.162-12.942-.168-19.412-.04-36.286.304-72.576-.232-108.854-.318-21.546-2.1-43.066-3.04-64.608-.352-8.124-.166-16.274-.252-24.41-.404-37.634-.824-75.27-1.22-112.904-.056-5.58-.006-11.162-.006-16.742-.276-.002-.55-.002-.826-.004-1.088 8.934-2.276 17.858-3.244 26.806-1.382 12.754-2.988 25.504-3.784 38.3-.802 12.904-.744 25.86-1.026 38.794-.06 2.742-.244 5.528.118 8.226 1.188 8.826.776 17.93 4.404 26.368.304.702-.216 1.76-.354 2.65-.886-.416-2.352-.64-2.566-1.282-1.228-3.688-2.306-7.442-3.144-11.238-.654-2.952-.97-5.992-1.258-9.012-.146-1.508-.732-2.01-2.206-1.986-4.082.068-8.168.024-12.568.024 0 1.334.016 2.39-.002 3.448-.196 11.272-.388 22.548-.612 33.822-.014.762-.1 1.604-.44 2.258-.772 1.48-1.858 1.5-2.536-.016-.416-.928-.464-2.082-.452-3.132.16-13.14.672-26.284.468-39.416-.26-16.658-1.378-33.302-1.616-49.96-.428-30.002-.552-60.012-.652-90.018-.044-13.072 1.522-25.96 5.154-38.586 2.26-7.854 7.248-12.808 14.566-16.174 8.68-3.992 17.462-7.39 27.008-8.514 5.136-.606 10.274-1.204 16.278-1.906-3.832-16.564-7.624-32.958-11.296-48.828-2.932-.188-5.23.042-7.298-.544-5.622-1.594-7.004-7.266-2.522-11.036 2.264-1.906 2.034-3.704 1.706-6.038-.394-2.798-.882-5.686-.568-8.448.234-2.076 1.178-4.608 2.694-5.87 1.918-1.598 1.912-2.814 1.354-4.886-1.85-6.884-.404-11.218 5.392-14.988 6.946-4.518 12.68-10.132 17.172-17.064.534-.82 1.13-1.606 1.768-2.348 2.064-2.396 3.88-2.096 4.972.83.364.976.604 2 .974 3.248 1.404-1.046 2.616-2.016 3.892-2.89 2.944-2.018 4.714-1.188 5.118 2.408.142 1.25.132 2.514.212 4.242 2.074-1.254 3.806-2.482 5.696-3.374 1.15-.542 3.194-1.192 3.69-.68.928.958 1.518 2.774 1.382 4.146-.57 5.748-2.582 11.014-6.256 15.636 1.896 4.158 3.79 8.31 5.516 12.098 1.306.096 2.368.174 3.43.254-.326 1.032-.442 2.204-1.02 3.066-1.21 1.796-.428 4.512 1.706 5.044 1.894.47 3.848.706 5.738 1.198 3.216.836 4.516 3.202 4.704 6.32.31 5.188-1.204 8.302-5.494 11.49 4.404 8.186 6.904 16.6 3.126 25.732-2.606 6.302-6.054 8.356-12.802 7.826-4.296-.338-8.58-.844-12.878-1.122-5.206-.34-6.052.608-4.482 5.512 1.398 4.364 3.212 8.596 4.866 12.878.386 1.002 1.09 1.936 1.238 2.962.146 1.006-.23 2.086-.376 3.134-.868-.506-2.16-.8-2.536-1.552-3.284-6.564-6.516-13.174-7.308-20.622-.384-3.598.782-5.438 4.374-5.47 5.75-.052 11.512.434 17.262.796 5.292.332 7.208-.748 9.366-5.594 2.614-5.874 1.666-11.666-.408-17.432-.686-1.906-1.344-3.82-1.818-5.174-3.326-.976-6.932-1.21-9.412-3.002-2.368-1.712-3.56-5.048-5.69-7.572.268.954.48 1.93.814 2.862 1.32 3.68 2.66 7.354 4.03 11.016.776 2.072.036 3.248-2.07 3.542-1.544.216-3.144.48-4.664.284-.866-.11-1.62-1.094-2.422-1.686.798-.562 1.53-1.308 2.416-1.632.854-.312 1.868-.19 3.224-.29-1.698-4.496-3.276-8.672-4.852-12.846-.292-.034-.584-.068-.878-.104-.974 7.06-2.714 13.37-11.678 12.646-6.004-.486-8.296-2.514-9.964-9.036-4.136.244-8.348.304-12.502.822-1.844.23-3.746 1.138-5.284 2.22-.832.586-1.424 2.272-1.236 3.298.148.814 1.57 1.738 2.572 1.96 1.248.278 2.764.186 3.956-.278 3.184-1.236 4.09-.968 4.96 2.434 1.816 7.1 3.52 14.23 5.266 21.348 1.164 4.748 2.41 9.478 3.462 14.25 1.052 4.768 1.91 9.58 2.984 15.036 6.564 0 13.296.334 19.982-.074 10.912-.668 21.788-2.342 32.738-.722 1.8.268 3.514 1.096 5.31 1.436 1.156.218 2.564-.374 3.558.07 3.248 1.446 6.936 2.596 9.406 4.956 6.222 5.942 8.88 13.93 9.69 22.244 1.026 10.528 1.102 21.144 1.856 31.7.894 12.508 2.204 24.986 3.092 37.494.716 10.068 1.27 20.156 1.548 30.246.736 26.85 1.072 53.714 2.018 80.558.344 9.734 1.98 19.42 2.994 29.132.162 1.556.376 3.158.16 4.682-.124.882-1.058 1.646-1.628 2.466-.582-.778-1.634-1.534-1.674-2.338-.626-12.908-4.52-25.516-3.538-38.566.02-.276-.102-.564-.296-1.566-1.78.778-3.374 1.474-4.852 2.12-2.546-.562-5.268-1.16-7.99-1.762l-.912.68c1.166 4.056 1.864 8.326 3.594 12.126 3.312 7.288 3.684 14.952 3.898 22.684.026.93-.94 1.884-1.448 2.83-.658-.948-1.768-1.838-1.898-2.854-.582-4.556-.852-9.152-1.312-13.726-.116-1.158-.328-2.372-.81-3.416-6.602-14.348-7.06-29.836-7.91-45.126-1.108-19.96-1.156-39.98-2.056-59.956-.404-8.96-1.768-17.876-2.698-26.812-.398.012-.796.024-1.194.036 0 6.818.138 13.642-.028 20.456-.422 17.152-1.392 34.3-1.346 51.446.034 12.118 1.592 24.224 2.036 36.348.22 5.998-.572 12.032-.846 18.054-.572 12.532-1.174 25.066-1.636 37.604-.936 25.47-1.834 50.942-2.654 76.414-.406 12.644-.606 25.29-.884 37.936-.348 15.88-.768 31.76-.958 47.642-.042 3.574.324 7.27 1.25 10.706 1.222 4.528 3.612 8.368 8.516 10.142 3.386 1.226 6.6 2.96 9.81 4.62.838.434 1.738 1.362 1.92 2.208.102.474-1.136 1.394-1.922 1.846-.636.368-1.51.508-2.26.462-8.992-.564-17.976-1.346-26.974-1.716-5.138-.21-10.306.148-15.452.412-2.19.114-2.374.206-3.132-1.614.688-.566 1.296-1.442 2.074-1.632 2.178-.53 4.442-1.156 6.644-1.066 7.124.29 14.234.896 21.352 1.35 3.166.2 6.338.326 10.096.516-4.242-2.688-7.884-4.996-12.114-7.674-.79.494-2.198 1.498-3.724 2.266-.674.34-1.59.194-2.398.27.01-.824-.322-2.036.092-2.4 1.422-1.248 3.104-2.196 4.69-3.26.214-.144.438-.276.754-.476-.336-.656-.632-1.234-1.258-2.454-2.03 1.74-3.788 3.324-5.638 4.79-.818.646-1.824 1.056-2.744 1.572-.056-1.162-.612-2.702-.074-3.418 1.462-1.95 3.386-3.548 5.396-5.554-7.604.466-15.132.93-23.156 1.422z" fill="#000"/><path d="m16.3548 382.5836c-.544-1.21-1.454-2.384-1.574-3.636-.63-6.504-1.134-13.024-1.476-19.55-.052-1.008.96-2.072 1.478-3.11.598.986 1.616 1.926 1.722 2.962.676 6.696 1.192 13.408 1.654 20.124.068 1.002-.428 2.048-.664 3.074-.38.046-.76.092-1.14.136" fill="#000"/><path d="m24.72 378.6812c-.124.17-.624.868-1.128 1.564-.702-.694-1.85-1.288-2.034-2.102-1.2-5.31-2.194-10.668-3.25-16.01-.208-1.05-.598-2.12-.52-3.152.07-.938.662-1.84 1.024-2.758.75.638 1.882 1.138 2.174 1.942.59 1.624.742 3.408 1.046 5.132.86 4.88 1.706 9.76 2.688 15.384" fill="#000"/><path d="m149.6936 367.0934c-.32-3.882-.73-7.762-.892-11.65-.04-.952.732-1.936 1.13-2.904.674.802 1.866 1.562 1.936 2.414.484 5.91.826 11.836.96 17.764.022.916-1.258 1.862-1.936 2.794-.48-.95-1.254-1.866-1.376-2.86-.226-1.824-.066-3.694-.066-5.546z" fill="#000"/><path d="m141.006 358.1988c-.516 3.956-.904 7.932-1.64 11.846-.174.918-1.524 1.614-2.332 2.414-.336-1.034-1.004-2.082-.95-3.094.264-5.046.72-10.084 1.106-15.124.044-.582-.106-1.272.16-1.718.404-.676 1.094-1.178 1.662-1.752.546.61 1.484 1.172 1.564 1.836.218 1.828.074 3.698.074 5.55.12.014.238.028.356.042" fill="#000"/><path d="m10.2454 361.9294c0 5.074.094 10.152-.078 15.22-.034 1.028-1.072 2.024-1.648 3.034-.52-1.014-1.494-2.034-1.482-3.042.06-5.17.296-10.346.682-15.504.062-.804 1.222-1.522 1.872-2.278l1.794 2.292c-.38.094-.76.186-1.14.278" fill="#000"/><path d="m87.2492 82.9322c-.316.938-.374 2.124-.992 2.774-2.266 2.376-5.192 2.414-8.188 1.822-2.856-.564-4.36-2.562-4.958-5.18-.188-.832.532-1.87.838-2.812.75.486 1.78.8 2.206 1.486 2.342 3.778 4.058 4.246 8.032 2.044.712-.392 1.56-.54 2.346-.802.238.222.478.446.716.668" fill="#000"/><path d="m147.4768 370.238c-1.202 1.712-2.242 3.194-3.28 4.674-.464-.826-1.49-1.85-1.284-2.444.556-1.598 1.638-3.014 2.51-4.502.57.632 1.14 1.262 2.054 2.272" fill="#000"/><path d="m74.6546 44.6148c-3.476 1.772-6.324 3.184-9.088 4.742-.146.084.2 1.868.674 2.088 2.54 1.174 8.126-2.708 8.414-6.83m8.244 12.958c-2.648-4.136-7.554-4.878-12.032-4.736-4.848.156-7.206 4.152-8.102 8.942h-8.676c.294-2.474.884-5.024.814-7.554-.07-2.494-.81-4.968-1.246-7.39 11.936-3.846 24.3-6.52 35.028-14.352 2.39 5.782 4.776 11.554 7.338 17.748-4.192.822-3.728 7.19-7.982 6.618-1.862-1.81-3.138-3.052-4.416-4.292-.256 1.76-.51 3.516-.726 5.016" fill="#fff"/><path d="m75.2814 60.1754c-.588-.278-1.33-.948-1.792-.792-1.94.658-3.796 1.56-5.684 2.374 1.072 1.056 2.048 2.248 3.264 3.1.496.348 1.954.244 2.206-.146.806-1.258 1.256-2.744 2.006-4.536m4.706 2.074c-.052 5.46-2.478 8.568-6.64 8.508-5.042-.074-7.34-1.81-7.324-5.532.02-5.256 2.508-9.152 5.836-9.146 4.828.01 8.162 2.54 8.128 6.17" fill="#fff"/><path d="m101.4378 58.8346c.46-.964 1.08-2.256 1.698-3.55-1.49.214-2.982.42-4.47.644-.186.028-.362.144-.536.232-3.458 1.758-3.456 1.774-.546 4.244.134.112.116.436.252.512.888.49 1.798.938 2.7 1.4.278-1.068.554-2.136.902-3.482m6.208.06c-.15 5.096-2.892 7.972-7.448 7.81-4.312-.156-7.006-2.782-6.844-6.674.184-4.438 2.632-6.798 7.468-6.236 5.428.632 6.976.874 6.824 5.1" fill="#fff"/><path d="m89.2678 182.0348c0 2.752-.03 5.384.006 8.016.1 7.15 4.882 12.838 11.944 14.242 3.816.758 6.876-.81 7.404-4.66.912-6.636 1.226-13.354 1.832-20.54-7.38 1.024-14.006 1.944-21.186 2.942zm24.472 2.316c-.47 5.064-.664 10.174-1.476 15.184-1.09 6.714-6.134 9.668-12.73 7.906-8.7-2.322-13.732-8.804-13.714-17.75.006-2.938.032-5.886.278-8.81.152-1.804.618-2.814 3.28-2.778 4.736.068 9.486-1.076 14.234-1.686 2.036-.26 4.078-.586 6.122-.642 2.922-.08 3.78.888 3.8 3.852 0 .196-.004.392-.004.588v4.114z" fill="#000"/><path d="m75.2814 60.1754c-.75 1.792-1.2 3.278-2.006 4.536-.252.39-1.71.494-2.206.146-1.216-.852-2.192-2.044-3.264-3.1 1.888-.814 3.744-1.716 5.684-2.374.462-.156 1.204.514 1.792.792" fill="#000"/><path d="m101.4378 58.8346c-.348 1.346-.624 2.414-.902 3.482-.902-.462-1.812-.91-2.7-1.4-.136-.076-.118-.4-.252-.512-2.91-2.47-2.912-2.486.546-4.244.174-.088.35-.204.536-.232 1.488-.224 2.98-.43 4.47-.644-.618 1.294-1.238 2.586-1.698 3.55" fill="#000"/><path d="m63.3772 234.4318c.994-5.04.896-5.224-3.046-5.412-.92 5.282-.92 5.282 3.046 5.412zm8.66-4.424c-1.382-.108-2.752-.212-4.408-.338-.162 2.002-.304 3.76-.44 5.426 1.578.692 3.01 1.32 4.848 2.128zm-.818-124.994c1.544 3.422 2.894 6.416 4.354 9.652 2.326-2.954 4.488-5.698 7.126-9.05-4.214-.222-7.604-.398-11.48-.602zm-43.03 175.586c-2.94-.592-5.866-1.18-9.066-1.824-.188 1.622-.346 2.988-.532 4.58 3.83-.034 5.634 1.808 5.44 5.58 1.416-.356 2.704-.68 4.158-1.046zm-8.33-11.344c-.728 6.072 1.372 7.822 8.854 7.194.174-2.038.352-4.11.542-6.322-1.598-.216-3.082-.396-4.554-.622-1.486-.228-2.964-.506-4.508-.772-.228.352-.322.432-.334.522zm95.93-39.33c-3.012.344-5.682.65-8.674.994.21 2.564.408 5.038.626 7.712h9.51c-.54-3.214-.984-5.852-1.462-8.706zm-25.966-124.814c1.846 4.064 3.502 7.71 5.486 12.076 3.33-3.726 6.36-7.12 9.394-10.512-.15-.298-.298-.598-.448-.898-4.666-.216-9.332-.43-14.432-.666zm31.11 132.778c3.744-.998 7.394-1.97 11.2-2.984-.638-2.426-1.246-4.73-1.892-7.18-3.762.436-7.322.846-10.862 1.256.582 3.334 1.046 6.002 1.554 8.908zm-97.832 265.514c-1.188 2.558-2.214 5.096-3.522 7.484-1.28 2.332.542 3.618 1.834 3.282 3.934-1.024 7.968-2.294 11.362-4.428 1.152-.726.516-4.298.742-7.126-3.988.302-7.21.546-10.416.788zm88.768-3.62c-1.534 4.272-3.018 8.344-4.45 12.432-.73 2.082.738 4.164 2.766 3.506 4.966-1.614 9.804-3.624 14.656-5.566.356-.142.58-1.014.592-1.55.058-2.83.026-5.664.026-8.822zm-8.518-269.046h-27.266c-.166 2.828-.362 6.102-.578 9.702 5.61.426 11.018.836 16.346 1.24 1.528-3.44-.998-7.446 3.038-11.03.618 2.852 1.092 5.034 1.682 7.764h7.508c-.228-2.398-.456-4.798-.73-7.676zm-33.254-190.398c.672.42.872 1.6 1.282 2.44-.82.23-1.69.75-2.452.622-1.35-.226-2.636-.846-4.162-1.376-3.842 7.38-7.69 15.048-8.008 23.364-.512 13.494 6.268 20.87 20.964 17.298 1.65-.4 3.222-1.196 4.772-1.934 1.83-.874 3.512-2.13 5.414-2.76 1.474-.488 3.18-.266 4.784-.36-.014 1.516.416 3.216-.12 4.518-2.006 4.878-4.324 9.624-6.532 14.418-.712 1.55-1.442 3.092-2.338 5.012h14.69c1.738-4.598 3.61-9.146 5.156-13.802.81-2.444 1.412-5.064 1.488-7.624.224-7.626.118-15.26.19-22.89.03-3.434.73-3.69 4.056-2.862 1.926.48 4.068.088 6.31.088-.32-3.154-1.96-4.252-4.426-4.55-4.04-.488-5.07-1.674-4.718-5.776.45-5.238 1.046-10.462 1.602-15.938-.858.252-1.552.348-2.146.648-10.012 5.044-20.566 5.304-31.234 3.136-3.576-.726-5.55-.034-6.618 3.44-.382 1.236-1.17 2.346-1.846 3.654 1.46.428 2.836.574 3.892 1.234zm-37.754 207.886c2.034-9.836 4.686-19.548 6.632-29.402 3.802-19.252 6.888-38.612 7.776-58.272.428-9.436 3-18.426 6.97-26.98.442-.954 1.818-1.474 2.762-2.194.146 1.222.68 2.554.372 3.65-1.778 6.332-4.212 12.52-5.512 18.94-.906 4.476-.664 9.272-.338 13.882.208 2.91 2.08 5.26 5.13 6.254 3.944 1.284 5.144 4.306 5.058 8.096-.3 13.222-.62 26.44-.93 39.662-.022 1.002-.002 2.006-.002 3.476 5.576.442 11.096.88 16.488 1.306 0-7.358.32-14.448-.076-21.498-.602-10.736-1.334-21.466-4.174-31.964-1.734-6.394-.844-12.932.774-19.31 3.444-13.574 6.932-27.138 10.382-40.71.172-.67.168-1.382-.244-2.384-1.718 2.174-3.454 4.334-5.152 6.524-2.514 3.248-4.04 3.106-5.852-.658-1.584-3.294-3.036-6.652-4.662-9.926-.332-.666-1.218-1.572-1.784-1.528-6.78.53-13.556 1.134-20.316 1.892-5.874.658-9.372 4.596-10.646 9.82-2.066 8.452-3.884 17.044-4.778 25.686-2.136 20.634-3.736 41.324-5.428 62.004-1.574 19.26-2.986 38.538-4.458 57.806-.056.702-.008 1.41-.008 2.58 2.954.498 5.884.996 9.206 1.558.974-6.492 1.602-12.462 2.81-18.31zm-10.322 251.478c5.68-.02 11.368-.236 17.034.018 3.292.148 4.576-.95 5.218-4.192 2.798-14.14 5.552-28.302 8.914-42.312 4.948-20.618 10.702-41.046 15.56-61.684 5.276-22.428 9.964-44.994 14.814-67.522 1.302-6.05 1.988-12.244 3.484-18.24.876-3.514 2.796-6.768 4.928-11.724-3.058-15.034-6.498-31.936-10.034-49.302-.994-.11-2.792-.382-4.6-.492-5.158-.314-5.434-.556-5.7-4.812-4.046-.514-7.946-1.01-12.008-1.528-.43 6.96-.538 14.068-1.37 21.092-1.74 14.724-3.588 29.45-5.886 44.096-4.396 27.992-9.122 55.932-13.744 83.886-3.764 22.748-7.42 45.514-11.432 68.22-2.56 14.492-5.68 28.886-8.538 43.328-.058.282-.008.588-.008 1.168 1.164 0 2.266.004 3.368 0zm131.586-274.688c2.542 1.45 4.926 3.174 7.79 5.05 3.55-6.842 6.952-13.406 10.362-19.966 2.578-4.958 5.042-9.98 7.784-14.844 2.976-5.28 2.926-10.112.418-15.846-7.98-18.252-21.318-32.894-32.092-49.252-4.238-6.436-9.26-11.976-15.708-16.382-7.306-4.99-15.554-6.038-23.826-7.204-2.73 5.752-7.11 9.846-11.566 13.842-1.91 1.714-3.446.548-4.412-1.274-1.5-2.83-2.826-5.754-4.038-8.258-3.848 14.622-7.828 29.366-11.572 44.168-1.742 6.874-1.81 13.724.128 20.768 1.546 5.63 2.178 11.596 2.518 17.454.598 10.246.666 20.524.926 30.788.016.692-.216 1.39-.404 2.524 16.496 1.444 32.892.93 49.426-2.918-.264-2.284-.75-4.766-.812-7.258-.486-19.934-.566-39.858 1.286-59.752.136-1.468-1.44-3.126-2.304-4.648-.894-1.58-3.468-3.386-1.534-4.872 2.124-1.634 3.276 1.324 4.47 2.758 9.026 10.872 18.008 21.78 27.006 32.674.26.314.696.58.774.928.298 1.352.488 2.73.716 4.1-1.146-.552-2.622-.82-3.39-1.702-6.876-7.902-13.63-15.908-20.402-23.898-.516-.608-.896-1.336-1.338-2.008-.278.146-.558.292-.834.438-.24 3.796-.612 7.59-.698 11.39-.276 12.008-.95 24.04-.476 36.022.33 8.356 2.14 16.676 3.592 24.958.796 4.542.68 4.646-3.986 6.22-10.628 3.584-21.53 3.916-32.548 3.442-1.506-.066-2.688-.078-3.898 1.462-.82 1.042-3.04 1.194-4.668 1.328-1.58.13-3.204-.272-4.676-.424 3.372 16.548 6.702 32.91 10.11 49.65 3.754-.146 5.332 3.012 5.936 6.682 1.332 8.11 2.834 16.232 3.484 24.41 2.53 31.89 2.664 63.864 2.47 95.824-.142 23.504-1.014 47.004-1.54 70.506-.03 1.296.118 2.596.202 4.27h24.396c.43-4.67.904-9.676 1.348-14.686 1.11-12.458 2.262-24.914 3.296-37.38 1.014-12.266 2.22-24.53 2.784-36.82 1.434-31.112 2.6-62.234 3.776-93.356.492-13.028.388-26.048-1.8-38.962-.098-.574-.228-1.144-1.018-1.952-1.64 3.262-3.298 6.516-4.906 9.792-.694 1.408-.966 3.566-3.096 2.804-.51-.182-.728-3.074-.116-4.194 4.526-8.28 9.236-16.458 14.01-24.602 2.516-4.292 5.272-8.442 8.008-12.796-3.566-2.82-7.034-5.56-10.462-8.27-2.748 4.448-5.26 8.958-8.228 13.148-1.732 2.448-4.102 4.482-6.374 6.486-.646.568-1.962.372-2.972.526.236-1.076.094-2.612.762-3.158 7.46-6.088 11.322-14.55 15.148-22.958 4.922-10.81 9.498-21.776 14.182-32.694.678-1.578.946-3.348 1.728-4.864.624-1.214 1.74-2.176 2.638-3.25.244 1.456.948 3.024.636 4.35-.648 2.746-1.698 5.428-2.832 8.026-3.074 7.062-6.278 14.066-9.432 21.092-1.216 3.192-2.432 6.384-3.742 9.82 3.444 2.712 6.98 5.496 10.806 8.506 1.646-2.644 3.104-4.986 4.648-7.462-2.968-2.018-5.886-3.67-8.372-5.822-1.466-1.272-2.248-3.338-3.338-5.046 1.958.844 4.006 1.526 5.846 2.572zm-51.112 269.656c-.112-1.622-.132-3.258-.09-4.882.53-21.57 1.436-43.138 1.542-64.708.172-35.318.156-70.654-3.022-105.876-.554-6.148-1.834-12.246-3.082-18.304-.612-2.968-2.626-3.364-4.43-.9-1.278 1.748-2.25 3.906-2.718 6.024-1.316 5.946-2.162 11.992-3.44 17.948-4.85 22.634-9.58 45.3-14.804 67.848-2.862 12.35-7.024 24.398-9.888 36.744-5.164 22.25-9.788 44.626-14.648 66.944-1.624 7.452-1.644 7.446-9.366 7.798-.392.018-.782.116-1.29.194-.08.532-.19 1.016-.222 1.504-.478 7.106-.872 14.218-1.494 21.31-.092 1.04-1.246 1.988-1.908 2.978-.55-.982-1.416-1.91-1.584-2.952-.266-1.66-.07-3.394-.07-5.444-2.366 1-4.516 1.856-6.624 2.81-7.356 3.334-15.054 5.502-23.036 6.648-.682.098-1.84-.13-2.056-.562-.266-.54.032-1.576.428-2.168.492-.732 1.402-1.164 2.02-1.83 3.644-3.93 7.54-7.674 10.788-11.912 2.31-3.016 3.73-6.714 5.548-10.108-.364-.172-.728-.346-1.094-.518-.266.622-.406 1.352-.828 1.84-.67.78-1.53 1.398-2.308 2.084-.4-.934-1.204-1.902-1.124-2.792.186-2.062.822-4.082 1.232-6.126 2.896-14.436 6.044-28.826 8.602-43.32 4.048-22.906 7.708-45.882 11.508-68.832 4.6-27.758 9.314-55.498 13.704-83.29 2.266-14.346 4.35-28.746 5.756-43.196 1.306-13.46 1.776-27.01 2.294-40.532.472-12.402.582-24.82.656-37.232.008-1.346-.978-3.066-2.048-3.964-1.652-1.384-3.774-2.21-5.856-3.362-.14.738-.302 1.508-.43 2.282-2.882 17.634-5.226 35.38-8.814 52.87-2.798 13.632-6.3 27.104-7.336 41.036-.572 7.708-.854 15.442-1.666 23.122-.808 7.654-2.872 15.224-.67 22.978.14.494-.97 1.918-1.332 1.862-.796-.128-2.064-.864-2.128-1.46-.47-4.32-1.016-8.674-.888-13.002.118-4.012 1.042-8 1.592-11.876-1.61-.606-2.892-1.088-3.642-1.372-1.588 1.362-3.034 2.512-4.368 3.782-.756.716-1.834 1.586-1.904 2.458-.728 9.114-1.258 18.248-1.902 27.37-.132 1.866.848 4.944-1.912 4.928-2.478-.014-1.776-3.028-1.674-4.806.7-12.464 1.47-24.922 2.318-37.376 1.058-15.53 2.094-31.064 3.36-46.578 1.414-17.334 3.118-34.644 4.614-51.972 1.494-17.33 2.65-34.692 4.444-51.988.738-7.124 2.244-14.274 4.342-21.122 2.032-6.63 6.774-11.566 14.024-12.274 10.194-.994 20.464-1.242 30.702-1.786 1.398-.074 2.806-.01 3.718-.01 2.968-6.65 5.828-13.056 8.726-19.552-.436-.026-.65-.104-.792-.034-.82.404-1.658.79-2.424 1.282-4.912 3.132-10.358 4.1-16.05 3.852-4.648-.202-8.782-1.674-11.676-5.608-3.914-5.324-5.658-11.3-4.604-17.824 1.626-10.058 6.026-19.12 10.618-28.088.472-.926.96-2.084.822-3.046-.918-6.434.98-12.078 4.702-17.172 5.806-7.946 13.906-12.528 23.33-14.416 9.512-1.904 20.218.812 21.672 13.508.018.162.244.302.372.452 4.504-1.888 8.792-.626 13.142.558 3.904 1.062 6.17 3.504 7.53 7.246 2.052 5.636 1.838 11.382 1.362 17.18-.688 8.4-1.764 16.788-1.946 25.198-.14 6.516 1.222 12.95 4.972 18.584 1.998 3 1.712 4.294-1.54 5.904-.964.478-2.144.688-3.234.72-9.558.28-19.052 2.912-28.68.706-1.486 3.636-2.922 7.146-4.4 10.764 3.146.48 6.042 1.082 8.97 1.34 14.866 1.316 27.098 7.56 36.196 19.466 4.01 5.248 7.664 10.77 11.426 16.208 8.966 12.96 18.974 25.218 25.186 39.982 2.364 5.616 2.838 10.73.138 16.058-4.728 9.33-9.274 18.77-14.462 27.842-8.068 14.112-16.586 27.966-24.972 41.894-1.292 2.146-2.034 3.852-1.43 6.776 2.586 12.49 3.192 25.204 2.684 37.956-.822 20.746-1.532 41.5-2.526 62.238-1.12 23.376-2.268 46.754-3.85 70.1-1.202 17.754-3.114 35.462-4.69 53.192-.324 3.64-1.51 5.046-5.108 5.708-.036.678-.072 1.382-.108 2.082-.442 8.738-.83 17.482-1.41 26.212-.058.898-1.266 1.72-1.938 2.578-.528-.988-1.436-1.952-1.5-2.968-.126-1.98.222-3.992.408-6.448-1.318.636-2.186 1.092-3.08 1.486-3.892 1.718-7.654 3.956-11.718 5.01-6.856 1.776-13.89 2.884-20.892 4.03-1.052.172-2.324-.982-3.496-1.52.982-.674 1.95-1.368 2.948-2.018 1.058-.692 2.38-1.138 3.172-2.05 3.07-3.532 6.418-6.936 8.826-10.898 3.01-4.958 5.198-10.42 7.952-16.094-5.624-.608-5.814-.778-6.124-5.306z" fill="#000" mask="url(#a)" transform="translate(584 37.724)"/><path d="m606.3206 354.9566c.726 2.906 1.066 5.116 1.878 7.132.366.912 1.668 1.448 2.546 2.154.292-1.006.946-2.066.808-3.008-.348-2.398-1.016-4.75-1.616-7.104-.668-2.622-1.43-2.814-3.454-1.056-.32-2.27-.65-4.608-.98-6.944-.442-.046-.882-.09-1.322-.134-.486.982-1.366 1.954-1.392 2.948-.124 4.664-.132 9.338.11 13.994.05.968 1.336 1.872 2.054 2.804.456-1.01 1.216-1.994 1.308-3.038.198-2.296.06-4.624.06-7.748" fill="#000"/><path d="m731.76 260.1724c-1.216 3.192-2.434 6.382-3.742 9.82 3.444 2.712 6.978 5.496 10.804 8.506 1.646-2.644 3.106-4.988 4.648-7.462-2.968-2.02-5.886-3.67-8.37-5.822-1.466-1.272-2.248-3.338-3.336-5.046z" fill="#fff"/><g fill="#000"><path d="m707.5236 322.0582c.328.57.54 1.436 1.042 1.668.468.216 1.308-.126 1.87-.434.396-.214.658-.75.888-1.192 2.45-4.658 4.968-9.284 7.242-14.028.452-.944-.046-2.342-.104-3.53-.998.652-2.396 1.074-2.926 1.996-2.418 4.214-4.602 8.562-6.846 12.872-.418.802-.732 1.658-1.166 2.648"/><path d="m703.9554 315.0134c.69 1.108.922 1.866 1.42 2.148.368.208 1.366-.024 1.608-.378 2.478-3.658 4.896-7.36 7.208-11.124.232-.376-.194-1.386-.604-1.844-.232-.258-1.346-.212-1.56.074-2.748 3.672-5.402 7.414-8.072 11.124"/><path d="m712.428 299.236c-1.898.518-2.962.548-3.696 1.054-2.32 1.608-4.608 3.288-6.704 5.168-.64.574-.612 1.89-.892 2.864.93.01 2.112.39 2.748-.038 2.502-1.682 4.9-3.542 7.178-5.518.626-.54.698-1.716 1.366-3.53"/><path d="m668.6722 225.3766c.788-1.428 1.57-2.228 1.53-2.984-.03-.544-1.178-1.452-1.788-1.42-.602.032-1.64 1.074-1.606 1.614.05.756.916 1.46 1.864 2.79"/><path d="m670.3166 239.6784c-.88 1.134-1.838 1.848-1.74 2.366.138.75 1.04 1.356 1.616 2.022.63-.544 1.748-1.074 1.766-1.636.022-.732-.834-1.488-1.642-2.752"/><path d="m674.9612 165.5134c-.792 1.174-1.716 1.97-1.584 2.496.19.746 1.16 1.294 1.798 1.926.592-.606 1.688-1.246 1.656-1.814-.048-.75-.982-1.446-1.87-2.608"/><path d="m667.1564 255.9674c1.204.756 1.992 1.624 2.51 1.486.722-.194 1.242-1.142 1.848-1.766-.588-.57-1.212-1.63-1.758-1.592-.732.052-1.404.954-2.6 1.872"/><path d="m664.1018 203.7496c1.026.842 1.748 1.84 2.23 1.736.768-.166 1.378-1.07 2.054-1.66-.658-.614-1.238-1.534-2-1.73-.48-.12-1.236.852-2.284 1.654"/><path d="m670.2072 184.7282c-.828 1.05-1.804 1.77-1.706 2.284.148.76 1.058 1.374 1.642 2.05.636-.658 1.586-1.234 1.792-2.006.128-.472-.886-1.25-1.728-2.328"/><path d="m742.8908 262.0632c.754-1.136 1.614-1.866 1.528-2.458-.098-.674-1.04-1.226-1.614-1.832-.608.668-1.528 1.264-1.708 2.034-.112.466.916 1.204 1.794 2.256"/><path d="m605.9572 299.441c1.13.704 1.868 1.524 2.474 1.438.656-.094 1.192-1.034 1.782-1.604-.672-.624-1.268-1.552-2.048-1.75-.438-.112-1.184.984-2.208 1.916"/><path d="m656.848 98.6618c1.568-4.34 3.008-8.326 4.444-12.312.274-.764.776-1.546.734-2.294-.058-1.002-.55-1.978-.852-2.966-.816.576-2.066.978-2.378 1.756-2.076 5.17-4.02 10.396-5.862 15.652-.854 2.44.092 3.72 2.658 3.824 2.128.086 4.298.172 6.378-.184.944-.162 1.708-1.39 2.554-2.134-.922-.448-1.806-1.142-2.774-1.286-1.484-.218-3.026-.056-4.902-.056"/><path d="m662.848 111.4674c4.292.018 7.508-1.862 8.376-4.666.282-.91-.144-2.038-.248-3.066-.924.422-2.276.598-2.694 1.316-1.178 2.03-2.864 2.6-5.01 2.876-.952.124-1.794 1.106-2.684 1.7.93.756 1.86 1.514 2.26 1.84"/><path d="m668.0666 80.0806c1.236 1.676 8.162 4.492 9.948 3.842.528-.192 1.206-1.386 1.042-1.846-.954-2.698-9.04-4.094-10.99-1.996"/><path d="m650.5394 87.113c-.744 1.394-1.524 2.21-1.466 2.962.042.56 1.208 1.48 1.806 1.428.616-.052 1.646-1.132 1.596-1.676-.072-.764-.978-1.452-1.936-2.714"/><path d="m670.7542 86.943c-.834 1.18-1.76 1.934-1.644 2.462.16.74 1.01 1.648 1.73 1.832.444.114 1.706-1.012 1.688-1.546-.032-.76-.902-1.488-1.774-2.748"/><path d="m358.301 514.482c-40.08 0-79.024-6.93-115.752-20.598-1.7-.634-2.51-2.388-1.806-3.92.702-1.53 2.656-2.254 4.35-1.626 35.918 13.366 74.006 20.144 113.208 20.144 40.18 0 79.146-7.11 115.82-21.13 1.696-.646 3.646.064 4.37 1.588.716 1.524-.072 3.286-1.766 3.934-37.5 14.338-77.346 21.608-118.424 21.608"/><path d="m437.346 482.4626c-.222 1.14.628 2.23 1.896 2.43l35.156 5.516-20.416 26.35c-.736.952-.478 2.262.578 2.924s2.516.42 3.248-.52l22.512-29.056c.456-.59.548-1.348.24-2.01-.306-.664-.968-1.138-1.754-1.26l-38.762-6.082c-.452-.072-.9-.018-1.296.13-.71.266-1.26.846-1.402 1.578"/><path d="m518.051 55.942c-.61 0-1.224-.15-1.776-.462-47.232-26.822-101.858-40.998-157.974-40.998-39.124 0-77.14 6.752-112.992 20.064-1.698.634-3.65-.096-4.35-1.63-.702-1.53.108-3.284 1.808-3.916 36.664-13.614 75.534-20.518 115.534-20.518 57.374 0 113.232 14.496 161.528 41.922 1.558.884 2.024 2.738 1.04 4.138-.632.904-1.714 1.4-2.818 1.4"/><path d="m44.0286 39.0314c.236-1.14-.604-2.236-1.872-2.446l-35.094-5.824 20.702-26.17c.748-.946.502-2.26-.546-2.93-1.05-.672-2.512-.442-3.254.492l-22.826 28.856c-.462.586-.562 1.342-.262 2.008s.956 1.146 1.738 1.278l38.698 6.422c.45.074.898.024 1.296-.12.712-.26 1.268-.834 1.42-1.566" mask="url(#b)" transform="translate(238 .724)"/></g></g></svg>
