<svg width="230" height="91" viewBox="0 0 230 91" fill="none" xmlns="http://www.w3.org/2000/svg">
<path d="M42.6645 80.2303C41.5025 79.9807 40.4466 80.3741 39.7318 81.3827C38.6873 82.8774 37.986 83.497 37.4033 83.3576C36.3294 83.0975 36.3987 79.6623 37.1409 76.624C37.8194 73.8019 39.7326 69.5818 40.6267 69.8333C41.3045 70.0211 40.9947 71.4287 41.1426 72.4243C41.3652 73.7985 41.9848 74.4998 43.5547 74.6712C44.3397 74.7569 44.4483 74.4162 44.5689 73.9251C44.8393 72.9394 44.9639 71.2261 44.8539 70.0471C44.7612 69.0151 44.5167 68.2097 43.6032 67.5432C42.7884 66.9545 41.213 66.4857 39.9354 66.5181C39.0727 66.531 38.0686 66.8587 37.0894 67.8987C33.3935 71.9131 31.41 80.3136 33.1546 84.2191C33.5237 85.0694 34.3455 85.7169 35.0079 86.0257C35.762 86.3535 36.7841 86.6792 38.0029 86.6539C39.1629 86.6355 40.4953 86.0602 41.2344 85.2573C41.9183 84.4908 42.7367 83.3507 43.1626 82.1678C43.5471 81.1388 43.6139 80.4454 42.6645 80.2303Z" fill="black"/>
<path d="M56.168 66.2614C55.4119 65.6657 54.0855 65.2866 52.8304 65.2567C51.8726 65.2213 50.592 65.7308 49.8234 66.5372C46.1395 70.4012 44.4683 78.1687 46.2304 82.2211C46.6029 83.1007 47.3436 83.8175 47.9801 84.1592C48.8069 84.5975 49.9654 84.8177 50.9197 84.8237C52.3806 84.8292 53.5506 84.3924 54.5383 83.1726C57.4721 79.5168 58.3578 72.9153 57.6781 68.9431C57.4868 67.8334 57.0555 66.9608 56.168 66.2614ZM53.43 68.553C54.4052 68.7353 54.2362 72.838 53.646 75.6496C52.8853 79.2861 51.5135 82.0414 50.4033 81.7261C49.2637 81.4143 49.3794 77.6159 50.0837 74.761C50.7846 71.8766 52.4841 68.3672 53.43 68.553Z" fill="black"/>
<path d="M67.1435 81.439C67.916 81.1686 67.9245 80.9888 67.7303 80.3562C67.6018 79.7755 67.3886 79.2346 67.0838 78.6747C66.779 78.1149 66.4124 78.0391 65.7729 78.1746C64.5785 78.4057 63.5933 78.6417 62.4751 79.0128C63.3249 74.6207 64.4542 69.5698 65.305 66.1908C65.4893 65.4836 65.3991 65.226 64.785 64.8221C64.1709 64.4181 63.2146 64.1442 62.5437 64.0151C61.9022 63.8826 61.5306 64.0161 61.3204 64.7563C60.2006 68.8823 58.761 76.5925 58.341 80.3376C58.2553 81.1225 58.5013 81.6894 58.9063 82.0883C59.4756 82.6168 59.8372 82.9017 60.261 83.209C60.659 83.5492 60.9877 83.8082 62.1507 83.3127C63.6818 82.6543 65.5138 82.0198 67.1435 81.439Z" fill="black"/>
<path d="M77.5896 80.1999C78.3621 79.9295 78.3706 79.7497 78.1763 79.1171C78.0478 78.5364 77.8347 77.9955 77.5299 77.4356C77.2251 76.8758 76.8585 76.8 76.2189 76.9355C75.0245 77.1666 74.0393 77.4026 72.9211 77.7737C73.771 73.3817 74.9002 68.3307 75.751 64.9517C75.9353 64.2445 75.8452 63.987 75.2311 63.583C74.617 63.179 73.6607 62.9051 72.9898 62.776C72.3482 62.6435 71.9767 62.777 71.7665 63.5172C70.6467 67.6432 69.207 75.3534 68.787 79.0985C68.7014 79.8834 68.9474 80.4503 69.3523 80.8492C69.9216 81.3777 70.2832 81.6626 70.7071 81.9699C71.105 82.3101 71.4337 82.5691 72.5968 82.0736C74.1279 81.4152 75.9598 80.7807 77.5896 80.1999Z" fill="black"/>
<path d="M88.6718 75.2796C88.7629 76.5502 88.8366 77.6738 88.9481 78.6142C89.0527 79.4958 89.2708 79.8275 89.8864 79.9929C90.5021 80.1583 91.0933 80.118 91.7398 80.0413C92.3863 79.9646 92.5417 79.7674 92.4909 79.088C92.2281 73.6061 92.0639 66.4438 92.1537 62.6783C92.1841 61.9297 92.0401 61.4699 91.3035 61.2891C90.2954 61.0809 89.3097 60.8104 87.4737 60.909C86.4054 60.9463 85.9063 61.5121 85.575 62.2368C83.5996 66.4346 80.5417 74.0685 79.1145 78.6184C78.8595 79.4831 78.9083 79.8945 79.3755 80.3159C79.8427 80.7373 80.3079 80.8907 80.9011 81.1183C81.4908 81.3166 81.7189 81.2299 81.969 80.5745C82.35 79.5161 82.8018 78.3003 83.3054 77.0187C84.7553 76.4295 86.8294 75.8259 88.6718 75.2796ZM85.0628 72.4892C86.2149 69.6408 87.3999 66.8182 88.3159 64.7427C88.2989 66.8605 88.3497 69.2981 88.4487 71.6406C87.3425 71.8612 86.1879 72.177 85.0628 72.4892Z" fill="black"/>
<path d="M103.864 69.0671C104.624 68.4406 105.266 67.8279 105.791 67.2293C106.789 66.0977 107.588 64.5427 107.286 62.9991C107.001 61.6025 106.354 60.6661 105.544 59.8682C103.599 58.0427 98.1184 59.8251 95.3939 61.7277C94.7857 62.1277 94.8016 62.5132 95.1533 63.2165C95.3819 63.6364 95.6762 64.1081 95.9273 64.4657C95.2254 68.0952 94.2789 72.6775 93.9481 75.6669C93.8196 76.8444 93.9426 77.1278 94.7091 77.8117C95.4722 78.4661 95.8995 78.8029 96.7004 79.2741C97.4719 79.7488 97.8574 79.7328 98.8735 79.2547C100.659 78.4767 103.224 76.742 104.53 75.1865C105.447 74.1242 105.897 73.1469 105.704 71.7693C105.539 70.6267 104.844 69.5468 103.864 69.0671ZM99.0651 68.0569C99.3938 66.5577 99.7072 65.1795 99.9826 63.9846C101.973 62.6757 103.567 62.5463 103.732 63.1823C103.98 64.0171 102.129 66.5015 99.0651 68.0569ZM98.2631 71.8473C100.226 70.8098 101.685 71.0539 101.817 71.6641C102.06 72.708 100.24 74.4438 97.5527 75.6565C97.7624 74.4099 98.0274 73.1268 98.2631 71.8473Z" fill="black"/>
<path d="M118.328 58.8882C117.572 58.2924 116.245 57.9134 114.99 57.8834C114.032 57.8481 112.752 58.3576 111.983 59.1639C108.299 63.0279 106.628 70.7954 108.39 74.8478C108.763 75.7274 109.503 76.4442 110.14 76.7859C110.967 77.2242 112.125 77.4444 113.08 77.4504C114.54 77.4559 115.71 77.0191 116.698 75.7994C119.632 72.1435 120.518 65.542 119.838 61.5698C119.647 60.4601 119.215 59.5875 118.328 58.8882ZM115.59 61.1797C116.565 61.3621 116.396 65.4647 115.806 68.2764C115.045 71.9128 113.673 74.6682 112.563 74.3528C111.423 74.041 111.539 70.2427 112.244 67.3877C112.944 64.5034 114.644 60.9939 115.59 61.1797Z" fill="black"/>
<path d="M125.498 69.8684C126.844 71.6754 128.784 73.7101 130.02 74.5768C130.904 75.2468 131.605 75.1337 132.143 74.8912C132.625 74.685 132.882 74.5948 133.333 74.1241C133.703 73.7227 133.815 73.4114 133.282 72.9382C132.008 71.7483 130.196 69.7878 129.068 68.3125C130.866 67.1455 132.406 65.8007 133.445 64.5152C134.459 63.2626 135.062 61.8202 134.661 60.1989C134.257 58.5483 133.478 57.5083 132.668 56.7103C130.647 54.7448 125.26 56.8142 122.572 58.7721C121.997 59.1979 122.009 59.5541 122.361 60.2574C122.593 60.7066 122.953 61.2301 123.241 61.643C122.391 66.0351 121.443 71.3625 121.206 74.1323C121.156 74.9726 121.264 75.377 121.838 75.6963C122.284 75.9414 122.867 76.0808 123.505 76.1839C124.14 76.2577 124.331 76.1157 124.435 75.4777C124.732 73.714 125.1 71.7929 125.498 69.8684ZM127.607 60.7675C129.379 59.6334 131.072 59.5817 131.299 60.2402C131.646 61.1526 129.7 64.0952 126.389 65.829C126.823 63.9597 127.212 62.2149 127.607 60.7675Z" fill="black"/>
<path d="M144.202 68.6926C144.293 69.9632 144.367 71.0869 144.479 72.0273C144.583 72.9089 144.801 73.2406 145.417 73.406C146.033 73.5714 146.624 73.531 147.27 73.4544C147.917 73.3777 148.072 73.1804 148.021 72.5011C147.759 67.0192 147.594 59.8568 147.684 56.0914C147.715 55.3427 147.571 54.883 146.834 54.7022C145.826 54.494 144.84 54.2235 143.004 54.3221C141.936 54.3594 141.437 54.9252 141.106 55.6499C139.13 59.8476 136.072 67.4816 134.645 72.0315C134.39 72.8962 134.439 73.3076 134.906 73.729C135.373 74.1504 135.838 74.3038 136.432 74.5314C137.021 74.7297 137.249 74.643 137.5 73.9875C137.881 72.9291 138.332 71.7133 138.836 70.4318C140.286 69.8426 142.36 69.239 144.202 68.6926ZM140.593 65.9023C141.745 63.0538 142.93 60.2313 143.846 58.1558C143.829 60.2736 143.88 62.7112 143.979 65.0537C142.873 65.2743 141.718 65.5901 140.593 65.9023Z" fill="black"/>
<path d="M162.166 55.4464C162.864 55.304 162.902 55.1207 162.74 54.514C162.579 53.9074 162.227 53.2041 161.776 52.6616C161.535 52.3922 161.279 52.2437 160.603 52.3239C157.877 52.7069 153.525 53.6999 150.836 54.6447C150.38 54.818 150.217 54.9565 150.434 55.5268C150.647 56.0677 151.059 57.032 151.508 57.545C151.956 58.0581 152.227 58.0855 152.827 57.8653C153.254 57.6955 153.975 57.4908 154.637 57.2931C153.845 61.1716 152.853 67.1301 152.602 70.2889C152.523 71.1326 152.634 71.5665 153.209 71.8858C153.783 72.205 154.494 72.4187 155.132 72.5219C155.77 72.625 155.962 72.483 156.065 71.845C156.81 67.0779 157.958 60.9222 159.001 56.1496C160.162 55.8926 161.236 55.6461 162.166 55.4464Z" fill="black"/>
<path d="M167.988 52.938C167.41 52.5893 166.44 52.1978 165.769 52.0688C165.098 51.9398 164.73 52.1026 164.549 52.8393C163.692 56.666 162.233 65.7195 161.925 69.1533C161.85 70.0264 161.983 70.398 162.557 70.7172C163.099 71.0106 163.842 71.2502 164.48 71.3533C165.118 71.4565 165.34 71.311 165.439 70.6436C166.135 66.2102 167.647 58.104 168.566 54.2997C168.721 53.596 168.631 53.3385 167.988 52.938Z" fill="black"/>
<path d="M179.397 51.6442C178.641 51.0485 177.315 50.6694 176.059 50.6395C175.102 50.6041 173.821 51.1136 173.053 51.92C169.369 55.784 167.697 63.5515 169.459 67.6039C169.832 68.4835 170.573 69.2003 171.209 69.542C172.036 69.9803 173.194 70.2005 174.149 70.2065C175.61 70.212 176.78 69.7752 177.767 68.5555C180.701 64.8996 181.587 58.2981 180.907 54.3259C180.716 53.2162 180.285 52.3436 179.397 51.6442ZM176.659 53.9358C177.634 54.1181 177.465 58.2208 176.875 61.0325C176.114 64.6689 174.743 67.4242 173.632 67.1089C172.493 66.7971 172.608 62.9988 173.313 60.1438C174.014 57.2594 175.713 53.75 176.659 53.9358Z" fill="black"/>
<path d="M190.518 60.0101C189.993 57.0924 189.425 53.554 189.21 52C189.066 51.0337 188.837 50.6138 188.123 50.3708C187.277 50.0241 186.449 49.8243 185.657 49.6799C185.019 49.5767 184.537 49.7829 184.36 50.549C183.43 54.7717 181.911 64.0707 181.656 66.6936C181.577 67.5374 181.685 67.9418 182.229 68.2646C182.778 68.6167 183.547 68.8234 184.185 68.9266C184.827 69.0591 185.048 68.9136 185.118 68.2497C185.46 65.855 186.253 61.7379 186.875 57.939C187.444 60.9708 188.209 64.1581 188.916 66.1006C189.143 66.7591 189.559 67.2462 190.119 67.4479C190.683 67.6791 191.331 67.8703 191.966 67.9441C192.604 68.0472 193.046 67.7563 193.116 67.0924C193.817 62.4498 195.086 55.0579 195.935 50.9044C196.089 50.2006 196.063 49.7269 195.397 49.3887C194.541 48.9539 194.204 48.8747 193.533 48.7457C192.862 48.6166 192.468 48.8124 192.317 49.5455C191.723 52.3278 190.997 56.2581 190.518 60.0101Z" fill="black"/>
<path d="M75.3749 44.7907C75.2369 44.8058 75.1109 44.8395 74.9969 44.8919C74.631 45.0118 74.3897 45.2677 74.273 45.6595C74.1914 46.0076 74.262 46.379 74.4848 46.7736C74.7075 47.1681 75.0146 47.6033 75.4059 48.0792C75.5436 48.2437 75.6714 48.4093 75.7895 48.5759C75.9293 48.7601 76.0473 48.9267 76.1435 49.0758C76.2113 49.1482 76.2713 49.2413 76.3237 49.3553C75.7431 49.5187 75.0552 49.614 74.2602 49.6412C73.487 49.686 72.6033 49.6331 71.6093 49.4826C70.7181 49.3608 69.77 49.1753 68.7651 48.9263C67.7624 48.6969 66.693 48.4051 65.5569 48.0507C65.3292 47.9759 65.1113 47.9898 64.903 48.0924C64.697 48.2147 64.5565 48.3897 64.4817 48.6174C64.3872 48.8472 64.4022 49.075 64.5266 49.3007C64.6511 49.5265 64.8272 49.6768 65.0549 49.7516C66.2326 50.1214 67.3337 50.4298 68.3583 50.6767C69.4048 50.9411 70.4032 51.131 71.3535 51.2464C73.8454 51.5919 75.8375 51.4735 77.3299 50.8911C77.7704 50.7231 78.0556 50.4126 78.1855 49.9594C78.3133 49.4865 78.2198 48.998 77.9053 48.4938C77.5928 48.0093 77.2279 47.5006 76.8104 46.9677C76.7666 46.9326 76.7218 46.8877 76.6759 46.8328C76.6497 46.7758 76.6126 46.7101 76.5645 46.6355C77.0287 46.6844 77.7108 46.8093 78.6106 47.01C79.5302 47.2085 80.8098 47.5073 82.4496 47.9063C82.6751 47.9614 82.8898 47.9179 83.0937 47.7759C83.3195 47.6514 83.4589 47.4665 83.5118 47.2213C83.5866 46.9936 83.5618 46.7669 83.4373 46.5412C83.315 46.3351 83.1203 46.1968 82.8532 46.1263C81.9118 45.9102 81.0524 45.715 80.2752 45.5408C79.498 45.3666 78.8039 45.2231 78.1931 45.1105C77.3589 44.9624 76.7294 44.8618 76.3045 44.8086C75.9016 44.7729 75.5917 44.7669 75.3749 44.7907Z" fill="#FF766A"/>
<path d="M84.5578 41.7798C84.4001 41.7971 84.2533 41.8231 84.1174 41.858C84.0013 41.8906 83.8764 41.9342 83.7427 41.9888C83.3987 42.1262 83.1749 42.3602 83.0714 42.6908C82.9372 43.1045 82.989 43.5776 83.2269 44.1102C83.4867 44.6603 83.882 45.3552 84.4129 46.1949C84.509 46.344 84.6073 46.5128 84.7078 46.7013C84.8082 46.8898 84.9175 47.0673 85.0355 47.234C84.7684 47.1635 84.474 47.0261 84.1524 46.8219C83.8526 46.6353 83.5419 46.4399 83.2203 46.2357C83.0059 46.0996 82.7826 46.0642 82.5503 46.1296C82.2983 46.1971 82.1032 46.3282 81.9649 46.5229C81.8288 46.7373 81.7934 46.9606 81.8587 47.1929C81.9241 47.4251 82.0552 47.6203 82.2521 47.7783C82.5497 47.9452 82.8593 48.1307 83.1809 48.3349C83.5025 48.5391 83.8396 48.7017 84.192 48.8227C85.0456 49.1482 85.7968 49.1756 86.4455 48.9051C86.7545 48.8114 86.9694 48.5883 87.0904 48.2359C87.2115 47.8835 87.1584 47.4903 86.9313 47.0563C86.7239 46.6201 86.3777 46.0096 85.8928 45.2248C85.7683 44.999 85.6339 44.7743 85.4897 44.5507C85.3653 44.3249 85.2418 44.109 85.1195 43.9029C85.0715 43.8284 85.0343 43.7626 85.0081 43.7056C84.9819 43.6486 84.9557 43.5917 84.9296 43.5347C85.1289 43.5328 85.3818 43.5649 85.6883 43.6311C86.0145 43.6952 86.3856 43.8041 86.8015 43.9581C87.2392 44.1296 87.7437 44.3637 88.3148 44.6602C88.886 44.9568 89.5457 45.3334 90.2941 45.7901C90.8739 46.1656 91.423 46.5344 91.9415 46.8965C92.46 47.2587 92.915 47.5879 93.3066 47.8842C93.6982 48.1805 94.0143 48.4252 94.2549 48.6183C94.4955 48.8114 94.6158 48.908 94.6158 48.908C94.8826 49.1581 95.1782 49.2155 95.5025 49.0802C95.6559 49.0235 95.7765 48.9404 95.8643 48.8311C95.9521 48.7217 96.0201 48.6145 96.0685 48.5094C96.1763 48.2183 96.1505 47.892 95.9912 47.5303C95.8318 47.1687 95.5513 46.6109 95.1495 45.8569C95.0031 45.6135 94.8568 45.3702 94.7104 45.1269C94.5838 44.8814 94.4593 44.6556 94.337 44.4495C94.3064 44.3531 94.265 44.2479 94.2126 44.1339C94.4929 44.1431 94.8005 44.2192 95.1354 44.3621C95.4703 44.5049 95.8073 44.6675 96.1465 44.8499C96.4857 45.0322 96.8062 45.2265 97.1081 45.4328C97.4122 45.6589 97.6824 45.8488 97.9187 46.0024C98.1353 46.1583 98.3608 46.2134 98.5952 46.1678C98.8296 46.1221 99.0258 46.0009 99.1838 45.804C99.3199 45.5896 99.3652 45.3652 99.3195 45.1308C99.2936 44.8942 99.1724 44.698 98.9558 44.5421C98.457 44.1778 97.9505 43.8343 97.4364 43.5115C96.9243 43.2085 96.4068 42.9459 95.8837 42.7239C95.3825 42.5194 94.8789 42.3851 94.3731 42.3208C93.8695 42.2762 93.3875 42.3389 92.9273 42.509C92.6249 42.6619 92.4197 42.8839 92.312 43.175C92.2239 43.4639 92.2169 43.764 92.2909 44.0751C92.3867 44.4038 92.5514 44.8147 92.785 45.3078C92.5465 45.1344 92.2993 44.972 92.0433 44.8204C91.807 44.6668 91.5488 44.4955 91.2688 44.3067C88.3128 42.4558 86.0758 41.6135 84.5578 41.7798Z" fill="#FF766A"/>
<path d="M102.146 42.457C102.047 42.4678 101.969 42.4863 101.913 42.5125C101.606 42.6259 101.392 42.769 101.271 42.9418C101.172 43.1322 101.109 43.2789 101.08 43.3818C100.97 43.8328 101.058 44.272 101.344 44.6995C101.652 45.1446 102.022 45.6029 102.452 46.0745C102.588 46.2192 102.715 46.3749 102.833 46.5416C102.951 46.7082 103.068 46.865 103.183 47.0119C103.205 47.0295 103.239 47.0657 103.285 47.1205C103.162 47.094 103.008 47.0511 102.822 46.9916C102.656 46.9301 102.455 46.8323 102.221 46.6983C101.843 46.5203 101.437 46.2755 101.004 45.9638C100.573 45.6718 100.13 45.3613 99.6746 45.032C99.5653 44.9442 99.446 44.8575 99.3169 44.7719C99.2097 44.7039 99.1014 44.6259 98.9921 44.5382C98.7974 44.3999 98.5817 44.3437 98.3452 44.3696C98.091 44.4174 97.8959 44.5485 97.7598 44.7629C97.6018 44.9598 97.5456 45.1754 97.5912 45.4098C97.639 45.664 97.7602 45.8602 97.955 45.9985C98.0643 46.0862 98.1825 46.1631 98.3094 46.229C98.4188 46.3168 98.5281 46.4045 98.6375 46.4923C99.1582 46.8742 99.6657 47.2276 100.16 47.5525C100.677 47.895 101.167 48.1805 101.631 48.409C102.114 48.6353 102.579 48.7839 103.026 48.8547C103.495 48.943 103.929 48.9054 104.331 48.7417C104.655 48.6064 104.876 48.4425 104.995 48.25C105.113 48.0574 105.185 47.89 105.209 47.7477C105.337 47.2748 105.247 46.8158 104.939 46.3708C104.631 45.9257 104.248 45.4389 103.791 44.9103C103.747 44.8752 103.691 44.8116 103.621 44.7195C103.573 44.645 103.515 44.5715 103.447 44.4991C103.756 44.585 104.145 44.682 104.616 44.7901C105.109 44.9157 105.715 45.0787 106.435 45.2791C106.7 45.3299 106.935 45.2843 107.138 45.1422C107.344 45.0199 107.474 44.8361 107.527 44.5909C107.602 44.3633 107.567 44.1376 107.423 43.914C107.301 43.708 107.126 43.5675 106.898 43.4927C106.243 43.3449 105.65 43.2104 105.118 43.0891C104.586 42.9678 104.135 42.8576 103.765 42.7585C103.559 42.7012 103.374 42.6516 103.21 42.6098C103.068 42.5855 102.935 42.5601 102.813 42.5336C102.651 42.5114 102.518 42.486 102.415 42.4574C102.334 42.4463 102.244 42.4462 102.146 42.457Z" fill="#FF766A"/>
<path d="M116.672 40.2675C116.534 40.2826 116.408 40.3163 116.294 40.3687C115.928 40.4886 115.686 40.7445 115.57 41.1363C115.488 41.4844 115.559 41.8558 115.781 42.2503C116.004 42.6449 116.311 43.0801 116.703 43.556C116.84 43.7205 116.968 43.886 117.086 44.0527C117.226 44.2369 117.344 44.4035 117.44 44.5526C117.508 44.625 117.568 44.7181 117.62 44.8321C117.04 44.9954 116.352 45.0907 115.557 45.118C114.784 45.1628 113.9 45.1099 112.906 44.9594C112.015 44.8376 111.067 44.6521 110.062 44.4031C109.059 44.1737 107.99 43.8819 106.854 43.5275C106.626 43.4527 106.408 43.4665 106.2 43.5692C105.994 43.6915 105.853 43.8665 105.778 44.0941C105.684 44.324 105.699 44.5517 105.823 44.7775C105.948 45.0033 106.124 45.1536 106.352 45.2284C107.529 45.5982 108.63 45.9065 109.655 46.1534C110.701 46.4179 111.7 46.6078 112.65 46.7232C115.142 47.0687 117.134 46.9503 118.627 46.3679C119.067 46.1999 119.352 45.8894 119.482 45.4362C119.61 44.9633 119.517 44.4748 119.202 43.9706C118.89 43.486 118.525 42.9774 118.107 42.4445C118.063 42.4094 118.018 42.3644 117.973 42.3096C117.946 42.2526 117.909 42.1869 117.861 42.1123C118.325 42.1612 119.007 42.286 119.907 42.4867C120.827 42.6853 122.107 42.9841 123.746 43.383C123.972 43.4381 124.186 43.3947 124.39 43.2526C124.616 43.1281 124.756 42.9433 124.808 42.6981C124.883 42.4704 124.858 42.2437 124.734 42.0179C124.612 41.8119 124.417 41.6736 124.15 41.6031C123.208 41.387 122.349 41.1918 121.572 41.0176C120.795 40.8433 120.101 40.6999 119.49 40.5872C118.656 40.4392 118.026 40.3386 117.601 40.2853C117.198 40.2497 116.888 40.2437 116.672 40.2675Z" fill="#FF766A"/>
<path d="M125.854 37.2566C125.697 37.2738 125.55 37.2999 125.414 37.3347C125.298 37.3674 125.173 37.411 125.039 37.4656C124.695 37.603 124.472 37.837 124.368 38.1675C124.234 38.5813 124.286 39.0544 124.524 39.587C124.783 40.1371 125.179 40.832 125.71 41.6717C125.806 41.8207 125.904 41.9895 126.004 42.178C126.105 42.3666 126.214 42.5441 126.332 42.7108C126.065 42.6403 125.771 42.5029 125.449 42.2987C125.149 42.1121 124.839 41.9167 124.517 41.7125C124.303 41.5764 124.079 41.541 123.847 41.6063C123.595 41.6738 123.4 41.8049 123.262 41.9996C123.125 42.2141 123.09 42.4374 123.155 42.6697C123.221 42.9019 123.352 43.097 123.549 43.255C123.846 43.422 124.156 43.6075 124.478 43.8117C124.799 44.0159 125.136 44.1785 125.489 44.2995C126.342 44.625 127.093 44.6524 127.742 44.3818C128.051 44.2882 128.266 44.0651 128.387 43.7127C128.508 43.3602 128.455 42.967 128.228 42.533C128.021 42.0969 127.674 41.4864 127.189 40.7016C127.065 40.4758 126.931 40.2511 126.786 40.0275C126.662 39.8017 126.539 39.5858 126.416 39.3797C126.368 39.3052 126.331 39.2394 126.305 39.1824C126.279 39.1254 126.252 39.0684 126.226 39.0115C126.426 39.0096 126.678 39.0417 126.985 39.1079C127.311 39.1719 127.682 39.2809 128.098 39.4349C128.536 39.6064 129.04 39.8404 129.612 40.137C130.183 40.4336 130.842 40.8102 131.591 41.2669C132.171 41.6423 132.72 42.0111 133.238 42.3733C133.757 42.7355 134.212 43.0647 134.603 43.361C134.995 43.6573 135.311 43.902 135.552 44.0951C135.792 44.2882 135.912 44.3848 135.912 44.3848C136.179 44.6348 136.475 44.6923 136.799 44.557C136.953 44.5003 137.073 44.4172 137.161 44.3079C137.249 44.1985 137.317 44.0913 137.365 43.9862C137.473 43.6951 137.447 43.3687 137.288 43.0071C137.129 42.6455 136.848 42.0877 136.446 41.3336C136.3 41.0903 136.153 40.847 136.007 40.6036C135.88 40.3581 135.756 40.1324 135.634 39.9263C135.603 39.8299 135.562 39.7247 135.509 39.6107C135.79 39.6199 136.097 39.696 136.432 39.8388C136.767 39.9817 137.104 40.1443 137.443 40.3266C137.782 40.5089 138.103 40.7033 138.405 40.9096C138.709 41.1357 138.979 41.3255 139.215 41.4792C139.432 41.6351 139.657 41.6902 139.892 41.6445C140.126 41.5989 140.322 41.4777 140.48 41.2808C140.617 41.0664 140.662 40.842 140.616 40.6075C140.59 40.371 140.469 40.1748 140.252 40.0189C139.754 39.6546 139.247 39.311 138.733 38.9883C138.221 38.6852 137.703 38.4227 137.18 38.2007C136.679 37.9962 136.176 37.8618 135.67 37.7975C135.166 37.753 134.684 37.8157 134.224 37.9858C133.922 38.1387 133.716 38.3606 133.609 38.6518C133.521 38.9407 133.514 39.2408 133.588 39.5519C133.683 39.8805 133.848 40.2915 134.082 40.7846C133.843 40.6112 133.596 40.4487 133.34 40.2972C133.104 40.1435 132.846 39.9723 132.565 39.7835C129.609 37.9326 127.372 37.0903 125.854 37.2566Z" fill="#FF766A"/>
<path d="M146.155 36.7389C145.918 36.7648 145.729 36.8554 145.586 37.0107C145.299 37.3015 145.245 37.6365 145.427 38.0157C145.429 38.0354 145.524 38.2645 145.711 38.7028C145.919 39.1389 146.152 39.6321 146.412 40.1822C146.547 40.5066 146.667 40.7827 146.772 41.0106C146.879 41.2583 146.973 41.4775 147.054 41.6681C146.622 41.5558 146.13 41.4301 145.576 41.2913C145.022 41.1525 144.427 40.9982 143.79 40.8286C143.174 40.6765 142.538 40.5167 141.882 40.3492C141.225 40.1818 140.589 40.022 139.974 39.8699C139.748 39.8148 139.532 39.8484 139.326 39.9707C139.103 40.1149 138.955 40.3107 138.882 40.5581C138.827 40.7836 138.87 40.9983 139.012 41.2022C139.137 41.428 139.323 41.5772 139.57 41.6499C140.492 41.8681 141.445 42.1029 142.43 42.3541C143.435 42.6031 144.348 42.8323 145.169 43.0417C145.99 43.251 146.668 43.4262 147.202 43.5672C147.756 43.706 148.033 43.7755 148.033 43.7755C148.133 43.7844 148.223 43.7845 148.302 43.7759C148.403 43.7848 148.5 43.7642 148.595 43.7139C148.866 43.6443 149.046 43.465 149.134 43.176C149.215 43.0075 149.232 42.7962 149.184 42.542C149.159 42.3055 149.071 41.9659 148.923 41.5232C148.836 41.2734 148.726 40.9962 148.593 40.6915C148.481 40.4045 148.335 40.0713 148.154 39.6922C148.126 39.6155 148.098 39.5486 148.072 39.4916C148.046 39.4346 148.019 39.3678 147.99 39.2911C148.826 39.6384 149.842 39.9861 151.037 40.334C151.265 40.4088 151.482 40.3851 151.688 40.2627C151.896 40.1601 152.038 39.995 152.113 39.7673C152.207 39.5375 152.192 39.3097 152.068 39.0839C151.943 38.8582 151.767 38.7079 151.539 38.633C150.837 38.4107 150.184 38.1929 149.582 37.9795C148.981 37.7661 148.461 37.5737 148.023 37.4022C147.502 37.1999 147.032 37.0119 146.614 36.8382C146.485 36.7526 146.332 36.7195 146.155 36.7389Z" fill="#FF766A"/>
<path d="M154.441 34.0656C154.342 34.0764 154.245 34.0971 154.149 34.1276C154.05 34.1384 153.943 34.1601 153.826 34.1928C153.599 34.2976 153.42 34.4867 153.29 34.7603C153.244 34.8851 153.22 35.0274 153.217 35.1873C153.217 35.3669 153.265 35.621 153.361 35.9497C153.476 36.2762 153.644 36.7167 153.864 37.2711C154.107 37.8431 154.426 38.5762 154.824 39.4704C154.353 39.3623 153.83 39.2301 153.254 39.0737C152.678 38.9173 152.083 38.7631 151.467 38.611C151.242 38.5559 151.026 38.5895 150.82 38.7118C150.596 38.856 150.448 39.0518 150.376 39.2992C150.321 39.5247 150.364 39.7394 150.506 39.9433C150.63 40.1691 150.816 40.3183 151.064 40.391C151.721 40.5584 152.357 40.7182 152.972 40.8703C153.587 41.0224 154.13 41.1524 154.601 41.2605C155.073 41.3883 155.453 41.4863 155.74 41.5547C156.029 41.6427 156.174 41.6867 156.174 41.6867C156.379 41.744 156.568 41.7333 156.739 41.6548C156.988 41.5676 157.16 41.3992 157.252 41.1496C157.331 40.9614 157.343 40.8005 157.289 40.6668C157.254 40.5309 157.208 40.3863 157.152 40.2329C157.103 40.1584 157.064 40.0729 157.034 39.9765C157.005 39.8998 156.965 39.8045 156.913 39.6905C156.738 39.3705 156.545 38.9726 156.333 38.4971C156.143 38.039 155.942 37.5722 155.731 37.0966C155.602 36.8314 155.497 36.6035 155.416 36.4128C155.336 36.2221 155.267 36.0501 155.21 35.8967C155.593 35.9345 156.16 36.1019 156.911 36.3987C157.559 36.6669 158.252 36.9801 158.989 37.3382C159.727 37.6964 160.498 38.0907 161.303 38.5212C161.472 38.6025 161.64 38.6838 161.809 38.7651C161.977 38.8464 162.147 38.9376 162.318 39.0386C162.55 39.1529 162.781 39.1675 163.011 39.0824C163.243 39.0171 163.426 38.8673 163.56 38.6332C163.674 38.4012 163.689 38.1702 163.604 37.9401C163.541 37.7275 163.393 37.5641 163.161 37.4499C162.991 37.3489 162.81 37.2489 162.62 37.1501C162.451 37.0688 162.272 36.9787 162.081 36.8799C161.278 36.469 160.497 36.0758 159.737 35.7001C158.978 35.3244 158.265 35.0035 157.597 34.7375C156.242 34.2075 155.19 33.9836 154.441 34.0656Z" fill="#FF766A"/>
<path d="M58.0529 31.1241C57.5197 31.4908 57.4533 31.9539 58.4667 33.078C60.4266 35.2733 62.4591 36.0337 64.4272 35.7396C67.4428 35.3212 68.6308 33.0559 69.1365 31.6909C70.2201 28.8007 66.1784 27.7324 64.1358 25.6075C62.2606 23.6145 65.6526 19.2062 66.3237 19.4907C66.7041 19.6277 66.0761 22.0087 65.9645 23.1145C65.8371 24.3435 66.6355 25.1896 68.2399 25.6669C68.807 25.8425 69.092 25.6873 69.3239 25.0831C69.8068 23.7816 70.2781 21.3585 70.3243 19.957C70.3182 19.1383 70.2873 18.1101 69.3393 17.2818C68.6926 16.6908 67.5335 16.1303 66.5333 15.8848C65.2231 15.585 64.1391 16.1688 63.5005 16.6694C61.8397 18.0196 60.2505 20.4843 59.6433 22.5289C58.9148 24.8308 59.6878 26.7421 60.9478 27.8976C62.7504 29.535 66.0865 31.0512 65.3038 31.8724C64.6337 32.6196 62.8675 32.3132 60.9172 30.9664C60.2249 30.5022 58.9238 30.5352 58.0529 31.1241Z" fill="black"/>
<path d="M83.8345 16.837C84.5457 16.692 84.5842 16.5053 84.4199 15.8875C84.2555 15.2697 83.8975 14.5534 83.4374 14.001C83.1924 13.7266 82.9317 13.5755 82.2434 13.6571C79.4672 14.0471 75.035 15.0584 72.2963 16.0206C71.8317 16.1971 71.6664 16.3381 71.887 16.9189C72.1041 17.4698 72.524 18.4518 72.9805 18.9743C73.437 19.4967 73.7135 19.5246 74.3242 19.3004C74.7589 19.1275 75.4929 18.919 76.167 18.7177C75.3609 22.6675 74.3508 28.7356 74.0951 31.9525C74.015 32.8118 74.1281 33.2536 74.7129 33.5787C75.2977 33.9039 76.0216 34.1215 76.6713 34.2265C77.3211 34.3315 77.5164 34.187 77.6214 33.5372C78.3809 28.6824 79.5492 22.4135 80.6115 17.5532C81.7944 17.2915 82.8875 17.0404 83.8345 16.837Z" fill="black"/>
<path d="M88.6065 26.5287C89.978 28.369 91.9536 30.4411 93.2116 31.3238C94.1119 32.006 94.8266 31.8909 95.3739 31.6439C95.8649 31.4339 96.1272 31.3421 96.5862 30.8628C96.9626 30.4539 97.0768 30.1369 96.534 29.655C95.237 28.4432 93.3918 26.4467 92.2424 24.9442C94.0741 23.7558 95.6415 22.3863 96.7001 21.0771C97.7324 19.8014 98.3472 18.3325 97.9389 16.6814C97.5271 15.0004 96.7338 13.9413 95.909 13.1287C93.8507 11.127 88.3648 13.2345 85.6272 15.2284C85.0414 15.662 85.054 16.0247 85.4121 16.7409C85.6485 17.1985 86.0152 17.7316 86.3079 18.1521C85.4424 22.6249 84.4775 28.0503 84.2355 30.8711C84.1852 31.7268 84.2948 32.1387 84.8796 32.4638C85.3341 32.7134 85.9276 32.8554 86.5773 32.9605C87.2236 33.0355 87.4189 32.891 87.5239 32.2412C87.8267 30.4451 88.2016 28.4887 88.6065 26.5287ZM90.7543 17.2605C92.5596 16.1056 94.2832 16.0528 94.5145 16.7234C94.8675 17.6527 92.8862 20.6494 89.5145 22.415C89.9564 20.5114 90.3526 18.7345 90.7543 17.2605Z" fill="black"/>
<path d="M107.655 25.3314C107.748 26.6253 107.823 27.7697 107.937 28.7273C108.043 29.6252 108.265 29.963 108.892 30.1314C109.519 30.2998 110.121 30.2588 110.78 30.1807C111.438 30.1026 111.596 29.9017 111.545 29.2098C111.277 23.6271 111.11 16.333 111.201 12.4983C111.232 11.7359 111.086 11.2677 110.335 11.0836C109.309 10.8716 108.305 10.5961 106.435 10.6965C105.347 10.7345 104.839 11.3107 104.502 12.0487C102.49 16.3237 99.3756 24.0981 97.9222 28.7317C97.6625 29.6122 97.7122 30.0312 98.188 30.4603C98.6638 30.8895 99.1375 31.0457 99.7416 31.2775C100.342 31.4794 100.575 31.3912 100.829 30.7237C101.217 29.6458 101.677 28.4076 102.19 27.1025C103.667 26.5025 105.779 25.8878 107.655 25.3314ZM103.98 22.4897C105.153 19.5889 106.36 16.7144 107.293 14.6007C107.276 16.7575 107.327 19.2399 107.428 21.6255C106.301 21.8502 105.126 22.1717 103.98 22.4897Z" fill="black"/>
<path d="M125.949 11.8415C126.66 11.6965 126.699 11.5098 126.534 10.892C126.37 10.2742 126.012 9.55792 125.552 9.00552C125.307 8.7311 125.046 8.57994 124.358 8.66158C121.582 9.05158 117.149 10.0629 114.411 11.0251C113.946 11.2016 113.781 11.3426 114.001 11.9234C114.218 12.4742 114.638 13.4563 115.095 13.9787C115.551 14.5012 115.828 14.5291 116.439 14.3049C116.873 14.132 117.607 13.9235 118.281 13.7222C117.475 17.672 116.465 23.7401 116.209 26.957C116.129 27.8162 116.242 28.2581 116.827 28.5832C117.412 28.9084 118.136 29.126 118.786 29.231C119.435 29.336 119.631 29.1915 119.736 28.5417C120.495 23.6869 121.664 17.418 122.726 12.5576C123.909 12.2959 125.002 12.0449 125.949 11.8415Z" fill="black"/>
<path d="M128.222 12.2395C127.374 16.3461 126.29 21.7857 126.007 24.5202C125.927 25.3795 126.184 26.0166 126.597 26.4229C127.147 26.9646 127.515 27.2548 127.947 27.5677C128.352 27.9142 128.803 28.1338 129.871 27.6733C131.434 27.0327 133.299 26.3865 134.959 25.7951C135.6 25.5674 135.725 25.3401 135.557 24.6924C135.426 24.101 135.212 23.58 134.898 22.9799C134.621 22.4362 134.215 22.3327 133.563 22.4706C132.287 22.7131 131.228 22.9905 130.029 23.3755C130.195 22.4756 130.414 21.5088 130.634 20.542C132.084 19.9755 133.751 19.4439 135.241 18.9636C135.882 18.7359 136.04 18.535 135.872 17.8873C135.742 17.2958 135.528 16.7749 135.248 16.2012C134.971 15.6574 134.594 15.5504 133.939 15.6584C133.134 15.7842 132.393 15.9328 131.659 16.1413C132.024 14.6109 132.396 13.1405 132.699 11.8602C134.283 11.3991 135.964 10.9873 137.323 10.6744C137.975 10.5364 138.126 10.2757 138.018 9.62086C137.887 9.02942 137.744 8.59116 137.46 7.98754C137.243 7.43667 136.818 7.18355 136.193 7.28802C133.451 7.7044 129.673 8.60769 127.679 9.45118C127.215 9.62769 127.079 9.76515 127.27 10.3495C127.453 10.874 127.826 11.7099 128.222 12.2395Z" fill="black"/>
<path d="M149.906 13.7038C150.095 12.7405 150.197 10.7861 150.036 9.68237C149.878 8.60854 149.573 7.82535 148.769 7.1923C147.932 6.53286 146.518 6.12399 145.363 6.10925C144.511 6.08894 143.381 6.28369 142.535 7.08207C138.466 10.903 136.304 19.5356 137.982 23.7067C138.331 24.6061 139.089 25.3659 139.771 25.7403C140.676 26.2095 141.65 26.4885 142.719 26.5438C143.881 26.6184 144.99 26.2441 145.922 25.4052C147.377 24.1097 148.655 21.8338 149.465 18.9456C149.702 18.1284 149.679 17.6759 149.265 16.9967C149.042 16.6589 148.75 16.2384 148.434 15.8813C147.981 15.3888 147.515 15.2924 146.661 15.515C145.747 15.7448 144.077 16.2464 143.092 16.6364C142.597 16.8165 142.345 16.9981 142.469 17.5297C142.848 19.1843 143.655 19.8473 145.17 19.5764C144.401 21.792 143.223 23.6313 142.309 23.3452C141.205 22.9906 141.221 19.2862 142.103 16.2377C143.135 12.6556 144.924 9.31753 145.858 9.5103C146.324 9.60669 146.259 11.1015 146.353 12.1525C146.487 13.5327 147.262 14.4422 148.966 14.4829C149.606 14.4981 149.79 14.2637 149.906 13.7038Z" fill="black"/>
<path d="M156.632 6.35064C156.044 5.99556 155.056 5.59685 154.373 5.46545C153.689 5.33406 153.315 5.49992 153.13 6.25012C152.257 10.1472 150.771 19.3673 150.458 22.8642C150.381 23.7534 150.517 24.1318 151.102 24.4569C151.653 24.7557 152.411 24.9997 153.06 25.1047C153.71 25.2097 153.935 25.0616 154.037 24.3819C154.746 19.867 156.285 11.6117 157.222 7.73745C157.38 7.02073 157.288 6.75848 156.632 6.35064Z" fill="black"/>
<path d="M167.301 17.7404C166.117 17.4863 165.042 17.887 164.314 18.9141C163.25 20.4363 162.536 21.0673 161.943 20.9253C160.849 20.6604 160.92 17.162 161.675 14.0679C162.366 11.1939 164.315 6.8961 165.225 7.15227C165.916 7.34352 165.6 8.77697 165.751 9.79095C165.977 11.1904 166.608 11.9046 168.207 12.0792C169.007 12.1664 169.117 11.8195 169.24 11.3193C169.515 10.3155 169.642 8.57063 169.53 7.36999C169.436 6.31899 169.187 5.49878 168.257 4.82007C167.427 4.22049 165.822 3.74313 164.521 3.77607C163.643 3.78924 162.62 4.12297 161.623 5.18206C157.859 9.27032 155.839 17.8254 157.616 21.8027C157.992 22.6685 158.829 23.328 159.503 23.6425C160.271 23.9763 161.312 24.308 162.553 24.2822C163.735 24.2634 165.091 23.6776 165.844 22.86C166.541 22.0793 167.374 20.9183 167.808 19.7136C168.199 18.6657 168.267 17.9596 167.301 17.7404Z" fill="black"/>
</svg>
