<svg width="230" height="128" viewBox="0 0 230 128" fill="none" xmlns="http://www.w3.org/2000/svg">
<path d="M37.1059 63.351C38.3415 65.089 40.1334 67.0548 41.2835 67.9009C42.1055 68.5533 42.7718 68.4613 43.2853 68.2432C43.7458 68.0584 43.9913 67.9786 44.4277 67.5429C44.7858 67.171 44.8984 66.8789 44.4043 66.42C43.2249 65.2674 41.5524 63.3745 40.5161 61.955C42.2422 60.8892 43.7267 59.6498 44.7372 58.4558C45.7226 57.2924 46.3243 55.9408 45.9795 54.3987C45.6319 52.8287 44.9171 51.8284 44.168 51.0564C42.2978 49.1543 37.1583 50.9976 34.5739 52.7926C34.0207 53.1832 34.0249 53.5203 34.3426 54.1931C34.5526 54.623 34.8822 55.1258 35.1453 55.5225C34.2482 59.6591 33.239 64.6784 32.9554 67.2934C32.8909 68.0872 32.9841 68.4721 33.5206 68.7863C33.9375 69.0276 34.4858 69.1719 35.0871 69.2829C35.6858 69.3661 35.8702 69.2359 35.9813 68.6346C36.3 66.9725 36.689 65.1631 37.1059 63.351ZM39.294 54.7869C40.9949 53.7517 42.597 53.7387 42.7978 54.3664C43.1064 55.2369 41.2036 57.9791 38.035 59.5489C38.4851 57.7899 38.8901 56.1477 39.294 54.7869Z" fill="black"/>
<path d="M47.949 53.4221C47.0756 57.2189 45.9549 62.2489 45.6354 64.783C45.5431 65.5794 45.7692 66.1766 46.1437 66.5626C46.6432 67.0772 46.9792 67.3544 47.3736 67.6541C47.7428 67.9844 48.1571 68.1978 49.1589 67.7922C50.6239 67.2298 52.3703 66.6684 53.9242 66.1536C54.5241 65.9555 54.6447 65.747 54.5022 65.1418C54.393 64.5897 54.2055 64.1014 53.9264 63.5375C53.6805 63.0266 53.3048 62.922 52.6969 63.0366C51.5065 63.2352 50.5164 63.4708 49.3951 63.8035C49.5684 62.9711 49.7921 62.0776 50.0158 61.1842C51.3746 60.6882 52.9339 60.2291 54.3286 59.8141C54.9285 59.6159 55.0796 59.4326 54.9372 58.8274C54.828 58.2753 54.6405 57.787 54.3919 57.2483C54.146 56.7374 53.7981 56.6302 53.1876 56.7169C52.4378 56.8169 51.7463 56.9395 51.0602 57.1179C51.4309 55.704 51.8069 54.3459 52.1153 53.163C53.5964 52.7678 55.1663 52.4203 56.4351 52.1579C57.0429 52.0433 57.1888 51.8043 57.1021 51.1938C56.9928 50.6417 56.8691 50.2316 56.6179 49.665C56.4277 49.1488 56.0386 48.9049 55.456 48.9889C52.8998 49.3185 49.3723 50.0789 47.5026 50.8208C47.0673 50.9751 46.9386 51.1 47.1036 51.6467C47.2632 52.1377 47.5916 52.9219 47.949 53.4221Z" fill="black"/>
<path d="M55.3115 62.5045C54.8087 62.834 54.7373 63.2628 55.6552 64.328C57.43 66.408 59.302 67.1566 61.1362 66.9244C63.946 66.5986 65.0966 64.5192 65.5948 63.2619C66.6615 60.5998 62.9296 59.5233 61.0766 57.5071C59.3763 55.6168 62.6188 51.5927 63.2362 51.8711C63.5867 52.0062 62.9538 54.2047 62.8271 55.2295C62.6832 56.3684 63.4071 57.171 64.8875 57.6478C65.4105 57.8226 65.6786 57.6844 65.9065 57.1281C66.3822 55.9292 66.8704 53.6883 66.9425 52.3875C66.9539 51.6269 66.9466 50.6712 66.0833 49.8821C65.4949 49.3197 64.43 48.7749 63.506 48.526C62.2953 48.2202 61.2762 48.7399 60.6726 49.1916C59.1019 50.4112 57.5744 52.6674 56.9678 54.554C56.2432 56.6769 56.9214 58.4683 58.0677 59.5678C59.708 61.1263 62.7751 62.6041 62.031 63.3506C61.3931 64.0307 59.7589 63.7093 57.9754 62.4177C57.342 61.9721 56.1328 61.9756 55.3115 62.5045Z" fill="black"/>
<path d="M67.3068 63.407C67.6658 64.2165 68.2011 64.812 68.7681 65.1514C69.4852 65.589 70.4145 65.8936 71.479 65.8477C72.5992 65.7965 73.4247 65.6048 74.2829 64.8755C76.757 62.8098 78.0033 57.0364 79.3106 49.26C79.4163 48.6029 79.3949 48.3799 78.7947 47.9874C78.2556 47.6454 77.4629 47.2995 76.831 47.1632C76.1991 47.0269 75.8196 47.1759 75.6914 47.8914C74.881 52.6385 73.0076 63.3101 71.0508 62.8509C69.4113 62.4738 71.543 54.7871 72.6989 50.71C72.9333 49.9281 72.7935 49.3508 72.1852 48.8747C71.6965 48.4715 71.0234 48.1986 70.4167 48.0318C69.7821 47.8676 69.4278 47.986 69.2411 48.679C67.8111 53.7105 65.9176 60.3618 67.3068 63.407Z" fill="black"/>
<path d="M86.401 63.0097C87.1375 62.7703 87.1493 62.6003 86.979 61.9979C86.8697 61.4458 86.6796 60.9296 86.4031 60.3935C86.1267 59.8575 85.7815 59.7781 85.1737 59.8926C84.0389 60.0859 83.102 60.2883 82.0364 60.6156C82.9334 56.479 84.1088 51.725 84.9852 48.5468C85.1746 47.8817 85.0948 47.6362 84.5224 47.241C83.9501 46.8459 83.0513 46.5664 82.4194 46.4302C81.8153 46.2912 81.461 46.4096 81.2465 47.1053C80.0997 50.9845 78.5744 58.2474 78.0977 61.781C78 62.5218 78.2207 63.0632 78.5952 63.4492C79.1225 63.9611 79.4586 64.2383 79.853 64.538C80.2222 64.8683 80.5277 65.1202 81.6383 64.6761C83.1006 64.0858 84.847 63.5244 86.401 63.0097Z" fill="black"/>
<path d="M100.367 47.7743C101.03 47.6543 101.07 47.4818 100.93 46.9045C100.791 46.3272 100.473 45.6545 100.057 45.1318C99.8353 44.8718 99.5963 44.7259 98.9552 44.7874C96.3684 45.0919 92.2304 45.9389 89.6666 46.7756C89.2314 46.9299 89.0748 47.0574 89.2677 47.6015C89.4578 48.1177 89.8275 49.0386 90.2406 49.5334C90.6538 50.0282 90.91 50.0599 91.4819 49.8644C91.8893 49.7128 92.5754 49.5344 93.2057 49.3614C92.3747 53.0135 91.3101 58.6288 91.0056 61.6115C90.9132 62.408 91.0091 62.8207 91.5456 63.1349C92.082 63.4491 92.7498 63.6664 93.3512 63.7774C93.9525 63.8885 94.1369 63.7583 94.248 63.1569C95.0546 58.6634 96.2703 52.8648 97.3583 48.3723C98.4624 48.1539 99.483 47.9435 100.367 47.7743Z" fill="black"/>
<path d="M99.1087 58.3026C98.6059 58.6321 98.5345 59.0609 99.4524 60.1261C101.227 62.2061 103.099 62.9547 104.933 62.7225C107.743 62.3967 108.894 60.3173 109.392 59.0599C110.459 56.3979 106.727 55.3214 104.874 53.3051C103.173 51.4149 106.416 47.3908 107.033 47.6691C107.384 47.8043 106.751 50.0028 106.624 51.0275C106.48 52.1665 107.204 52.969 108.685 53.4458C109.208 53.6207 109.476 53.4824 109.704 52.9261C110.179 51.7272 110.668 49.4864 110.74 48.1855C110.751 47.425 110.744 46.4693 109.88 45.6801C109.292 45.1178 108.227 44.573 107.303 44.3241C106.092 44.0183 105.073 44.538 104.47 44.9897C102.899 46.2093 101.372 48.4655 100.765 50.352C100.04 52.4749 100.719 54.2664 101.865 55.3659C103.505 56.9244 106.572 58.4022 105.828 59.1487C105.19 59.8287 103.556 59.5073 101.773 58.2157C101.139 57.7702 99.9299 57.7737 99.1087 58.3026Z" fill="black"/>
<path d="M128.101 45.9392C128.37 45.2082 128.39 44.8668 128.008 44.4332C127.656 44.023 127.238 43.7497 126.716 43.4863C126.195 43.2229 125.915 43.3019 125.654 43.8494C124.605 45.9873 123.445 48.3188 122.272 50.5209C121.817 48.5011 121.317 46.5639 120.934 45.2947C120.71 44.5849 120.473 44.2942 119.917 44.217C119.361 44.1397 118.716 44.2276 118.154 44.3599C117.618 44.4897 117.506 44.6833 117.639 45.2452C118.273 47.7702 119.2 51.4425 119.883 54.4851C119.563 56.3181 119.282 58.0167 119.135 59.2062C119.026 59.9741 119.161 60.3006 119.636 60.6207C120.111 60.9409 120.757 61.1401 121.289 61.2457C121.848 61.3489 122.047 61.2513 122.148 60.6671C122.441 59.0979 122.793 57.3142 123.193 55.4996C125.13 51.9967 127.39 47.7836 128.101 45.9392Z" fill="black"/>
<path d="M137.18 43.7622C136.527 43.2241 135.37 42.865 134.268 42.814C133.427 42.764 132.292 43.1863 131.601 43.8795C128.289 47.201 126.669 53.9908 128.136 57.5851C128.446 58.365 129.083 59.0092 129.635 59.3219C130.353 59.7232 131.366 59.9394 132.204 59.9635C133.487 59.9971 134.524 59.6365 135.415 58.5845C138.064 55.4311 138.972 49.65 138.453 46.1475C138.307 45.169 137.946 44.394 137.18 43.7622ZM134.73 45.7212C135.583 45.9005 135.353 49.5009 134.78 51.9589C134.04 55.1381 132.781 57.5313 131.812 57.2325C130.817 56.9361 130.993 53.602 131.668 51.1082C132.34 48.5884 133.902 45.5393 134.73 45.7212Z" fill="black"/>
<path d="M139.433 56.658C139.766 57.4096 140.263 57.9627 140.79 58.2778C141.455 58.6841 142.318 58.967 143.307 58.9244C144.347 58.8768 145.114 58.6988 145.911 58.0216C148.208 56.1034 149.365 50.7424 150.579 43.5215C150.677 42.9113 150.657 42.7042 150.1 42.3398C149.599 42.0222 148.863 41.701 148.277 41.5744C147.69 41.4479 147.337 41.5862 147.218 42.2506C146.466 46.6586 144.726 56.568 142.909 56.1416C141.387 55.7914 143.366 48.6538 144.44 44.8679C144.657 44.1418 144.527 43.6058 143.963 43.1637C143.509 42.7893 142.884 42.5359 142.32 42.381C141.731 42.2285 141.402 42.3385 141.229 42.982C139.901 47.6541 138.143 53.8303 139.433 56.658Z" fill="black"/>
<path d="M164.461 51.9844C163.445 51.7423 162.51 52.0671 161.862 52.939C160.915 54.2313 160.287 54.7617 159.778 54.6277C158.84 54.3782 158.968 51.3621 159.68 48.708C160.331 46.2425 162.095 42.5733 162.875 42.8119C163.467 42.9902 163.167 44.2204 163.278 45.0979C163.446 46.3094 163.977 46.9376 165.352 47.119C166.04 47.2098 166.142 46.9127 166.258 46.4837C166.515 45.6232 166.658 44.1206 166.584 43.0829C166.523 42.1746 166.324 41.4623 165.535 40.859C164.831 40.3258 163.456 39.883 162.334 39.8863C161.576 39.8806 160.687 40.1487 159.807 41.0429C156.481 44.4963 154.573 51.836 156.029 55.3008C156.336 56.0549 157.045 56.6399 157.621 56.9242C158.277 57.2269 159.168 57.5332 160.24 57.5349C161.259 57.5416 162.44 57.0626 163.106 56.3719C163.721 55.7121 164.463 54.7268 164.86 53.6961C165.218 52.7998 165.29 52.1921 164.461 51.9844Z" fill="black"/>
<path d="M174.072 51.5063C174.127 52.6242 174.17 53.6126 174.249 54.4408C174.324 55.2173 174.509 55.5129 175.046 55.6703C175.584 55.8277 176.104 55.8039 176.673 55.7493C177.243 55.6947 177.383 55.5245 177.352 54.9267C177.229 50.1065 177.226 43.812 177.379 40.5063C177.42 39.8493 177.303 39.4426 176.659 39.2693C175.778 39.0666 174.917 38.8096 173.303 38.86C172.364 38.8717 171.914 39.3589 171.609 39.9889C169.791 43.6372 166.955 50.2825 165.612 54.2509C165.37 55.0053 165.405 55.3677 165.807 55.747C166.209 56.1263 166.615 56.2703 167.132 56.4819C167.646 56.6677 167.848 56.596 168.08 56.0252C168.436 55.103 168.857 54.044 169.324 52.9283C170.609 52.4393 172.443 51.9499 174.072 51.5063ZM170.957 48.9843C172.025 46.505 173.122 44.049 173.967 42.244C173.91 44.1039 173.907 46.246 173.948 48.3056C172.972 48.4776 171.951 48.7322 170.957 48.9843Z" fill="black"/>
<path d="M185.57 47.6085C185.166 45.0352 184.736 41.916 184.579 40.5468C184.471 39.6952 184.279 39.3219 183.656 39.0943C182.92 38.7731 182.196 38.5814 181.504 38.4389C180.945 38.3357 180.518 38.5074 180.347 39.1767C179.447 42.8675 177.929 51.0057 177.654 53.3045C177.568 54.0441 177.654 54.4014 178.127 54.6957C178.601 55.0158 179.273 55.2125 179.832 55.3157C180.393 55.4447 180.59 55.3213 180.664 54.7395C181.012 52.6428 181.789 49.042 182.411 45.7175C182.85 48.3918 183.46 51.2064 184.043 52.9266C184.229 53.5095 184.585 53.9455 185.073 54.1338C185.563 54.3479 186.129 54.5287 186.685 54.6059C187.244 54.7091 187.638 54.4623 187.713 53.8805C188.42 49.8164 189.68 43.3485 190.507 39.7169C190.657 39.1018 190.643 38.6852 190.065 38.375C189.321 37.9762 189.026 37.9 188.44 37.7734C187.853 37.6469 187.503 37.811 187.356 38.4521C186.779 40.8842 186.064 44.3222 185.57 47.6085Z" fill="black"/>
<path d="M63.2105 83.7874C63.9428 83.2108 64.5636 82.6449 65.0729 82.0898C66.0411 81.0405 66.8299 79.5865 66.5766 78.12C66.3368 76.7929 65.7442 75.8933 64.995 75.1214C63.1939 73.3533 57.972 74.9232 55.3544 76.6651C54.7706 77.0305 54.7775 77.3955 55.0952 78.0683C55.3026 78.4703 55.571 78.9227 55.8009 79.2664C55.0599 82.6847 54.0675 86.9993 53.6911 89.8201C53.5446 90.9312 53.6549 91.2019 54.3655 91.865C55.0734 92.5003 55.4705 92.8279 56.2181 93.2906C56.9379 93.756 57.3029 93.7491 58.2742 93.3184C59.9793 92.6204 62.443 91.0338 63.711 89.5901C64.6009 88.6046 65.0476 87.6898 64.894 86.3825C64.7619 85.2981 64.128 84.2619 63.2105 83.7874ZM58.6929 82.73C59.0357 81.3188 59.3613 80.0218 59.6472 78.8973C61.5577 77.7014 63.0682 77.6128 63.2106 78.2179C63.4275 79.0128 61.624 81.3236 58.6929 82.73ZM57.8538 86.2984C59.7327 85.3587 61.108 85.6206 61.2199 86.2005C61.4276 87.1932 59.6687 88.7965 57.1011 89.8867C57.3259 88.7119 57.6038 87.5038 57.8538 86.2984Z" fill="black"/>
<path d="M68.0718 77.6109C67.1984 81.4077 66.0777 86.4377 65.7582 88.9718C65.6658 89.7682 65.8919 90.3654 66.2665 90.7514C66.7659 91.266 67.1019 91.5432 67.4963 91.8429C67.8656 92.1732 68.2798 92.3866 69.2817 91.981C70.7467 91.4185 72.493 90.8572 74.047 90.3424C74.6468 90.1443 74.7674 89.9358 74.625 89.3306C74.5158 88.7785 74.3283 88.2902 74.0492 87.7263C73.8032 87.2154 73.4275 87.1108 72.8197 87.2254C71.6292 87.424 70.6392 87.6596 69.5178 87.9922C69.6911 87.1599 69.9148 86.2664 70.1385 85.373C71.4974 84.877 73.0567 84.4179 74.4514 84.0028C75.0512 83.8047 75.2024 83.6214 75.06 83.0162C74.9507 82.4641 74.7632 81.9758 74.5146 81.4371C74.2687 80.9262 73.9209 80.819 73.3104 80.9057C72.5605 81.0057 71.8691 81.1283 71.183 81.3067C71.5536 79.8928 71.9296 78.5347 72.2381 77.3518C73.7191 76.9566 75.2891 76.609 76.5578 76.3467C77.1657 76.2321 77.3115 75.9931 77.2248 75.3826C77.1156 74.8305 76.9919 74.4204 76.7406 73.8538C76.5504 73.3376 76.1614 73.0937 75.5787 73.1777C73.0225 73.5073 69.495 74.2677 67.6253 75.0096C67.1901 75.1639 67.0614 75.2888 67.2264 75.8355C67.386 76.3265 67.7144 77.1107 68.0718 77.6109Z" fill="black"/>
<path d="M87.2184 84.5002C90.0621 83.3554 93.2608 81.2201 94.754 79.1922C95.6783 77.9784 96.3689 76.6745 96.0241 75.1324C95.6765 73.5624 94.9617 72.5621 94.2126 71.7901C92.3424 69.888 87.2029 71.7313 84.6185 73.5263C84.0653 73.9169 84.0417 74.2567 84.3872 74.9268C84.5999 75.3846 84.9294 75.8874 85.162 76.2589C84.2928 80.3928 83.2836 85.4121 83 88.0272C82.9076 88.8236 83.0287 89.2058 83.5373 89.5227C84.0153 89.8144 84.7389 90.0262 85.2845 90.1427C85.8832 90.2259 86.0676 90.0957 86.2065 89.4916C86.4775 87.9185 86.8493 86.2233 87.2184 84.5002ZM88.146 80.3888C88.5682 78.6324 88.9733 76.9903 89.3466 75.6043C91.025 74.6275 92.6442 74.5003 92.7867 75.1054C93.0887 76.2016 91.454 78.8056 88.146 80.3888Z" fill="black"/>
<path d="M99.7397 82.8769C100.975 84.6149 102.767 86.5807 103.917 87.4268C104.739 88.0792 105.406 87.9872 105.919 87.7691C106.38 87.5843 106.625 87.5045 107.061 87.0688C107.42 86.6969 107.532 86.4049 107.038 85.9459C105.859 84.7933 104.186 82.9004 103.15 81.4809C104.876 80.4152 106.36 79.1757 107.371 77.9818C108.356 76.8183 108.958 75.4667 108.613 73.9246C108.266 72.3546 107.551 71.3543 106.802 70.5823C104.932 68.6802 99.7921 70.5235 97.2078 72.3185C96.6545 72.7091 96.6588 73.0462 96.9765 73.719C97.1865 74.1489 97.516 74.6517 97.7791 75.0484C96.882 79.185 95.8728 84.2043 95.5892 86.8193C95.5247 87.6131 95.6179 87.998 96.1544 88.3122C96.5713 88.5535 97.1196 88.6978 97.721 88.8088C98.3197 88.892 98.5041 88.7618 98.6151 88.1605C98.9339 86.4985 99.3228 84.689 99.7397 82.8769ZM101.928 74.3128C103.629 73.2777 105.231 73.2646 105.432 73.8923C105.74 74.7628 103.837 77.505 100.669 79.0748C101.119 77.3158 101.524 75.6736 101.928 74.3128Z" fill="black"/>
<path d="M119.062 69.8561C118.36 69.2765 117.113 68.8898 115.926 68.8349C115.021 68.7811 113.799 69.2359 113.055 69.9824C109.488 73.5593 107.743 80.8715 109.323 84.7422C109.657 85.5822 110.343 86.2759 110.937 86.6126C111.71 87.0448 112.802 87.2776 113.704 87.3035C115.086 87.3397 116.202 86.9514 117.162 85.8185C120.015 82.4225 120.993 76.1967 120.434 72.4248C120.277 71.371 119.887 70.5364 119.062 69.8561ZM116.424 71.9657C117.342 72.1589 117.096 76.0361 116.478 78.6833C115.681 82.107 114.325 84.6843 113.281 84.3625C112.21 84.0433 112.4 80.4528 113.127 77.7671C113.851 75.0535 115.533 71.7699 116.424 71.9657Z" fill="black"/>
<path d="M121.489 83.7438C121.848 84.5532 122.383 85.1488 122.95 85.4882C123.667 85.9258 124.596 86.2304 125.661 86.1845C126.781 86.1333 127.607 85.9416 128.465 85.2123C130.939 83.1466 132.185 77.3732 133.492 69.5968C133.598 68.9397 133.577 68.7167 132.977 68.3242C132.437 67.9822 131.645 67.6363 131.013 67.5C130.381 67.3637 130.001 67.5127 129.873 68.2282C129.063 72.9753 127.189 83.6469 125.233 83.1877C123.593 82.8106 125.725 75.1239 126.881 71.0468C127.115 70.2649 126.975 69.6876 126.367 69.2115C125.878 68.8083 125.205 68.5354 124.599 68.3686C123.964 68.2044 123.61 68.3228 123.423 69.0158C121.993 74.0474 120.099 80.6986 121.489 83.7438Z" fill="black"/>
<path d="M134.921 70.9505C134.178 74.341 133.364 78.4696 132.859 81.4153C132.608 82.9021 132.921 83.2377 133.535 83.7695C134.149 84.3013 134.604 84.6514 135.265 85.0943C135.952 85.5066 136.54 85.4783 137.238 85.1301C144.736 81.4853 147.03 73.7268 145.054 69.5564C142.83 64.8473 136.959 66.395 134.378 68.2179C133.797 68.6112 133.803 68.9762 134.146 69.6184C134.359 70.0762 134.689 70.579 134.921 70.9505ZM136.436 81.4659C137.145 77.713 137.963 73.9216 138.871 70.4872C140.269 69.8186 141.357 70.305 141.744 71.1117C142.495 72.7836 141.559 78.2741 136.436 81.4659Z" fill="black"/>
<path d="M162.739 66.915C162.036 66.3355 160.79 65.9487 159.603 65.8938C158.698 65.84 157.476 66.2948 156.731 67.0413C153.165 70.6183 151.419 77.9304 153 81.8011C153.334 82.6411 154.019 83.3348 154.614 83.6715C155.387 84.1037 156.478 84.3366 157.381 84.3625C158.762 84.3987 159.878 84.0103 160.839 82.8774C163.691 79.4815 164.669 73.2556 164.11 69.4838C163.953 68.43 163.564 67.5954 162.739 66.915ZM160.1 69.0246C161.019 69.2178 160.772 73.0951 160.154 75.7422C159.357 79.1659 158.001 81.7432 156.958 81.4214C155.886 81.1023 156.076 77.5117 156.803 74.826C157.527 72.1125 159.21 68.8288 160.1 69.0246Z" fill="black"/>
<path d="M175.062 67.5611C175.667 67.4186 175.79 67.238 175.704 66.6275C175.622 66.0728 175.465 65.6096 175.158 65.0484C174.818 64.4341 174.526 64.3215 173.915 64.4082C171.362 64.7657 167.999 65.4821 166.157 66.2214C165.752 66.4009 165.565 66.5032 165.758 67.0473C165.91 67.4546 166.21 68.2415 166.57 68.7696C165.52 73.0615 164.317 78.9995 164.118 81.3251C164.054 82.1189 164.119 82.5065 164.656 82.8207C165.162 83.1097 165.854 83.2963 166.456 83.4074C167.057 83.5185 167.353 83.3776 167.489 82.7457C167.831 81.0252 168.316 78.7565 168.83 76.4851C170.135 76.0223 171.611 75.5713 172.925 75.1921C173.555 75.0191 173.676 74.8106 173.533 74.2054C173.399 73.6839 173.265 73.1623 172.988 72.6263C172.781 72.2243 172.394 72.0082 171.784 72.0949C171.09 72.1896 170.401 72.3401 169.74 72.4879C170.105 71.0182 170.426 69.6655 170.717 68.5968C172.201 68.2294 173.74 67.8567 175.062 67.5611Z" fill="black"/>
<path d="M93 19.5L96 3" stroke="#FF766A" stroke-width="2" stroke-linecap="round"/>
<path d="M140 20L144 3" stroke="#FF766A" stroke-width="2" stroke-linecap="round"/>
<path d="M178 15L187 1" stroke="#FF766A" stroke-width="2" stroke-linecap="round"/>
<path d="M211 33.5L224.5 28" stroke="#FF766A" stroke-width="2" stroke-linecap="round"/>
<path d="M206 68L221.5 70.5" stroke="#FF766A" stroke-width="2" stroke-linecap="round"/>
<path d="M192 95L206.5 106" stroke="#FF766A" stroke-width="2" stroke-linecap="round"/>
<path d="M165 107L168.5 121.5" stroke="#FF766A" stroke-width="2" stroke-linecap="round"/>
<path d="M138 107L141 126" stroke="#FF766A" stroke-width="2" stroke-linecap="round"/>
<path d="M113 111V126" stroke="#FF766A" stroke-width="2" stroke-linecap="round"/>
<path d="M79.5 112L76 126.5" stroke="#FF766A" stroke-width="2" stroke-linecap="round"/>
<path d="M47.5 108L40 117" stroke="#FF766A" stroke-width="2" stroke-linecap="round"/>
<path d="M33 89L20 95.5" stroke="#FF766A" stroke-width="2" stroke-linecap="round"/>
<path d="M19.5 58H4" stroke="#FF766A" stroke-width="2" stroke-linecap="round"/>
<path d="M29 32.5L16 21" stroke="#FF766A" stroke-width="2" stroke-linecap="round"/>
<path d="M55.5 22.5L50 11" stroke="#FF766A" stroke-width="2" stroke-linecap="round"/>
</svg>
