<svg width="11" height="10" viewBox="0 0 11 10" fill="none" xmlns="http://www.w3.org/2000/svg">
<path d="M2.77472 4.5408C5.20071 4.02676 7.72637 3.67194 10.2707 3.51221C10.803 3.48928 10.9569 3.33387 10.8503 2.80965C10.7544 2.39692 10.6002 1.96166 10.3848 1.47601C10.2027 1.04343 9.87468 0.849869 9.33976 0.844932C7.14435 0.830532 3.91387 1.1686 1.60204 1.69981C1.16143 1.79834 0.823162 2.08395 0.990805 2.65856C1.11988 3.12437 1.37381 3.71883 1.60635 4.09032C1.90534 4.56795 2.19475 4.6527 2.77472 4.5408ZM2.42637 9.41234C4.80577 8.70587 7.28751 8.18648 9.81585 7.85953C10.3427 7.78085 10.4939 7.59757 10.3343 7.10657C10.2106 6.69651 10.0563 6.26126 9.78787 5.80883C9.57785 5.37892 9.24987 5.18536 8.7203 5.23616C6.51306 5.39167 3.30665 5.98058 1.03606 6.64848C0.598127 6.77488 0.293078 7.11356 0.513791 7.65496C0.695936 8.08754 0.977741 8.67933 1.23815 9.04815C1.53446 9.49791 1.85175 9.57998 2.42637 9.41234Z" fill="black"/>
</svg>
