<svg width="230" height="130" viewBox="0 0 230 130" fill="none" xmlns="http://www.w3.org/2000/svg">
<path d="M167.128 33.7605C158.718 32.5172 150.745 29.2111 142.554 27.1331C125.023 22.6852 105.298 20.4295 87.5529 22.974C66.8537 25.942 46.4063 34.7013 33.5613 48.0066C21.1314 60.882 19.1404 80.4181 32.9623 94.3566C48.8502 110.378 78.1255 116.119 101.567 114.098C119.841 112.522 137.526 106.307 153.755 100.12C170.132 93.8757 187.282 85.8987 199.062 74.6175C210.194 63.9568 208.01 50.9721 196.731 40.2105C182.35 26.4884 162.457 19.7135 141.86 15.3324" stroke="#FF766A" stroke-width="2.00896" stroke-linecap="round"/>
<g style="mix-blend-mode:multiply">
<path d="M70.9729 57.3813C71.8143 57.1078 71.8278 56.9137 71.6332 56.2254C71.5084 55.5947 71.2912 55.005 70.9753 54.3926C70.6595 53.7803 70.2652 53.6895 69.5708 53.8204C68.2745 54.0412 67.2041 54.2724 65.9868 54.6463C67.0116 49.9207 68.3543 44.4897 69.3556 40.8589C69.5719 40.0991 69.4807 39.8186 68.8268 39.3672C68.173 38.9158 67.1462 38.5966 66.4243 38.4409C65.7343 38.2821 65.3295 38.4174 65.0844 39.2121C63.7743 43.6438 62.0318 51.9409 61.4872 55.9777C61.3756 56.8239 61.6277 57.4424 62.0556 57.8834C62.658 58.4683 63.0419 58.7849 63.4925 59.1273C63.9143 59.5046 64.2632 59.7924 65.5321 59.2851C67.2026 58.6107 69.1977 57.9694 70.9729 57.3813Z" fill="black"/>
<path d="M76.1688 41.7156C75.1711 46.053 73.8907 51.7993 73.5258 54.6942C73.4203 55.6041 73.6785 56.2863 74.1065 56.7272C74.677 57.3152 75.0609 57.6318 75.5115 57.9742C75.9333 58.3515 76.4065 58.5953 77.551 58.132C79.2246 57.4894 81.2197 56.8481 82.9949 56.2601C83.6801 56.0337 83.818 55.7955 83.6552 55.1042C83.5304 54.4735 83.3163 53.9156 82.9974 53.2714C82.7164 52.6878 82.2872 52.5683 81.5928 52.6992C80.2328 52.926 79.1018 53.1952 77.8208 53.5752C78.0188 52.6243 78.2743 51.6036 78.5299 50.583C80.0822 50.0163 81.8636 49.4919 83.4569 49.0177C84.1421 48.7913 84.3148 48.5819 84.1521 47.8906C84.0273 47.2599 83.8131 46.702 83.5292 46.0866C83.2482 45.503 82.8509 45.3804 82.1534 45.4795C81.2968 45.5938 80.5068 45.7339 79.723 45.9376C80.1465 44.3224 80.5761 42.7709 80.9284 41.4196C82.6203 40.9681 84.4139 40.571 85.8633 40.2713C86.5577 40.1404 86.7243 39.8674 86.6253 39.1699C86.5005 38.5392 86.3591 38.0708 86.0721 37.4235C85.8548 36.8338 85.4104 36.5551 84.7448 36.6511C81.8245 37.0276 77.7947 37.8963 75.6588 38.7439C75.1616 38.9201 75.0146 39.0628 75.203 39.6874C75.3854 40.2483 75.7605 41.1442 76.1688 41.7156Z" fill="black"/>
<path d="M95.9561 51.0962C96.0238 52.4715 96.0762 53.6875 96.174 54.7065C96.2656 55.6617 96.4933 56.0255 97.1546 56.2191C97.8158 56.4127 98.4557 56.3835 99.1562 56.3163C99.8567 56.249 100.029 56.0397 99.991 55.3043C99.8398 49.374 99.8359 41.63 100.024 37.5631C100.075 36.7548 99.9307 36.2545 99.1391 36.0413C98.0547 35.7919 96.9961 35.4757 95.0097 35.5377C93.8543 35.5522 93.3012 36.1515 92.9257 36.9266C90.6892 41.415 87.1997 49.5905 85.5473 54.4728C85.2507 55.401 85.2935 55.8467 85.7882 56.3134C86.2828 56.7801 86.7818 56.9572 87.4173 57.2175C88.0498 57.4461 88.2984 57.358 88.5845 56.6557C89.022 55.5212 89.5396 54.2183 90.1149 52.8456C91.696 52.244 93.9519 51.642 95.9561 51.0962ZM92.1237 47.9934C93.4377 44.9431 94.7867 41.9217 95.8269 39.701C95.7572 41.9892 95.753 44.6246 95.8033 47.1584C94.6025 47.37 93.3472 47.6832 92.1237 47.9934Z" fill="black"/>
<path d="M104.266 39.4055C103.417 43.2788 102.488 47.9953 101.911 51.3604C101.624 53.0589 101.982 53.4423 102.683 54.0499C103.384 54.6574 103.904 55.0574 104.66 55.5633C105.444 56.0343 106.116 56.002 106.913 55.6042C115.479 51.4404 118.099 42.5771 115.842 37.8128C113.302 32.4331 106.595 34.2013 103.646 36.2838C102.982 36.7331 102.99 37.15 103.381 37.8837C103.624 38.4066 104.001 38.9811 104.266 39.4055ZM105.997 51.4182C106.807 47.131 107.741 42.7996 108.779 38.8762C110.376 38.1123 111.619 38.668 112.06 39.5896C112.919 41.4996 111.849 47.7719 105.997 51.4182Z" fill="black"/>
<path d="M130.456 45.9546C130.793 42.0983 131.339 37.0652 131.459 35.6398C131.545 34.8603 131.543 33.8322 130.828 33.4188C130.184 33.0629 129.493 32.9041 128.615 32.7956C127.9 32.7036 127.603 32.957 127.523 33.8001C127 38.7347 126.575 47.0339 126.73 51.325C126.758 52.2864 126.928 52.7199 127.592 52.9454C128.291 53.1997 129.115 53.4098 129.961 53.5215C130.61 53.5877 130.989 53.5192 131.33 52.7153C132.108 50.7769 133.728 46.894 135.071 43.8088C135.065 46.0909 135.247 48.9976 135.385 50.4304C135.423 51.1658 135.742 51.81 136.508 52.09C137.337 52.3639 137.703 52.4895 138.711 52.6177C139.624 52.7551 140.055 52.5531 140.332 51.7553C141.824 47.2098 145.041 38.5462 146.746 34.2053C147.026 33.4393 147.08 32.6629 146.484 32.1417C145.928 31.713 145.385 31.4116 144.785 31.18C144.053 30.9288 143.764 30.9245 143.369 31.83C142.498 33.8094 140.114 40.1115 138.366 45.0029C138.646 41.2164 138.998 36.8445 139.027 35.8134C139.072 34.9415 139.042 34.6231 138.342 34.3688C137.678 34.1434 137.275 33.9571 136.591 33.8621C135.907 33.767 135.569 33.928 135.276 34.5666C134.436 36.1896 132.084 41.8139 130.456 45.9546Z" fill="black"/>
<path d="M152.855 31.6911C152.239 31.3003 151.2 30.8537 150.478 30.698C149.756 30.5424 149.355 30.7094 149.141 31.5011C148.122 35.6156 146.326 45.3639 145.91 49.0671C145.808 50.0088 145.943 50.4136 146.556 50.7725C147.134 51.1027 147.932 51.3796 148.619 51.5065C149.306 51.6334 149.548 51.4816 149.672 50.7628C150.531 45.9888 152.362 37.2655 153.447 33.1767C153.632 32.4199 153.541 32.1395 152.855 31.6911Z" fill="black"/>
<path d="M167.561 32.2404C168.319 32.1034 168.365 31.9062 168.205 31.2467C168.045 30.5872 167.682 29.8187 167.207 29.2216C166.954 28.9246 166.681 28.758 165.948 28.8282C162.993 29.176 158.266 30.1437 155.337 31.0995C154.84 31.2757 154.661 31.4214 154.881 32.043C155.099 32.6327 155.521 33.6847 155.993 34.25C156.465 34.8153 156.758 34.8514 157.411 34.6281C157.876 34.4549 158.66 34.2512 159.38 34.0535C158.431 38.2257 157.215 44.6406 156.867 48.0481C156.761 48.9579 156.871 49.4294 157.484 49.7884C158.096 50.1473 158.859 50.3955 159.546 50.5224C160.233 50.6493 160.444 50.5005 160.571 49.8135C161.492 44.6801 162.881 38.0558 164.124 32.9236C165.385 32.674 166.551 32.4336 167.561 32.2404Z" fill="black"/>
<path d="M182.748 29.98C182.932 29.2232 182.803 28.8821 182.187 28.4913C181.502 28.043 180.634 27.7085 179.944 27.5497C179.222 27.394 178.811 27.4656 178.607 28.3528C178.031 30.7217 177.324 34.0673 176.674 37.343C175.661 37.5044 174.591 37.7357 173.489 37.9699C174.066 35.2796 174.662 32.7802 175.111 31.0983C175.295 30.3415 175.204 30.061 174.519 29.6127C173.903 29.2219 172.867 28.8071 172.142 28.6196C171.449 28.429 171.076 28.5612 170.837 29.4196C170.249 31.6612 169.469 35.5921 168.795 39.2879C168.578 39.3729 168.362 39.458 168.145 39.5431C167.651 39.7512 167.472 39.8969 167.724 40.5153C167.85 40.8246 168.067 41.4143 168.339 41.9024C167.99 43.9603 167.715 45.7861 167.574 46.9887C167.471 47.9304 167.607 48.3352 168.219 48.6941C168.797 49.0243 169.627 49.2982 170.282 49.4281C170.969 49.555 171.212 49.4032 171.335 48.6844C171.651 46.951 172.08 44.7247 172.561 42.3649C173.654 42.0351 174.814 41.7311 175.91 41.4331C175.577 43.3288 175.294 45.0591 175.158 46.3253C175.056 47.267 175.188 47.64 175.772 48.0338C176.356 48.4277 177.113 48.6121 177.8 48.739C178.487 48.8659 178.697 48.7172 178.821 47.9983C179.933 42.1718 181.6 34.4282 182.748 29.98Z" fill="black"/>
</g>
<g style="mix-blend-mode:multiply">
<path d="M55.7635 73.9533C54.823 78.2417 53.7942 83.4635 53.1554 87.1892C52.8378 89.0696 53.2343 89.4941 54.0104 90.1668C54.7864 90.8394 55.3626 91.2822 56.199 91.8424C57.0673 92.3639 57.811 92.3281 58.6937 91.8876C68.1774 87.2778 71.0783 77.4648 68.5799 72.1901C65.7671 66.234 58.3415 68.1916 55.0761 70.4972C54.3412 70.9946 54.3499 71.4563 54.7836 72.2685C55.0526 72.8475 55.4694 73.4835 55.7635 73.9533ZM57.6799 87.2532C58.5764 82.5066 59.6106 77.7112 60.7592 73.3673C62.5281 72.5216 63.9034 73.1368 64.3927 74.1572C65.3427 76.2718 64.1589 83.2162 57.6799 87.2532Z" fill="black"/>
<path d="M77.4136 68.4964C76.7317 68.0637 75.5814 67.5693 74.7821 67.3969C73.9829 67.2246 73.5382 67.4096 73.3021 68.2861C72.1737 72.8414 70.1851 83.6342 69.7246 87.7341C69.6112 88.7767 69.7609 89.2249 70.4394 89.6223C71.0793 89.9878 71.9626 90.2944 72.7232 90.4349C73.4838 90.5754 73.7523 90.4073 73.8894 89.6115C74.8409 84.3259 76.8672 74.6681 78.0695 70.1412C78.2737 69.3033 78.1728 68.9928 77.4136 68.4964Z" fill="black"/>
<path d="M76.8269 83.8864C76.1909 84.3032 76.1007 84.8455 77.2617 86.1927C79.5064 88.8235 81.8741 89.7704 84.1941 89.4767C87.7478 89.0646 89.2032 86.4346 89.8333 84.8443C91.1824 81.4774 86.4623 80.1158 84.1186 77.5656C81.9681 75.1748 86.0692 70.0852 86.8501 70.4372C87.2934 70.6081 86.4929 73.3888 86.3326 74.6849C86.1506 76.1255 87.0663 77.1405 88.9386 77.7436C89.6002 77.9647 89.9392 77.7899 90.2274 77.0863C90.8291 75.5699 91.4466 72.7357 91.5378 71.0904C91.5522 70.1284 91.543 68.9197 90.4511 67.9215C89.7068 67.2102 88.36 66.5212 87.1913 66.2064C85.66 65.8197 84.3711 66.477 83.6076 67.0483C81.621 68.5908 79.689 71.4444 78.9218 73.8306C78.0054 76.5156 78.8631 78.7814 80.3129 80.1721C82.3876 82.1433 86.2669 84.0124 85.3258 84.9566C84.5189 85.8167 82.452 85.4102 80.1962 83.7766C79.395 83.2131 77.8656 83.2175 76.8269 83.8864Z" fill="black"/>
<path d="M103.796 80.8009C102.412 80.4711 101.138 80.9135 100.256 82.101C98.9665 83.8613 98.1108 84.5838 97.4173 84.4013C96.1395 84.0614 96.3146 79.9532 97.2841 76.3381C98.1715 72.9799 100.574 67.9821 101.637 68.307C102.443 68.5499 102.034 70.2256 102.184 71.4208C102.414 73.0709 103.136 73.9266 105.01 74.1738C105.947 74.2974 106.086 73.8927 106.243 73.3083C106.594 72.1363 106.789 70.0897 106.688 68.6762C106.605 67.439 106.334 66.4688 105.259 65.647C104.3 64.9207 102.428 64.3176 100.899 64.3221C99.8661 64.3144 98.656 64.6795 97.4565 65.8975C92.927 70.6013 90.3284 80.5987 92.311 85.3181C92.7298 86.3453 93.6956 87.142 94.4799 87.5293C95.3733 87.9416 96.5874 88.3588 98.0463 88.3612C99.4347 88.3703 101.044 87.7178 101.95 86.777C102.789 85.8783 103.799 84.5362 104.34 83.1323C104.828 81.9115 104.926 81.0838 103.796 80.8009Z" fill="black"/>
<path d="M120.327 64.4505C119.438 63.7174 117.861 63.2283 116.36 63.1589C115.215 63.0908 113.67 63.6661 112.728 64.6102C108.217 69.1344 106.009 78.3827 108.009 83.2784C108.431 84.3408 109.298 85.2182 110.05 85.6441C111.028 86.1907 112.408 86.4852 113.549 86.518C115.297 86.5638 116.709 86.0726 117.923 84.6397C121.531 80.3445 122.768 72.4701 122.061 67.6994C121.862 66.3666 121.37 65.311 120.327 64.4505ZM116.989 67.1187C118.151 67.363 117.839 72.267 117.057 75.6151C116.05 79.9454 114.335 83.2052 113.015 82.7982C111.66 82.3945 111.9 77.8532 112.819 74.4563C113.735 71.0242 115.863 66.871 116.989 67.1187Z" fill="black"/>
<path d="M140.121 64.2591C140.378 63.2382 140.331 62.7447 139.748 62.2314C139.165 61.718 138.494 61.3911 137.793 61.1381C137.093 60.8851 136.543 61.0803 136.293 61.8157C134.532 66.8232 132.439 72.823 130.427 78.1747C130.029 72.912 129.81 67.6675 129.586 64.5938C129.52 63.5328 129.072 62.9355 128.192 62.6641C127.46 62.4498 126.847 62.3662 126.036 62.444C125.26 62.5184 125.111 62.8174 125.118 63.6349C125.24 70.0983 125.557 76.365 126.274 81.2414C126.394 82.1194 126.907 83.3865 127.993 83.9582C129.003 84.4662 129.893 84.8433 130.949 85.0977C132.005 85.3522 132.549 85.0866 133.015 84.0101C135.125 78.9336 138.972 68.603 140.121 64.2591Z" fill="black"/>
<path d="M142.341 65.2201C141.236 70.0223 139.819 76.3842 139.415 79.5893C139.298 80.5967 139.584 81.352 140.058 81.8402C140.689 82.4911 141.114 82.8417 141.613 83.2207C142.08 83.6384 142.604 83.9084 143.871 83.3954C145.724 82.684 147.933 81.974 149.899 81.323C150.657 81.0723 150.81 80.8086 150.63 80.0432C150.491 79.3449 150.254 78.7273 149.901 78.014C149.59 77.3679 149.115 77.2356 148.346 77.3805C146.841 77.6317 145.588 77.9297 144.17 78.3504C144.389 77.2977 144.672 76.1676 144.955 75.0376C146.674 74.4102 148.646 73.8297 150.41 73.3046C151.169 73.054 151.36 72.8222 151.18 72.0568C151.042 71.3585 150.804 70.7408 150.49 70.0595C150.179 69.4133 149.739 69.2777 148.967 69.3873C148.018 69.5139 147.144 69.6689 146.276 69.8945C146.745 68.1063 147.221 66.3885 147.611 64.8924C149.484 64.3925 151.47 63.953 153.074 63.6211C153.843 63.4762 154.027 63.1739 153.918 62.4017C153.78 61.7034 153.623 61.1848 153.305 60.4682C153.065 59.8153 152.573 59.5067 151.836 59.613C148.603 60.0299 144.141 60.9916 141.776 61.93C141.226 62.1252 141.063 62.2831 141.272 62.9746C141.474 63.5956 141.889 64.5875 142.341 65.2201Z" fill="black"/>
<path d="M158.595 74.903C160.158 77.1011 162.425 79.5875 163.879 80.6576C164.919 81.4829 165.762 81.3664 166.411 81.0907C166.994 80.8569 167.304 80.7559 167.856 80.2049C168.309 79.7345 168.451 79.3651 167.827 78.7847C166.335 77.3268 164.219 74.9326 162.909 73.1372C165.092 71.7893 166.969 70.2217 168.248 68.7116C169.494 67.2401 170.255 65.5305 169.819 63.58C169.379 61.5943 168.475 60.3291 167.528 59.3527C165.162 56.947 158.662 59.2783 155.393 61.5487C154.693 62.0427 154.699 62.4691 155.1 63.32C155.366 63.8637 155.783 64.4997 156.116 65.0015C154.981 70.2334 153.705 76.5818 153.346 79.8893C153.264 80.8933 153.382 81.3801 154.061 81.7775C154.588 82.0827 155.282 82.2652 156.042 82.4057C156.799 82.5109 157.033 82.3462 157.173 81.5856C157.576 79.4835 158.068 77.1949 158.595 74.903ZM161.363 64.0711C163.514 62.7618 165.541 62.7453 165.795 63.5392C166.185 64.6402 163.778 68.1086 159.771 70.0941C160.34 67.8693 160.852 65.7922 161.363 64.0711Z" fill="black"/>
<path d="M185.954 59.933C186.32 58.9372 186.347 58.4722 185.828 57.8816C185.347 57.3229 184.778 56.9506 184.068 56.5918C183.357 56.2331 182.976 56.3408 182.621 57.0864C181.192 59.9984 179.612 63.1742 178.014 66.1736C177.394 63.4225 176.714 60.7839 176.192 59.0551C175.886 58.0883 175.563 57.6923 174.806 57.5871C174.049 57.4819 173.171 57.6017 172.406 57.7818C171.676 57.9586 171.523 58.2223 171.703 58.9877C172.567 62.427 173.829 67.4289 174.761 71.5732C174.324 74.0699 173.941 76.3836 173.741 78.0038C173.592 79.0498 173.777 79.4945 174.424 79.9306C175.071 80.3666 175.95 80.6379 176.676 80.7818C177.436 80.9223 177.708 80.7895 177.845 79.9936C178.245 77.8563 178.724 75.4267 179.269 72.9551C181.907 68.1838 184.985 62.4452 185.954 59.933Z" fill="black"/>
</g>
</svg>
