<svg width="231" height="128" viewBox="0 0 231 128" fill="none" xmlns="http://www.w3.org/2000/svg">
<path d="M38.1059 63.351C39.3415 65.089 41.1334 67.0548 42.2835 67.9009C43.1055 68.5533 43.7718 68.4613 44.2853 68.2432C44.7458 68.0584 44.9913 67.9786 45.4277 67.5429C45.7858 67.171 45.8984 66.8789 45.4043 66.42C44.2249 65.2674 42.5524 63.3745 41.5161 61.955C43.2422 60.8892 44.7267 59.6498 45.7372 58.4558C46.7226 57.2924 47.3243 55.9408 46.9795 54.3987C46.6319 52.8287 45.9171 51.8284 45.168 51.0564C43.2978 49.1543 38.1583 50.9976 35.5739 52.7926C35.0207 53.1832 35.0249 53.5203 35.3426 54.1931C35.5526 54.623 35.8822 55.1258 36.1453 55.5225C35.2482 59.6591 34.239 64.6784 33.9554 67.2934C33.8909 68.0872 33.9841 68.4721 34.5206 68.7863C34.9375 69.0276 35.4858 69.1719 36.0871 69.2829C36.6858 69.3661 36.8702 69.2359 36.9813 68.6346C37.3 66.9725 37.689 65.1631 38.1059 63.351ZM40.294 54.7869C41.9949 53.7517 43.597 53.7387 43.7978 54.3664C44.1064 55.2369 42.2036 57.9791 39.035 59.5489C39.4851 57.7899 39.8901 56.1477 40.294 54.7869Z" fill="black"/>
<path d="M48.949 53.4221C48.0756 57.2189 46.9549 62.2489 46.6354 64.783C46.5431 65.5794 46.7692 66.1766 47.1437 66.5626C47.6432 67.0772 47.9792 67.3544 48.3736 67.6541C48.7428 67.9844 49.1571 68.1978 50.1589 67.7922C51.6239 67.2298 53.3703 66.6684 54.9242 66.1536C55.5241 65.9555 55.6447 65.747 55.5022 65.1418C55.393 64.5897 55.2055 64.1014 54.9264 63.5375C54.6805 63.0266 54.3048 62.922 53.6969 63.0366C52.5065 63.2352 51.5164 63.4708 50.3951 63.8035C50.5684 62.9711 50.7921 62.0776 51.0158 61.1842C52.3746 60.6882 53.9339 60.2291 55.3286 59.8141C55.9285 59.6159 56.0796 59.4326 55.9372 58.8274C55.828 58.2753 55.6405 57.787 55.3919 57.2483C55.146 56.7374 54.7981 56.6302 54.1876 56.7169C53.4378 56.8169 52.7463 56.9395 52.0602 57.1179C52.4309 55.704 52.8069 54.3459 53.1153 53.163C54.5964 52.7678 56.1663 52.4203 57.4351 52.1579C58.0429 52.0433 58.1888 51.8043 58.1021 51.1938C57.9928 50.6417 57.8691 50.2316 57.6179 49.665C57.4277 49.1488 57.0386 48.9049 56.456 48.9889C53.8998 49.3185 50.3723 50.0789 48.5026 50.8208C48.0673 50.9751 47.9386 51.1 48.1036 51.6467C48.2632 52.1377 48.5916 52.9219 48.949 53.4221Z" fill="black"/>
<path d="M56.3115 62.5045C55.8087 62.834 55.7373 63.2628 56.6552 64.328C58.43 66.408 60.302 67.1566 62.1362 66.9244C64.946 66.5986 66.0966 64.5192 66.5948 63.2619C67.6615 60.5998 63.9296 59.5233 62.0766 57.5071C60.3763 55.6168 63.6188 51.5927 64.2362 51.8711C64.5867 52.0062 63.9538 54.2047 63.8271 55.2295C63.6832 56.3684 64.4071 57.171 65.8875 57.6478C66.4105 57.8226 66.6786 57.6844 66.9065 57.1281C67.3822 55.9292 67.8704 53.6883 67.9425 52.3875C67.9539 51.6269 67.9466 50.6712 67.0833 49.8821C66.4949 49.3197 65.43 48.7749 64.506 48.526C63.2953 48.2202 62.2762 48.7399 61.6726 49.1916C60.1019 50.4112 58.5744 52.6674 57.9678 54.554C57.2432 56.6769 57.9214 58.4683 59.0677 59.5678C60.708 61.1263 63.7751 62.6041 63.031 63.3506C62.3931 64.0307 60.7589 63.7093 58.9754 62.4177C58.342 61.9721 57.1328 61.9756 56.3115 62.5045Z" fill="black"/>
<path d="M68.3068 63.407C68.6658 64.2165 69.2011 64.812 69.7681 65.1514C70.4852 65.589 71.4145 65.8936 72.479 65.8477C73.5992 65.7965 74.4247 65.6048 75.2829 64.8755C77.757 62.8098 79.0033 57.0364 80.3106 49.26C80.4163 48.6029 80.3949 48.3799 79.7947 47.9874C79.2556 47.6454 78.4629 47.2995 77.831 47.1632C77.1991 47.0269 76.8196 47.1759 76.6914 47.8914C75.881 52.6385 74.0076 63.3101 72.0508 62.8509C70.4113 62.4738 72.543 54.7871 73.6989 50.71C73.9333 49.9281 73.7935 49.3508 73.1852 48.8747C72.6965 48.4715 72.0234 48.1986 71.4167 48.0318C70.7821 47.8676 70.4278 47.986 70.2411 48.679C68.8111 53.7105 66.9176 60.3618 68.3068 63.407Z" fill="black"/>
<path d="M87.401 63.0097C88.1375 62.7703 88.1493 62.6003 87.979 61.9979C87.8697 61.4458 87.6796 60.9296 87.4031 60.3935C87.1267 59.8575 86.7815 59.7781 86.1737 59.8926C85.0389 60.0859 84.102 60.2883 83.0364 60.6156C83.9334 56.479 85.1088 51.725 85.9852 48.5468C86.1746 47.8817 86.0948 47.6362 85.5224 47.241C84.9501 46.8459 84.0513 46.5664 83.4194 46.4302C82.8153 46.2912 82.461 46.4096 82.2465 47.1053C81.0997 50.9845 79.5744 58.2474 79.0977 61.781C79 62.5218 79.2207 63.0632 79.5952 63.4492C80.1225 63.9611 80.4586 64.2383 80.853 64.538C81.2222 64.8683 81.5277 65.1202 82.6383 64.6761C84.1006 64.0858 85.847 63.5244 87.401 63.0097Z" fill="black"/>
<path d="M101.367 47.7743C102.03 47.6543 102.07 47.4818 101.93 46.9045C101.791 46.3272 101.473 45.6545 101.057 45.1318C100.835 44.8718 100.596 44.7259 99.9552 44.7874C97.3684 45.0919 93.2304 45.9389 90.6666 46.7756C90.2314 46.9299 90.0748 47.0574 90.2677 47.6015C90.4578 48.1177 90.8275 49.0386 91.2406 49.5334C91.6538 50.0282 91.91 50.0599 92.4819 49.8644C92.8893 49.7128 93.5754 49.5344 94.2057 49.3614C93.3747 53.0135 92.3101 58.6288 92.0056 61.6115C91.9132 62.408 92.0091 62.8207 92.5456 63.1349C93.082 63.4491 93.7498 63.6664 94.3512 63.7774C94.9525 63.8885 95.1369 63.7583 95.248 63.1569C96.0546 58.6634 97.2703 52.8648 98.3583 48.3723C99.4624 48.1539 100.483 47.9435 101.367 47.7743Z" fill="black"/>
<path d="M100.109 58.3026C99.6059 58.6321 99.5345 59.0609 100.452 60.1261C102.227 62.2061 104.099 62.9547 105.933 62.7225C108.743 62.3967 109.894 60.3173 110.392 59.0599C111.459 56.3979 107.727 55.3214 105.874 53.3051C104.173 51.4149 107.416 47.3908 108.033 47.6691C108.384 47.8043 107.751 50.0028 107.624 51.0275C107.48 52.1665 108.204 52.969 109.685 53.4458C110.208 53.6207 110.476 53.4824 110.704 52.9261C111.179 51.7272 111.668 49.4864 111.74 48.1855C111.751 47.425 111.744 46.4693 110.88 45.6801C110.292 45.1178 109.227 44.573 108.303 44.3241C107.092 44.0183 106.073 44.538 105.47 44.9897C103.899 46.2093 102.372 48.4655 101.765 50.352C101.04 52.4749 101.719 54.2664 102.865 55.3659C104.505 56.9244 107.572 58.4022 106.828 59.1487C106.19 59.8287 104.556 59.5073 102.773 58.2157C102.139 57.7702 100.93 57.7737 100.109 58.3026Z" fill="black"/>
<path d="M129.101 45.9392C129.37 45.2082 129.39 44.8668 129.008 44.4332C128.656 44.023 128.238 43.7497 127.716 43.4863C127.195 43.2229 126.915 43.3019 126.654 43.8494C125.605 45.9873 124.445 48.3188 123.272 50.5209C122.817 48.5011 122.317 46.5639 121.934 45.2947C121.71 44.5849 121.473 44.2942 120.917 44.217C120.361 44.1397 119.716 44.2276 119.154 44.3599C118.618 44.4897 118.506 44.6833 118.639 45.2452C119.273 47.7702 120.2 51.4425 120.883 54.4851C120.563 56.3181 120.282 58.0167 120.135 59.2062C120.026 59.9741 120.161 60.3006 120.636 60.6207C121.111 60.9409 121.757 61.1401 122.289 61.2457C122.848 61.3489 123.047 61.2513 123.148 60.6671C123.441 59.0979 123.793 57.3142 124.193 55.4996C126.13 51.9967 128.39 47.7836 129.101 45.9392Z" fill="black"/>
<path d="M138.18 43.7622C137.527 43.2241 136.37 42.865 135.268 42.814C134.427 42.764 133.292 43.1863 132.601 43.8795C129.289 47.201 127.669 53.9908 129.136 57.5851C129.446 58.365 130.083 59.0092 130.635 59.3219C131.353 59.7232 132.366 59.9394 133.204 59.9635C134.487 59.9971 135.524 59.6365 136.415 58.5845C139.064 55.4311 139.972 49.65 139.453 46.1475C139.307 45.169 138.946 44.394 138.18 43.7622ZM135.73 45.7212C136.583 45.9005 136.353 49.5009 135.78 51.9589C135.04 55.1381 133.781 57.5313 132.812 57.2325C131.817 56.9361 131.993 53.602 132.668 51.1082C133.34 48.5884 134.902 45.5393 135.73 45.7212Z" fill="black"/>
<path d="M140.433 56.658C140.766 57.4096 141.263 57.9627 141.79 58.2778C142.455 58.6841 143.318 58.967 144.307 58.9244C145.347 58.8768 146.114 58.6988 146.911 58.0216C149.208 56.1034 150.365 50.7424 151.579 43.5215C151.677 42.9113 151.657 42.7042 151.1 42.3398C150.599 42.0222 149.863 41.701 149.277 41.5744C148.69 41.4479 148.337 41.5862 148.218 42.2506C147.466 46.6586 145.726 56.568 143.909 56.1416C142.387 55.7914 144.366 48.6538 145.44 44.8679C145.657 44.1418 145.527 43.6058 144.963 43.1637C144.509 42.7893 143.884 42.5359 143.32 42.381C142.731 42.2285 142.402 42.3385 142.229 42.982C140.901 47.6541 139.143 53.8303 140.433 56.658Z" fill="black"/>
<path d="M165.461 51.9844C164.445 51.7423 163.51 52.0671 162.862 52.939C161.915 54.2313 161.287 54.7617 160.778 54.6277C159.84 54.3782 159.968 51.3621 160.68 48.708C161.331 46.2425 163.095 42.5733 163.875 42.8119C164.467 42.9902 164.167 44.2204 164.278 45.0979C164.446 46.3094 164.977 46.9376 166.352 47.119C167.04 47.2098 167.142 46.9127 167.258 46.4837C167.515 45.6232 167.658 44.1206 167.584 43.0829C167.523 42.1746 167.324 41.4623 166.535 40.859C165.831 40.3258 164.456 39.883 163.334 39.8863C162.576 39.8806 161.687 40.1487 160.807 41.0429C157.481 44.4963 155.573 51.836 157.029 55.3008C157.336 56.0549 158.045 56.6399 158.621 56.9242C159.277 57.2269 160.168 57.5332 161.24 57.5349C162.259 57.5416 163.44 57.0626 164.106 56.3719C164.721 55.7121 165.463 54.7268 165.86 53.6961C166.218 52.7998 166.29 52.1921 165.461 51.9844Z" fill="black"/>
<path d="M175.072 51.5063C175.127 52.6242 175.17 53.6126 175.249 54.4408C175.324 55.2173 175.509 55.5129 176.046 55.6703C176.584 55.8277 177.104 55.8039 177.673 55.7493C178.243 55.6947 178.383 55.5245 178.352 54.9267C178.229 50.1065 178.226 43.812 178.379 40.5063C178.42 39.8493 178.303 39.4426 177.659 39.2693C176.778 39.0666 175.917 38.8096 174.303 38.86C173.364 38.8717 172.914 39.3589 172.609 39.9889C170.791 43.6372 167.955 50.2825 166.612 54.2509C166.37 55.0053 166.405 55.3677 166.807 55.747C167.209 56.1263 167.615 56.2703 168.132 56.4819C168.646 56.6677 168.848 56.596 169.08 56.0252C169.436 55.103 169.857 54.044 170.324 52.9283C171.609 52.4393 173.443 51.9499 175.072 51.5063ZM171.957 48.9843C173.025 46.505 174.122 44.049 174.967 42.244C174.91 44.1039 174.907 46.246 174.948 48.3056C173.972 48.4776 172.951 48.7322 171.957 48.9843Z" fill="black"/>
<path d="M186.57 47.6085C186.166 45.0352 185.736 41.916 185.579 40.5468C185.471 39.6952 185.279 39.3219 184.656 39.0943C183.92 38.7731 183.196 38.5814 182.504 38.4389C181.945 38.3357 181.518 38.5074 181.347 39.1767C180.447 42.8675 178.929 51.0057 178.654 53.3045C178.568 54.0441 178.654 54.4014 179.127 54.6957C179.601 55.0158 180.273 55.2125 180.832 55.3157C181.393 55.4447 181.59 55.3213 181.664 54.7395C182.012 52.6428 182.789 49.042 183.411 45.7175C183.85 48.3918 184.46 51.2064 185.043 52.9266C185.229 53.5095 185.585 53.9455 186.073 54.1338C186.563 54.3479 187.129 54.5287 187.685 54.6059C188.244 54.7091 188.638 54.4623 188.713 53.8805C189.42 49.8164 190.68 43.3485 191.507 39.7169C191.657 39.1018 191.643 38.6852 191.065 38.375C190.321 37.9762 190.026 37.9 189.44 37.7734C188.853 37.6469 188.503 37.811 188.356 38.4521C187.779 40.8842 187.064 44.3222 186.57 47.6085Z" fill="black"/>
<path d="M64.2105 83.7874C64.9428 83.2108 65.5636 82.6449 66.0729 82.0898C67.0411 81.0405 67.8299 79.5865 67.5766 78.12C67.3368 76.7929 66.7442 75.8933 65.995 75.1214C64.1939 73.3533 58.972 74.9232 56.3544 76.6651C55.7706 77.0305 55.7775 77.3955 56.0952 78.0683C56.3026 78.4703 56.571 78.9227 56.8009 79.2664C56.0599 82.6847 55.0675 86.9993 54.6911 89.8201C54.5446 90.9312 54.6549 91.2019 55.3655 91.865C56.0734 92.5003 56.4705 92.8279 57.2181 93.2906C57.9379 93.756 58.3029 93.7491 59.2742 93.3184C60.9793 92.6204 63.443 91.0338 64.711 89.5901C65.6009 88.6046 66.0476 87.6898 65.894 86.3825C65.7619 85.2981 65.128 84.2619 64.2105 83.7874ZM59.6929 82.73C60.0357 81.3188 60.3613 80.0218 60.6472 78.8973C62.5577 77.7014 64.0682 77.6128 64.2106 78.2179C64.4275 79.0128 62.624 81.3236 59.6929 82.73ZM58.8538 86.2984C60.7327 85.3587 62.108 85.6206 62.2199 86.2005C62.4276 87.1932 60.6687 88.7965 58.1011 89.8867C58.3259 88.7119 58.6038 87.5038 58.8538 86.2984Z" fill="black"/>
<path d="M69.0718 77.6109C68.1984 81.4077 67.0777 86.4377 66.7582 88.9718C66.6658 89.7682 66.8919 90.3654 67.2665 90.7514C67.7659 91.266 68.1019 91.5432 68.4963 91.8429C68.8656 92.1732 69.2798 92.3866 70.2817 91.981C71.7467 91.4185 73.493 90.8572 75.047 90.3424C75.6468 90.1443 75.7674 89.9358 75.625 89.3306C75.5158 88.7785 75.3283 88.2902 75.0492 87.7263C74.8032 87.2154 74.4275 87.1108 73.8197 87.2254C72.6292 87.424 71.6392 87.6596 70.5178 87.9922C70.6911 87.1599 70.9148 86.2664 71.1385 85.373C72.4974 84.877 74.0567 84.4179 75.4514 84.0028C76.0512 83.8047 76.2024 83.6214 76.06 83.0162C75.9507 82.4641 75.7632 81.9758 75.5146 81.4371C75.2687 80.9262 74.9209 80.819 74.3104 80.9057C73.5605 81.0057 72.8691 81.1283 72.183 81.3067C72.5536 79.8928 72.9296 78.5347 73.2381 77.3518C74.7191 76.9566 76.2891 76.609 77.5578 76.3467C78.1657 76.2321 78.3115 75.9931 78.2248 75.3826C78.1156 74.8305 77.9919 74.4204 77.7406 73.8538C77.5504 73.3376 77.1614 73.0937 76.5787 73.1777C74.0225 73.5073 70.495 74.2677 68.6253 75.0096C68.1901 75.1639 68.0614 75.2888 68.2264 75.8355C68.386 76.3265 68.7144 77.1107 69.0718 77.6109Z" fill="black"/>
<path d="M88.2184 84.5002C91.0621 83.3554 94.2608 81.2201 95.754 79.1922C96.6783 77.9784 97.3689 76.6745 97.0241 75.1324C96.6765 73.5624 95.9617 72.5621 95.2126 71.7901C93.3424 69.888 88.2029 71.7313 85.6185 73.5263C85.0653 73.9169 85.0417 74.2567 85.3872 74.9268C85.5999 75.3846 85.9294 75.8874 86.162 76.2589C85.2928 80.3928 84.2836 85.4121 84 88.0272C83.9076 88.8236 84.0287 89.2058 84.5373 89.5227C85.0153 89.8144 85.7389 90.0262 86.2845 90.1427C86.8832 90.2259 87.0676 90.0957 87.2065 89.4916C87.4775 87.9185 87.8493 86.2233 88.2184 84.5002ZM89.146 80.3888C89.5682 78.6324 89.9733 76.9903 90.3466 75.6043C92.025 74.6275 93.6442 74.5003 93.7867 75.1054C94.0887 76.2016 92.454 78.8056 89.146 80.3888Z" fill="black"/>
<path d="M100.74 82.8769C101.975 84.6149 103.767 86.5807 104.917 87.4268C105.739 88.0792 106.406 87.9872 106.919 87.7691C107.38 87.5843 107.625 87.5045 108.061 87.0688C108.42 86.6969 108.532 86.4049 108.038 85.9459C106.859 84.7933 105.186 82.9004 104.15 81.4809C105.876 80.4152 107.36 79.1757 108.371 77.9818C109.356 76.8183 109.958 75.4667 109.613 73.9246C109.266 72.3546 108.551 71.3543 107.802 70.5823C105.932 68.6802 100.792 70.5235 98.2078 72.3185C97.6545 72.7091 97.6588 73.0462 97.9765 73.719C98.1865 74.1489 98.516 74.6517 98.7791 75.0484C97.882 79.185 96.8728 84.2043 96.5892 86.8193C96.5247 87.6131 96.6179 87.998 97.1544 88.3122C97.5713 88.5535 98.1196 88.6978 98.721 88.8088C99.3197 88.892 99.5041 88.7618 99.6151 88.1605C99.9339 86.4985 100.323 84.689 100.74 82.8769ZM102.928 74.3128C104.629 73.2777 106.231 73.2646 106.432 73.8923C106.74 74.7628 104.837 77.505 101.669 79.0748C102.119 77.3158 102.524 75.6736 102.928 74.3128Z" fill="black"/>
<path d="M120.062 69.8561C119.36 69.2765 118.113 68.8898 116.926 68.8349C116.021 68.7811 114.799 69.2359 114.055 69.9824C110.488 73.5593 108.743 80.8715 110.323 84.7422C110.657 85.5822 111.343 86.2759 111.937 86.6126C112.71 87.0448 113.802 87.2776 114.704 87.3035C116.086 87.3397 117.202 86.9514 118.162 85.8185C121.015 82.4225 121.993 76.1967 121.434 72.4248C121.277 71.371 120.887 70.5364 120.062 69.8561ZM117.424 71.9657C118.342 72.1589 118.096 76.0361 117.478 78.6833C116.681 82.107 115.325 84.6843 114.281 84.3625C113.21 84.0433 113.4 80.4528 114.127 77.7671C114.851 75.0535 116.533 71.7699 117.424 71.9657Z" fill="black"/>
<path d="M122.489 83.7438C122.848 84.5532 123.383 85.1488 123.95 85.4882C124.667 85.9258 125.596 86.2304 126.661 86.1845C127.781 86.1333 128.607 85.9416 129.465 85.2123C131.939 83.1466 133.185 77.3732 134.492 69.5968C134.598 68.9397 134.577 68.7167 133.977 68.3242C133.437 67.9822 132.645 67.6363 132.013 67.5C131.381 67.3637 131.001 67.5127 130.873 68.2282C130.063 72.9753 128.189 83.6469 126.233 83.1877C124.593 82.8106 126.725 75.1239 127.881 71.0468C128.115 70.2649 127.975 69.6876 127.367 69.2115C126.878 68.8083 126.205 68.5354 125.599 68.3686C124.964 68.2044 124.61 68.3228 124.423 69.0158C122.993 74.0474 121.099 80.6986 122.489 83.7438Z" fill="black"/>
<path d="M135.921 70.9505C135.178 74.341 134.364 78.4696 133.859 81.4153C133.608 82.9021 133.921 83.2377 134.535 83.7695C135.149 84.3013 135.604 84.6514 136.265 85.0943C136.952 85.5066 137.54 85.4783 138.238 85.1301C145.736 81.4853 148.03 73.7268 146.054 69.5564C143.83 64.8473 137.959 66.395 135.378 68.2179C134.797 68.6112 134.803 68.9762 135.146 69.6184C135.359 70.0762 135.689 70.579 135.921 70.9505ZM137.436 81.4659C138.145 77.713 138.963 73.9216 139.871 70.4872C141.269 69.8186 142.357 70.305 142.744 71.1117C143.495 72.7836 142.559 78.2741 137.436 81.4659Z" fill="black"/>
<path d="M163.739 66.915C163.036 66.3355 161.79 65.9487 160.603 65.8938C159.698 65.84 158.476 66.2948 157.731 67.0413C154.165 70.6183 152.419 77.9304 154 81.8011C154.334 82.6411 155.019 83.3348 155.614 83.6715C156.387 84.1037 157.478 84.3366 158.381 84.3625C159.762 84.3987 160.878 84.0103 161.839 82.8774C164.691 79.4815 165.669 73.2556 165.11 69.4838C164.953 68.43 164.564 67.5954 163.739 66.915ZM161.1 69.0246C162.019 69.2178 161.772 73.0951 161.154 75.7422C160.357 79.1659 159.001 81.7432 157.958 81.4214C156.886 81.1023 157.076 77.5117 157.803 74.826C158.527 72.1125 160.21 68.8288 161.1 69.0246Z" fill="black"/>
<path d="M176.062 67.5611C176.667 67.4186 176.79 67.238 176.704 66.6275C176.622 66.0728 176.465 65.6096 176.158 65.0484C175.818 64.4341 175.526 64.3215 174.915 64.4082C172.362 64.7657 168.999 65.4821 167.157 66.2214C166.752 66.4009 166.565 66.5032 166.758 67.0473C166.91 67.4546 167.21 68.2415 167.57 68.7696C166.52 73.0615 165.317 78.9995 165.118 81.3251C165.054 82.1189 165.119 82.5065 165.656 82.8207C166.162 83.1097 166.854 83.2963 167.456 83.4074C168.057 83.5185 168.353 83.3776 168.489 82.7457C168.831 81.0252 169.316 78.7565 169.83 76.4851C171.135 76.0223 172.611 75.5713 173.925 75.1921C174.555 75.0191 174.676 74.8106 174.533 74.2054C174.399 73.6839 174.265 73.1623 173.988 72.6263C173.781 72.2243 173.394 72.0082 172.784 72.0949C172.09 72.1896 171.401 72.3401 170.74 72.4879C171.105 71.0182 171.426 69.6655 171.717 68.5968C173.201 68.2294 174.74 67.8567 176.062 67.5611Z" fill="black"/>
<path d="M94 19.5L97 3" stroke="#FF766A" stroke-width="2" stroke-linecap="round"/>
<path d="M141 20L145 3" stroke="#FF766A" stroke-width="2" stroke-linecap="round"/>
<path d="M179 15L188 1" stroke="#FF766A" stroke-width="2" stroke-linecap="round"/>
<path d="M212 33.5L225.5 28" stroke="#FF766A" stroke-width="2" stroke-linecap="round"/>
<path d="M207 68L222.5 70.5" stroke="#FF766A" stroke-width="2" stroke-linecap="round"/>
<path d="M193 95L207.5 106" stroke="#FF766A" stroke-width="2" stroke-linecap="round"/>
<path d="M166 107L169.5 121.5" stroke="#FF766A" stroke-width="2" stroke-linecap="round"/>
<path d="M139 107L142 126" stroke="#FF766A" stroke-width="2" stroke-linecap="round"/>
<path d="M114 111V126" stroke="#FF766A" stroke-width="2" stroke-linecap="round"/>
<path d="M80.5 112L77 126.5" stroke="#FF766A" stroke-width="2" stroke-linecap="round"/>
<path d="M43.5 108L36 117" stroke="#FF766A" stroke-width="2" stroke-linecap="round"/>
<path d="M30 89L17 95.5" stroke="#FF766A" stroke-width="2" stroke-linecap="round"/>
<path d="M16.5 58H1" stroke="#FF766A" stroke-width="2" stroke-linecap="round"/>
<path d="M26 32.5L13 21" stroke="#FF766A" stroke-width="2" stroke-linecap="round"/>
<path d="M56.5 22.5L51 11" stroke="#FF766A" stroke-width="2" stroke-linecap="round"/>
</svg>
