<svg width="13" height="14" viewBox="0 0 13 14" fill="none" xmlns="http://www.w3.org/2000/svg">
<path d="M11.8653 7.80131C12.3948 7.7505 12.5181 7.5699 12.3559 7.05103C12.1989 6.5879 12.0446 6.15265 11.8014 5.66967C11.5608 5.21456 11.2355 5.04887 10.7033 5.07181C10.1153 5.10009 9.36275 5.17229 8.50139 5.28306C8.66554 4.64848 8.86023 4.0391 9.0324 3.48814C9.20457 2.93718 9.18318 2.7142 8.77806 2.30301C8.43403 1.94222 7.74484 1.50203 7.22175 1.32719C6.78495 1.17219 6.45203 1.51355 6.29703 1.95035C5.93933 2.91291 5.56866 4.32677 5.23121 5.7937C3.76469 6.04691 2.35926 6.35052 1.37726 6.66977C0.939332 6.79617 0.545318 7.08713 0.704939 7.57813C0.867234 8.097 1.30712 8.87052 1.62595 9.26186C2.00587 9.7036 2.2342 9.73795 2.78094 9.57298C3.35556 9.40534 3.95805 9.23502 4.56321 9.09258C4.42045 9.95013 4.32542 10.7187 4.26741 11.2869C4.20673 11.8271 4.35031 12.1509 4.7978 12.4174C5.27585 12.709 5.68745 12.8946 6.12692 13.0775C6.62481 13.2828 6.78669 13.2111 6.89777 12.6097C7.09473 11.4375 7.40163 9.9454 7.73373 8.42272C9.11396 8.14966 10.5301 7.95754 11.8653 7.80131Z" fill="black"/>
</svg>
