<svg height="445" viewBox="0 0 613 445" width="613" xmlns="http://www.w3.org/2000/svg"><g fill="none" fill-rule="evenodd"><path d="m261.054718 133.606023c-10.308-1.6-13.4016 3.0088-14.8 10-1.3984 6.992 4.72 13.1816 10.8 14.708 7.6 1.908 14.308.892 16-7.508s-1.692-15.6-12-17.2z" stroke="#ff766a" stroke-linecap="round" stroke-linejoin="round" stroke-width="1.6" transform="matrix(-1 0 0 -1 519.52258 292.42031)"/><path d="m420.735332 143.421049 19.4024 26.6544m-23.2832-4.764 26.528-19.0224" stroke="#000" stroke-linecap="round" stroke-linejoin="round" stroke-width="1.6" transform="matrix(-1 0 0 -1 860.237064 313.496498)"/><path d="m376.755919 54.9066655 19.5712 22.1128m-20.98-.896 22.3496-19.0576" stroke="#000" stroke-linecap="round" stroke-linejoin="round" stroke-width="1.6" transform="matrix(-1 0 0 -1 773.043838 131.92613)"/><path d="m273.535294 79.8481655 10.3048 34.9607995c.2208.7496.9504 1.2296 1.7264 1.1368l53.52-6.4536c.8568-.1032 1.4768-.8664 1.4024-1.7264l-3.3176-38.3407995c-.08-.9272-.932-1.5904-1.8512-1.4408l-60.5064 9.832c-.9504.1544-1.5504 1.108-1.2784 2.032z" stroke="#000" stroke-linejoin="round" stroke-width="1.6" transform="matrix(-1 0 0 -1 613.964474 183.920274)"/><path d="m184.001242 23.1277393-13.245912 78.1142737c-.185192 1.093137.882004 1.977303 1.921818 1.592507l79.811987-29.5478519c1.078005-.3992076 1.278329-1.8382287.349487-2.5155847l-66.567517-48.5664217c-.864709-.6312381-2.091156-.1325888-2.269863.9230776z" stroke="#000" stroke-linejoin="round" stroke-width="1.6" transform="matrix(-1 0 0 -1 424.16473 124.852262)"/><path d="m307.653229 137.05534c5.2-20.4 31.6-24.8 46.8-8s39.2 24.8 52 9.2m0 0v9.6m0-9.6h-9.6" stroke="#000" stroke-linecap="round" stroke-linejoin="round" stroke-width="1.6" transform="matrix(-.87461971 .48480962 -.48480962 -.87461971 734.333282 76.664639)"/><path d="m442.466702 346.340906c-1.2-25.2 10.5836-28.4112 25.6-30.8 17.60008-2.8 27.6-14.8 28.4-28.4" stroke="#000" stroke-linecap="round" stroke-linejoin="round" stroke-width="1.6" transform="matrix(-1 0 0 -1 938.849234 633.481812)"/><path d="m188.621632 149.166856-30.0632-36.5048c-.7816-.9488-.2456-2.388.9664-2.5944l46.168-7.8736c1.2096-.2064 2.1912.9696 1.7728 2.1232l-16.1048 44.3784c-.4232 1.1648-1.952 1.428-2.7392.4712z" stroke="#000" stroke-width="1.6" transform="matrix(-.48480962 -.87461971 .87461971 -.48480962 161.371243 346.975737)"/><path d="m128.703134 324.855726.7936-.1048zm29.5256 20.676c.412-.1592.6168-.6224.4568-1.0344s-.6232-.6168-1.0352-.4568zm-49.8464-41.3064c5.6416.5856 17.5272 5.5368 19.528 20.7344l1.5864-.2088c-2.1264-16.152-14.8176-21.4808-20.9488-22.1168zm19.528 20.7344c1.3216 10.0392 6.3296 16.2056 12.3368 19.3408 5.9704 3.116 12.8744 3.212 17.9816 1.2312l-.5784-1.4912c-4.6824 1.8152-11.1064 1.7424-16.6624-1.1584-5.5184-2.88-10.2336-8.5768-11.4912-18.1312z" fill="#000" fill-rule="nonzero" transform="matrix(-1 0 0 -1 267.122292 649.494216)"/><g stroke-width="1.6"><path d="m420.348554 407.36157-16.884-16.18c-.6752-.64744-1.76-.57952-2.3496.14712l-15.0608 18.56328c-.5704.704-.444 1.74.2784 2.2856l18.6424 14.0696c.6888.52 1.6656.4 2.208-.2712l13.3024-16.4528c.5232-.6472.4632-1.5864-.1368-2.1616z" stroke="#000" transform="matrix(-1 0 0 -1 806.538102 817.306964)"/><path d="m137.487624 166.783536-16.884-16.18c-.6752-.64744-1.76-.57952-2.3496.14712l-15.0608 18.56328c-.5704.704-.444 1.74.2784 2.2856l18.6424 14.0696c.6888.52 1.6656.4 2.208-.2712l13.3024-16.4528c.5232-.6472.4632-1.5864-.1368-2.1616z" stroke="#000" transform="matrix(-1 0 0 -1 240.816242 336.150898)"/><path d="m259.482352 374.540893c8-1.2 25.12.16 29.6 15.2s-2.1336 25.73336-6 29.2" stroke="#000" stroke-linecap="round" transform="matrix(-1 0 0 -1 550.064884 793.14636)"/><path d="m89.9167745 414.31856-21.5448-34.11256c-.8448-1.33792-.1864-3.11304 1.3264-3.5764l58.0776005-17.78632c1.4864-.4552 3.0072.60104 3.0992 2.1528l2.8808 48.6144c.0768 1.3008-.8984 2.42552-2.1968 2.53368l-39.4136005 3.28456c-.892.07424-1.7512-.3536-2.2288-1.11016z" stroke="#000" transform="matrix(-1 0 0 -1 201.760216 774.173722)"/><g stroke="#ff766a" stroke-linecap="round" transform="translate(157.782532 370.570265)"><path d="m6.4 0c4.5024 7.9128 9.1808 15.9616 13.2 24" stroke-linejoin="round" transform="matrix(-1 0 0 -1 26 24)"/><path d="m24.8 3.6-24.8 16.8" transform="matrix(-1 0 0 -1 24.8 24)"/></g><g stroke="#000" stroke-linecap="round" transform="translate(424.350532 365.556106)"><path d="m21.3104 1.7256c-6.72 6.1416-13.5344 12.4864-20.4832 18.1848" stroke-linejoin="round" transform="matrix(-1 0 0 -1 22.1376 21.636)"/><path d="m21.872 20.4664-21.872-20.4664" transform="matrix(-1 0 0 -1 21.872 20.4664)"/></g><path d="m220.718966 397.598893c6.5624 2.51808 11.2736-2.86432 12.2896-7.67912.628-2.97384-.0824-6.2436-2.8656-8.64448-3.3952-2.92992-9.5168-4.06512-13.764 1.90272s-2.2232 11.9028 4.34 14.42088z" stroke="#000" transform="matrix(-1 0 0 -1 447.370068 777.12416)"/><path d="m512.283602 198.105792c7.2 11.2 7.6 29.2 26.8 26.4 24.1968-3.5288 15.6-40.4 1.6-59.6-10.9824-15.0624-33.6-26-50.98736-18.4168-21.01264 9.1648-16.51544 23.4992-12.61264 30.8168 6.4 12 28.3288 10.112 35.2 20.8z" stroke="#ff766a" stroke-linecap="round" stroke-linejoin="round" transform="matrix(-.9612617 .27563736 -.27563736 -.9612617 1059.023837 219.9806)"/><g stroke="#000" transform="translate(27.596136 44.712153)"><path d="m15.3760404 140.033844c-8.80000002-.8-12.80000002-6.8-11.60000002-15.2s7.60000002-10 14.80000002-9.2 12.4 6 10.8 13.2-5.2 11.2-14 11.2z" stroke-linejoin="round" transform="matrix(.96592583 .25881905 -.25881905 .96592583 33.628339 .051854)"/><g stroke-linecap="round"><path d="m42.0973516 99.6396376c-1.2-25.2 10.5836-28.4112 25.6-30.8 17.60008-2.8 27.6-14.8 28.4-28.4" stroke-linejoin="round" transform="matrix(.96592583 .25881905 -.25881905 .96592583 20.480593 -15.486275)"/><g transform="matrix(.96592583 .25881905 -.25881905 .96592583 110.761603 .171741)"><path d="m21.0448.556c-6.72 6.1416-13.5344 12.4864-20.4832 18.1848" stroke-linejoin="round"/><path d="m21.872 20.4664-21.872-20.4664"/></g></g></g><path d="m513.052539 56.1789876 9.73032 46.4064004c.17432.8312-.33136 1.6536-1.15184 1.8736l-58.09168 15.5672c-.89176.2384-1.80008-.3248-1.98264-1.2296l-8.976-44.5056004c-.162864-.808.314088-1.6072 1.10216-1.8472l57.33744-17.4672c.89904-.2736 1.83936.2824 2.03224 1.2024z" stroke="#000" stroke-linejoin="round"/><path d="m503.695145 386.870625-10.941428-49.70641c-.353826-1.606868 1.158689-2.997152 2.729817-2.508944l50.332574 15.631225c1.606153.49893 2.038607 2.568988.766979 3.669063l-39.39043 34.0759c-1.229454 1.063621-3.147975.426735-3.497512-1.160834z" stroke="#000" stroke-linecap="round" stroke-linejoin="round" transform="matrix(.99026807 -.1391731 .1391731 .99026807 -45.25815 75.890517)"/><path d="m16.658672 305.881623c3.1536889 22.075823 18.3487357 37.545527 47.8787321 29.529997 29.5299965-8.015531 11.7546588-41.284656 11.7546588-59.346692 0-22.075823 11.7546588-51.892518-13.7615517-50.459023-25.5162106 1.433495-27.2364046 15.195046-27.5231035 33.257083-.286699 18.062037-21.5024247 24.942813-18.3487357 47.018635z" stroke="#000" stroke-linecap="round" stroke-linejoin="round" transform="matrix(.95105652 -.30901699 .30901699 .95105652 -84.608977 28.912154)"/><path d="m530.109601 146.313585c8.203 3.1476 14.092-3.5804 15.362-9.5989.785-3.7173-.103-7.8045-3.582-10.8056-4.244-3.6624-11.896-5.0814-17.205 2.3784s-2.779 14.8785 5.425 18.0261z" stroke="#000" stroke-linejoin="round"/><path d="m65.4094979 42.0476802c9.9456-4.3844 18.1192-16.461256 30.316-5.90872 15.3720001 13.29864-6.8088 34.53496-25.0176 41.30488-14.2848 5.3108-34.896 2.57424-43.728-10.4192-10.6736-15.70272-1.2432-23.43856 4.6952-26.66408 9.7376-5.289368 24.2432 5.87104 33.7344 1.68712z" stroke="#000" stroke-linecap="round" stroke-linejoin="round" transform="matrix(-1 0 0 -1 123.01311 111.92613)"/></g></g></svg>