<svg width="549" height="394" viewBox="0 0 549 394" fill="none" xmlns="http://www.w3.org/2000/svg">
<path d="M326.752 184.397C313.867 182.397 310 188.158 308.252 196.897C306.504 205.637 314.152 213.374 321.752 215.282C331.252 217.667 339.637 216.397 341.752 205.897C343.867 195.397 339.637 186.397 326.752 184.397Z" stroke="#FF766A" stroke-width="2" stroke-linecap="round" stroke-linejoin="round"/>
<path d="M356 112.5C341.5 161.5 367.5 190 410 186.5M26.5 150C15.5 149 10.5 141.5 12 131C13.5 120.5 21.5 118.5 30.5 119.5C39.5 120.5 46 127 44 136C42 145 37.5 150 26.5 150ZM77.4487 178.14L89.6116 236.148C89.8295 237.187 89.1974 238.215 88.1718 238.49L15.5572 257.949C14.4425 258.247 13.3071 257.543 13.0789 256.412L1.8589 200.78C1.65532 199.77 2.25151 198.771 3.2366 198.471L74.9084 176.637C76.0322 176.295 77.2076 176.99 77.4487 178.14Z" stroke="#565656" vector-effect="non-scaling-stroke" stroke-width="2" stroke-linejoin="round"/>
<path d="M224.649 127.221L248.901 160.539M219.797 154.584L252.958 130.806" stroke="#565656" vector-effect="non-scaling-stroke" stroke-width="2" stroke-linecap="round" stroke-linejoin="round"/>
<path d="M146.777 244.976L171.241 272.617M145.016 271.497L172.953 247.675" stroke="#565656" vector-effect="non-scaling-stroke" stroke-width="2" stroke-linecap="round" stroke-linejoin="round"/>
<path d="M222.641 285.176L235.522 328.877C235.798 329.814 236.71 330.414 237.68 330.298L304.58 322.231C305.651 322.102 306.426 321.148 306.333 320.073L302.186 272.147C302.086 270.988 301.021 270.159 299.872 270.346L224.239 282.636C223.051 282.829 222.301 284.021 222.641 285.176Z" stroke="#565656" vector-effect="non-scaling-stroke" stroke-width="2" stroke-linejoin="round"/>
<path d="M355.46 281.686L337.078 390.089C336.821 391.606 338.302 392.833 339.745 392.299L450.504 351.294C452 350.74 452.278 348.743 450.989 347.803L358.61 280.405C357.41 279.529 355.708 280.221 355.46 281.686Z" stroke="#FF766A" vector-effect="non-scaling-stroke" stroke-width="2" stroke-linejoin="round"/>
<path d="M172 220.5C178.5 195 211.5 189.5 230.5 210.5C249.5 231.5 279.5 241.5 295.5 222M295.5 222V234M295.5 222H283.5" stroke="#565656" vector-effect="non-scaling-stroke" stroke-width="2" stroke-linecap="round" stroke-linejoin="round"/>
<path d="M168.266 132.479C159.266 120.979 167.266 107.979 145.766 86.9791C139.432 79.4791 120.266 67.7791 94.2658 80.9791C68.2658 94.1791 74.0991 114.146 80.2658 122.479C87.2658 133.979 108.266 132.479 115.766 146.479C123.266 160.479 122.266 189.479 145.766 180.479C169.266 171.479 177.266 143.979 168.266 132.479Z" stroke="#FF766A" stroke-width="2" stroke-linecap="round" stroke-linejoin="round"/>
<path d="M38.9999 85C37.4999 53.5 52.2294 49.4862 70.9999 46.5C93 43 105.5 28 106.5 11" stroke="#565656" vector-effect="non-scaling-stroke" stroke-width="2" stroke-linecap="round" stroke-linejoin="round"/>
<path d="M434 227C439.5 265.5 466 292.479 517.5 278.5C569 264.521 538 206.5 538 175C538 136.5 558.5 84.5 514 87C469.5 89.5 466.5 113.5 466 145C465.5 176.5 428.5 188.5 434 227Z" stroke="#565656" vector-effect="non-scaling-stroke" stroke-width="2" stroke-linejoin="round"/>
<path d="M167.282 64.2239L151.183 6.92952C150.834 5.6884 151.733 4.44638 153.021 4.39038L217.027 1.6075C218.3 1.55218 219.299 2.68438 219.086 3.94002L205.485 84.1431C205.25 85.523 203.708 86.2419 202.501 85.5337L168.195 65.4079C167.749 65.1462 167.422 64.7218 167.282 64.2239Z" stroke="#565656" vector-effect="non-scaling-stroke" stroke-width="2" stroke-linejoin="round"/>
</svg>
