<svg width="253" height="186" viewBox="0 0 253 186" fill="none" xmlns="http://www.w3.org/2000/svg">
<g>
<path d="M69.5 64.6C69.5 64.6 66.6 66.9 57.7 67.3C48.8 67.7 43.3 64.8 41.4 71.2C39.5 77.6 53.1 92.9 53.1 92.9L47.6 93.7C47.2 90.8 44.4 88.8 41.5 89.2C38.6 89.6 36.6 92.4 37 95.3C37.4 98.2 40.2 100.2 43.1 99.8" stroke="black" vector-effect="non-scaling-stroke" stroke-width="1.9451" stroke-miterlimit="10" stroke-linecap="round" stroke-linejoin="round"/>
<path d="M54 126.8L41.8 100" stroke="black" vector-effect="non-scaling-stroke" stroke-width="1.9451" stroke-miterlimit="10" stroke-linecap="round" stroke-linejoin="round"/>
<path d="M66.4 50.1C66.4 50.1 68.6 58.7 61.9 66.7" stroke="black" vector-effect="non-scaling-stroke" stroke-width="1.9451" stroke-miterlimit="10" stroke-linecap="round" stroke-linejoin="round"/>
<path d="M58.5 44.2C58.5 44.2 64.5 59.2 50.7 67" stroke="black" vector-effect="non-scaling-stroke" stroke-width="1.9451" stroke-miterlimit="10" stroke-linecap="round" stroke-linejoin="round"/>
<path d="M45.5 89.9L57 81L83 79.4C83 79.4 87.8 89.5 80.9 90C74 90.6 71.5 80.6 71.5 80.6" stroke="black" vector-effect="non-scaling-stroke" stroke-width="1.9451" stroke-miterlimit="10" stroke-linecap="round" stroke-linejoin="round"/>
<path d="M71.1 80.8C71.1 80.8 74.6 90.2 67.8 91.6C60.4 93.2 57.4 81.9 57.4 81.9" stroke="black" vector-effect="non-scaling-stroke" stroke-width="1.9451" stroke-miterlimit="10" stroke-linecap="round" stroke-linejoin="round"/>
<path d="M64.8 76.7C64.8 76.7 61.2 74.9 59.3 77.5" stroke="black" vector-effect="non-scaling-stroke" stroke-width="1.9451" stroke-miterlimit="10" stroke-linecap="round" stroke-linejoin="round"/>
<path d="M77.3 75.8C77.3 75.8 73.9 73.7 71.7 76" stroke="black" vector-effect="non-scaling-stroke" stroke-width="1.9451" stroke-miterlimit="10" stroke-linecap="round" stroke-linejoin="round"/>
<path d="M81.3 90.5L84.5 97.7C86.7 102.6 83.2 108.1 77.9 108.2C75.4 108.3 73.1 108.3 71.5 108.4C66.5 108.7 63.2 111.5 72.5 126.6" stroke="black" vector-effect="non-scaling-stroke" stroke-width="1.9451" stroke-miterlimit="10" stroke-linecap="round" stroke-linejoin="round"/>
<path d="M37.9 91.4L31.7 77.8C28.7 71.3 32 63.6 38.8 61.3C39.8 61 40.8 60.6 41.7 60.3C48.8 57.8 50.9 52.8 47.3 44.4C43.7 36 44.9 28.8 55.2 34.8C55.2 34.8 56.9 30.8 62.7 34.6C68.5 38.4 77.7 50.1 69.6 64.5L76.5 79.6" stroke="black" vector-effect="non-scaling-stroke" stroke-width="1.9451" stroke-miterlimit="10" stroke-linecap="round" stroke-linejoin="round"/>
<path d="M72 82.6L77.5 95.3L72.9 96" stroke="black" vector-effect="non-scaling-stroke" stroke-width="1.9451" stroke-miterlimit="10" stroke-linecap="round" stroke-linejoin="round"/>
<path d="M41.2 94.2C41.4 95.2 42.3 95.9 43.3 95.8" stroke="black" vector-effect="non-scaling-stroke" stroke-width="1.9451" stroke-miterlimit="10" stroke-linecap="round" stroke-linejoin="round"/>
<path d="M78.6 84.4C79.4284 84.4 80.1 83.7285 80.1 82.9C80.1 82.0716 79.4284 81.4 78.6 81.4C77.7715 81.4 77.1 82.0716 77.1 82.9C77.1 83.7285 77.7715 84.4 78.6 84.4Z" fill="black"/>
<path d="M65.1 85.5C65.9284 85.5 66.6 84.8284 66.6 84C66.6 83.1716 65.9284 82.5 65.1 82.5C64.2715 82.5 63.6 83.1716 63.6 84C63.6 84.8284 64.2715 85.5 65.1 85.5Z" fill="black"/>
<path d="M42.7 88.8L39.3 81.4" stroke="black" vector-effect="non-scaling-stroke" stroke-width="1.9451" stroke-miterlimit="10" stroke-linecap="round" stroke-linejoin="round"/>
<path d="M63.6 184.7V127.2" stroke="black" vector-effect="non-scaling-stroke" stroke-width="1.9451" stroke-miterlimit="10" stroke-linecap="round" stroke-linejoin="round"/>
<path d="M50 127.2L56.8 137.4L63.6 127.7L70.4 137.4L77.2 127.2" stroke="black" vector-effect="non-scaling-stroke" stroke-width="1.9451" stroke-miterlimit="10" stroke-linecap="round" stroke-linejoin="round"/>
<path d="M90.9 165.1H71.9V170.4H90.9V165.1Z" stroke="black" vector-effect="non-scaling-stroke" stroke-width="1.9451" stroke-miterlimit="10" stroke-linecap="round" stroke-linejoin="round"/>
<path d="M71.6 100C71.6 100 67.3 100.7 64.4 98.1C64.4 98.1 64.6 102.5 68.2 103.9" stroke="black" vector-effect="non-scaling-stroke" stroke-width="1.9451" stroke-miterlimit="10" stroke-linecap="round" stroke-linejoin="round"/>
<path d="M18.6 184.7C24.1 170.1 29.1 161.7 29.1 161.7V184.7" stroke="black" vector-effect="non-scaling-stroke" stroke-width="1.9451" stroke-miterlimit="10" stroke-linecap="round" stroke-linejoin="round"/>
<path d="M1 184.7C2 180.9 3.2 177.7 4.3 174.4C13.1 149.1 19.4 127.2 47.1 127.2H81.8C91.8 127.2 99.9 135.3 100 145.3C100 154.8 99.9 167.6 99.4 184.7" stroke="black" vector-effect="non-scaling-stroke" stroke-width="1.9451" stroke-miterlimit="10" stroke-linecap="round" stroke-linejoin="round"/>
<path d="M162.7 17.4C158.2 17 155.1 20.2 155.1 20.2" stroke="black" vector-effect="non-scaling-stroke" stroke-width="1.9451" stroke-miterlimit="10" stroke-linecap="round" stroke-linejoin="round"/>
<path d="M163.1 11C163.1 11 163.2 15.3 160.6 17.3" stroke="black" vector-effect="non-scaling-stroke" stroke-width="1.9451" stroke-miterlimit="10" stroke-linecap="round" stroke-linejoin="round"/>
<path d="M166.4 13.2C166.4 13.2 166.3 15.2 165.2 16.6" stroke="black" vector-effect="non-scaling-stroke" stroke-width="1.9451" stroke-miterlimit="10" stroke-linecap="round" stroke-linejoin="round"/>
<path d="M169 15.8C169 15.8 168.8 19.2 165.4 21.2C165.4 21.2 153.2 70 139.7 97.5C120.5 136.7 100.3 149.5 100.3 149.5" stroke="black" vector-effect="non-scaling-stroke" stroke-width="1.9451" stroke-miterlimit="10" stroke-linecap="round" stroke-linejoin="round"/>
<path d="M84.4 127.2C104.5 127.2 133.9 90.1 161.2 1" stroke="black" vector-effect="non-scaling-stroke" stroke-width="1.9451" stroke-miterlimit="10" stroke-linecap="round" stroke-linejoin="round"/>
<path d="M152.5 29.7L162.3 32.9" stroke="black" vector-effect="non-scaling-stroke" stroke-width="1.9451" stroke-miterlimit="10" stroke-linecap="round" stroke-linejoin="round"/>
<path d="M148.8 39.6L159.2 43.2" stroke="black" vector-effect="non-scaling-stroke" stroke-width="1.9451" stroke-miterlimit="10" stroke-linecap="round" stroke-linejoin="round"/>
<path d="M204.3 87.7L190.1 89.9C190.1 89.9 186.6 85 182.1 82.9C182.1 82.9 185.6 88.9 186.6 93.3L177.7 94.7C177.7 94.7 179.3 107.5 193.3 117.3C193.3 117.3 194.1 127.2 179.2 129.6C179.2 129.6 169.9 125.2 161.5 108.4C153.7 92.8 163.5 84.9 168.6 85C168.6 85 169 79.8 176.3 77C183.3 74.4 197 72.2 208.3 87L204.3 87.7Z" fill="black"/>
<path d="M214.4 120.9C218.4 121 223.5 121 223.5 121C221.8 119.7 220.8 116 220.8 116L224.2 114.4C220.7 113 216.7 107 216.7 107C216.7 107 218.8 113.6 215.5 117.5L214.4 120.9Z" fill="black"/>
<path d="M193.8 142.1C193.8 142.1 194.2 148.6 194.3 158.6" stroke="black" vector-effect="non-scaling-stroke" stroke-width="2.009" stroke-miterlimit="10" stroke-linecap="round" stroke-linejoin="round"/>
<path d="M166.1 142.4C166.1 142.4 174.9 151.1 175.1 165.4C175.1 168.4 175 170.9 174.7 173.7" stroke="black" vector-effect="non-scaling-stroke" stroke-width="1.9451" stroke-miterlimit="10" stroke-linecap="round" stroke-linejoin="round"/>
<path d="M230.6 184.7C229.6 156.8 230.4 142.4 230.4 142.4" stroke="black" vector-effect="non-scaling-stroke" stroke-width="1.9451" stroke-miterlimit="10" stroke-linecap="round" stroke-linejoin="round"/>
<path d="M241.7 147.5C241.7 147.5 239.6 165.2 239.5 184.7" stroke="black" vector-effect="non-scaling-stroke" stroke-width="1.9451" stroke-miterlimit="10" stroke-linecap="round" stroke-linejoin="round"/>
<path d="M209.4 142.1H224.1H228.4C237.8 142.1 245.8 148.9 247.3 158.2C248.3 164 247.8 171.6 250.2 180.3C250.6 181.7 251.1 183.2 251.6 184.7" stroke="black" vector-effect="non-scaling-stroke" stroke-width="1.9451" stroke-miterlimit="10" stroke-linecap="round" stroke-linejoin="round"/>
<path d="M156.9 184.7C155.3 172.1 155.1 162.3 155.4 154.9C155.6 147.8 161.5 142.1 168.6 142.1H196.2H197.6" stroke="black" vector-effect="non-scaling-stroke" stroke-width="1.9451" stroke-miterlimit="10" stroke-linecap="round" stroke-linejoin="round"/>
<path d="M185.6 142.1C185.6 142.1 186.2 161.3 184.8 184.6" stroke="black" vector-effect="non-scaling-stroke" stroke-width="1.9451" stroke-miterlimit="10" stroke-linecap="round" stroke-linejoin="round"/>
<path d="M169.6 142C169.6 135 175.3 129.3 182.3 129.3H185C189.4 129.3 193.5 131.5 195.8 135.3C196.9 137 197.6 138.6 198.1 139.8" stroke="black" vector-effect="non-scaling-stroke" stroke-width="1.9451" stroke-miterlimit="10" stroke-linecap="round" stroke-linejoin="round"/>
<path d="M199.3 95.5L205.7 104.7L201.3 105.4" stroke="black" vector-effect="non-scaling-stroke" stroke-width="1.9451" stroke-miterlimit="10" stroke-linecap="round" stroke-linejoin="round"/>
<path d="M226.3 142.1C226.3 142.1 223.1 133.2 211.4 131.1" stroke="black" vector-effect="non-scaling-stroke" stroke-width="1.9451" stroke-miterlimit="10" stroke-linecap="round" stroke-linejoin="round"/>
<path d="M191.6 101.6C192.318 101.6 192.9 101.018 192.9 100.3C192.9 99.582 192.318 99 191.6 99C190.882 99 190.3 99.582 190.3 100.3C190.3 101.018 190.882 101.6 191.6 101.6Z" fill="black"/>
<path d="M189.4 99.7C189.4 99.7 192.4 98.6 193.7 96.8" stroke="black" vector-effect="non-scaling-stroke" stroke-width="1.9451" stroke-miterlimit="10" stroke-linecap="round" stroke-linejoin="round"/>
<path d="M206.9 98.4C207.618 98.4 208.2 97.818 208.2 97.1C208.2 96.382 207.618 95.8 206.9 95.8C206.182 95.8 205.6 96.382 205.6 97.1C205.6 97.818 206.182 98.4 206.9 98.4Z" fill="black"/>
<path d="M204.6 96.6C204.6 96.6 207.6 95.5 208.9 93.7" stroke="black" vector-effect="non-scaling-stroke" stroke-width="1.9451" stroke-miterlimit="10" stroke-linecap="round" stroke-linejoin="round"/>
<path d="M222.6 180.6C222.6 180.6 215.2 182.2 207.9 179.8C206.7 179.4 205.6 179.1 204.5 178.8" stroke="black" vector-effect="non-scaling-stroke" stroke-width="1.9451" stroke-miterlimit="10" stroke-linecap="round" stroke-linejoin="round"/>
<path d="M216.6 106.9C216.6 106.9 220.6 112.9 224.1 114.3L220.7 115.9C220.7 115.9 221.7 119.7 223.4 120.9C223.4 120.9 218.6 122.5 214.1 121.3" stroke="black" vector-effect="non-scaling-stroke" stroke-width="1.9451" stroke-miterlimit="10" stroke-linecap="round" stroke-linejoin="round"/>
<path d="M200.7 112C200.7 112 202 114.3 204.4 113.9C206.8 113.5 206.4 111.1 206.4 111.1L204.2 109.5L203.9 110.5L201.8 109.8L200.7 112Z" fill="#F07E70" stroke="#F07E70" stroke-width="1.9451" stroke-miterlimit="10" stroke-linecap="round" stroke-linejoin="round"/>
<path d="M207.9 110.4C207.9 110.4 202.1 114.3 197.4 109.6" stroke="black" vector-effect="non-scaling-stroke" stroke-width="1.9451" stroke-miterlimit="10" stroke-linecap="round" stroke-linejoin="round"/>
<path d="M215.9 117.1C217.6 115 218.2 111.6 216.6 106.9C213.4 97.6 204.3 87.7 204.3 87.7L190.1 89.9C190.1 89.9 186.6 85 182.1 82.9C182.1 82.9 185.6 88.9 186.6 93.3L177.7 94.7C177.7 94.7 179.3 107.5 193.3 117.3C193.3 117.3 194.1 127.2 179.2 129.6C179.2 129.6 169.9 125.2 161.5 108.4C153.7 92.8 163.5 84.9 168.6 85C168.6 85 169 79.8 176.3 77C183.3 74.4 197 72.2 208.3 87L204.5 87.6" stroke="black" vector-effect="non-scaling-stroke" stroke-width="1.9451" stroke-miterlimit="10" stroke-linecap="round" stroke-linejoin="round"/>
<path d="M203.6 184.7C205.2 172.6 208.9 144.6 210.3 135.6C212.2 123.4 215.8 116.5 215.8 116.5" stroke="black" vector-effect="non-scaling-stroke" stroke-width="1.9451" stroke-miterlimit="10" stroke-linecap="round" stroke-linejoin="round"/>
<path d="M196.1 124.8C196.1 124.8 199.6 127.3 199.4 133.1C199.2 138.4 191.8 169.8 188 184.7" stroke="black" vector-effect="non-scaling-stroke" stroke-width="1.9451" stroke-miterlimit="10" stroke-linecap="round" stroke-linejoin="round"/>
<path d="M202.6 126.5C202.6 126.5 203.6 120.2 205.4 116.4" stroke="black" vector-effect="non-scaling-stroke" stroke-width="1.9451" stroke-miterlimit="10" stroke-linecap="round" stroke-linejoin="round"/>
<path d="M206.7 123.9C206.7 123.9 207.8 118.8 209.5 115.1" stroke="black" vector-effect="non-scaling-stroke" stroke-width="1.9451" stroke-miterlimit="10" stroke-linecap="round" stroke-linejoin="round"/>
<path d="M209.5 124.4C209.5 124.4 211.1 119.2 212.9 115.8" stroke="black" vector-effect="non-scaling-stroke" stroke-width="1.9451" stroke-miterlimit="10" stroke-linecap="round" stroke-linejoin="round"/>
<path d="M170.9 161.6L178.1 184.7" stroke="black" vector-effect="non-scaling-stroke" stroke-width="1.9451" stroke-miterlimit="10" stroke-linecap="round" stroke-linejoin="round"/>
<path d="M198.6 139.1L209.2 140.6" stroke="black" vector-effect="non-scaling-stroke" stroke-width="1.9451" stroke-miterlimit="10" stroke-linecap="round" stroke-linejoin="round"/>
<path d="M196.7 148.3L207.9 150.1" stroke="black" vector-effect="non-scaling-stroke" stroke-width="1.9451" stroke-miterlimit="10" stroke-linecap="round" stroke-linejoin="round"/>
<path d="M201.9 139.8L200.3 148.5" stroke="black" vector-effect="non-scaling-stroke" stroke-width="1.9451" stroke-miterlimit="10" stroke-linecap="round" stroke-linejoin="round"/>
<path d="M205.8 140.4L204.5 149.3" stroke="black" vector-effect="non-scaling-stroke" stroke-width="1.9451" stroke-miterlimit="10" stroke-linecap="round" stroke-linejoin="round"/>
</g>
</svg>
