<svg width="492" height="270" viewBox="0 0 492 270" fill="none" xmlns="http://www.w3.org/2000/svg">
<path d="M58.7419 41.9721C59.2564 41.9721 59.7708 42.0657 60.1918 42.253C60.1918 42.253 64.2607 38.7419 61.0336 31.9539C61.0336 31.9539 85.3067 31.2516 85.3067 12.3387L78.8994 14.4922C78.8994 14.4922 79.6009 11.262 78.5252 8.40631L74.2225 12.7132C74.2225 12.7132 74.2225 9.48304 71.7437 7.7041C71.7437 7.7041 70.2939 12.7132 65.6637 16.9733C61.0336 21.2802 56.4035 22.3101 57.4792 30.5494C57.4792 30.5494 51.0718 34.1073 56.4035 42.3466L58.7419 41.9721Z" fill="black"/>
<path d="M94.5203 114.394H88.8612C87.2243 114.394 85.5874 113.083 85.1665 111.444L82.0797 98.9918H93.6317L96.7184 111.444C97.1394 113.036 96.1104 114.394 94.5203 114.394Z" fill="black"/>
<path d="M93.959 269.676C145.851 269.676 187.918 263.2 187.918 255.211C187.918 247.222 145.851 240.745 93.959 240.745C42.0669 240.745 0 247.222 0 255.211C0 263.2 42.0669 269.676 93.959 269.676Z" fill="#F3F1ED"/>
<path d="M42.5598 198.425C42.5598 198.425 48.4059 198.8 48.7333 209.661L57.7598 183.96H45.4595L42.5598 198.425Z" fill="black"/>
<path d="M141.71 184.662H42.2792C41.9518 184.662 41.6712 184.475 41.5777 184.147C41.4373 183.726 27.7808 141.921 21.3267 119.028C17.8657 106.716 18.9882 96.7448 24.4602 90.9867C28.7629 86.4457 35.4977 84.9945 43.3549 86.8202C43.729 86.9139 43.9629 87.2884 43.9161 87.7097C43.8226 88.0842 43.4484 88.3183 43.0275 88.2715C35.6848 86.5862 29.4645 87.897 25.5359 92.0634C20.3913 97.4471 19.4091 106.904 22.7297 118.748C28.7629 140.282 41.2035 178.529 42.7936 183.304H141.71C142.131 183.304 142.412 183.632 142.412 184.007C142.412 184.381 142.131 184.662 141.71 184.662Z" fill="black"/>
<path d="M104.248 184.475C103.827 184.475 103.547 184.147 103.547 183.772V153.577H53.8312C53.5506 153.577 53.2699 153.39 53.1764 153.109C53.0829 152.828 41.9051 123.991 36.9008 109.338C33.814 100.256 33.6269 93.5614 36.3863 90.0035C37.8829 88.0373 40.2214 87.1478 43.1678 87.3351C43.5888 87.3819 43.8694 87.7096 43.8226 88.1309C43.7758 88.5523 43.4484 88.8331 43.0275 88.7863C40.5955 88.5991 38.7248 89.3013 37.5088 90.893C35.0768 94.0295 35.3574 100.396 38.2571 108.916C42.8872 122.539 52.849 148.428 54.3456 152.173H104.248C104.669 152.173 104.95 152.5 104.95 152.875V183.819C104.95 184.147 104.622 184.475 104.248 184.475Z" fill="black"/>
<path d="M89.9836 184.475C89.5627 184.475 89.2821 184.147 89.2821 183.772V153.203C89.2821 152.781 89.6095 152.5 89.9836 152.5C90.3578 152.5 90.6852 152.828 90.6852 153.203V183.772C90.6852 184.147 90.3578 184.475 89.9836 184.475Z" fill="black"/>
<path d="M181.37 234.519H164.814C164.393 234.519 164.113 234.191 164.113 233.817C164.113 233.442 164.44 233.115 164.814 233.115H180.809L196.103 161.021C196.524 159.008 196.056 156.948 194.746 155.356C193.437 153.764 191.519 152.828 189.508 152.828H160.09C159.67 152.828 159.389 152.5 159.389 152.126C159.389 151.751 159.716 151.424 160.09 151.424H189.508C191.987 151.424 194.325 152.547 195.869 154.467C197.412 156.386 198.02 158.914 197.506 161.348L182.072 234.004C182.025 234.285 181.745 234.519 181.37 234.519Z" fill="black"/>
<path d="M125.014 155.45C125.014 155.45 124.967 155.45 124.92 155.45C124.873 155.45 121.693 155.122 118.232 155.028C118.185 155.028 118.139 155.028 118.092 155.028C117.951 154.982 103.78 151.892 86.2888 140.422C64.9621 126.378 60.7062 94.6381 60.6594 94.3572C60.6126 93.9827 60.8932 93.6082 61.2674 93.5614C61.6883 93.5146 62.0157 93.7955 62.0625 94.17C62.1092 94.4977 66.2717 125.582 87.0371 139.252C103.687 150.207 117.297 153.437 118.279 153.671C121.74 153.764 124.967 154.092 125.014 154.092C125.388 154.139 125.715 154.467 125.668 154.888C125.715 155.169 125.388 155.45 125.014 155.45Z" fill="black"/>
<path d="M67.02 153.577C66.7394 153.577 66.4588 153.39 66.3652 153.109L43.4952 93.4678C41.718 88.7864 42.4195 83.59 45.3659 79.564C48.3124 75.538 53.0828 73.2909 58.0403 73.5718C66.3652 74.0867 75.111 74.6017 80.3024 74.9294C84.9793 75.2103 89.0015 76.9892 93.3042 80.6407C94.4267 81.577 95.362 82.7005 96.1103 84.0113C97.5602 86.4925 100.413 92.2974 103.266 103.112C104.388 107.325 105.277 111.164 106.119 114.534C108.411 123.897 110.188 131.294 114.21 140.844C116.081 145.291 119.121 151.424 119.167 151.471C119.355 151.845 119.214 152.266 118.84 152.454C118.466 152.641 118.045 152.501 117.858 152.126C117.811 152.079 114.724 145.853 112.854 141.406C108.785 131.715 107.008 124.272 104.716 114.862C103.874 111.351 102.985 107.699 101.863 103.486C99.1036 92.8592 96.2974 87.1947 94.8943 84.7604C94.2396 83.6368 93.3977 82.6069 92.4156 81.8111C88.2999 78.3 84.6519 76.7083 80.2556 76.4274C75.111 76.0997 66.3185 75.5848 57.9936 75.0698C53.5037 74.7889 49.201 76.8019 46.5352 80.4534C43.8693 84.105 43.2613 88.7864 44.8515 92.9997L67.7215 152.594C67.8618 152.969 67.6748 153.39 67.3006 153.53C67.2071 153.53 67.1135 153.577 67.02 153.577Z" fill="black"/>
<path d="M92.1351 153.577H92.0883C67.9087 151.658 57.1051 128.812 56.9647 128.578C56.7777 128.204 56.9647 127.783 57.3389 127.595C57.7131 127.408 58.134 127.595 58.321 127.97C58.4146 128.204 68.8908 150.3 92.2286 152.126C92.6495 152.173 92.9301 152.5 92.8834 152.922C92.8366 153.249 92.5092 153.577 92.1351 153.577Z" fill="black"/>
<path d="M83.1085 254.462H79.5073C79.3202 254.462 79.1332 254.368 78.9929 254.228C78.8526 254.087 78.8058 253.9 78.8058 253.713L80.9572 184.287C80.9572 183.866 81.2845 183.585 81.7055 183.585C82.1264 183.585 82.407 183.913 82.407 184.334L80.2556 253.011H82.5005L92.135 184.1C92.1817 183.725 92.5559 183.445 92.93 183.491C93.3042 183.538 93.5848 183.913 93.538 184.287L83.7633 253.853C83.7633 254.181 83.4827 254.462 83.1085 254.462Z" fill="black"/>
<path d="M33.2528 254.462H29.6516C29.4177 254.462 29.2306 254.368 29.0903 254.181C28.95 253.994 28.9033 253.76 28.95 253.572L44.9918 184.007C45.0853 183.632 45.4595 183.398 45.8804 183.445C46.2546 183.538 46.5352 183.913 46.4417 184.334L30.5402 253.011H32.7383L56.7776 183.913C56.9179 183.538 57.3388 183.351 57.713 183.445C58.0871 183.585 58.2742 184.007 58.1807 184.381L33.9076 253.994C33.814 254.275 33.5334 254.462 33.2528 254.462Z" fill="black"/>
<path d="M70.8551 48.058C67.628 48.058 64.9622 45.3896 64.9622 42.1595C64.9622 38.9293 67.5812 36.2609 70.8551 36.2609C74.0821 36.2609 76.748 38.9293 76.748 42.1595C76.748 45.3896 74.0821 48.058 70.8551 48.058ZM70.8551 37.7121C68.4231 37.7121 66.412 39.7251 66.412 42.1595C66.412 44.5938 68.4231 46.6068 70.8551 46.6068C73.2871 46.6068 75.2981 44.5938 75.2981 42.1595C75.2981 39.7251 73.2871 37.7121 70.8551 37.7121Z" fill="black"/>
<path d="M86.3825 46.9813C83.436 46.9813 81.004 44.5937 81.004 41.5976C81.004 38.6483 83.3892 36.214 86.3825 36.214C89.3757 36.214 91.7609 38.6015 91.7609 41.5976C91.7141 44.5937 89.3289 46.9813 86.3825 46.9813ZM86.3825 37.712C84.2311 37.712 82.4539 39.491 82.4539 41.6444C82.4539 43.7979 84.2311 45.5768 86.3825 45.5768C88.5338 45.5768 90.3111 43.7979 90.3111 41.6444C90.2643 39.4442 88.5338 37.712 86.3825 37.712Z" fill="black"/>
<path d="M67.0668 75.4911C66.7394 75.4911 66.4588 75.257 66.3652 74.9293L59.9111 49.9773C59.537 50.071 59.116 50.1646 58.6951 50.1646C56.2164 50.1646 54.2053 48.1516 54.2053 45.6704C54.2053 44.4064 54.7198 43.2361 55.6084 42.4402C53.7844 39.5378 53.1296 36.8225 53.7376 34.435C54.2988 32.0943 55.889 30.6899 56.684 30.1749C55.9825 23.6678 58.8822 21.4207 62.2496 18.8459C63.1849 18.0969 64.1671 17.3478 65.1492 16.4584C69.5923 12.3387 70.9954 7.56367 70.9954 7.51685C71.0421 7.28278 71.2292 7.09553 71.4631 7.04871C71.6969 6.95508 71.9307 7.0019 72.1178 7.14234C73.7547 8.31269 74.4095 9.99801 74.6901 11.1684L77.964 7.89137C78.151 7.70411 78.3849 7.6573 78.6187 7.70411C78.8526 7.75092 79.0396 7.93818 79.1332 8.17225C79.8815 10.0916 79.8347 12.1515 79.6944 13.4154L84.9793 11.6365C85.2132 11.5429 85.447 11.5897 85.6341 11.7301C85.8212 11.8706 85.9147 12.1046 85.9147 12.3387C85.9147 29.4259 66.7394 32.1879 62.0157 32.6093C64.6348 39.1632 60.753 42.6275 60.5659 42.8148C60.3788 43.002 60.0514 43.0488 59.8176 42.9552C59.4434 42.8148 59.0693 42.7211 58.6483 42.7211C56.9647 42.7211 55.6084 44.0787 55.6084 45.7641C55.6084 47.4494 56.9647 48.807 58.6483 48.807C59.116 48.807 59.5837 48.7133 60.0514 48.4793C60.2385 48.3857 60.4723 48.3857 60.6594 48.4793C60.8465 48.5729 60.9868 48.7602 61.0803 48.9474L67.7215 74.6484C67.8151 75.0229 67.5812 75.4443 67.2071 75.5379C67.2071 75.4911 67.1135 75.4911 67.0668 75.4911ZM72.0711 8.96809C71.3695 10.7002 69.6858 14.3049 66.1782 17.5351C65.1492 18.4714 64.1203 19.2672 63.1849 20.0162C59.8643 22.591 57.4324 24.4636 58.2274 30.4558C58.2742 30.7367 58.1339 31.0176 57.8533 31.2048C57.8533 31.2048 55.7954 32.3752 55.1874 34.8563C54.7197 36.8694 55.281 39.1632 56.8711 41.6912C57.8065 41.2699 58.9757 41.1294 60.0047 41.4571C60.7997 40.5677 62.8576 37.5248 60.4256 32.3284C60.332 32.0943 60.332 31.8602 60.4723 31.6262C60.6126 31.4389 60.8465 31.2985 61.0803 31.2985C61.1271 31.2985 67.1135 31.1112 72.9597 28.6301C80.3492 25.5403 84.231 20.3908 84.6052 13.4154L79.0864 15.1944C78.8526 15.288 78.572 15.2412 78.3849 15.0539C78.1978 14.8667 78.1043 14.6326 78.151 14.3517C78.151 14.3049 78.6187 12.1046 78.151 9.81075L74.7369 13.2282C74.5498 13.4154 74.2224 13.5091 73.9418 13.3686C73.6612 13.275 73.4741 12.9941 73.4741 12.7132C73.5209 12.6664 73.4741 10.513 72.0711 8.96809Z" fill="black"/>
<path d="M81.7523 49.8369H78.1978C77.7769 49.8369 77.4963 49.5092 77.4963 49.1347C77.4963 48.7602 77.8237 48.4325 78.1978 48.4325H80.7233L76.0932 36.5885C75.9529 36.214 76.14 35.7927 76.5141 35.6522C76.8883 35.5118 77.3092 35.699 77.4495 36.0735L82.4538 48.9475C82.5473 49.1815 82.5006 49.4156 82.3603 49.6029C82.1732 49.7433 81.9861 49.8369 81.7523 49.8369Z" fill="black"/>
<path d="M81.7523 43.0488H76.0465C75.6256 43.0488 75.345 42.7211 75.345 42.3466C75.345 41.9721 75.6724 41.6444 76.0465 41.6444H81.7523C82.1732 41.6444 82.4539 41.9721 82.4539 42.3466C82.4539 42.7211 82.1265 43.0488 81.7523 43.0488Z" fill="black"/>
<path d="M65.6637 43.0488H60.332C59.9111 43.0488 59.6305 42.7211 59.6305 42.3466C59.6305 41.9721 59.9579 41.6444 60.332 41.6444H65.6637C66.0846 41.6444 66.3652 41.9721 66.3652 42.3466C66.3652 42.7211 66.0846 43.0488 65.6637 43.0488Z" fill="black"/>
<path d="M85.2599 37.7121C84.9793 37.7121 84.6987 37.5248 84.6051 37.2907C81.4716 29.8473 78.6187 23.106 78.5719 23.0124C78.4316 22.6379 78.5719 22.2166 78.9461 22.0761C79.3202 21.9357 79.7412 22.0761 79.8815 22.4506C79.9282 22.4975 82.7811 29.2855 85.9147 36.729C86.055 37.1035 85.9147 37.5248 85.5405 37.6653C85.447 37.6653 85.3534 37.7121 85.2599 37.7121Z" fill="black"/>
<path d="M76.3738 76.0997C76.0932 76.0997 75.8593 75.9593 75.719 75.6784C75.0642 74.274 73.8483 71.2779 72.679 66.7369C72.3516 65.3793 72.7258 64.0217 73.7547 63.0854C74.7836 62.1491 76.2335 61.8682 77.4962 62.3832C78.5719 62.7577 79.6944 63.1322 80.8168 63.4131C84.3245 64.3493 87.879 63.5067 89.7965 61.3064C91.8543 59.0125 91.9946 55.5015 90.311 51.1946C89.703 49.6497 89.0014 47.9176 88.2531 46.1386C88.1128 45.7641 88.2999 45.3428 88.6273 45.2023C89.0014 45.0619 89.4223 45.2491 89.5626 45.5768C90.311 47.4026 91.0125 49.1347 91.6205 50.6796C93.538 55.4546 93.2574 59.5743 90.8722 62.2895C88.5805 64.9111 84.4648 65.8942 80.4427 64.8643C79.2735 64.5366 78.1042 64.2089 76.9818 63.7876C76.1867 63.5067 75.3449 63.6471 74.6901 64.2089C74.0821 64.7707 73.8015 65.6133 74.0353 66.4092C75.1578 70.8565 76.3738 73.759 76.9818 75.0698C77.1689 75.4443 76.9818 75.8657 76.6076 76.0529C76.6076 76.0529 76.4673 76.0997 76.3738 76.0997Z" fill="black"/>
<path d="M71.5099 41.8317C70.9954 41.8317 70.4342 41.6444 69.9197 41.2231C69.6391 40.9422 69.6391 40.4741 69.8729 40.1932C70.1536 39.9123 70.6213 39.9123 70.9019 40.1464C71.5099 40.7082 72.4452 40.0528 72.492 40.0528C72.8194 39.8187 73.2871 39.9123 73.4742 40.24C73.708 40.5677 73.6145 41.0359 73.2871 41.2231C72.9129 41.5508 72.2114 41.8317 71.5099 41.8317Z" fill="black"/>
<path d="M71.463 43.6575C72.083 43.6575 72.5855 43.1545 72.5855 42.5339C72.5855 41.9134 72.083 41.4104 71.463 41.4104C70.8431 41.4104 70.3406 41.9134 70.3406 42.5339C70.3406 43.1545 70.8431 43.6575 71.463 43.6575Z" fill="black"/>
<path d="M86.7098 41.5039C86.1953 41.5039 85.6341 41.3167 85.1197 40.8954C84.839 40.6145 84.839 40.1463 85.0729 39.8654C85.3067 39.5846 85.8212 39.5846 86.1018 39.8186C86.7098 40.3804 87.6919 39.725 87.6919 39.725C88.0193 39.4909 88.487 39.5846 88.7209 39.9123C88.9547 40.24 88.8612 40.7081 88.5338 40.9422C88.1129 41.1762 87.4113 41.5039 86.7098 41.5039Z" fill="black"/>
<path d="M86.663 43.283C87.2829 43.283 87.7855 42.7799 87.7855 42.1594C87.7855 41.5389 87.2829 41.0359 86.663 41.0359C86.0431 41.0359 85.5405 41.5389 85.5405 42.1594C85.5405 42.7799 86.0431 43.283 86.663 43.283Z" fill="black"/>
<path d="M67.815 35.2308C67.5812 35.2308 67.3474 35.1372 67.207 34.9031C66.9732 34.5754 67.0667 34.1073 67.3941 33.92C68.423 33.2178 70.855 32.2815 72.5855 33.9668C72.8661 34.2477 72.8661 34.7159 72.6323 34.9968C72.3516 35.2777 71.884 35.2777 71.6033 35.0436C70.2938 33.7796 68.3295 35.0904 68.236 35.1372C68.0957 35.184 67.9554 35.2308 67.815 35.2308Z" fill="black"/>
<path d="M82.0797 34.9032C81.8458 34.9032 81.612 34.8096 81.4717 34.5755C81.2378 34.2478 81.3314 33.7797 81.6588 33.5924C82.6877 32.8902 85.1197 31.9539 86.8501 33.6392C87.1307 33.9201 87.1307 34.3882 86.8969 34.6691C86.6163 34.95 86.1486 34.95 85.868 34.7159C84.5585 33.452 82.5941 34.7628 82.5006 34.8096C82.3603 34.8564 82.22 34.9032 82.0797 34.9032Z" fill="black"/>
<path d="M58.929 47.6834C57.7597 47.6834 56.7776 46.7003 56.7776 45.53C56.7776 45.1086 57.105 44.8278 57.4791 44.8278C57.8533 44.8278 58.1807 45.1555 58.1807 45.53C58.1807 45.9045 58.508 46.2322 58.8822 46.2322C59.3031 46.2322 59.5837 46.5599 59.5837 46.9344C59.5837 47.3089 59.3031 47.6834 58.929 47.6834Z" fill="black"/>
<path d="M77.7301 84.3858C77.5898 84.3858 77.4495 84.339 77.3559 84.2922L63.5123 75.3975C63.1849 75.1634 63.0914 74.742 63.2785 74.4143C63.5123 74.0866 63.9332 73.993 64.2606 74.1803L77.1689 82.4664L78.2913 75.6783C78.3381 75.3038 78.7122 75.0229 79.1332 75.0697C79.5073 75.1166 79.7879 75.4911 79.7412 75.9124L78.4316 83.824C78.3849 84.0581 78.2445 84.2453 78.0107 84.3858C77.9639 84.3858 77.8236 84.3858 77.7301 84.3858Z" fill="black"/>
<path d="M151.064 234.519H134.414C133.993 234.519 133.713 234.191 133.713 233.817C133.713 233.442 134.04 233.115 134.414 233.115H150.503L165.796 161.021C166.217 159.008 165.749 156.948 164.44 155.356C163.13 153.764 161.213 152.828 159.202 152.828H111.03C110.609 152.828 110.328 152.5 110.328 152.126C110.328 151.751 110.656 151.424 111.03 151.424H159.202C161.681 151.424 164.019 152.547 165.562 154.467C167.106 156.386 167.714 158.914 167.199 161.348L151.766 234.004C151.719 234.285 151.438 234.519 151.064 234.519Z" fill="black"/>
<path d="M130.813 159.429C130.766 159.429 130.719 159.429 130.673 159.429C125.622 158.446 122.254 157.837 122.207 157.837C121.833 157.791 121.553 157.416 121.599 156.995C121.646 156.62 122.02 156.339 122.441 156.386C122.488 156.386 125.855 156.948 130.953 157.978C131.327 158.071 131.608 158.446 131.515 158.82C131.468 159.195 131.14 159.429 130.813 159.429Z" fill="black"/>
<path d="M130.205 162.331C130.158 162.331 130.111 162.331 130.111 162.331C126.697 161.77 121.272 160.459 121.225 160.459C120.851 160.365 120.617 159.991 120.711 159.569C120.804 159.148 121.179 158.961 121.599 159.055C121.646 159.055 127.025 160.365 130.345 160.927C130.719 160.974 131 161.348 130.953 161.77C130.86 162.051 130.532 162.331 130.205 162.331Z" fill="black"/>
<path d="M128.381 165.093C128.334 165.093 128.288 165.093 128.241 165.093C124.64 164.391 120.384 162.893 120.197 162.846C119.822 162.706 119.635 162.285 119.776 161.91C119.916 161.536 120.337 161.348 120.711 161.489C120.758 161.489 125.06 162.987 128.521 163.689C128.896 163.783 129.176 164.157 129.083 164.532C129.036 164.813 128.708 165.093 128.381 165.093Z" fill="black"/>
<path d="M125.435 167.715C125.388 167.715 125.294 167.715 125.247 167.668C117.297 165.515 104.248 160.74 104.108 160.693C103.734 160.552 103.547 160.131 103.687 159.757C103.827 159.382 104.248 159.195 104.622 159.335C104.763 159.382 117.764 164.157 125.622 166.264C125.996 166.357 126.23 166.779 126.136 167.153C126.043 167.528 125.762 167.715 125.435 167.715Z" fill="black"/>
<path d="M108.785 162.378C108.738 162.378 108.691 162.378 108.644 162.378C108.27 162.331 107.99 161.91 108.036 161.536C109.299 154.373 111.638 152.032 111.731 151.939C112.012 151.658 112.48 151.658 112.76 151.939C113.041 152.22 113.041 152.688 112.76 152.969C112.713 153.015 110.656 155.169 109.486 161.77C109.44 162.144 109.159 162.378 108.785 162.378Z" fill="black"/>
<path d="M101.957 153.437C101.863 153.437 101.769 153.437 101.676 153.39C101.302 153.203 101.161 152.781 101.302 152.454C102.05 150.815 103.687 149.036 103.781 148.989C104.061 148.708 104.529 148.708 104.809 148.943C105.09 149.223 105.09 149.692 104.856 149.972C104.856 149.972 103.313 151.611 102.658 153.062C102.471 153.249 102.237 153.437 101.957 153.437Z" fill="black"/>
<path d="M110.656 155.824C110.562 155.824 110.469 155.824 110.375 155.778L102.611 152.735C102.237 152.594 102.05 152.173 102.19 151.798C102.331 151.424 102.752 151.237 103.126 151.377L110.889 154.42C111.264 154.56 111.451 154.982 111.31 155.356C111.217 155.637 110.936 155.824 110.656 155.824Z" fill="black"/>
<path d="M109.252 159.242C109.159 159.242 109.065 159.242 109.019 159.195L104.201 157.416C103.827 157.276 103.64 156.854 103.78 156.48C103.921 156.105 104.342 155.918 104.716 156.058L109.533 157.837C109.907 157.978 110.094 158.399 109.954 158.774C109.814 159.101 109.533 159.242 109.252 159.242Z" fill="black"/>
<path d="M168.509 125.208C168.135 125.208 167.807 124.927 167.807 124.552C167.62 121.603 165.89 119.871 165.375 119.403C140.073 116.688 122.114 107.184 111.451 99.6472C99.8987 91.4547 94.4267 84.0113 94.1928 83.6836C93.959 83.3559 94.0525 82.8877 94.3331 82.6537C94.6605 82.4196 95.1282 82.5132 95.3621 82.7941C95.4088 82.8877 100.974 90.378 112.339 98.43C122.862 105.874 140.634 115.283 165.703 117.905C165.843 117.905 165.937 117.952 166.077 118.045C166.17 118.139 168.93 120.245 169.21 124.365C169.257 124.786 168.93 125.114 168.556 125.114C168.509 125.208 168.509 125.208 168.509 125.208Z" fill="black"/>
<path d="M177.208 119.965C171.549 119.965 165.936 119.45 165.609 119.45C165.188 119.403 164.908 119.075 164.954 118.654C165.001 118.279 165.328 117.952 165.749 117.998C165.843 117.998 176.506 118.981 183.194 118.279C183.615 118.232 183.943 118.513 183.989 118.935C184.036 119.309 183.755 119.684 183.335 119.73C181.464 119.918 179.312 119.965 177.208 119.965Z" fill="black"/>
<path d="M175.664 125.582C175.384 125.582 175.103 125.395 174.963 125.114C174.215 123.008 171.876 122.071 171.876 122.071C171.502 121.931 171.315 121.509 171.455 121.135C171.596 120.76 172.017 120.573 172.391 120.714C172.531 120.76 175.337 121.884 176.319 124.599C176.46 124.974 176.272 125.395 175.898 125.536C175.805 125.582 175.711 125.582 175.664 125.582Z" fill="black"/>
<path d="M174.355 128.906C174.028 128.906 173.747 128.719 173.653 128.391C172.952 126.004 170.754 124.786 170.707 124.786C170.38 124.599 170.239 124.131 170.426 123.803C170.613 123.476 171.034 123.335 171.408 123.522C171.502 123.569 174.121 125.067 175.01 127.97C175.103 128.344 174.916 128.766 174.542 128.859C174.495 128.906 174.402 128.906 174.355 128.906Z" fill="black"/>
<path d="M171.034 131.996C166.965 131.996 164.066 128.719 163.224 127.689C126.838 126.753 103.827 109.525 103.593 109.385C103.266 109.151 103.219 108.682 103.453 108.355C103.687 108.027 104.155 107.98 104.482 108.214C104.716 108.402 127.539 125.442 163.598 126.238C163.832 126.238 164.019 126.378 164.159 126.519C164.206 126.565 167.386 130.966 171.736 130.451C171.408 129.562 170.146 128.438 169.491 127.97C169.164 127.736 169.07 127.268 169.304 126.94C169.538 126.612 170.005 126.519 170.333 126.753C170.66 126.987 173.513 129.047 173.279 131.106C173.232 131.434 172.999 131.668 172.718 131.715C172.157 131.949 171.596 131.996 171.034 131.996Z" fill="black"/>
<path d="M154.338 126.987C153.917 126.987 153.59 126.612 153.636 126.238C153.917 120.246 156.77 117.343 156.863 117.203C157.144 116.922 157.612 116.922 157.892 117.203C158.173 117.483 158.173 117.952 157.892 118.233C157.846 118.279 155.32 120.901 155.086 126.285C155.039 126.706 154.759 126.987 154.338 126.987Z" fill="black"/>
<path d="M144.844 125.582H144.797C144.376 125.536 144.095 125.208 144.142 124.787C144.61 118.513 147.79 115.377 147.93 115.236C148.211 114.956 148.679 114.956 148.959 115.236C149.24 115.517 149.24 115.985 148.959 116.266C148.913 116.313 146.013 119.216 145.639 124.88C145.545 125.301 145.218 125.582 144.844 125.582Z" fill="black"/>
<path d="M154.431 123.991C154.385 123.991 154.338 123.991 154.291 123.991L145.405 122.305C145.031 122.212 144.75 121.837 144.844 121.463C144.937 121.088 145.311 120.807 145.686 120.901L154.572 122.586C154.946 122.68 155.226 123.054 155.133 123.429C155.086 123.757 154.805 123.991 154.431 123.991Z" fill="black"/>
<path d="M155.32 121.041C155.273 121.041 155.226 121.041 155.133 121.041L146.668 119.075C146.294 118.981 146.06 118.607 146.107 118.186C146.2 117.811 146.574 117.577 146.995 117.624L155.46 119.59C155.834 119.684 156.068 120.058 156.022 120.48C155.975 120.807 155.647 121.041 155.32 121.041Z" fill="black"/>
<path d="M77.6366 57.7016C77.5431 57.7016 77.4963 57.7016 77.4028 57.6548C73.9886 56.5781 73.5209 52.4585 73.5209 52.318C73.4742 52.0371 73.6145 51.8031 73.8483 51.6626C74.0822 51.5222 74.3628 51.4754 74.5966 51.6158C74.6434 51.6158 77.4963 53.067 80.5363 52.7393C80.9104 52.6925 81.2846 52.9734 81.3313 53.3947C81.3781 53.7693 81.0975 54.1438 80.6766 54.1906C78.5252 54.4247 76.5141 53.9565 75.2514 53.4884C75.6255 54.5183 76.3738 55.8759 77.8237 56.344C78.1978 56.4845 78.4317 56.859 78.2914 57.2335C78.1978 57.5144 77.9172 57.7016 77.6366 57.7016Z" fill="black"/>
<path d="M136.191 219.773C135.911 219.773 135.63 219.585 135.49 219.304L123.47 184.428C123.33 184.053 123.564 183.632 123.938 183.492C124.312 183.351 124.733 183.585 124.873 183.96L136.893 218.836C137.033 219.211 136.799 219.632 136.425 219.773C136.332 219.773 136.285 219.773 136.191 219.773Z" fill="black"/>
<path d="M139.793 196.412C139.465 196.412 139.138 196.178 139.091 195.85L136.706 184.334C136.612 183.96 136.893 183.538 137.267 183.492C137.641 183.398 138.062 183.679 138.109 184.053L140.494 195.57C140.588 195.944 140.307 196.365 139.933 196.412C139.886 196.412 139.839 196.412 139.793 196.412Z" fill="black"/>
<path d="M168.415 254.462H130.86C130.626 254.462 130.439 254.368 130.299 254.228C130.158 254.087 130.111 253.853 130.111 253.666L142.271 176.376H104.201C103.78 176.376 103.5 176.048 103.5 175.674C103.5 175.299 103.827 174.971 104.201 174.971H143.113C143.347 174.971 143.534 175.065 143.674 175.205C143.815 175.346 143.862 175.58 143.862 175.767L131.702 253.057H166.357C163.972 251.138 159.342 247.299 154.899 243.32C151.906 240.652 149.661 237.656 148.164 234.425C147.977 234.051 148.164 233.63 148.538 233.489C148.913 233.302 149.334 233.489 149.474 233.864C150.877 236.907 153.028 239.762 155.881 242.29C162.148 247.861 168.789 253.198 168.883 253.245C169.117 253.432 169.21 253.76 169.117 254.041C168.977 254.275 168.696 254.462 168.415 254.462Z" fill="black"/>
<path d="M198.722 254.462H169.631C169.21 254.462 168.93 254.134 168.93 253.76C168.93 253.385 169.257 253.057 169.631 253.057H196.617C194.279 251.232 189.882 247.627 185.533 243.507C181.745 239.903 179.687 236.111 178.798 234.145C178.611 233.77 178.798 233.349 179.172 233.208C179.546 233.021 179.967 233.208 180.108 233.583C180.949 235.455 182.914 239.107 186.515 242.524C192.735 248.423 199.096 253.198 199.189 253.245C199.423 253.432 199.517 253.76 199.423 254.041C199.33 254.321 199.002 254.462 198.722 254.462Z" fill="black"/>
<path d="M162.055 248.563C162.008 248.563 161.961 248.563 161.961 248.563C161.587 248.516 161.306 248.142 161.353 247.721L172.578 176.329H163.692C163.271 176.329 162.99 176.001 162.99 175.627C162.99 175.252 163.318 174.925 163.692 174.925H173.42C173.653 174.925 173.841 175.018 173.981 175.159C174.121 175.299 174.168 175.533 174.168 175.72L162.756 247.955C162.71 248.329 162.382 248.563 162.055 248.563Z" fill="black"/>
<path d="M133.292 239.107C132.871 239.107 132.59 238.779 132.59 238.405C132.59 237.983 132.918 237.702 133.292 237.702C133.339 237.702 138.951 237.656 142.599 233.583C142.879 233.302 143.3 233.255 143.628 233.536C143.908 233.817 143.955 234.238 143.674 234.566C139.606 239.06 133.572 239.107 133.292 239.107Z" fill="black"/>
<path d="M163.598 239.107C163.177 239.107 162.896 238.779 162.896 238.405C162.896 237.983 163.224 237.702 163.598 237.702C163.645 237.702 169.257 237.656 172.905 233.583C173.186 233.302 173.607 233.255 173.934 233.536C174.215 233.817 174.261 234.238 173.981 234.566C169.865 239.06 163.832 239.107 163.598 239.107Z" fill="black"/>
<path d="M144.657 242.524C144.563 242.524 144.423 242.477 144.329 242.431C143.955 242.243 143.815 241.822 144.002 241.448C144.844 239.715 147.416 236.813 151.158 237.656L155.788 231.897C156.022 231.57 156.489 231.523 156.817 231.804C157.144 232.038 157.191 232.506 156.91 232.834L151.999 238.966C151.812 239.2 151.485 239.294 151.204 239.2C149.614 238.686 148.118 239.013 146.808 240.184C145.779 241.073 145.265 242.103 145.265 242.103C145.171 242.337 144.937 242.524 144.657 242.524Z" fill="black"/>
<path d="M148.913 244.397C148.726 244.397 148.585 244.35 148.445 244.21C148.118 243.976 148.118 243.507 148.351 243.18C148.445 243.039 151.064 239.996 154.525 241.073C154.899 241.213 155.133 241.588 154.993 241.963C154.852 242.337 154.478 242.571 154.104 242.431C151.579 241.635 149.474 244.069 149.474 244.069C149.334 244.303 149.147 244.397 148.913 244.397Z" fill="black"/>
<path d="M157.752 240.698C156.396 240.698 154.011 240.184 151.579 239.294C151.298 239.2 151.111 238.966 151.111 238.685C151.111 238.405 151.251 238.124 151.485 237.983C153.917 236.672 156.396 235.736 157.659 235.596C158.313 235.549 158.968 235.736 159.482 236.204C159.997 236.626 160.324 237.281 160.371 237.936C160.465 239.341 159.436 240.558 158.033 240.652C157.986 240.698 157.846 240.698 157.752 240.698ZM153.73 238.451C155.647 239.013 157.238 239.294 157.939 239.2C158.547 239.154 158.968 238.639 158.921 238.03C158.921 237.749 158.781 237.468 158.547 237.281C158.313 237.094 158.033 237 157.752 237C157.05 237.094 155.554 237.609 153.73 238.451Z" fill="black"/>
<path d="M175.15 242.524C175.057 242.524 174.916 242.477 174.823 242.431C174.449 242.243 174.308 241.822 174.495 241.448C175.337 239.715 177.909 236.813 181.651 237.656L186.281 231.897C186.515 231.57 186.983 231.523 187.31 231.804C187.637 232.038 187.684 232.506 187.404 232.834L182.493 238.966C182.306 239.2 181.978 239.294 181.698 239.2C180.108 238.686 178.611 239.013 177.301 240.184C176.273 241.073 175.758 242.103 175.758 242.103C175.665 242.337 175.384 242.524 175.15 242.524Z" fill="black"/>
<path d="M179.406 244.397C179.266 244.397 179.079 244.35 178.938 244.21C178.611 243.976 178.611 243.507 178.845 243.18C178.938 243.039 181.557 239.996 185.018 241.073C185.393 241.213 185.626 241.588 185.486 241.963C185.346 242.337 184.972 242.571 184.597 242.431C182.025 241.635 179.967 244.069 179.967 244.069C179.827 244.303 179.593 244.397 179.406 244.397Z" fill="black"/>
<path d="M188.245 240.698C186.889 240.698 184.504 240.184 182.072 239.294C181.791 239.2 181.604 238.966 181.604 238.685C181.604 238.405 181.745 238.124 181.978 237.983C184.41 236.672 186.889 235.736 188.152 235.596C188.807 235.549 189.461 235.736 189.976 236.204C190.49 236.626 190.818 237.281 190.865 237.936C190.958 239.341 189.929 240.558 188.526 240.652C188.433 240.698 188.339 240.698 188.245 240.698ZM184.223 238.451C186.141 239.013 187.731 239.294 188.433 239.2C189.041 239.154 189.461 238.639 189.415 238.03C189.415 237.749 189.274 237.468 189.041 237.281C188.807 237.094 188.526 237 188.245 237C187.544 237.094 186.047 237.609 184.223 238.451Z" fill="black"/>
<path d="M151.438 230.633H134.648C134.227 230.633 133.947 230.306 133.947 229.931C133.947 229.557 134.274 229.229 134.648 229.229H151.438C151.859 229.229 152.14 229.557 152.14 229.931C152.14 230.306 151.859 230.633 151.438 230.633Z" fill="black"/>
<path d="M181.932 230.633H165.141C164.721 230.633 164.44 230.306 164.44 229.931C164.44 229.557 164.767 229.229 165.141 229.229H181.932C182.352 229.229 182.633 229.557 182.633 229.931C182.633 230.306 182.352 230.633 181.932 230.633Z" fill="black"/>
<path d="M94.567 103.58H83.015C82.5941 103.58 82.3135 103.252 82.3135 102.877C82.3135 102.503 82.6409 102.175 83.015 102.175H94.567C94.9879 102.175 95.2685 102.503 95.2685 102.877C95.2685 103.252 94.9879 103.58 94.567 103.58Z" fill="white"/>
<path d="M94.5202 115.096H88.8612C86.8969 115.096 84.9794 113.551 84.4649 111.585L81.3781 99.1323C81.3314 98.8982 81.3781 98.6641 81.5184 98.5237C81.6587 98.3364 81.8458 98.2428 82.0797 98.2428H93.6316C93.959 98.2428 94.2396 98.4769 94.3332 98.8046L97.4199 111.257C97.6538 112.287 97.4667 113.27 96.9054 113.972C96.3442 114.721 95.5024 115.096 94.5202 115.096ZM83.015 99.694L85.868 111.257C86.1953 112.568 87.5516 113.645 88.8612 113.645H94.5202C95.0815 113.645 95.5024 113.457 95.783 113.083C96.0636 112.708 96.1571 112.147 96.0168 111.585L93.0704 99.694H83.015Z" fill="black"/>
<path d="M397.746 267.481C449.638 267.481 491.705 261.005 491.705 253.016C491.705 245.027 449.638 238.55 397.746 238.55C345.854 238.55 303.787 245.027 303.787 253.016C303.787 261.005 345.854 267.481 397.746 267.481Z" fill="#F3F1ED"/>
<path d="M326.938 173.432C326.938 173.432 338.49 170.529 343.915 160.792L354.017 167.299L361.594 171.278L366.27 173.104L357.618 173.478H326.938V173.432Z" fill="black"/>
<path d="M402.797 150.258H424.498L432.075 130.362C432.075 130.362 426.275 139.023 420.523 143.002C414.723 147.028 406.773 149.931 402.797 150.258Z" fill="black"/>
<path d="M351.117 196.23C351.117 196.23 358.367 196.604 358.694 207.465L367.72 181.764H353.97L351.117 196.23Z" fill="black"/>
<path d="M449.426 182.467H331.615C331.194 182.467 330.913 182.139 330.913 181.764V173.806C330.913 173.385 331.241 173.104 331.615 173.104C331.989 173.104 332.316 173.432 332.316 173.806V181.062H448.865C450.455 176.24 462.895 137.993 468.929 116.505C472.109 105.27 470.986 96.1413 465.889 90.7577C461.633 86.3103 455.038 84.8591 447.228 86.6848C446.854 86.7784 446.433 86.5444 446.339 86.123C446.246 85.7485 446.479 85.3272 446.9 85.2336C455.225 83.3142 462.334 84.9059 466.964 89.7277C472.436 95.4859 473.652 105.13 470.332 116.88C463.877 139.772 450.221 181.577 450.081 181.999C449.987 182.279 449.706 182.467 449.426 182.467Z" fill="black"/>
<path d="M387.457 182.279C387.036 182.279 386.755 181.952 386.755 181.577V150.633C386.755 150.212 387.083 149.931 387.457 149.931H437.359C438.809 146.139 448.771 120.297 453.448 106.675C456.254 98.3884 456.441 92.0685 453.869 88.7447C452.559 87.0594 450.548 86.2635 448.023 86.4508C447.649 86.4976 447.275 86.1699 447.228 85.7954C447.181 85.3741 447.508 85.0464 447.882 84.9995C450.922 84.7655 453.354 85.7486 454.991 87.8552C457.002 90.4768 458.593 95.9072 454.758 107.096C449.753 121.749 438.622 150.586 438.482 150.867C438.388 151.148 438.108 151.335 437.827 151.335H388.159V181.53C388.159 181.952 387.831 182.279 387.457 182.279Z" fill="black"/>
<path d="M401.722 182.279C401.301 182.279 401.02 181.952 401.02 181.577V151.008C401.02 150.586 401.347 150.305 401.722 150.305C402.096 150.305 402.423 150.633 402.423 151.008V181.577C402.423 181.952 402.096 182.279 401.722 182.279Z" fill="black"/>
<path d="M342.091 182.279C341.67 182.279 341.389 181.952 341.389 181.577V173.619C341.389 173.198 341.717 172.917 342.091 172.917C342.465 172.917 342.792 173.244 342.792 173.619V181.577C342.839 181.952 342.512 182.279 342.091 182.279Z" fill="black"/>
<path d="M387.27 177.926C370.293 177.926 355.327 169.64 345.739 162.664C335.403 155.127 328.949 147.496 328.902 147.45C328.668 147.122 328.668 146.701 328.996 146.42C329.323 146.186 329.744 146.186 330.025 146.513C330.258 146.794 355.467 176.474 387.27 176.474C387.691 176.474 387.971 176.802 387.971 177.177C387.971 177.551 387.644 177.926 387.27 177.926Z" fill="black"/>
<path d="M325.815 222.961H310.288C309.961 222.961 309.68 222.727 309.587 222.399L294.153 157.936C293.638 155.783 294.106 153.582 295.462 151.85C296.819 150.118 298.83 149.135 301.028 149.135H331.615C332.036 149.135 332.316 149.463 332.316 149.837C332.316 150.212 331.989 150.539 331.615 150.539H301.028C299.297 150.539 297.66 151.335 296.585 152.693C295.509 154.05 295.135 155.829 295.509 157.515L310.849 221.416H325.815C326.236 221.416 326.517 221.744 326.517 222.118C326.517 222.493 326.236 222.961 325.815 222.961Z" fill="black"/>
<path d="M330.539 252.267H281.759C281.432 252.267 281.151 252.033 281.057 251.705C280.964 251.377 281.151 251.049 281.432 250.909C281.572 250.815 296.304 243.653 304.489 238.644C312.346 233.869 313.889 230.685 312.486 222.399C312.439 222.025 312.673 221.65 313.094 221.557C313.468 221.463 313.842 221.744 313.936 222.165C315.479 231.013 313.609 234.852 305.284 239.908C299.204 243.606 289.569 248.522 284.892 250.862H329.744L317.584 173.572C317.537 173.385 317.631 173.151 317.771 173.01C317.911 172.87 318.098 172.776 318.332 172.776H366.738C367.159 172.776 367.44 173.104 367.44 173.478C367.44 173.853 367.112 174.181 366.738 174.181H319.081L331.241 251.471C331.287 251.658 331.194 251.892 331.054 252.033C330.96 252.173 330.726 252.267 330.539 252.267Z" fill="black"/>
<path d="M317.818 238.597C317.023 238.597 316.181 238.503 315.386 238.316C307.809 236.631 303.694 227.642 303.507 227.268C303.319 226.893 303.507 226.472 303.881 226.332C304.255 226.144 304.676 226.332 304.816 226.706C304.863 226.8 308.838 235.414 315.713 236.958C319.314 237.754 323.103 236.49 327.031 233.167C327.312 232.886 327.78 232.932 328.06 233.26C328.341 233.541 328.294 234.009 327.967 234.29C324.506 237.099 321.092 238.597 317.818 238.597Z" fill="black"/>
<path d="M309.914 243.232C309.68 243.232 309.493 243.138 309.353 242.951L306.126 238.925C305.892 238.597 305.939 238.176 306.219 237.895C306.547 237.661 306.967 237.707 307.248 237.988L310.475 242.014C310.709 242.342 310.662 242.763 310.382 243.044C310.241 243.185 310.101 243.232 309.914 243.232Z" fill="black"/>
<path d="M306.687 244.683C306.453 244.683 306.266 244.589 306.126 244.402L303.273 240.844C303.039 240.516 303.086 240.095 303.366 239.814C303.694 239.58 304.115 239.627 304.395 239.908L307.248 243.466C307.482 243.793 307.435 244.215 307.155 244.495C307.014 244.636 306.827 244.683 306.687 244.683Z" fill="black"/>
<path d="M303.413 246.134C303.179 246.134 302.992 246.04 302.852 245.853L300.186 242.529C299.952 242.202 299.999 241.78 300.279 241.499C300.607 241.265 301.028 241.312 301.308 241.593L303.974 244.917C304.208 245.245 304.161 245.666 303.881 245.947C303.74 246.087 303.6 246.134 303.413 246.134Z" fill="black"/>
<path d="M303.881 237.052C302.945 237.052 302.103 236.865 301.495 236.443C301.028 236.069 300.467 235.414 300.56 234.103C300.654 232.839 301.308 232.277 301.87 231.996C304.395 230.732 309.727 233.915 310.335 234.29C310.569 234.43 310.709 234.711 310.662 234.945C310.662 235.226 310.475 235.46 310.194 235.554C309.727 235.788 306.453 237.052 303.881 237.052ZM303.319 233.166C302.992 233.166 302.711 233.213 302.478 233.307C302.291 233.401 302.01 233.588 301.963 234.243C301.916 234.899 302.15 235.133 302.291 235.273C303.273 236.022 305.985 235.46 308.137 234.758C306.593 233.915 304.582 233.166 303.319 233.166Z" fill="black"/>
<path d="M275.445 200.116C275.352 200.116 275.258 200.116 275.165 200.069C269.973 197.915 266.84 194.779 265.811 190.753C263.893 183.262 270.02 175.445 270.254 175.117C270.488 174.789 270.955 174.742 271.283 175.023C271.61 175.257 271.657 175.725 271.376 176.053C271.329 176.147 265.437 183.59 267.167 190.425C268.102 193.983 270.955 196.792 275.679 198.758C276.053 198.898 276.24 199.32 276.053 199.694C276.006 199.975 275.726 200.116 275.445 200.116Z" fill="black"/>
<path d="M259.59 188.506C259.497 188.506 259.403 188.506 259.31 188.459C258.936 188.272 258.795 187.85 258.936 187.523L261.04 182.841C261.227 182.467 261.648 182.326 261.976 182.467C262.35 182.654 262.49 183.075 262.35 183.403L260.245 188.084C260.105 188.365 259.871 188.506 259.59 188.506Z" fill="black"/>
<path d="M256.831 186.305C256.737 186.305 256.644 186.305 256.55 186.259C256.176 186.071 256.036 185.65 256.176 185.322L258.047 181.156C258.234 180.781 258.655 180.641 258.982 180.781C259.357 180.969 259.497 181.39 259.357 181.718L257.486 185.884C257.345 186.118 257.112 186.305 256.831 186.305Z" fill="black"/>
<path d="M254.072 184.058C253.978 184.058 253.885 184.058 253.791 184.011C253.417 183.824 253.277 183.403 253.417 183.075L255.147 179.236C255.334 178.862 255.755 178.721 256.083 178.862C256.457 179.049 256.597 179.47 256.457 179.798L254.726 183.637C254.586 183.871 254.352 184.058 254.072 184.058Z" fill="black"/>
<path d="M266.325 185.088C266.138 185.088 265.998 185.042 265.857 184.901C265.343 184.433 260.666 180.313 261.134 177.504C261.227 176.896 261.601 176.1 262.771 175.632C263.94 175.164 264.735 175.491 265.249 175.819C267.541 177.458 267.12 183.731 267.073 184.433C267.073 184.714 266.886 184.948 266.606 185.042C266.512 185.042 266.419 185.088 266.325 185.088ZM263.893 176.849C263.753 176.849 263.566 176.896 263.332 176.989C262.724 177.224 262.584 177.551 262.584 177.785C262.397 179.002 264.08 181.156 265.717 182.794C265.717 180.501 265.437 177.739 264.408 177.036C264.267 176.896 264.127 176.849 263.893 176.849Z" fill="black"/>
<path d="M288.26 196.23C288.213 196.23 288.166 196.23 288.119 196.23C287.932 196.183 287.745 196.09 287.652 195.902L278.625 181.811C278.392 181.484 278.485 181.015 278.859 180.828C279.187 180.594 279.654 180.688 279.841 181.062L288.447 194.498L300.841 185.182C301.168 184.948 301.636 184.995 301.87 185.322C302.103 185.65 302.057 186.118 301.729 186.352L288.681 196.043C288.54 196.136 288.4 196.23 288.26 196.23Z" fill="black"/>
<path d="M260.9 210.976C260.853 210.976 260.806 210.976 260.713 210.976C260.526 210.93 260.339 210.789 260.245 210.602L238.077 167.112C237.936 166.831 237.983 166.456 238.264 166.222C238.544 165.988 238.918 165.988 239.152 166.175C239.293 166.269 252.388 176.147 260.526 181.156C268.804 186.259 272.312 185.556 278.625 180.875C279.187 180.454 282.694 177.364 296.07 165.052C296.351 164.771 296.819 164.818 297.099 165.099C297.38 165.379 297.333 165.848 297.052 166.128C286.108 176.194 280.356 181.39 279.467 182.045C272.218 187.382 268.009 187.476 259.731 182.373C253.697 178.628 244.952 172.261 240.696 169.125L261.04 209.104L285.267 191.502C285.594 191.268 286.062 191.361 286.295 191.642C286.529 191.97 286.436 192.438 286.155 192.672L261.227 210.742C261.181 210.93 261.04 210.976 260.9 210.976Z" fill="black"/>
<path d="M387.27 153.161C387.176 153.161 387.083 153.161 386.989 153.114L341.296 132.516C338.162 131.111 334.468 131.673 331.942 134.061C327.826 137.9 321.279 143.939 314.217 150.446C313.936 150.727 313.468 150.68 313.188 150.399C312.907 150.118 312.954 149.65 313.235 149.369C320.297 142.862 326.798 136.823 330.913 132.984C333.86 130.222 338.162 129.567 341.81 131.205L387.504 151.803C387.878 151.991 388.018 152.412 387.878 152.74C387.784 153.021 387.551 153.161 387.27 153.161Z" fill="black"/>
<path d="M389.749 141.598C379.88 141.598 372.584 137.946 372.491 137.9C366.458 134.482 365.616 129.988 365.616 129.801C365.569 129.426 365.803 129.052 366.224 128.958C366.598 128.911 366.972 129.145 367.066 129.567C367.066 129.613 367.861 133.639 373.192 136.636C373.333 136.682 388.626 144.313 404.715 136.963C420.803 129.613 429.502 92.2557 429.596 91.8812C429.689 91.5067 430.064 91.2258 430.484 91.3194C430.859 91.413 431.139 91.7876 431.046 92.2089C431.046 92.3025 428.801 101.899 424.592 112.245C418.886 126.29 412.432 135.044 405.323 138.274C399.851 140.755 394.472 141.598 389.749 141.598Z" fill="black"/>
<path d="M424.498 151.382C424.404 151.382 424.311 151.382 424.217 151.335C423.843 151.195 423.656 150.773 423.796 150.399L445.638 93.3792C447.181 89.3532 446.573 84.9059 444.047 81.3948C441.522 77.9305 437.406 76.0112 433.15 76.2452C425.2 76.7134 416.828 77.2283 411.87 77.556C403.592 78.071 398.728 83.6419 391.339 92.0684C388.766 95.0177 385.82 98.3883 382.359 101.946C368.936 115.756 359.021 115.71 358.554 115.663C358.133 115.663 357.852 115.335 357.852 114.914C357.852 114.492 358.226 114.212 358.6 114.212C358.928 114.212 368.515 114.071 381.283 100.916C384.744 97.3584 387.644 94.0346 390.216 91.0853C397.84 82.3779 402.891 76.6197 411.73 76.1048C416.688 75.7771 425.059 75.3089 433.01 74.794C437.78 74.5131 442.364 76.6666 445.17 80.5053C448.023 84.3909 448.678 89.3532 446.947 93.8474L425.106 150.867C425.059 151.195 424.779 151.382 424.498 151.382Z" fill="black"/>
<path d="M380.021 140.147C379.927 140.147 379.834 140.147 379.693 140.1C379.319 139.913 379.179 139.491 379.366 139.117C383.388 130.503 384.978 123.715 386.896 115.101C387.691 111.59 388.626 107.564 389.795 103.07C393.771 87.902 397.746 83.0801 397.886 82.8929C398.12 82.5652 398.588 82.5652 398.915 82.7992C399.243 83.0801 399.243 83.5014 399.009 83.8291C398.962 83.876 395.08 88.651 391.198 103.444C390.029 107.892 389.141 111.918 388.346 115.429C386.381 124.136 384.791 131.018 380.675 139.725C380.582 140.006 380.301 140.147 380.021 140.147Z" fill="black"/>
<path d="M362.108 126.055C361.734 126.055 361.453 125.775 361.407 125.447C361.36 125.072 361.64 124.698 362.015 124.651C362.155 124.651 377.822 122.544 387.036 114.586C387.317 114.305 387.784 114.352 388.065 114.68C388.346 114.961 388.299 115.429 387.971 115.71C378.384 123.949 362.856 126.055 362.155 126.149C362.155 126.055 362.108 126.055 362.108 126.055Z" fill="black"/>
<path d="M399.57 151.382C399.196 151.382 398.869 151.101 398.869 150.727C398.822 150.305 399.149 149.978 399.523 149.931C425.106 147.824 433.15 126.056 433.244 125.821C433.384 125.447 433.805 125.26 434.179 125.4C434.553 125.541 434.74 125.962 434.6 126.336C434.507 126.571 432.496 132.141 427.164 138.04C422.253 143.517 413.507 150.258 399.617 151.382C399.57 151.382 399.57 151.382 399.57 151.382Z" fill="black"/>
<path d="M394.145 151.007C394.051 151.007 394.005 151.008 393.911 150.961C393.537 150.82 393.35 150.446 393.443 150.024C395.127 145.015 393.49 141.832 393.49 141.785C393.303 141.411 393.443 140.989 393.771 140.802C394.145 140.615 394.566 140.755 394.753 141.083C394.846 141.223 396.67 144.781 394.8 150.446C394.706 150.82 394.425 151.007 394.145 151.007Z" fill="black"/>
<path d="M383.528 151.242C383.435 151.242 383.295 151.195 383.201 151.148C382.827 150.961 382.686 150.539 382.874 150.165C385.493 144.968 384.744 141.411 384.744 141.364C384.651 140.989 384.885 140.568 385.306 140.521C385.68 140.427 386.101 140.662 386.147 141.083C386.194 141.223 387.036 145.156 384.183 150.867C384.043 151.101 383.809 151.242 383.528 151.242Z" fill="black"/>
<path d="M391.619 141.223C391.526 141.223 391.432 141.223 391.385 141.177C391.011 141.036 390.824 140.615 390.965 140.24L414.209 76.4793C414.349 76.1048 414.77 75.9175 415.144 76.058C415.518 76.1984 415.705 76.6198 415.565 76.9943L392.321 140.755C392.181 141.036 391.9 141.223 391.619 141.223Z" fill="black"/>
<path d="M367.019 137.244C366.925 137.244 366.785 137.197 366.692 137.151C359.115 133.171 355.186 129.988 354.999 129.848C354.672 129.613 354.625 129.145 354.906 128.818C355.14 128.49 355.607 128.443 355.935 128.724C355.981 128.771 359.957 132.001 367.393 135.887C367.767 136.074 367.861 136.495 367.72 136.87C367.533 137.104 367.3 137.244 367.019 137.244Z" fill="black"/>
<path d="M363.418 139.07C363.324 139.07 363.231 139.07 363.137 139.023C356.964 136.495 352.661 132.89 352.474 132.75C352.146 132.516 352.146 132.048 352.38 131.72C352.614 131.392 353.082 131.392 353.409 131.626C353.456 131.673 357.759 135.184 363.698 137.665C364.072 137.806 364.259 138.227 364.072 138.602C363.979 138.883 363.698 139.07 363.418 139.07Z" fill="black"/>
<path d="M364.868 135.98C364.54 135.98 364.26 135.793 364.166 135.465L352.895 99.3246L326.985 107.423L334.514 131.626C334.655 132.001 334.421 132.422 334.047 132.516C333.673 132.656 333.252 132.422 333.158 132.048L325.394 107.143C325.348 106.955 325.348 106.768 325.441 106.581C325.535 106.394 325.675 106.3 325.862 106.206L353.175 97.6861C353.362 97.6393 353.549 97.6393 353.736 97.733C353.924 97.8266 354.017 97.967 354.111 98.1543L365.569 134.997C365.709 135.372 365.476 135.793 365.101 135.887C365.008 135.98 364.961 135.98 364.868 135.98Z" fill="black"/>
<path d="M327.452 120.438C324.459 120.438 319.174 119.736 314.217 115.756C313.889 115.522 313.842 115.054 314.123 114.727C314.357 114.399 314.825 114.352 315.152 114.633C322.027 120.11 329.65 118.846 329.744 118.846C330.118 118.753 330.492 119.033 330.586 119.408C330.679 119.782 330.399 120.157 330.025 120.251C329.838 120.251 328.902 120.438 327.452 120.438Z" fill="black"/>
<path d="M308.137 134.014C307.809 134.014 307.529 133.827 307.435 133.499C307.295 133.124 307.529 132.703 307.903 132.609C308.043 132.563 322.869 127.881 332.27 126.805C332.644 126.758 333.018 127.039 333.065 127.46C333.111 127.881 332.831 128.209 332.41 128.256C323.196 129.332 308.464 133.967 308.324 134.014C308.277 133.967 308.183 134.014 308.137 134.014Z" fill="black"/>
<path d="M305.237 130.363C304.91 130.363 304.582 130.128 304.535 129.801C304.442 129.426 304.722 129.005 305.097 128.958C305.143 128.958 310.615 127.881 316.695 126.805C317.07 126.758 317.444 126.992 317.537 127.413C317.584 127.788 317.35 128.162 316.929 128.256C310.849 129.333 305.424 130.409 305.377 130.409C305.33 130.363 305.284 130.363 305.237 130.363Z" fill="black"/>
<path d="M303.413 126.383C302.992 126.383 302.711 126.056 302.711 125.681C302.711 125.306 303.039 124.979 303.413 124.979C303.46 124.979 309.54 124.979 315.199 123.902C315.573 123.808 315.947 124.089 316.041 124.464C316.134 124.838 315.854 125.213 315.479 125.306C309.727 126.383 303.507 126.383 303.413 126.383Z" fill="black"/>
<path d="M310.615 122.404C306.827 122.404 304.582 122.076 304.442 122.076C304.068 122.029 303.787 121.655 303.834 121.28C303.881 120.906 304.255 120.625 304.629 120.672C304.676 120.672 309.727 121.374 317.49 120.672C317.865 120.625 318.239 120.906 318.286 121.327C318.332 121.749 318.052 122.076 317.631 122.123C314.918 122.31 312.533 122.404 310.615 122.404Z" fill="black"/>
<path d="M319.735 101.853L321.606 102.929L310.428 122.357L307.669 124.932L308.511 121.234L319.735 101.853Z" fill="black"/>
<path d="M307.669 125.634C307.529 125.634 307.435 125.587 307.295 125.541C307.014 125.4 306.874 125.073 306.967 124.745L307.856 121.093C307.856 121.046 307.903 120.953 307.95 120.906L319.174 101.478C319.268 101.291 319.408 101.197 319.595 101.15C319.782 101.104 319.969 101.15 320.156 101.244L322.027 102.321C322.354 102.508 322.495 102.976 322.308 103.304L311.083 122.732C311.036 122.779 310.99 122.825 310.943 122.919L308.183 125.494C307.996 125.587 307.856 125.634 307.669 125.634ZM309.212 121.515L308.932 122.732L309.867 121.889L320.671 103.163L320.063 102.789L309.212 121.515Z" fill="black"/>
<path d="M430.438 52.4167C430.017 52.4167 429.736 52.089 429.736 51.7145C429.736 51.34 430.064 51.0123 430.438 51.0123C432.308 51.0123 433.852 49.4674 433.852 47.5949C433.852 45.7223 432.308 44.1774 430.438 44.1774C428.567 44.1774 427.024 45.7223 427.024 47.5949C427.024 48.0162 426.696 48.2971 426.322 48.2971H421.973C421.692 48.2971 421.458 48.1566 421.318 47.9226C421.177 47.6885 421.224 47.4076 421.365 47.1735C423.703 43.522 429.456 33.3633 427.819 29.8055C426.556 27.0434 424.825 27.3243 420.756 28.2138C419.26 28.5415 417.529 28.916 415.565 29.1501C408.55 29.8991 405.837 28.401 405.744 28.3542C405.416 28.167 405.276 27.6988 405.463 27.3711C405.65 27.0434 406.118 26.903 406.445 27.0902C406.492 27.1371 408.971 28.401 415.425 27.7456C417.296 27.5584 418.979 27.1839 420.476 26.8562C424.311 26.0135 427.351 25.3581 429.175 29.2437C431.139 33.5038 425.48 43.4284 423.329 46.8927H425.667C425.995 44.5519 428.052 42.7262 430.484 42.7262C433.197 42.7262 435.348 44.9265 435.348 47.5949C435.348 50.2633 433.15 52.4167 430.438 52.4167Z" fill="black"/>
<path d="M424.732 76.6197C424.685 76.6197 424.592 76.6197 424.545 76.5729C424.171 76.4793 423.937 76.058 424.03 75.6834L430.905 51.5273C430.999 51.1528 431.42 50.9187 431.794 51.0123C432.168 51.106 432.402 51.5273 432.308 51.9018L425.433 76.058C425.34 76.3857 425.059 76.6197 424.732 76.6197Z" fill="black"/>
<path d="M412.198 29.1033C412.011 29.1033 411.87 29.0565 411.73 28.916C405.369 23.2983 406.024 16.2762 406.071 15.9953C406.118 15.6208 406.445 15.2931 406.866 15.3399C407.24 15.3867 407.568 15.7144 407.521 16.1358C407.521 16.2294 406.913 22.7366 412.712 27.8393C412.993 28.1202 413.04 28.5415 412.759 28.8692C412.572 29.0097 412.385 29.1033 412.198 29.1033Z" fill="black"/>
<path d="M420.85 28.0265C420.757 28.0265 420.663 28.0265 420.616 27.9797C408.597 23.4856 411.449 10.6117 411.496 10.518C411.59 10.1435 411.964 9.90944 412.385 9.95625C412.759 10.0499 412.993 10.4244 412.946 10.8457C412.853 11.3139 410.374 22.5961 421.177 26.6221C421.552 26.7626 421.739 27.1839 421.598 27.5584C421.458 27.8393 421.177 28.0265 420.85 28.0265Z" fill="black"/>
<path d="M399.944 49.3738C398.681 49.3738 397.746 48.9525 397.045 48.1099C395.174 45.7223 396.53 40.9941 396.67 40.4791C396.764 40.1983 396.998 40.011 397.278 39.9642L417.529 38.1384C417.67 38.1384 417.81 38.1384 417.95 38.2321L427.865 43.7561C428.193 43.9434 428.333 44.4115 428.146 44.7392C427.959 45.0669 427.491 45.2074 427.164 45.0201L417.436 39.5897L407.1 40.526C407.053 41.0409 406.773 42.8199 406.024 44.5988C404.808 47.5481 402.797 49.1866 400.318 49.327C400.178 49.3738 400.038 49.3738 399.944 49.3738ZM397.933 41.3686C397.559 42.8667 397.091 45.8628 398.167 47.2204C398.588 47.7822 399.29 48.0162 400.225 47.9226C404.294 47.6417 405.416 42.2113 405.65 40.6664L397.933 41.3686Z" fill="black"/>
<path d="M410.982 48.9993C410.841 48.9993 410.701 48.9993 410.608 48.9993C409.111 48.9057 407.942 48.2971 407.147 47.2672C405.229 44.7392 406.071 40.3855 406.118 40.1983C406.211 39.8238 406.585 39.5429 406.96 39.6365C407.334 39.7301 407.614 40.1046 407.521 40.4792C407.521 40.526 406.726 44.3647 408.269 46.3777C408.83 47.1268 409.625 47.5013 410.701 47.5481C412.806 47.6885 414.489 46.4246 415.612 43.803C416.547 41.6963 416.781 39.5429 416.781 39.4961C416.828 39.1215 417.155 38.7938 417.576 38.8407C417.95 38.8875 418.278 39.2152 418.231 39.6365C418.231 39.7301 417.95 42.024 416.968 44.3179C415.565 47.4077 413.507 48.9993 410.982 48.9993Z" fill="black"/>
<path d="M411.075 37.1554C410.841 37.1554 410.608 37.0618 410.467 36.8277C410.233 36.5 410.327 36.0318 410.654 35.8446C411.683 35.0956 414.162 34.2061 415.893 35.8914C416.173 36.1723 416.173 36.6404 415.939 36.9213C415.659 37.2022 415.191 37.2022 414.91 36.9681C413.554 35.6573 411.543 37.0149 411.496 37.0618C411.356 37.1086 411.216 37.1554 411.075 37.1554Z" fill="black"/>
<path d="M401.394 37.9513C401.207 37.9513 400.973 37.8576 400.833 37.7172C400.552 37.4363 400.599 36.9682 400.926 36.6873C401.909 35.8446 404.2 34.6743 406.164 36.1723C406.492 36.4064 406.539 36.8745 406.305 37.2022C406.071 37.5299 405.603 37.5767 405.276 37.3427C403.779 36.2191 401.955 37.764 401.862 37.8108C401.721 37.9044 401.534 37.9513 401.394 37.9513Z" fill="black"/>
<path d="M410.748 77.2283C410.654 77.2283 410.561 77.2283 410.467 77.1814C410.093 77.041 409.953 76.6197 410.093 76.2452C413.835 67.5845 413.601 64.4012 412.806 63.2308C412.291 62.5286 411.309 62.2477 409.766 62.435C408.69 62.5286 407.006 62.7159 404.808 62.9967C402.61 63.2776 400.459 62.435 399.009 60.7965C397.559 59.1112 397.091 56.8641 397.653 54.7574L399.336 48.8588C399.43 48.4843 399.851 48.2503 400.225 48.3439C400.599 48.4375 400.833 48.8588 400.739 49.2334L399.056 55.1319C398.588 56.7704 398.962 58.5494 400.085 59.8602C401.207 61.171 402.891 61.7796 404.574 61.5923C406.773 61.3114 408.456 61.1242 409.579 60.9837C411.683 60.7965 413.086 61.2646 413.928 62.3882C415.518 64.5884 414.723 69.1762 411.403 76.8069C411.309 77.041 411.029 77.2283 410.748 77.2283Z" fill="black"/>
<path d="M433.618 45.3946C433.571 45.3946 433.478 45.3946 433.431 45.3478C433.057 45.2542 432.823 44.8329 432.916 44.4584L436.097 33.2698C436.751 30.9291 436.424 28.3543 435.115 26.2944C433.805 24.1878 431.7 22.7834 429.268 22.3152C428.473 22.1748 427.678 22.0343 426.883 21.8939C423.937 21.3321 421.832 20.115 420.663 18.2892C419.307 16.1826 419.166 13.2801 420.148 9.44133C421.131 5.64937 420.944 2.51282 419.634 1.67017C418.558 0.967953 416.594 1.67017 414.068 3.68318C413.928 3.82362 413.694 3.87043 413.507 3.82362C413.32 3.77681 413.133 3.68318 412.993 3.49592C412.993 3.49592 412.572 2.84052 411.73 2.74689C410.795 2.60645 409.625 3.16822 408.316 4.38539C405.136 7.28787 398.588 17.072 406.585 27.2775C406.726 27.4648 406.772 27.6989 406.726 27.9329L403.218 40.4323C403.125 40.8068 402.704 41.0409 402.329 40.9473C401.955 40.8537 401.721 40.4323 401.815 40.0578L405.229 27.9329C396.904 16.9784 403.92 6.49203 407.334 3.35548C408.971 1.85742 410.514 1.20202 411.964 1.38928C412.759 1.48291 413.32 1.85742 413.694 2.18512C416.547 0.0316686 418.792 -0.530102 420.382 0.499811C422.3 1.76379 422.721 5.27486 421.505 9.86265C420.616 13.2333 420.71 15.8081 421.832 17.587C422.768 19.0851 424.498 20.0682 427.07 20.5831C427.819 20.7236 428.614 20.864 429.409 21.0044C432.215 21.5194 434.74 23.2047 436.237 25.639C437.734 28.0734 438.155 31.0227 437.406 33.7847L434.226 44.9733C434.179 45.1606 433.899 45.3946 433.618 45.3946Z" fill="black"/>
<path d="M407.147 52.9786H403.546C403.312 52.9786 403.125 52.885 402.984 52.6977C402.844 52.5105 402.797 52.2764 402.844 52.0891L405.557 41.6964C405.65 41.3219 406.071 41.0878 406.445 41.1814C406.819 41.275 407.053 41.6964 406.96 42.0709L404.481 51.5742H407.147C407.568 51.5742 407.848 51.9019 407.848 52.2764C407.848 52.6509 407.521 52.9786 407.147 52.9786Z" fill="black"/>
<path d="M410.187 57.3323C409.064 57.3323 407.989 56.9577 407.147 56.2555C406.819 56.0215 406.773 55.5533 407.053 55.2256C407.287 54.8979 407.755 54.8511 408.082 55.132C408.69 55.6469 409.438 55.881 410.233 55.881C411.87 55.881 413.274 54.7107 413.601 53.119C413.694 52.7445 414.069 52.4636 414.443 52.5572C414.817 52.6508 415.098 53.0254 415.004 53.3999C414.536 55.6938 412.525 57.3323 410.187 57.3323Z" fill="black"/>
<path d="M429.923 49.3739C429.502 49.3739 429.222 49.0462 429.222 48.6717C429.222 48.2972 429.549 47.9695 429.923 47.9695C430.344 47.9695 430.625 47.6418 430.625 47.2673C430.625 46.8459 430.952 46.5651 431.326 46.5651C431.7 46.5651 432.028 46.8928 432.028 47.2673C432.075 48.3908 431.092 49.3739 429.923 49.3739Z" fill="black"/>
<path d="M401.347 44.6456C401.941 44.6456 402.423 44.1636 402.423 43.5689C402.423 42.9743 401.941 42.4922 401.347 42.4922C400.753 42.4922 400.272 42.9743 400.272 43.5689C400.272 44.1636 400.753 44.6456 401.347 44.6456Z" fill="black"/>
<path d="M411.824 43.9434C412.418 43.9434 412.899 43.4613 412.899 42.8666C412.899 42.272 412.418 41.7899 411.824 41.7899C411.23 41.7899 410.748 42.272 410.748 42.8666C410.748 43.4613 411.23 43.9434 411.824 43.9434Z" fill="black"/>
<path d="M418.699 84.8121C418.652 84.8121 418.605 84.8121 418.558 84.8121C418.371 84.7653 418.184 84.6717 418.044 84.4845L414.349 78.3518C407.708 84.1099 407.427 84.1099 407.1 84.1099C406.445 84.1099 406.071 84.1099 405.463 78.2113C405.416 77.8368 405.697 77.4623 406.118 77.4155C406.492 77.3687 406.866 77.6496 406.913 78.0709C407.053 79.569 407.287 81.3011 407.474 82.2374C408.737 81.2543 411.543 78.8667 414.022 76.6665C414.162 76.526 414.396 76.4792 414.63 76.4792C414.864 76.526 415.004 76.6197 415.144 76.8069L418.886 82.9864L428.006 75.5429C428.333 75.3089 428.754 75.3557 429.035 75.6366C429.269 75.9643 429.222 76.3856 428.941 76.6665L419.166 84.6249C419.026 84.7653 418.886 84.8121 418.699 84.8121Z" fill="black"/>
<path d="M422.58 103.912C422.58 103.912 422.534 103.912 422.58 103.912L410.982 103.304C410.748 103.304 410.561 103.163 410.421 103.023C410.28 102.836 410.234 102.602 410.327 102.414L411.216 99.1841C411.309 98.8564 411.59 98.6224 411.964 98.6692L423.516 99.2778C423.75 99.2778 423.937 99.4182 424.077 99.5586C424.217 99.7459 424.264 99.98 424.171 100.167L423.282 103.397C423.188 103.678 422.908 103.912 422.58 103.912ZM411.964 101.899L422.019 102.414L422.534 100.635L412.478 100.12L411.964 101.899Z" fill="black"/>
<path d="M343.541 252.267H339.94C339.706 252.267 339.519 252.173 339.378 251.986C339.238 251.799 339.191 251.611 339.238 251.377L353.549 181.811C353.643 181.437 354.017 181.156 354.391 181.25C354.765 181.343 355.046 181.718 354.952 182.092L340.828 250.816H343.026L366.832 181.718C366.972 181.343 367.393 181.156 367.767 181.25C368.141 181.39 368.328 181.811 368.235 182.186L344.289 251.752C344.102 252.08 343.868 252.267 343.541 252.267Z" fill="black"/>
<path d="M412.198 252.267H408.597C408.222 252.267 407.942 251.986 407.895 251.658L398.12 182.092C398.074 181.718 398.354 181.343 398.728 181.296C399.149 181.249 399.477 181.53 399.523 181.905L409.205 250.862H411.45L409.298 182.186C409.298 181.764 409.579 181.437 410 181.437C410.374 181.437 410.701 181.764 410.701 182.139L412.853 251.564C412.853 251.752 412.806 251.939 412.666 252.079C412.572 252.173 412.385 252.267 412.198 252.267Z" fill="black"/>
<path d="M462.054 252.267H458.452C458.125 252.267 457.891 252.079 457.751 251.799L433.524 182.233C433.384 181.858 433.571 181.437 433.992 181.296C434.366 181.156 434.787 181.343 434.928 181.764L458.967 250.862H461.165L445.357 182.186C445.264 181.811 445.497 181.39 445.918 181.296C446.292 181.203 446.713 181.437 446.807 181.858L462.849 251.424C462.895 251.658 462.849 251.845 462.708 252.033C462.568 252.22 462.287 252.267 462.054 252.267Z" fill="black"/>
<path d="M339.659 116.178C339.519 116.178 339.378 116.178 339.285 116.131C338.817 115.99 338.303 115.522 338.303 114.258C338.303 113.837 338.209 113.603 338.116 113.556C337.788 113.416 336.479 113.977 334.889 115.803C334.608 116.084 334.187 116.131 333.86 115.897C333.579 115.616 333.532 115.195 333.766 114.867C335.169 113.228 337.18 111.684 338.63 112.199C339.051 112.339 339.753 112.807 339.753 114.258C339.753 114.492 339.753 114.633 339.799 114.726C340.173 114.586 341.156 113.837 342.418 112.011C344.009 109.811 345.037 109.015 345.926 109.296C346.955 109.624 346.955 111.122 346.955 111.684C346.955 112.199 347.049 112.433 347.095 112.526C347.469 112.433 348.732 111.496 350.697 108.079C350.884 107.751 351.351 107.611 351.679 107.798C352.006 107.985 352.146 108.453 351.959 108.781C349.808 112.573 348.031 114.305 346.721 113.931C346.207 113.79 345.552 113.275 345.552 111.684C345.552 111.169 345.505 110.888 345.458 110.747C345.225 110.888 344.663 111.356 343.588 112.807C342.465 114.399 340.922 116.178 339.659 116.178Z" fill="black"/>
<path d="M337.04 122.779C336.713 122.779 336.432 122.591 336.338 122.264C336.245 121.889 336.432 121.468 336.853 121.374L353.456 116.693C353.83 116.599 354.251 116.786 354.344 117.208C354.438 117.582 354.251 118.003 353.83 118.097L337.227 122.779C337.18 122.779 337.087 122.779 337.04 122.779Z" fill="black"/>
<path d="M340.267 125.775C339.94 125.775 339.659 125.587 339.565 125.26C339.472 124.885 339.659 124.464 340.08 124.37L354.532 120.297C354.906 120.204 355.327 120.391 355.42 120.812C355.514 121.187 355.327 121.608 354.906 121.702L340.454 125.775C340.407 125.775 340.36 125.775 340.267 125.775Z" fill="black"/>
<path d="M343.868 128.724C343.541 128.724 343.26 128.537 343.167 128.209C343.073 127.834 343.26 127.413 343.681 127.32L355.654 123.949C356.028 123.855 356.449 124.043 356.543 124.464C356.636 124.838 356.449 125.26 356.028 125.353L344.055 128.724C344.009 128.677 343.915 128.724 343.868 128.724Z" fill="black"/>
<path d="M429.549 43.9434C429.502 43.9434 429.409 43.9434 429.362 43.8966C428.988 43.803 428.754 43.3816 428.894 43.0071L430.718 36.8745C430.812 36.4999 431.233 36.2659 431.607 36.4063C431.981 36.4999 432.215 36.9213 432.075 37.2958L430.251 43.4284C430.157 43.7561 429.877 43.9434 429.549 43.9434Z" fill="black"/>
</svg>
