<svg width="600" height="400" viewBox="0 0 424 223" fill="none" xmlns="http://www.w3.org/2000/svg">
<path d="M133.08 155.358C119.179 141.517 110.135 125.558 111.066 108.374C111.995 91.2078 122.897 72.4949 149.625 53.1785C176.405 33.8241 202.865 23.0576 224.507 24.0649C235.302 24.5673 244.889 27.9963 252.76 34.745C260.638 41.4996 266.864 51.6389 270.824 65.6732C278.811 93.9791 284.907 129.418 280.547 157.865C278.369 172.08 273.594 184.455 265.233 193.338C256.897 202.195 244.902 207.681 228.061 207.963C194.088 208.531 177.701 202.555 166.187 193.018C160.395 188.22 155.792 182.487 150.78 176.077C150.464 175.673 150.146 175.265 149.826 174.855C145.091 168.79 139.929 162.179 133.08 155.358L132.374 156.067L133.08 155.358Z" stroke="#F3F1ED" stroke-width="2"/>
<path d="M219.3 70.0001C219.3 70.0001 216.5 71.6001 208.9 70.8001C201.3 70.0001 196.9 66.8001 194.5 72.0001C192.2 77.2001 201.8 92.0001 201.8 92.0001H197C197 89.5001 194.9 87.4001 192.4 87.4001C189.9 87.4001 187.8 89.5001 187.8 92.0001C187.8 94.5001 189.9 96.6001 192.4 96.6001" stroke="black" vector-effect="non-scaling-stroke" stroke-width="1.6726" stroke-miterlimit="10" stroke-linecap="round" stroke-linejoin="round"/>
<path d="M198.7 123.2L191.2 96.6001" stroke="black" vector-effect="non-scaling-stroke" stroke-width="1.6726" stroke-miterlimit="10" stroke-linecap="round" stroke-linejoin="round"/>
<path d="M218.5 57.3C218.5 57.3 219.3 64.9001 212.5 70.9001" stroke="black" vector-effect="non-scaling-stroke" stroke-width="1.6726" stroke-miterlimit="10" stroke-linecap="round" stroke-linejoin="round"/>
<path d="M212.6 51.3C212.6 51.3 215.8 64.9 203 69.6" stroke="black" vector-effect="non-scaling-stroke" stroke-width="1.6726" stroke-miterlimit="10" stroke-linecap="round" stroke-linejoin="round"/>
<path d="M195.6 88.4999L206.6 82.3999L228.9 84.3999C228.9 84.3999 231.7 93.5999 225.7 93.1999C219.7 92.7999 218.9 83.9999 218.9 83.9999" stroke="black" vector-effect="non-scaling-stroke" stroke-width="1.6726" stroke-miterlimit="10" stroke-linecap="round" stroke-linejoin="round"/>
<path d="M218.5 84C218.5 84 220.2 92.4 214.3 92.8C207.8 93.2 206.7 83.2 206.7 83.2" stroke="black" vector-effect="non-scaling-stroke" stroke-width="1.6726" stroke-miterlimit="10" stroke-linecap="round" stroke-linejoin="round"/>
<path d="M213.8 79.6999C213.8 79.6999 211 77.7999 209 79.6999" stroke="black" vector-effect="non-scaling-stroke" stroke-width="1.6726" stroke-miterlimit="10" stroke-linecap="round" stroke-linejoin="round"/>
<path d="M224.5 80.6C224.5 80.6 221.9 78.4 219.7 80.1" stroke="black" vector-effect="non-scaling-stroke" stroke-width="1.6726" stroke-miterlimit="10" stroke-linecap="round" stroke-linejoin="round"/>
<path d="M226 93.6001L227.8 100.1C229.1 104.5 225.4 108.8 220.8 108.2C218.7 107.9 216.7 107.7 215.3 107.6C210.9 107.2 207.7 109.2 214.1 123.9" stroke="black" vector-effect="non-scaling-stroke" stroke-width="1.6726" stroke-miterlimit="10" stroke-linecap="round" stroke-linejoin="round"/>
<path d="M189 88.7999L185.5 76.3999C183.8 70.4999 187.6 64.3999 193.7 63.2999C194.6 63.0999 195.4 62.9999 196.3 62.7999C202.7 61.5999 205.1 57.5999 203.1 49.9999C201.1 42.3999 203.1 36.3999 211.1 42.7999C211.1 42.7999 213.1 39.5999 217.5 43.5999C221.9 47.5999 228.3 58.7999 219.5 69.8999L223.4 83.6999" stroke="black" vector-effect="non-scaling-stroke" stroke-width="1.6726" stroke-miterlimit="10" stroke-linecap="round" stroke-linejoin="round"/>
<path d="M219.1 85.7L222.1 97.0999H218.2" stroke="black" vector-effect="non-scaling-stroke" stroke-width="1.6726" stroke-miterlimit="10" stroke-linecap="round" stroke-linejoin="round"/>
<path d="M191.4 91.6001C191.4 92.5001 192.1 93.2001 193 93.2001" stroke="black" vector-effect="non-scaling-stroke" stroke-width="1.6726" stroke-miterlimit="10" stroke-linecap="round" stroke-linejoin="round"/>
<path d="M224.5 88.9C225.218 88.9 225.8 88.318 225.8 87.6C225.8 86.8821 225.218 86.3 224.5 86.3C223.782 86.3 223.2 86.8821 223.2 87.6C223.2 88.318 223.782 88.9 224.5 88.9Z" fill="black"/>
<path d="M213 88.1C213.718 88.1 214.3 87.518 214.3 86.8C214.3 86.082 213.718 85.5 213 85.5C212.282 85.5 211.7 86.082 211.7 86.8C211.7 87.518 212.282 88.1 213 88.1Z" fill="black"/>
<path d="M193.4 87.1999L191.4 80.3999" stroke="black" vector-effect="non-scaling-stroke" stroke-width="1.6726" stroke-miterlimit="10" stroke-linecap="round" stroke-linejoin="round"/>
<path d="M204.8 221.8V124.3" stroke="black" vector-effect="non-scaling-stroke" stroke-width="1.6726" stroke-miterlimit="10" stroke-linecap="round" stroke-linejoin="round"/>
<path d="M193.1 124.1L198.9 132.9L204.8 124.5L210.7 132.9L216.5 124.1" stroke="black" vector-effect="non-scaling-stroke" stroke-width="1.6726" stroke-miterlimit="10" stroke-linecap="round" stroke-linejoin="round"/>
<path d="M228.2 156.5H211.9V161.1H228.2V156.5Z" stroke="black" vector-effect="non-scaling-stroke" stroke-width="1.6726" stroke-miterlimit="10" stroke-linecap="round" stroke-linejoin="round"/>
<path d="M235.6 153.1C246.7 161.8 259.7 171.7 266.6 176.9C269.4 179 273.4 178.6 275.8 176C281.3 170.1 288.1 160.7 295.1 148.7C302.7 135.8 307 127 311.2 120.7C315.5 114.4 320.1 106.8 320.1 106.8" stroke="black" vector-effect="non-scaling-stroke" stroke-width="1.6726" stroke-miterlimit="10" stroke-linecap="round" stroke-linejoin="round"/>
<path d="M216.5 100.4C216.5 100.4 212.7 100.4 210.6 97.8999C210.6 97.8999 210.2 101.7 213.1 103.3" stroke="black" vector-effect="non-scaling-stroke" stroke-width="1.6726" stroke-miterlimit="10" stroke-linecap="round" stroke-linejoin="round"/>
<path d="M164.3 207.9C169 165.4 175.2 153.5 175.2 153.5L174.5 215" stroke="black" vector-effect="non-scaling-stroke" stroke-width="1.6726" stroke-miterlimit="10" stroke-linecap="round" stroke-linejoin="round"/>
<path d="M151.7 198.1C153.6 182.5 155.2 171.5 157.1 161.2C161.2 138.6 165.8 124.2 189.6 124.2H221C229.6 124.2 236.3 131.5 235.7 140C234.6 155.5 232.6 221.3 232.6 222.1" stroke="black" vector-effect="non-scaling-stroke" stroke-width="1.6726" stroke-miterlimit="10" stroke-linecap="round" stroke-linejoin="round"/>
<path d="M305.4 111.5C305.4 111.5 308.4 102.4 309.3 98.8" stroke="black" vector-effect="non-scaling-stroke" stroke-width="1.6726" stroke-miterlimit="10" stroke-linecap="round" stroke-linejoin="round"/>
<path d="M308.6 111.9C308.6 111.9 311.4 106.3 313.7 99.8" stroke="black" vector-effect="non-scaling-stroke" stroke-width="1.6726" stroke-miterlimit="10" stroke-linecap="round" stroke-linejoin="round"/>
<path d="M311.5 113.5C311.5 113.5 315.9 105.3 317.3 102.1" stroke="black" vector-effect="non-scaling-stroke" stroke-width="1.6726" stroke-miterlimit="10" stroke-linecap="round" stroke-linejoin="round"/>
<path d="M230.8 127.7C230.8 127.7 252.5 144 269.7 159C269.7 159 286.7 140.3 293.4 130.4C300.1 120.5 301.9 112.4 301.2 105.9" stroke="black" vector-effect="non-scaling-stroke" stroke-width="1.6726" stroke-miterlimit="10" stroke-linecap="round" stroke-linejoin="round"/>
<path d="M296.9 124.9L305.7 129.9" stroke="black" vector-effect="non-scaling-stroke" stroke-width="1.6726" stroke-miterlimit="10" stroke-linecap="round" stroke-linejoin="round"/>
<path d="M292.7 132.2L301.1 137.7" stroke="black" vector-effect="non-scaling-stroke" stroke-width="1.6726" stroke-miterlimit="10" stroke-linecap="round" stroke-linejoin="round"/>
<path d="M300.8 127.2L296.5 134.7" stroke="black" vector-effect="non-scaling-stroke" stroke-width="1.6726" stroke-miterlimit="10" stroke-linecap="round" stroke-linejoin="round"/>
<path d="M12.5789 187.412L1.3589 131.78C1.15532 130.77 1.75151 129.771 2.7366 129.471L74.4084 107.637C75.5322 107.295 76.7076 107.99 76.9487 109.14L89.1116 167.148C89.3295 168.187 88.6974 169.215 87.6718 169.49L15.0572 188.949C13.9425 189.247 12.8071 188.543 12.5789 187.412Z" stroke="black" vector-effect="non-scaling-stroke" stroke-width="2" stroke-linejoin="round"/>
<path d="M80.9254 49.8218C92.1374 45.9008 107.819 49.3083 109.41 32.0373C111.415 10.2718 77.6647 10.051 58.0974 18.213C42.7471 24.616 28.5364 41.991 31.4699 58.6845C35.0151 78.8587 48.3778 77.9406 55.5358 76.0752C67.2737 73.0163 70.226 53.5636 80.9254 49.8218Z" stroke="#FF766A" stroke-width="2" stroke-linecap="round" stroke-linejoin="round"/>
<path d="M337.978 150.653C337.435 174.742 350.989 193.949 384.106 190.699C417.222 187.448 404.065 148.811 407.279 129.564C411.206 106.04 429.125 76.3734 401.487 73.3292C373.85 70.285 369.555 84.6412 366.034 103.837C362.513 123.033 338.521 126.564 337.978 150.653Z" stroke="#FF766A" stroke-width="2" stroke-linejoin="round"/>
<path d="M320.649 7.22093L344.901 40.5386M315.797 34.5836L348.958 10.8058" stroke="black" vector-effect="non-scaling-stroke" stroke-width="2" stroke-linecap="round" stroke-linejoin="round"/>
</svg>
