<svg height="400" viewBox="0 0 400 400" width="400" xmlns="http://www.w3.org/2000/svg"><g fill="#0a0b09" fill-rule="evenodd" transform="translate(51 34)"><path d="m251.392136 95.8355237-5.407136 18.2504763c-5.821-1.941-13.581 0-13.581 0-10.67 3.881-10.67 16.491-10.67 16.491h-11.641c-.971-31.042 2.91-43.652 7.761-53.353 4.849-9.701 13.58-13.582 20.371-16.492 6.79-2.91 13.581-10.67 13.581-10.67 3.88 9.701 3.88 16.491 3.88 22.311 0 1.0918453-.068289 2.3201636-.17925 3.5953445l-14.20375 6.2146555c-1.012.442-1.474 1.622-1.03 2.633.328.751 1.062 1.2 1.833 1.2.267 0 .54-.055.8-.169l12.066655-5.2792104c-.553658 3.9579602-1.227655 7.3262104-1.227655 7.3262104l-.866778 2.9255983-13.516222 5.9134017c-1.011.443-1.473 1.622-1.03 2.634.328.751 1.063 1.199 1.833 1.199.268 0 .54-.054.801-.169z"/><path d="m124.728 330c-.283 0-.571-.049-.852-.15-1.298-.471-1.97-1.905-1.499-3.203l20.628-56.933c.471-1.298 1.906-1.968 3.202-1.499 1.298.47 1.97 1.904 1.499 3.202l-20.628 56.934c-.368 1.016-1.328 1.649-2.35 1.649"/><path d="m165.47 303.808c-.15 0-.299-.014-.447-.04-.684-.125-1.286-.529-1.66-1.115l-18.334-28.691-28.238 28.146c-.651.65-1.608.887-2.487.623-.881-.266-1.545-.995-1.728-1.896l-6.562-32.339c-.275-1.352.599-2.673 1.953-2.947 1.355-.273 2.674.599 2.947 1.953l5.639 27.785 27.146-27.059c.537-.535 1.288-.795 2.037-.714.752.083 1.427.502 1.834 1.139l18.557 29.04 41.497-31.046c1.106-.826 2.673-.601 3.5.504.827 1.107.602 2.673-.504 3.5l-43.652 32.659c-.436.325-.962.498-1.498.498"/><path d="m75.038 106.095c-3.459 13.567-2.859 23.903 1.757 29.966 2.92 3.833 7.365 5.777 13.213 5.777 15.089 0 27.149-12.977 33.376-35.743zm65.277 0c-3.773 14.695-3.167 25.853 1.773 32.341 3.19 4.189 8.12 6.312 14.654 6.312 16.635 0 29.843-14.036 36.534-38.653zm16.427 43.653c-8.063 0-14.506-2.864-18.631-8.282-5.745-7.544-6.75-19.73-2.949-35.371h-6.603c-9.521 36.722-30.057 40.743-38.551 40.743-7.387 0-13.331-2.679-17.19-7.748-5.805-7.622-6.536-20.126-2.113-36.16.299-1.084 1.285-1.835 2.41-1.835h53.438.105 11.679.11 58.05c.767 0 1.49.351 1.964.953.475.602.647 1.388.467 2.134-6.99 28.958-22.366 45.566-42.186 45.566z"/><path d="m134.368 155.568h-29.101c-.866 0-1.671-.448-2.127-1.185-.455-.738-.497-1.657-.11-2.433l24.251-48.503c.619-1.235 2.119-1.736 3.355-1.118 1.234.618 1.735 2.119 1.118 3.355l-22.442 44.884h25.056c1.381 0 2.5 1.119 2.5 2.5s-1.119 2.5-2.5 2.5"/><path d="m155.694 89.831c-.793 0-1.572-.375-2.057-1.074-.786-1.133-.509-2.687.622-3.475 5.278-3.681 17.595-8.413 26.435.006 1 .952 1.039 2.535.086 3.534-.953 1.002-2.536 1.039-3.534.087-3.321-3.164-7.623-4.096-12.79-2.771-4.151 1.065-7.31 3.227-7.342 3.249-.434.299-.93.444-1.42.444"/><path d="m90.699 87.861c-.793 0-1.571-.375-2.056-1.074-.786-1.133-.509-2.687.622-3.475 5.279-3.679 17.596-8.414 26.434.006 1 .952 1.039 2.535.087 3.534-.953 1.002-2.536 1.04-3.534.087-3.322-3.164-7.624-4.095-12.79-2.771-4.151 1.065-7.31 3.227-7.342 3.249-.434.3-.93.444-1.421.444"/><path d="m159.654 117.864c-2.755 0-5.619-.839-8.093-3.195-1-.952-1.039-2.535-.087-3.534.953-1.002 2.536-1.038 3.534-.087 4.488 4.276 11.124-.199 11.404-.392 1.135-.782 2.692-.499 3.475.636.784 1.133.508 2.684-.622 3.471-2.057 1.433-5.726 3.101-9.611 3.101"/><path d="m163.399 121.579c0 2.144-1.738 3.881-3.881 3.881s-3.88-1.737-3.88-3.881c0-2.143 1.737-3.88 3.88-3.88s3.881 1.737 3.881 3.88"/><path d="m92.72 116.894c-2.756 0-5.619-.838-8.094-3.195-1-.952-1.039-2.535-.087-3.534.952-1.002 2.536-1.038 3.534-.087 4.492 4.277 11.125-.198 11.406-.392 1.135-.781 2.69-.498 3.475.636.783 1.133.507 2.684-.623 3.471-2.057 1.434-5.726 3.101-9.611 3.101"/><path d="m96.464 120.609c0 2.144-1.737 3.88-3.88 3.88s-3.88-1.736-3.88-3.88c0-2.142 1.737-3.88 3.88-3.88s3.88 1.738 3.88 3.88"/><path d="m131.231 269.883c-.343 0-.69-.071-1.022-.22-1.26-.564-1.823-2.044-1.259-3.304 8.841-19.724 11.146-31.997 7.046-37.516-2.758-3.713-8.88-4.898-18.709-3.631-4.616.596-9.869 1.082-15.614 1.444-10.426.651-20.167-3.637-26.703-11.782-6.518-8.124-8.597-18.523-5.703-28.532l12.59-43.548c.383-1.326 1.763-2.095 3.095-1.707 1.327.383 2.091 1.769 1.707 3.096l-12.589 43.547c-2.435 8.424-.686 17.177 4.799 24.015 5.504 6.859 13.698 10.475 22.49 9.921 5.636-.355 10.78-.831 15.288-1.413 11.79-1.521 19.429.313 23.363 5.608 5.423 7.3 3.419 20.421-6.497 42.543-.416.928-1.328 1.479-2.282 1.479"/><path d="m249.745329 92.1902515.756671-2.6162515c.750327-2.5942639 1.337888-5.2056817 1.764854-7.8224114l5.378736-2.3532184c-.400278 3.4063115-1.051627 6.8112034-1.958175 10.1921949zm-1.445576 4.9982021 5.958708-2.606959-5.955461 20.5915054c-.317 1.095-1.316 1.806-2.4 1.806-.23 0-.464-.032-.696-.099-1.326-.384-2.091-1.77-1.707-3.096zm4.554471-20.0595328c1.455223-15.965169-3.010266-31.8687658-12.904224-45.0279208-12.47-16.588-31.525-26.102-52.278-26.102h-4.597c-33.248 0-62.917 22.308-72.15 54.247l-12.605 43.601c-.384 1.326-1.771 2.092-3.096 1.707-1.326-.383-2.091-1.77-1.707-3.096l12.605-43.601c9.848-34.066 41.492-57.858 76.953-57.858h4.597c22.34 0 42.852 10.241 56.275 28.098 10.090761 13.4222755 14.935633 29.4968778 14.08354 45.7670952z"/><path d="m121.755 195.341c-1.31 0-2.41-1.019-2.493-2.344-.086-1.378.961-2.565 2.339-2.651 8.537-.535 13.444-6.384 15.95-10.786-10.624 2.63-23.204 1.285-23.83 1.214-1.371-.152-2.36-1.387-2.208-2.759.151-1.372 1.38-2.371 2.76-2.209.169.018 16.915 1.801 26.822-2.703.891-.403 1.935-.251 2.674.389.738.642 1.035 1.655.759 2.593-.219.742-5.542 18.184-22.615 19.251-.053.003-.106.005-.158.005"/><path d="m239.195 150.538c-4.207 0-8.23-1.294-11.637-3.741-1.122-.806-1.378-2.367-.572-3.488.805-1.123 2.367-1.378 3.488-.573 2.553 1.833 5.568 2.802 8.721 2.802 8.249 0 14.96-6.712 14.96-14.961s-6.711-14.961-14.96-14.961c-8.25 0-14.961 6.712-14.961 14.961 0 1.381-1.12 2.5-2.5 2.5h-11.641c-1.381 0-2.5-1.119-2.5-2.5 0-32.87 0-58.833 26.674-71.143 6.04-2.789 11.322-6.612 15.701-11.364.936-1.013 2.518-1.079 3.533-.144s1.08 2.517.145 3.533c-4.828 5.238-10.643 9.449-17.284 12.514-23.151 10.685-23.753 33.102-23.769 64.104h6.797c1.233-9.831 9.644-17.461 19.805-17.461 11.006 0 19.96 8.954 19.96 19.961s-8.954 19.961-19.96 19.961"/><path d="m120.785 165.269c-.522 0-1.048-.164-1.498-.5-1.104-.829-1.328-2.396-.5-3.5.019-.025 2.41-3.315 2.41-7.231 0-1.381 1.12-2.5 2.5-2.5 1.381 0 2.5 1.119 2.5 2.5 0 5.619-3.27 10.045-3.41 10.231-.491.655-1.242 1-2.002 1"/><path d="m237.254 138.897c-1.381 0-2.5-1.119-2.5-2.5 0-1.38 1.119-2.5 2.5-2.5 2.9 0 5.261-2.36 5.261-5.26 0-1.381 1.119-2.5 2.5-2.5s2.5 1.119 2.5 2.5c0 5.658-4.603 10.26-10.261 10.26"/><path d="m296.425 329.999c-1.238 0-2.314-.919-2.477-2.18l-.995-7.696c-3.696-28.575-28.212-50.124-57.025-50.124h-149.899c-25.367 0-49.155 12.435-63.633 33.262l-17.843 25.665c-.788 1.134-2.348 1.413-3.48.626-1.133-.788-1.414-2.346-.626-3.48l17.843-25.665c15.413-22.172 40.736-35.408 67.739-35.408h149.899c31.319 0 57.967 23.423 61.984 54.483l.995 7.697c.177 1.369-.79 2.623-2.159 2.799-.108.014-.217.021-.323.021"/><path d="m201.864 269.257c-.229 0-.463-.032-.695-.1-1.326-.384-2.091-1.769-1.707-3.096l34.315-118.655c.382-1.326 1.769-2.095 3.095-1.707 1.326.384 2.091 1.77 1.707 3.096l-34.314 118.655c-.317 1.095-1.316 1.807-2.401 1.807"/><path d="m224.462 119.5c-.352 0-.71-.075-1.051-.233l-28-13c-1.252-.581-1.796-2.069-1.215-3.321.582-1.252 2.069-1.796 3.321-1.215l28 13c1.252.581 1.796 2.069 1.215 3.321-.423.911-1.327 1.448-2.27 1.448"/></g></svg>