<svg height="400" viewBox="0 0 400 400" width="400" xmlns="http://www.w3.org/2000/svg"><g fill="none" fill-rule="evenodd" transform="translate(10 32)"><path d="m179.299 127.276s20.4-4.295 23.622 16.107c0 0 12.885 1.074 16.105-12.885 3.222-13.959 0-31.139 1.075-42.949 1.073-11.812 3.22-24.697 7.515-32.213 0 0 24.697 25.77 61.203 17.181 0 0 11.812 13.958 28.992 7.515 0 0-12.885-31.139-36.507-45.097s-54.761-11.811-66.572-10.737c-11.811 1.073-27.917 11.811-34.36 21.475-6.442 9.663-16.106 22.549-11.811 46.171z" fill="#0a0b09"/><path d="m170.172 38.693c-17.18 5.37-30.065 18.254-36.508 53.687-6.442 35.433-13.958 68.72-33.285 85.899-19.327 17.18-54.761 16.107-74.088 0-19.327-16.106-23.623-33.286-23.623-33.286h13.959c-9.663-5.368-11.811-19.327-11.811-19.327l12.885 1.074c-4.295-6.442-5.369-16.106-5.369-16.106s32.212 18.254 48.319-12.885c16.106-31.139 24.525-71.177 53.686-86.973 25.77-13.959 52.613-6.442 64.425 10.738 0 0-8.59 7.515-8.59 17.179" fill="#0a0b09"/><path d="m121.319 71.937c-.139 0-.28-.013-.421-.044-1.08-.231-1.769-1.294-1.537-2.375.213-.994 5.43-24.486 23.794-35.874 6.777-4.202 14.439-6.183 22.882-5.911-5.864-2.202-13.673-3.94-22.044-2.51-11.095 1.892-20.881 8.889-29.082 20.795-.628.909-1.872 1.139-2.782.513-.909-.627-1.139-1.872-.513-2.782 8.849-12.844 19.53-20.406 31.746-22.478 19.097-3.235 34.846 8.093 35.506 8.577.774.566 1.037 1.6.628 2.466-.408.867-1.369 1.326-2.302 1.086-12.252-3.122-22.995-1.896-31.93 3.644-16.934 10.5-21.944 33.086-21.991 33.312-.202.939-1.032 1.581-1.954 1.581" fill="#fffffe"/><g fill="#0a0b09"><path d="m263.977 123.742c0 2.372-1.923 4.295-4.295 4.295s-4.295-1.923-4.295-4.295 1.923-4.295 4.295-4.295 4.295 1.923 4.295 4.295"/><path d="m186.815 151.252c-4.931 0-8.943-4.012-8.943-8.942 0-1.381 1.119-2.5 2.5-2.5s2.5 1.119 2.5 2.5c0 2.173 1.769 3.942 3.943 3.942 1.38 0 2.5 1.119 2.5 2.5s-1.12 2.5-2.5 2.5"/><path d="m309.758 165.738h-19.327c-1.381 0-2.5-1.119-2.5-2.5s1.119-2.5 2.5-2.5h15.645l-25.485-64.223c-.51-1.284.118-2.737 1.401-3.246 1.286-.51 2.738.118 3.245 1.402l26.844 67.645c.306.77.21 1.641-.255 2.327-.465.685-1.24 1.095-2.068 1.095"/><path d="m290.434 195.655c-.111 0-.221-.007-.333-.021-14.555-1.942-17.615-16.608-17.199-24.092.054-.984.682-1.845 1.603-2.196.919-.353 1.963-.13 2.66.567 8.712 8.711 22.613 7.876 22.755 7.863 1.38-.09 2.57.945 2.666 2.321s-.938 2.569-2.314 2.667c-.567.043-12.16.775-21.982-5.564.907 5.158 3.748 12.314 12.471 13.477 1.369.182 2.33 1.44 2.148 2.808-.168 1.257-1.241 2.17-2.475 2.17"/><path d="m252.699 122.484c-1.166 0-2.209-.82-2.447-2.007-.271-1.354.606-2.671 1.958-2.944.101-.02 10.07-2.073 14.83-6.833.975-.976 2.559-.976 3.535 0 .977.976.977 2.559 0 3.535-5.836 5.838-16.914 8.107-17.382 8.201-.165.033-.331.048-.494.048"/><path d="m315.511 122.668c0 2.372-1.923 4.296-4.295 4.296s-4.295-1.924-4.295-4.296c0-2.371 1.923-4.295 4.295-4.295s4.295 1.924 4.295 4.295"/><path d="m304.234 121.41c-1.166 0-2.209-.82-2.448-2.008-.271-1.353.606-2.671 1.958-2.943.101-.021 10.072-2.073 14.831-6.832.977-.977 2.559-.977 3.536 0 .976.976.976 2.559 0 3.535-5.836 5.837-16.916 8.106-17.384 8.199-.165.033-.33.049-.493.049"/><path d="m185.741 162.525c-10.555 0-19.143-8.587-19.143-19.142 0-10.556 8.588-19.143 19.143-19.143 9.677 0 17.701 7.218 18.968 16.553 3.819-.314 6.513-1.459 8.562-3.6 3.702-3.866 5.341-11.32 4.869-22.156-.508-11.687-.843-23.996.142-34.828 1.07-11.772 3.619-20.537 7.791-26.796.443-.664 1.175-1.076 1.972-1.111.807-.009 1.563.313 2.061.936.203.253 21.017 25.46 57.571 16.316 1.004-.249 2.06.143 2.654.992.367.516 9.301 12.763 26.427 7.801 1.318-.385 2.712.378 3.097 1.706.383 1.326-.38 2.712-1.706 3.096-16.931 4.903-27.489-4.689-30.794-8.377-19.999 4.562-35.365-.458-44.82-5.558-6.655-3.591-11.332-7.663-13.929-10.245-6.689 13.008-6.393 34.65-5.47 55.851.539 12.424-1.506 20.873-6.253 25.831-4.49 4.69-10.425 5.232-14.499 5.232-1.381 0-2.5-1.119-2.5-2.5 0-7.798-6.345-14.143-14.143-14.143s-14.143 6.345-14.143 14.143 6.345 14.142 14.143 14.142c2.834 0 5.568-.835 7.906-2.413 1.143-.773 2.699-.471 3.47.672.774 1.145.472 2.698-.672 3.471-3.167 2.139-6.869 3.27-10.704 3.27"/><path d="m176.916 51.602c-.56 0-1.123-.187-1.589-.572-4.183-3.447-6.582-8.531-6.582-13.947 0-9.964 8.106-18.069 18.07-18.069 6.339 0 12.102 3.231 15.419 8.643.721 1.177.351 2.716-.827 3.438-1.175.721-2.715.352-3.437-.827-2.4-3.916-6.57-6.254-11.155-6.254-7.206 0-13.07 5.863-13.07 13.069 0 3.917 1.736 7.595 4.762 10.09 1.065.878 1.218 2.453.339 3.518-.494.6-1.209.911-1.93.911"/><path d="m63.796 193.233c-14.262 0-28.678-4.343-39.105-13.033-19.728-16.44-24.265-33.867-24.449-34.6-.186-.747-.018-1.539.455-2.145.474-.607 1.202-.962 1.971-.962h7.071c-5.834-6.757-7.319-15.958-7.394-16.447-.116-.757.12-1.526.642-2.085.523-.56 1.275-.843 2.037-.786l8.298.691c-2.685-6.109-3.437-12.618-3.474-12.956-.105-.933.324-1.847 1.108-2.363.784-.517 1.793-.551 2.609-.088.137.077 14.142 7.834 27.494 3.846 7.258-2.167 13.102-7.452 17.371-15.704 4.299-8.311 8.128-17.462 11.83-26.312 10.234-24.462 20.817-49.757 42.887-61.711 28.279-15.318 55.974-5.499 67.675 11.52.783 1.137.494 2.694-.644 3.476-1.138.779-2.693.492-3.477-.644-10.464-15.221-35.461-23.881-61.173-9.955-20.519 11.114-30.755 35.582-40.656 59.244-3.741 8.941-7.609 18.187-12.001 26.678-4.924 9.519-11.794 15.646-20.42 18.21-10.53 3.13-21.009.146-26.795-2.174.729 3.12 2.008 7.245 4.125 10.42.533.798.561 1.832.074 2.658-.489.826-1.403 1.296-2.362 1.22l-9.457-.788c1.187 4.106 3.987 11.132 9.805 14.365.996.553 1.492 1.71 1.206 2.812-.285 1.103-1.28 1.873-2.42 1.873h-10.463c2.172 5.516 8.098 17.507 21.728 28.865 19.145 15.956 52.905 15.984 70.826.053 18.866-16.77 26.133-49.529 32.486-84.478 5.903-32.462 17.333-49.097 38.222-55.625 1.318-.416 2.721.322 3.132 1.639.412 1.319-.322 2.721-1.64 3.132-13.309 4.16-27.85 13.561-34.794 51.748-6.517 35.843-14.027 69.492-34.084 87.32-9.813 8.723-23.951 13.086-38.244 13.086"/><path d="m263.863 267.1c-.973 0-1.898-.573-2.302-1.526-3.994-9.419-7.016-17.983-8.982-25.456-3.047-11.579-1.769-20.456 3.697-25.67 6.955-6.634 20.143-6.963 39.2-.972 3.206 1.006 8.452 1.935 13.053 2.31 9.176.749 17.096-2.016 22.942-7.991 7.868-8.042 11.657-21.606 10.138-36.283-1.051-10.139-4.324-21.189-6.713-29.257l-15.868-50.286c-14.362-45.512-42.049-65.808-89.773-65.808h-3.608c-17.871 0-34.181 8.267-44.747 22.68-10.566 14.414-13.541 32.455-8.164 49.499l8.882 28.148c.416 1.317-.314 2.721-1.631 3.136-1.31.417-2.721-.313-3.136-1.632l-8.883-28.148c-5.862-18.579-2.619-38.246 8.899-53.959 11.519-15.712 29.298-24.724 48.78-24.724h3.608c49.58 0 79.621 22.022 94.54 69.304l15.882 50.328c2.458 8.298 5.807 19.603 6.904 30.203 1.672 16.14-2.64 31.203-11.537 40.296-6.92 7.072-16.224 10.352-26.921 9.478-5.012-.409-10.565-1.4-14.146-2.525-16.947-5.326-28.79-5.388-34.25-.179-5.141 4.904-4.095 14.007-2.312 20.78 1.905 7.242 4.849 15.578 8.749 24.777.539 1.271-.054 2.738-1.326 3.277-.318.135-.649.2-.975.2"/><path d="m166.384 336c-.359 0-.725-.078-1.071-.243-1.247-.593-1.778-2.084-1.185-3.331l11.41-24c.593-1.246 2.083-1.78 3.331-1.185 1.247.593 1.778 2.084 1.185 3.331l-11.41 24c-.428.901-1.325 1.428-2.26 1.428"/><path d="m222.57 267.383c-1.062 0-2.047-.684-2.383-1.751l-33.015-104.931c-.414-1.316.317-2.721 1.635-3.135 1.311-.412 2.721.318 3.135 1.635l33.014 104.931c.414 1.316-.317 2.72-1.635 3.135-.249.078-.501.116-.751.116"/><path d="m241.575 287.079c-17.17 0-33.64-7.295-45.187-20.014-.929-1.022-.853-2.603.17-3.531 1.021-.931 2.603-.852 3.531.17 10.603 11.678 25.724 18.375 41.486 18.375 15.566 0 30.558-6.557 41.134-17.989.937-1.015 2.52-1.077 3.532-.138 1.014.938 1.076 2.52.138 3.532-11.518 12.453-27.85 19.595-44.804 19.595"/><path d="m378.259 336c-1.065 0-2.053-.687-2.386-1.758l-5.749-18.455c-8.949-28.731-35.18-48.035-65.273-48.035h-132.969c-19.647 0-37.794 11.465-46.229 29.209l-17.88 37.611c-.593 1.247-2.083 1.779-3.331 1.185-1.248-.593-1.778-2.084-1.185-3.331l17.88-37.612c9.26-19.477 29.179-32.062 50.745-32.062h132.969c32.294 0 60.444 20.716 70.047 51.549l5.749 18.455c.411 1.317-.326 2.72-1.644 3.13-.247.077-.498.114-.744.114"/></g></g></svg>