<svg height="400" viewBox="0 0 400 400" width="400" xmlns="http://www.w3.org/2000/svg"><g fill="#0a0b09" fill-rule="evenodd" transform="translate(34 27)"><path d="m207.94 67.468s-18.6 25.637-89.48 27.146l2.01 44.238s31.16 71.383 67.36 80.431c36.19 9.049 69.37-12.064 69.37-12.064l8.04 23.124c3.02 8.044 5.03 14.076-2.01 18.097-7.03 4.022-24.13 13.071-45.24 12.065-21.11-1.005-53.29-10.054-76.41-33.178s-33.18-63.341-33.18-63.341 1.01-12.064-11.06-19.102c-12.06-7.037-22.12 3.016-22.12 3.016l-18.6-52.783s-4.02-16.087 9.05-24.13c0 0-8.04-32.173 32.18-48.26l82.44-19.102s21.11-7.037 23.12 14.076 4.53 49.767 4.53 49.767"/><path d="m193.82 280.881c-1.03 0-2-.642-2.36-1.668l-7.78-22c-.46-1.302.23-2.73 1.53-3.191 1.3-.457 2.73.223 3.19 1.525l7.77 22c.46 1.302-.22 2.729-1.52 3.19-.27.097-.56.144-.83.144"/><path d="m188.84 345c-1.02 0-1.98-.631-2.35-1.647l-23.05-63.393c-.47-1.298.2-2.733 1.5-3.204 1.3-.47 2.73.197 3.2 1.495l23.05 63.393c.47 1.298-.2 2.733-1.49 3.205-.29.102-.57.151-.86.151"/><path d="m204.3 309.254c-.52 0-1.04-.164-1.47-.481l-36.11-26.334-14.53 25.551c-.35.606-.93 1.04-1.61 1.198-.68.161-1.39.028-1.97-.363l-41.39-27.984c-1.14-.774-1.44-2.328-.67-3.472.78-1.144 2.33-1.442 3.47-.671l39.15 26.472 14.59-25.637c.35-.619.95-1.058 1.65-1.208.69-.149 1.42.004 1.99.425l35.47 25.865 6.9-24.523c.38-1.329 1.75-2.109 3.09-1.729 1.33.374 2.1 1.755 1.73 3.084l-7.88 27.985c-.22.787-.82 1.417-1.59 1.684-.27.093-.54.138-.82.138"/><path d="m88.18 172.002c-5.81 0-10.54-4.73-10.54-10.543 0-1.381 1.12-2.5 2.5-2.5s2.5 1.119 2.5 2.5c0 3.057 2.48 5.543 5.54 5.543 1.38 0 2.5 1.119 2.5 2.5s-1.12 2.5-2.5 2.5"/><path d="m159.71 146.98c-1.33 0-2.44-1.053-2.5-2.399-.05-1.379 1.02-2.543 2.4-2.599 5.64-.227 12.86-4.628 15.16-6.304 1.12-.812 2.68-.565 3.5.552.81 1.118.56 2.681-.56 3.493-.38.282-9.61 6.921-17.9 7.255-.03.001-.07.002-.1.002"/><path d="m108.27 161.153c1.22 4.741 18.93 70.123 67.74 87.954 45.22 16.527 72.48 5.297 84.71-2.869 2.84-1.898 4.03-5.5 2.89-8.757l-60.65-170.179c-.08-.22-.13-.451-.15-.684l-3.09-49.712c-.2-3.585-1.92-6.912-4.71-9.144-2.78-2.231-6.4-3.172-9.93-2.583-20.88 3.492-60.03 10.787-87.53 20.411-15.89 5.564-26.02 14.919-30.11 27.804-3.04 9.574-1.46 17.513-1.44 17.592.22 1.07-.28 2.159-1.24 2.69-7.47 4.148-11.69 16.536-3.32 33.928.04.074.07.148.1.223l13.4 36.463c2.85-2.036 6.21-3.384 9.84-3.784 6-.667 12 1.248 16.47 5.245 4.38 3.929 6.93 9.526 7.02 15.402zm111.31 101.459c-12.63.001-27.68-2.375-45.29-8.807-21.96-8.025-41.2-26.462-55.64-53.32-10.83-20.16-15.13-37.689-15.31-38.425-.04-.192-.07-.389-.07-.586 0-4.573-1.95-8.946-5.36-11.998-3.45-3.094-7.93-4.52-12.58-4-7.38.815-13.34 6.768-14.15 14.154-.52 4.657.9 9.125 4 12.58 3.05 3.408 7.42 5.363 11.99 5.363 2.64 0 5.25-.649 7.56-1.878 1.21-.649 2.73-.187 3.38 1.033.65 1.218.19 2.732-1.03 3.381-3.03 1.612-6.45 2.464-9.91 2.464-5.99 0-11.72-2.561-15.72-7.027-3.99-4.462-5.9-10.464-5.24-16.465.46-4.182 2.18-8.013 4.76-11.104l-14.08-38.313c-4.25-8.868-5.86-17.469-4.65-24.879 1.04-6.337 4.07-11.44 8.61-14.562-.8-7.473-1.41-36.592 35.05-49.352 27.85-9.748 67.31-17.105 88.36-20.624 4.92-.823 9.98.493 13.88 3.61 3.9 3.12 6.29 7.769 6.57 12.755l3.07 49.344 60.54 169.859c1.91 5.423-.08 11.414-4.82 14.581-8.17 5.457-22.61 12.215-43.92 12.216z"/><path d="m174.08 147.478c0 2.155-1.75 3.902-3.91 3.902-2.15 0-3.9-1.747-3.9-3.902s1.75-3.901 3.9-3.901c2.16 0 3.91 1.746 3.91 3.901"/><path d="m209.98 137.933c-1.33 0-2.44-1.054-2.5-2.4-.05-1.379 1.02-2.543 2.4-2.598 5.64-.228 12.86-4.629 15.17-6.306 1.11-.812 2.67-.566 3.49.553.81 1.117.56 2.68-.56 3.492-.38.282-9.61 6.922-17.9 7.257-.03.001-.07.002-.1.002"/><path d="m224.35 138.43c0 2.154-1.75 3.901-3.9 3.901-2.16 0-3.91-1.747-3.91-3.901 0-2.155 1.75-3.902 3.91-3.902 2.15 0 3.9 1.747 3.9 3.902"/><path d="m209.11 209.676c-9.04 0-14.33-3.628-17.19-6.692-3.13-3.359-4.07-6.709-4.16-7.079-.2-.749-.04-1.546.44-2.158.47-.611 1.2-.97 1.98-.97h29.16c1.38 0 2.5 1.119 2.5 2.5s-1.12 2.5-2.5 2.5h-25.21c1.98 2.946 6.26 6.899 14.98 6.899.09 0 .17-.005.27-.001 1.38 0 2.49 1.104 2.5 2.478.02 1.38-1.09 2.51-2.47 2.522-.1.001-.2.001-.3.001"/><path d="m238.49 217.763c-1.03 0-1.99-.64-2.36-1.665l-10.47-29.503h-43.44l-5.63 27.657c-.27 1.353-1.6 2.226-2.95 1.952-1.35-.275-2.22-1.596-1.95-2.948l6.03-29.659c.24-1.165 1.27-2.002 2.45-2.002h47.26c1.06 0 2 .667 2.36 1.664l11.05 31.167c.46 1.301-.21 2.73-1.52 3.192-.27.098-.56.145-.83.145"/><path d="m67.84 345c-.23 0-.46-.032-.69-.099-1.33-.381-2.09-1.765-1.71-3.092l6.37-22.173c.38-1.327 1.77-2.095 3.1-1.712 1.32.381 2.09 1.765 1.71 3.093l-6.38 22.172c-.31 1.097-1.31 1.811-2.4 1.811"/><path d="m126.73 280.477c-1.03 0-1.99-.641-2.35-1.667l-34.85-98.564c-.46-1.302.23-2.729 1.53-3.19 1.3-.457 2.73.222 3.19 1.524l34.84 98.564c.46 1.301-.22 2.729-1.52 3.19-.28.097-.56.143-.84.143"/><path d="m216.37 173.524h-28.15c-1.38 0-2.5-1.119-2.5-2.5 0-1.38 1.12-2.5 2.5-2.5h24.51l-19.31-50.394c-.49-1.289.15-2.736 1.44-3.23 1.29-.492 2.74.153 3.23 1.441l20.61 53.789c.3.768.2 1.633-.27 2.311s-1.24 1.083-2.06 1.083"/><path d="m145.99 131.298c-.5 0-1-.147-1.43-.452-1.13-.791-1.41-2.351-.62-3.482.33-.46 8-11.251 18.41-10.099 1.38.152 2.36 1.388 2.21 2.76s-1.38 2.362-2.76 2.208c-7.37-.802-13.7 7.91-13.76 7.998-.49.695-1.26 1.067-2.05 1.067"/><path d="m208.32 113.2c-.49 0-.99-.146-1.43-.452-1.13-.791-1.4-2.351-.61-3.481.32-.46 8-11.248 18.41-10.1 1.37.152 2.36 1.388 2.21 2.761-.16 1.371-1.37 2.367-2.76 2.208-7.35-.815-13.7 7.91-13.77 7.998-.48.694-1.26 1.066-2.05 1.066"/><path d="m330.42 345c-1.01 0-1.96-.616-2.34-1.616l-4.41-11.651c-11.46-30.284-41.13-50.631-73.84-50.631h-167.43c-17.09 0-33.37 5.336-47.08 15.43-13.71 10.091-23.54 23.979-28.44 40.163l-1.97 6.529c-.4 1.322-1.8 2.069-3.12 1.668s-2.07-1.796-1.67-3.118l1.98-6.528c5.21-17.225 15.67-32.004 30.25-42.74 14.58-10.732 31.88-16.404 50.05-16.404h167.43c34.78 0 66.33 21.646 78.51 53.862l4.41 11.65c.49 1.291-.16 2.735-1.45 3.223-.29.11-.59.163-.88.163"/><path d="m205.77 223.851c-1.18 0-2.36-.019-3.56-.057-24.26-.771-46.9-15.906-65.45-43.772-13.86-20.807-20.52-41.054-20.8-41.907-.06-.212-.1-.432-.11-.655l-2.01-43.233c-.04-.696.22-1.374.71-1.87.49-.497 1.16-.752 1.86-.745.62.027 62.51 1.642 87.57-25.343.94-1.011 2.52-1.071 3.53-.13 1.02.939 1.07 2.521.13 3.533-11.23 12.095-30.06 20.303-55.98 24.395-14.71 2.324-27.37 2.58-32.71 2.578l1.87 40.233c1.86 5.449 28.43 80.231 81.55 81.918 18.82.607 36.12-3.746 51.46-12.908 1.19-.704 2.72-.322 3.43.865.71 1.184.32 2.72-.87 3.428-15.2 9.077-32.21 13.67-50.62 13.67"/></g></svg>