<svg height="250" viewBox="0 0 500 250" width="500" xmlns="http://www.w3.org/2000/svg"><g fill="none" fill-rule="evenodd" stroke-linecap="round" stroke-linejoin="round" stroke-width="4"><g stroke="#000"><path d="m265 178 30 30"/><path d="m295 178-30 30"/><path d="m355 138 30 30"/><path d="m385 138-30 30"/><path d="m340 63c0 44.184-35.816 80-80 80"/><path d="m320 83 20-20 15 23"/><path d="m235 143c0 33.137-26.863 60-60 60s-60-26.863-60-60 26.863-60 60-60 60 26.863 60 60z"/></g><path d="m135 142.870392c15.305-12.082 25.738-12.082 21.566.93-4.175 13.011 6.954 9.293 20.868-2.789s20.175-10.223 18.086 3.718c-2.086 13.942 9.742 8.364 19.48-2.789" stroke="#ff766a"/><path d="m245 43 30 30" stroke="#000"/><path d="m275 43-30 30" stroke="#000"/></g></svg>