<svg height="350" viewBox="0 0 500 350" width="500" xmlns="http://www.w3.org/2000/svg"><g fill="none" fill-rule="evenodd"><path d="m93.193665 87.5710981c99-116.5 283.5-65.5755294 236.934255-11.8434749-46.565746 53.7320548 40.339776 76.5973608 79.702761 29.4326538 39.362984-47.1647083 103.692595.68292 54.362984 77.511134-54.362984 84.667423-128.434114 64.744291-163.5 110.667423-60.5 79.232264-247.8063696-10.530657-207.5-61.267736 35.71975-44.963508-76.1962685-54.834694 0-144.4999999z" fill="#f5f1ed" fill-rule="nonzero"/><g transform="translate(111 88)"><g stroke="#000" stroke-linecap="round" stroke-linejoin="round" stroke-width="4"><path d="m274 170h-48c-2.211 0-4-1.789-4-4v-112c0-2.207 1.789-4 4-4h48c2.211 0 4 1.793 4 4v112c0 2.211-1.789 4-4 4z"/><path d="m222 70h56"/><path d="m222 110h56"/><path d="m222 160h-222v-160h240v50"/><path d="m0 20h240"/><path d="m45 90h150v-50h-150z"/><path d="m45 114h68"/><path d="m45 10h20"/><path d="m230 60h20"/><path d="m45 129h68"/><path d="m45 144h60"/><path d="m232 127h36"/><path d="m232 140h36"/><path d="m232 153h30"/><path d="m127 160h68v-55h-68z"/></g><path d="m231 10c0 1.656-1.344 3-3 3s-3-1.344-3-3 1.344-3 3-3 3 1.344 3 3" fill="#000"/><path d="m219 10c0 1.656-1.344 3-3 3s-3-1.344-3-3 1.344-3 3-3 3 1.344 3 3" fill="#000"/><path d="m207 10c0 1.656-1.344 3-3 3s-3-1.344-3-3 1.344-3 3-3 3 1.344 3 3" fill="#000"/><g stroke-linecap="round" stroke-linejoin="round" stroke-width="4"><path d="m63 64.62023c22-13 37-13 31 1s10 10 30-3 29-11 26 4 14 9 28-3" stroke="#ff766a"/><path d="m230 89.9336911c7.652-6.039 12.871-6.039 10.781.468-2.086 6.504 3.481 4.645 10.438-1.398 6.957-6.039 10.086-5.109 9.043 1.863-1.043 6.969 4.867 4.18 9.738-1.398" stroke="#ff766a"/><path d="m176 134.5c0 8.562-6.938 15.5-15.5 15.5s-15.5-6.938-15.5-15.5 6.938-15.5 15.5-15.5 15.5 6.938 15.5 15.5z" stroke="#000"/></g></g></g></svg>