<svg height="350" viewBox="0 0 700 350" width="700" xmlns="http://www.w3.org/2000/svg"><g fill="none" fill-rule="evenodd"><path d="m623.354037 207.383356c-147.173935 118.386428-648.3779021 24.157978-504.770107-91.544378 83.828801-67.5394389 590.072327 22.927438 504.770107 91.544378z" fill="#f5f1ed" fill-rule="nonzero"/><g stroke-linecap="round" stroke-linejoin="round" stroke-width="4.8" transform="translate(188.5 76)"><g stroke="#000"><path d="m180 162 36 36"/><path d="m216 162-36 36"/><path d="m288 114 36 36"/><path d="m324 114-36 36"/><path d="m270 24c0 53.0208-42.9792 96-96 96"/><path d="m246 48 24-24 18 27.6"/><path d="m144 120c0 39.7644-32.2356 72-72 72s-72-32.2356-72-72 32.2356-72 72-72 72 32.2356 72 72z"/></g><path d="m24 119.84447c18.366-14.4984 30.8856-14.4984 25.8792 1.116-5.01 15.6132 8.3448 11.1516 25.0416-3.3468s24.21-12.2676 21.7032 4.4616c-2.5032 16.7304 11.6904 10.0368 23.376-3.3468" stroke="#ff766a"/><path d="m156 0 36 36" stroke="#000"/><path d="m192 0-36 36" stroke="#000"/></g></g></svg>