<svg height="250" viewBox="0 0 500 250" width="500" xmlns="http://www.w3.org/2000/svg"><g fill="none" fill-rule="evenodd" transform="translate(113 28)"><path d="m185.5 160h-185.5v-160h240v106" stroke="#000" stroke-linecap="round" stroke-linejoin="round" stroke-width="4"/><path d="m0 20h240" stroke="#000" stroke-linecap="round" stroke-linejoin="round" stroke-width="4"/><path d="m45 140h72v-100h-72z" stroke="#000" stroke-linecap="round" stroke-linejoin="round" stroke-width="4"/><path d="m45 10h20" stroke="#000" stroke-linecap="round" stroke-linejoin="round" stroke-width="4"/><path d="m231 10c0 1.656-1.344 3-3 3s-3-1.344-3-3 1.344-3 3-3 3 1.344 3 3" fill="#000"/><path d="m219 10c0 1.656-1.344 3-3 3s-3-1.344-3-3 1.344-3 3-3 3 1.344 3 3" fill="#000"/><path d="m207 10c0 1.656-1.344 3-3 3s-3-1.344-3-3 1.344-3 3-3 3 1.344 3 3" fill="#000"/><g stroke-linecap="round" stroke-linejoin="round" stroke-width="4"><path d="m275 150c0 24.852-20.148 45-45 45s-45-20.148-45-45 20.148-45 45-45 45 20.148 45 45z" stroke="#000"/><path d="m220 160c0 5.523 4.477 10 10 10s10-4.477 10-10-4.477-10-10-10-10-4.477-10-10 4.477-10 10-10 10 4.477 10 10" stroke="#ff766a"/><path d="m131 50.9212942c12.242-7.25 20.59-7.25 17.254.558-3.34 7.805 5.562 5.579 16.695-1.671 11.129-7.25 16.137-6.137 14.469 2.23-1.672 8.363 7.789 5.02 15.582-1.676" stroke="#000"/><path d="m131 75h64" stroke="#000"/><path d="m131 88h64" stroke="#000"/><path d="m131 101h52" stroke="#000"/><path d="m95.039 121-1.039-44 6 8 8-6s-6.48-18-27-18-27 18-27 18l8 6 6-8-1.039 44z" stroke="#000"/><path d="m73 62c1.156 2.992 4.055 5.121 7.457 5.121s6.301-2.129 7.457-5.121" stroke="#000"/><path d="m76 84 5-6 5 6" stroke="#000"/><path d="m230 122v56" stroke="#ff766a"/></g></g></svg>