<svg height="250" viewBox="0 0 500 250" width="500" xmlns="http://www.w3.org/2000/svg"><g fill="none" fill-rule="evenodd" stroke-linecap="round" stroke-linejoin="round" stroke-width="4" transform="translate(125 35)"><path d="m28 72 30-30 20 20 30-30" stroke="#ff766a"/><path d="m93 32h15v15" stroke="#ff766a"/><g stroke="#000"><path d="m134 0h-128c-3.312 0-6 2.688-6 6v88c0 3.312 2.688 6 6 6h39l25 30v-30h64c3.312 0 6-2.688 6-6v-88c0-3.312-2.688-6-6-6z"/><path d="m110 100v44c0 3.312 2.688 6 6 6h64v30l25-30h39c3.312 0 6-2.688 6-6v-88c0-3.312-2.688-6-6-6h-104"/><path d="m188 94c0 7.73-6.27 14-14 14s-14-6.27-14-14 6.27-14 14-14 14 6.27 14 14z"/><path d="m184 104 20 20"/></g></g></svg>