<svg height="350" viewBox="0 0 500 350" width="500" xmlns="http://www.w3.org/2000/svg"><g fill="none" fill-rule="evenodd"><path d="m295 85c-67.593526-77.37680001-239.5-29.5-219 84 12.8023352 70.881222 82.552677 193.746659 133.5 111 74.5-121 169.81076 17.942356 202.5-35 46-74.5-41-73-117-160z" fill="#f5f1ed" fill-rule="nonzero"/><g stroke-linecap="round" stroke-linejoin="round" stroke-width="4" transform="translate(122 85)"><g stroke="#000"><path d="m106 180h120v-180h-120z"/><path d="m256 168-7 12-7-12v-138h14z"/><path d="m0 180h90v-50h-90z"/><path d="m0 114h90v-80h-90z"/><path d="m242 40h14"/></g><path d="m50 146h20" stroke="#000"/><path d="m50 156h24" stroke="#000"/><path d="m126 65h80" stroke="#000"/><path d="m249 50v110" stroke="#f07e70"/><g stroke="#000"><path d="m126 76h80"/><path d="m126 87h80"/><path d="m126 98h80"/><path d="m126 109h60"/><path d="m50 164h24"/></g><g transform="translate(13 20)"><g stroke="#f07e70"><path d="m54 54c0 12.15-9.85 22-22 22s-22-9.85-22-22 9.85-22 22-22 22 9.85 22 22z"/><path d="m24 60 8-12 8 12"/><path d="m24 135c0 6.627-5.373 12-12 12s-12-5.373-12-12 5.373-12 12-12 12 5.373 12 12z"/><path d="m7.6367 138.2725 4.363-6.545 4.364 6.545"/><path d="m137 12c0 6.627-5.373 12-12 12s-12-5.373-12-12 5.373-12 12-12 12 5.373 12 12z"/><path d="m120.6367 15.2729 4.363-6.546 4.364 6.546"/></g><path d="m113 113.3311c6.887-4.077 11.583-4.077 9.704.314-1.878 4.392 3.131 3.137 9.392-.941 6.26-4.078 9.078-3.45 8.138 1.255-.938 4.705 4.383 2.823 8.766-.941" stroke="#000"/></g></g></g></svg>