<svg height="350" viewBox="0 0 500 350" width="500" xmlns="http://www.w3.org/2000/svg"><g fill="none" fill-rule="evenodd"><path d="m404.618108 240.451717c-48 81-106-83-186 44.5-40.650919 64.787402-190.3264824-70.952442-132.5000003-152.5 66.9498793-94.4134749 162.3107603-7.057644 195.0000003-59.9999998 46-74.50000001 203.72235 32.6247838 123.5 167.9999998z" fill="#f5f1ed" fill-rule="nonzero"/><g stroke-linecap="round" stroke-linejoin="round" stroke-width="4" transform="translate(125 73)"><path d="m28 72 30-30 20 20 30-30" stroke="#ff766a"/><path d="m93 32h15v15" stroke="#ff766a"/><g stroke="#000"><path d="m134 0h-128c-3.312 0-6 2.688-6 6v88c0 3.312 2.688 6 6 6h39l25 30v-30h64c3.312 0 6-2.688 6-6v-88c0-3.312-2.688-6-6-6z"/><path d="m110 100v44c0 3.312 2.688 6 6 6h64v30l25-30h39c3.312 0 6-2.688 6-6v-88c0-3.312-2.688-6-6-6h-104"/><path d="m188 94c0 7.73-6.27 14-14 14s-14-6.27-14-14 6.27-14 14-14 14 6.27 14 14z"/><path d="m184 104 20 20"/></g></g></g></svg>