<svg height="350" viewBox="0 0 500 350" width="500" xmlns="http://www.w3.org/2000/svg"><g fill="none" fill-rule="evenodd"><path d="m414.2722 199.083138c-89.495017 117.204839-394.2722 23.916862-306.945718-90.630695 50.975466-66.8653429 358.817156 22.698604 306.945718 90.630695z" fill="#f5f1ed" fill-rule="nonzero"/><g stroke-linecap="round" stroke-linejoin="round" stroke-width="4" transform="translate(115 83)"><g stroke="#000"><path d="m150 135 30 30"/><path d="m180 135-30 30"/><path d="m240 95 30 30"/><path d="m270 95-30 30"/><path d="m225 20c0 44.184-35.816 80-80 80"/><path d="m205 40 20-20 15 23"/><path d="m120 100c0 33.137-26.863 60-60 60s-60-26.863-60-60 26.863-60 60-60 60 26.863 60 60z"/></g><path d="m20 99.8703916c15.305-12.082 25.738-12.082 21.566.9300004-4.175 13.011 6.954 9.293 20.868-2.7890004 13.914-12.082 20.175-10.223 18.086 3.7180004-2.086 13.942 9.742 8.364 19.48-2.7890004" stroke="#ff766a"/><path d="m130 0 30 30" stroke="#000"/><path d="m160 0-30 30" stroke="#000"/></g></g></svg>