<svg height="91" viewBox="0 0 381 91" width="381" xmlns="http://www.w3.org/2000/svg"><path d="m22 73c23.6475329-16.5719803 46.2559387-34.7066862 70.9425988-49.7159408 1.8502903-1.1249589 4.4846319 1.3353915 5.702613 3.1163809 6.9561502 10.1716102 11.8286132 31.6844269 27.0291492 35.6615815 4.295812 1.1239807 8.787687 1.4493015 13.226828 1.6312674 27.883135 1.1429647 30.341685-27.6719897 52.726579-36.9156772 2.198068-.9076771 4.856566.3247509 7.020064 1.3106716 5.560929 2.5341532 10.242838 6.7776552 15.885511 9.1275544 12.612713 5.2525831 25.611486 9.5915486 38.681694 13.5970387 17.934076 5.4960686 58.329632 22.3776877 76.954361 5.3746963 2.867918-2.6181952 2.431395-7.6541778 5.179438-10.3957942 1.056142-1.0536722 3.062681.1878178 4.418455.8203484 3.08262 1.4381841 5.449997 4.3178262 8.708494 5.3039766 2.402066.7269605 5.016143-.260877 7.524215-.3913156" fill="none" stroke="#ff766a" stroke-width="5"/></svg>
