<svg height="400" viewBox="0 0 400 400" width="400" xmlns="http://www.w3.org/2000/svg"><g fill="#0a0b09" fill-rule="evenodd" transform="translate(46 39)"><path d="m82.18 317.499s10.5-26.5 18.5-38.5c0 0-24-2-38.001 0-14 2-29 7-41 17s-18.5 21.5-18.5 21.5 20 4 42 0 37.001 0 37.001 0"/><path d="m305.18 318.499s-1-21-13-30-19-10-38-10l-14-1s-10 16-51 15c0 0-3 20-25 25 0 0 34 4 75 0s66 1 66 1"/><path d="m216.18 125.018c-1.38 0-2.5-1.12-2.5-2.5 0-1.381 1.12-2.5 2.5-2.5.83 0 1.5-.673 1.5-1.5 0-1.381 1.12-2.5 2.5-2.5s2.5 1.119 2.5 2.5c0 3.584-2.92 6.5-6.5 6.5"/><path d="m66.229 108.999h40.951l2.82-12.5h-41.271zm71.371 0h44.14l3.21-12.5h-45.4zm46.08 5h-49c-.73 0-1.43-.319-1.9-.874-.48-.556-.68-1.29-.57-2.012l2.28-14.614h-19.36c0 .017-.01.034-.01.051l-3.5 15.5c-.26 1.139-1.27 1.949-2.44 1.949h-46.001c-.749 0-1.459-.336-1.934-.915-.474-.579-.665-1.341-.517-2.075l3.5-17.5c.233-1.169 1.259-2.01 2.451-2.01h121.501c.77 0 1.5.357 1.97.968.48.611.64 1.406.45 2.155l-4.5 17.5c-.28 1.105-1.28 1.877-2.42 1.877z"/><path d="m127.68 139.499h-14c-.77 0-1.49-.35-1.96-.949-.48-.599-.65-1.382-.47-2.126l13-55c.31-1.344 1.66-2.176 3-1.858 1.35.318 2.18 1.664 1.86 3.008l-12.27 51.925h10.84c1.38 0 2.5 1.119 2.5 2.5s-1.12 2.5-2.5 2.5"/><path d="m135.01 47.268c-.19 0-.39-.022-.58-.068-1.34-.317-2.17-1.664-1.86-3.008l4.68-19.768c.31-1.344 1.66-2.178 3-1.858 1.35.318 2.18 1.664 1.86 3.008l-4.67 19.769c-.27 1.15-1.3 1.925-2.43 1.925"/><path d="m151.07 47.225c-.19 0-.38-.023-.57-.069-1.35-.317-2.18-1.664-1.86-3.008l5.61-23.724c.31-1.344 1.66-2.178 3-1.858 1.35.318 2.18 1.664 1.86 3.008l-5.61 23.725c-.27 1.15-1.29 1.926-2.43 1.926"/><path d="m179.9 49.742c-.19 0-.39-.022-.58-.068-1.34-.318-2.18-1.664-1.86-3.008l4.79-20.242c.31-1.344 1.66-2.179 3-1.858 1.35.318 2.18 1.664 1.86 3.008l-4.78 20.242c-.27 1.151-1.3 1.926-2.43 1.926"/><path d="m219.68 66.499c-.59 0-1.17-.203-1.65-.618-30.77-26.923-109.71-16.268-110.51-16.156-1.36.189-2.63-.763-2.82-2.13-.19-1.368.77-2.631 2.13-2.822.21-.028 20.62-2.827 44.67-2.148 32.61.93 56.11 7.487 69.83 19.492 1.03.909 1.14 2.489.23 3.528-.49.565-1.19.854-1.88.854"/><path d="m210.68 107.5c-.36 0-.73-.079-1.08-.246l-23-11c-1.25-.596-1.77-2.088-1.18-3.334.6-1.245 2.09-1.775 3.34-1.176l23 11c1.24.596 1.77 2.088 1.17 3.334-.42.898-1.32 1.422-2.25 1.422"/><path d="m130.68 165.499c-1.3 0-2.4-1.005-2.49-2.322-.1-1.377.93-2.574 2.31-2.671 4.88-.349 8.65-3.049 11.21-8.026.45-.877.82-1.748 1.13-2.573-11.38 4.904-23.08 2.656-23.65 2.543-1.35-.27-2.23-1.588-1.96-2.941.27-1.354 1.58-2.229 2.94-1.962.16.033 14.17 2.674 25.12-4.628.81-.54 1.86-.562 2.7-.052.83.51 1.29 1.456 1.17 2.424-.77 6.591-5.6 19.294-18.3 20.201-.06.005-.12.007-.18.007"/><path d="m153.33 98.742c0 2.372 1.92 4.295 4.29 4.295s4.3-1.923 4.3-4.295-1.93-4.295-4.3-4.295-4.29 1.923-4.29 4.295"/><path d="m164.6 97.484c-.16 0-.32-.015-.49-.048-.47-.094-11.55-2.363-17.38-8.201-.98-.976-.98-2.558 0-3.535.97-.976 2.56-.976 3.53 0 3.97 3.965 12.05 6.277 14.83 6.833 1.35.271 2.23 1.588 1.96 2.942-.24 1.188-1.28 2.009-2.45 2.009"/><path d="m93.33 97.742c0 2.372 1.92 4.295 4.29 4.295s4.3-1.923 4.3-4.295-1.93-4.295-4.3-4.295-4.29 1.923-4.29 4.295"/><path d="m104.6 96.484c-.16 0-.32-.015-.49-.048-.47-.094-11.55-2.363-17.38-8.201-.98-.976-.98-2.558 0-3.535.97-.976 2.56-.976 3.53 0 3.97 3.965 12.05 6.277 14.83 6.833 1.35.271 2.23 1.588 1.96 2.942-.24 1.188-1.28 2.009-2.45 2.009"/><path d="m167.79 79.186c-.87 0-1.71-.449-2.17-1.25-2.94-5.096-10.21-2.794-10.52-2.693-1.31.427-2.72-.283-3.15-1.592-.44-1.307.27-2.717 1.57-3.153 3.94-1.317 12.44-1.978 16.43 4.938.69 1.195.28 2.724-.91 3.415-.4.227-.83.335-1.25.335"/><path d="m107.79 78.186c-.87 0-1.71-.449-2.17-1.25-2.94-5.096-10.21-2.794-10.52-2.693-1.31.426-2.72-.283-3.15-1.592-.44-1.307.27-2.717 1.57-3.153 3.94-1.316 12.44-1.978 16.43 4.937.69 1.196.28 2.725-.91 3.416-.4.227-.83.335-1.25.335"/><path d="m89.68 279.499c-1.23 0-2.3-.903-2.48-2.152-3.58-25.551-.2-43.869 10.35-55.998 9.85-11.338 25.93-16.85 49.13-16.85 1.38 0 2.5 1.119 2.5 2.5s-1.12 2.5-2.5 2.5c-21.67 0-36.51 4.949-45.36 15.131-9.41 10.82-12.49 28.323-9.17 52.021.2 1.368-.76 2.632-2.12 2.824-.12.016-.24.024-.35.024"/><path d="m3.167 319.993c-.43 0-.865-.11-1.263-.344-1.191-.699-1.589-2.23-.891-3.422 14.741-25.122 42.002-40.728 71.147-40.728h28.52c1.38 0 2.5 1.119 2.5 2.5s-1.12 2.5-2.5 2.5h-28.52c-27.379 0-52.987 14.66-66.835 38.26-.465.793-1.3 1.234-2.158 1.234"/><path d="m82.18 320c-.33 0-.66-.065-.98-.199-1.27-.54-1.86-2.007-1.32-3.279l8.92-21.047c10.3-24.1 29.19-43.152 53.19-53.65l49.15-21.493 11.69-37.319c.41-1.32 1.82-2.052 3.13-1.639 1.32.413 2.05 1.815 1.64 3.133l-12.03 38.406c-.22.69-.72 1.254-1.39 1.543l-50.18 21.949c-22.84 9.988-40.8 28.11-50.59 51.029l-8.93 21.042c-.41.952-1.33 1.524-2.3 1.524"/><path d="m240.68 276.999h.01zm-80 43c-1.17.001-2.21-.816-2.45-2.001-.28-1.353.6-2.673 1.95-2.948 24.92-5.076 26.99-22.141 27.01-22.313.14-1.272 1.21-2.238 2.49-2.238 37.52 0 47.37-12.528 48.62-14.39l7.16-39.581c1.3-7.165-.63-14.479-5.3-20.067-4.67-5.59-11.52-8.795-18.81-8.795h-22.17c-1.38 0-2.5-1.119-2.5-2.5s1.12-2.5 2.5-2.5h22.17c8.77 0 17.03 3.859 22.65 10.59 5.62 6.728 7.94 15.536 6.38 24.163l-7.24 40.025c-.04.234-.12.46-.22.673-.35.698-8.93 16.862-51.19 17.37-1.44 5.544-7.35 19.735-30.55 24.461-.17.035-.34.051-.5.051z"/><path d="m305.76 319.999c-1.18 0-2.22-.83-2.46-2.025l-1.24-6.452c-3.18-17.993-18.71-31.023-36.94-31.023h-24.94c-1.38 0-2.5-1.119-2.5-2.5s1.12-2.5 2.5-2.5h24.94c20.66 0 38.26 14.768 41.85 35.114l1.24 6.411c.27 1.356-.62 2.667-1.98 2.929-.16.031-.32.046-.47.046"/><path d="m112.68 317.493c-.01 0-.01 0-.01 0-1.38-.007-2.49-1.118-2.49-2.494 0-.214.3-21.41 26.39-22.498 1.4-.061 2.55 1.014 2.61 2.393.05 1.38-1.02 2.545-2.4 2.603-21.2.884-21.6 16.835-21.6 17.514-.01 1.372-1.13 2.482-2.5 2.482"/><path d="m134.68 306.497c-.14 0-.29-.013-.43-.039-1.36-.239-2.27-1.529-2.03-2.888.04-.246 4.47-24.103 28-24.103.52 0 1.04.011 1.57.034 1.38.06 2.45 1.227 2.39 2.606-.06 1.38-1.23 2.428-2.61 2.39-.44-.02-.89-.029-1.31-.029-19.33 0-22.97 19.133-23.12 19.965-.22 1.211-1.27 2.064-2.46 2.064"/><path d="m181.68 258.499c-1.29 0-2.38-.987-2.49-2.292-.02-.255-.48-6.276 3.61-9.811 2.7-2.342 6.55-2.962 11.44-1.833 1.35.31 2.18 1.653 1.87 2.998s-1.64 2.188-2.99 1.874c-3.25-.749-5.62-.5-7.05.742-2.11 1.829-1.9 5.577-1.9 5.614.12 1.376-.91 2.585-2.28 2.699-.07.006-.14.009-.21.009"/><path d="m193.68 258.499c-1.17 0-2.22-.821-2.45-2.01-.07-.355-1.68-8.803 3.64-16.149 3.94-5.438 10.5-8.742 19.51-9.823 1.37-.164 2.62.814 2.78 2.184.17 1.371-.81 2.615-2.18 2.78-7.57.909-12.97 3.53-16.06 7.791-4.06 5.597-2.8 12.171-2.79 12.237.27 1.353-.61 2.671-1.96 2.941-.17.033-.33.049-.49.049"/><path d="m244.68 75.499c-.03 0-.05 0-.08-.001-1.38-.042-2.46-1.194-2.42-2.575.8-26.478-6.92-45.614-22.94-56.879-11.89-8.361-24.06-9.042-24.18-9.048-1.38-.067-2.45-1.239-2.38-2.618s1.24-2.45 2.62-2.376c.56.027 13.75.765 26.82 9.952 21.78 15.311 25.65 41.688 25.06 61.121-.04 1.354-1.15 2.424-2.5 2.424"/><path d="m265.68 57.5c-1.16 0-2.19-.802-2.44-1.974-.1-.442-9.37-40.436-57.95-48.057-1.36-.214-2.29-1.494-2.08-2.858.21-1.363 1.49-2.293 2.86-2.082 27.17 4.263 42.59 18.107 50.73 28.97 8.86 11.804 11.23 22.525 11.32 22.976.29 1.35-.57 2.679-1.92 2.968-.17.038-.35.057-.52.057"/><path d="m149.84 242.999c-1.29 0-2.39-1.004-2.49-2.319-.75-10.346-7.83-17.311-7.9-17.379-.78-.745-.99-1.904-.53-2.872l.71-1.493c4.12-8.689 6.84-14.429 8.65-20.637 2.31-7.91 2.37-13.08.19-15.367-3.77-3.959-16-1.431-28.21 1.498-7.15 1.717-14.88 3.529-22.97 5.384-6.27 1.437-12.72-.427-17.26-4.998s-6.36-11.042-4.87-17.308l13.31-56.033c.32-1.344 1.67-2.175 3.01-1.856s2.17 1.667 1.85 3.01l-13.3 56.033c-1.09 4.574.24 9.297 3.55 12.633 3.31 3.333 8.02 4.696 12.59 3.646 8.07-1.851 15.79-3.66 22.93-5.373 15.25-3.661 27.36-5.992 32.99-.086 3.6 3.774 3.91 10.198.99 20.217-1.92 6.58-4.86 12.776-8.92 21.343 2.41 2.794 7.49 9.731 8.18 19.276.1 1.377-.94 2.575-2.31 2.674-.07.005-.13.007-.19.007"/><path d="m194.09 180.999h73.5l18.09-100.217c3.36-18.568-1.66-37.521-13.76-52.001-12.1-14.478-29.86-22.782-48.73-22.782h-23.23c6.65 2.999 11.94 7.303 15.81 12.89 11.49 16.557 11.05 44.841-1.37 86.377.91-.177 1.84-.267 2.78-.267 7.99 0 14.5 6.505 14.5 14.5s-6.51 14.5-14.5 14.5c-2.69 0-5.31-.754-7.57-2.135zm75.59 5h-79c-.8 0-1.55-.38-2.02-1.022-.47-.643-.61-1.471-.36-2.231l17.65-55.891c.27-.851.97-1.495 1.84-1.687.88-.193 1.78.093 2.39.751 1.79 1.957 4.34 3.08 7 3.08 5.24 0 9.5-4.262 9.5-9.5s-4.26-9.5-9.5-9.5c-1.9 0-3.74.561-5.31 1.621-.88.595-2.04.566-2.89-.066-.86-.636-1.21-1.741-.89-2.754 13.41-42.72 14.58-71.198 3.58-87.062-6.73-9.689-18.03-14.838-34.56-15.739h-8.27c-29.55 0-54.95 20.079-61.78 48.828l-9.51 40.044c-.32 1.344-1.67 2.172-3.01 1.856-1.34-.32-2.17-1.667-1.85-3.01l9.5-40.044c7.37-31.014 34.77-52.674 66.65-52.674h8.32.04 45.99c20.36 0 39.52 8.958 52.57 24.576 13.05 15.619 18.46 36.066 14.84 56.096l-18.46 102.272c-.22 1.191-1.25 2.056-2.46 2.056z"/></g></svg>